  0
SECTION
  2
HEADER
  9
$ACADVER
  1
AC1014
  9
$ACADMAINTVER
 70
     9
  9
$DWGCODEPAGE
  3
CNT
  9
$INSBASE
 10
0.0
 20
0.0
 30
0.0
  9
$EXTMIN
 10
1.000000000000000E+20
 20
1.000000000000000E+20
 30
1.000000000000000E+20
  9
$EXTMAX
 10
-1.000000000000000E+20
 20
-1.000000000000000E+20
 30
-1.000000000000000E+20
  9
$LIMMIN
 10
0.0
 20
0.0
  9
$LIMMAX
 10
12.0
 20
9.0
  9
$ORTHOMODE
 70
     0
  9
$REGENMODE
 70
     1
  9
$FILLMODE
 70
     1
  9
$QTEXTMODE
 70
     0
  9
$MIRRTEXT
 70
     1
  9
$DRAGMODE
 70
     2
  9
$LTSCALE
 40
1.0
  9
$OSMODE
 70
    37
  9
$ATTMODE
 70
     1
  9
$TEXTSIZE
 40
0.2
  9
$TRACEWID
 40
0.05
  9
$TEXTSTYLE
  7
STANDARD
  9
$CLAYER
  8
0
  9
$CELTYPE
  6
BYLAYER
  9
$CECOLOR
 62
   256
  9
$CELTSCALE
 40
1.0
  9
$DELOBJ
 70
     1
  9
$DISPSILH
 70
     0
  9
$DIMSCALE
 40
1.0
  9
$DIMASZ
 40
0.18
  9
$DIMEXO
 40
0.0625
  9
$DIMDLI
 40
0.38
  9
$DIMRND
 40
0.0
  9
$DIMDLE
 40
0.0
  9
$DIMEXE
 40
0.18
  9
$DIMTP
 40
0.0
  9
$DIMTM
 40
0.0
  9
$DIMTXT
 40
0.18
  9
$DIMCEN
 40
0.09
  9
$DIMTSZ
 40
0.0
  9
$DIMTOL
 70
     0
  9
$DIMLIM
 70
     0
  9
$DIMTIH
 70
     1
  9
$DIMTOH
 70
     1
  9
$DIMSE1
 70
     0
  9
$DIMSE2
 70
     0
  9
$DIMTAD
 70
     0
  9
$DIMZIN
 70
     0
  9
$DIMBLK
  1

  9
$DIMASO
 70
     1
  9
$DIMSHO
 70
     1
  9
$DIMPOST
  1

  9
$DIMAPOST
  1

  9
$DIMALT
 70
     0
  9
$DIMALTD
 70
     2
  9
$DIMALTF
 40
25.4
  9
$DIMLFAC
 40
1.0
  9
$DIMTOFL
 70
     0
  9
$DIMTVP
 40
0.0
  9
$DIMTIX
 70
     0
  9
$DIMSOXD
 70
     0
  9
$DIMSAH
 70
     0
  9
$DIMBLK1
  1

  9
$DIMBLK2
  1

  9
$DIMSTYLE
  2
STANDARD
  9
$DIMCLRD
 70
     0
  9
$DIMCLRE
 70
     0
  9
$DIMCLRT
 70
     0
  9
$DIMTFAC
 40
1.0
  9
$DIMGAP
 40
0.09
  9
$DIMJUST
 70
     0
  9
$DIMSD1
 70
     0
  9
$DIMSD2
 70
     0
  9
$DIMTOLJ
 70
     1
  9
$DIMTZIN
 70
     0
  9
$DIMALTZ
 70
     0
  9
$DIMALTTZ
 70
     0
  9
$DIMFIT
 70
     3
  9
$DIMUPT
 70
     0
  9
$DIMUNIT
 70
     2
  9
$DIMDEC
 70
     4
  9
$DIMTDEC
 70
     4
  9
$DIMALTU
 70
     2
  9
$DIMALTTD
 70
     2
  9
$DIMTXSTY
  7
STANDARD
  9
$DIMAUNIT
 70
     0
  9
$LUNITS
 70
     2
  9
$LUPREC
 70
     4
  9
$SKETCHINC
 40
0.1
  9
$FILLETRAD
 40
0.0
  9
$AUNITS
 70
     0
  9
$AUPREC
 70
     0
  9
$MENU
  1
.
  9
$ELEVATION
 40
0.0
  9
$PELEVATION
 40
0.0
  9
$THICKNESS
 40
0.0
  9
$LIMCHECK
 70
     0
  9
$CHAMFERA
 40
0.0
  9
$CHAMFERB
 40
0.0
  9
$CHAMFERC
 40
0.0
  9
$CHAMFERD
 40
0.0
  9
$SKPOLY
 70
     0
  9
$TDCREATE
 40
2460536.45646985
  9
$TDUPDATE
 40
2460536.456470116
  9
$TDINDWG
 40
0.0000000116
  9
$TDUSRTIMER
 40
0.0000000116
  9
$USRTIMER
 70
     1
  9
$ANGBASE
 50
0.0
  9
$ANGDIR
 70
     0
  9
$PDMODE
 70
     0
  9
$PDSIZE
 40
0.0
  9
$PLINEWID
 40
0.0
  9
$COORDS
 70
     1
  9
$SPLFRAME
 70
     0
  9
$SPLINETYPE
 70
     6
  9
$SPLINESEGS
 70
     8
  9
$ATTDIA
 70
     0
  9
$ATTREQ
 70
     1
  9
$HANDLING
 70
     1
  9
$HANDSEED
  5
343
  9
$SURFTAB1
 70
     6
  9
$SURFTAB2
 70
     6
  9
$SURFTYPE
 70
     6
  9
$SURFU
 70
     6
  9
$SURFV
 70
     6
  9
$UCSNAME
  2

  9
$UCSORG
 10
0.0
 20
0.0
 30
0.0
  9
$UCSXDIR
 10
1.0
 20
0.0
 30
0.0
  9
$UCSYDIR
 10
0.0
 20
1.0
 30
0.0
  9
$PUCSNAME
  2

  9
$PUCSORG
 10
0.0
 20
0.0
 30
0.0
  9
$PUCSXDIR
 10
1.0
 20
0.0
 30
0.0
  9
$PUCSYDIR
 10
0.0
 20
1.0
 30
0.0
  9
$USERI1
 70
     0
  9
$USERI2
 70
     0
  9
$USERI3
 70
     0
  9
$USERI4
 70
     0
  9
$USERI5
 70
     0
  9
$USERR1
 40
0.0
  9
$USERR2
 40
0.0
  9
$USERR3
 40
0.0
  9
$USERR4
 40
0.0
  9
$USERR5
 40
0.0
  9
$WORLDVIEW
 70
     1
  9
$SHADEDGE
 70
     3
  9
$SHADEDIF
 70
    70
  9
$TILEMODE
 70
     1
  9
$MAXACTVP
 70
    64
  9
$PINSBASE
 10
0.0
 20
0.0
 30
0.0
  9
$PLIMCHECK
 70
     0
  9
$PEXTMIN
 10
1.000000000000000E+20
 20
1.000000000000000E+20
 30
1.000000000000000E+20
  9
$PEXTMAX
 10
-1.000000000000000E+20
 20
-1.000000000000000E+20
 30
-1.000000000000000E+20
  9
$PLIMMIN
 10
0.0
 20
0.0
  9
$PLIMMAX
 10
12.0
 20
9.0
  9
$UNITMODE
 70
     0
  9
$VISRETAIN
 70
     1
  9
$PLINEGEN
 70
     0
  9
$PSLTSCALE
 70
     1
  9
$TREEDEPTH
 70
  3020
  9
$PICKSTYLE
 70
     1
  9
$CMLSTYLE
  2
STANDARD
  9
$CMLJUST
 70
     0
  9
$CMLSCALE
 40
1.0
  9
$PROXYGRAPHICS
 70
     1
  9
$MEASUREMENT
 70
     1
  0
ENDSEC
  0
SECTION
  2
CLASSES
  0
CLASS
  1
ACDBDICTIONARYWDFLT
  2
AcDbDictionaryWithDefault
  3
ObjectDBX Classes
 90
        0
280
     0
281
     0
  0
CLASS
  1
VISUALSTYLE
  2
AcDbVisualStyle
  3
ObjectDBX Classes
 90
     4095
280
     0
281
     0
  0
CLASS
  1
MATERIAL
  2
AcDbMaterial
  3
ObjectDBX Classes
 90
     1153
280
     0
281
     0
  0
CLASS
  1
SCALE
  2
AcDbScale
  3
ObjectDBX Classes
 90
     1153
280
     0
281
     0
  0
CLASS
  1
TABLESTYLE
  2
AcDbTableStyle
  3
ObjectDBX Classes
 90
     4095
280
     0
281
     0
  0
CLASS
  1
MLEADERSTYLE
  2
AcDbMLeaderStyle
  3
ACDB_MLEADERSTYLE_CLASS
 90
     4095
280
     0
281
     0
  0
CLASS
  1
SUN
  2
AcDbSun
  3
SCENEOE
 90
     1153
280
     0
281
     0
  0
CLASS
  1
DICTIONARYVAR
  2
AcDbDictionaryVar
  3
ObjectDBX Classes
 90
        0
280
     0
281
     0
  0
CLASS
  1
XRECORD
  2
AcDbXrecord
  3
ObjectDBX Classes
 90
        0
280
     0
281
     0
  0
CLASS
  1
LWPOLYLINE
  2
AcDbPolyline
  3
ObjectDBX Classes
 90
        0
280
     0
281
     1
  0
CLASS
  1
HATCH
  2
AcDbHatch
  3
ObjectDBX Classes
 90
        0
280
     0
281
     1
  0
CLASS
  1
ACDBPLACEHOLDER
  2
AcDbPlaceHolder
  3
ObjectDBX Classes
 90
        0
280
     0
281
     0
  0
CLASS
  1
LAYOUT
  2
AcDbLayout
  3
ObjectDBX Classes
 90
        0
280
     0
281
     0
  0
ENDSEC
  0
SECTION
  2
TABLES
  0
TABLE
  2
VPORT
  5
8
102
{ACAD_XDICTIONARY
360
338
102
}
330
0
100
AcDbSymbolTable
 70
     1
  0
VPORT
  5
29
330
8
100
AcDbSymbolTableRecord
100
AcDbViewportTableRecord
  2
*ACTIVE
 70
     0
 10
0.0
 20
0.0
 11
1.0
 21
1.0
 12
0.0
 22
0.0
 13
0.0
 23
0.0
 14
0.5
 24
0.5
 15
0.5
 25
0.5
 16
0.0
 26
0.0
 36
1.0
 17
0.0
 27
0.0
 37
-1000.0
 40
121868.4032746172
 41
1.75609756097561
 42
50.0
 43
193258.5971990399
 44
579775791.5971196
 50
0.0
 51
0.0
 71
     0
 72
   100
 73
     1
 74
     3
 75
     0
 76
     0
 77
     0
 78
     0
  0
ENDTAB
  0
TABLE
  2
LTYPE
  5
5
330
0
100
AcDbSymbolTable
 70
     1
  0
LTYPE
  5
14
330
5
100
AcDbSymbolTableRecord
100
AcDbLinetypeTableRecord
  2
BYBLOCK
 70
     0
  3

 72
    65
 73
     0
 40
0.0
  0
LTYPE
  5
15
330
5
100
AcDbSymbolTableRecord
100
AcDbLinetypeTableRecord
  2
BYLAYER
 70
     0
  3

 72
    65
 73
     0
 40
0.0
  0
LTYPE
  5
16
330
5
100
AcDbSymbolTableRecord
100
AcDbLinetypeTableRecord
  2
CONTINUOUS
 70
     0
  3
Solid line
 72
    65
 73
     0
 40
0.0
  0
ENDTAB
  0
TABLE
  2
LAYER
  5
2
330
0
100
AcDbSymbolTable
 70
     3
  0
LAYER
  5
10
330
2
100
AcDbSymbolTableRecord
100
AcDbLayerTableRecord
  2
0
 70
     0
 62
     7
  6
CONTINUOUS
  0
LAYER
  5
5E
330
2
100
AcDbSymbolTableRecord
100
AcDbLayerTableRecord
  2
PROFILEEDGES
 70
     0
 62
     7
  6
CONTINUOUS
  0
LAYER
  5
5F
330
2
100
AcDbSymbolTableRecord
100
AcDbLayerTableRecord
  2
SECTIONCUTEDGES
 70
     0
 62
     7
  6
CONTINUOUS
  0
ENDTAB
  0
TABLE
  2
STYLE
  5
3
330
0
100
AcDbSymbolTable
 70
     1
  0
STYLE
  5
11
330
3
100
AcDbSymbolTableRecord
100
AcDbTextStyleTableRecord
  2
STANDARD
 70
     0
 40
0.0
 41
1.0
 50
0.0
 71
     0
 42
0.2
  3
txt
  4

  0
ENDTAB
  0
TABLE
  2
VIEW
  5
6
330
0
100
AcDbSymbolTable
 70
     0
  0
ENDTAB
  0
TABLE
  2
UCS
  5
7
330
0
100
AcDbSymbolTable
 70
     0
  0
ENDTAB
  0
TABLE
  2
APPID
  5
9
330
0
100
AcDbSymbolTable
 70
     2
  0
APPID
  5
12
330
9
100
AcDbSymbolTableRecord
100
AcDbRegAppTableRecord
  2
ACAD
 70
     0
  0
APPID
  5
342
330
9
100
AcDbSymbolTableRecord
100
AcDbRegAppTableRecord
  2
ACAD_MLEADERVER
 70
     0
  0
ENDTAB
  0
TABLE
  2
DIMSTYLE
  5
A
330
0
100
AcDbSymbolTable
 70
     1
  0
DIMSTYLE
105
27
330
A
100
AcDbSymbolTableRecord
100
AcDbDimStyleTableRecord
  2
STANDARD
 70
     0
  3

  4

  5

  6

  7

 40
1.0
 41
0.18
 42
0.0625
 43
0.38
 44
0.18
 45
0.0
 46
0.0
 47
0.0
 48
0.0
140
0.18
141
0.09
142
0.0
143
25.4
144
1.0
145
0.0
146
1.0
147
0.09
 71
     0
 72
     0
 73
     1
 74
     1
 75
     0
 76
     0
 77
     0
 78
     0
170
     0
171
     2
172
     0
173
     0
174
     0
175
     0
176
     0
177
     0
178
     0
270
     2
271
     4
272
     4
273
     2
274
     2
340
11
275
     0
280
     0
281
     0
282
     0
283
     1
284
     0
285
     0
286
     0
287
     3
288
     0
  0
ENDTAB
  0
TABLE
  2
BLOCK_RECORD
  5
1
330
0
100
AcDbSymbolTable
 70
     0
  0
BLOCK_RECORD
  5
1F
330
1
100
AcDbSymbolTableRecord
100
AcDbBlockTableRecord
  2
*MODEL_SPACE
  0
BLOCK_RECORD
  5
1B
330
1
100
AcDbSymbolTableRecord
100
AcDbBlockTableRecord
  2
*PAPER_SPACE
  0
ENDTAB
  0
ENDSEC
  0
SECTION
  2
BLOCKS
  0
BLOCK
  5
20
330
1F
100
AcDbEntity
  8
0
100
AcDbBlockBegin
  2
*MODEL_SPACE
 70
     0
 10
0.0
 20
0.0
 30
0.0
  3
*MODEL_SPACE
  1

  0
ENDBLK
  5
21
330
1F
100
AcDbEntity
  8
0
100
AcDbBlockEnd
  0
BLOCK
  5
1C
330
1B
100
AcDbEntity
 67
     1
  8
0
100
AcDbBlockBegin
  2
*PAPER_SPACE
 70
     0
 10
0.0
 20
0.0
 30
0.0
  3
*PAPER_SPACE
  1

  0
ENDBLK
  5
1D
330
1B
100
AcDbEntity
 67
     1
  8
0
100
AcDbBlockEnd
  0
ENDSEC
  0
SECTION
  2
ENTITIES
  0
LINE
  5
60
330
1F
100
AcDbEntity
  8
SECTIONCUTEDGES
100
AcDbLine
 10
174813.8325607538
 20
-3147.336832529415
 30
0.0
 11
174836.7573654412
 21
-3147.336832529415
 31
0.0
  0
LINE
  5
61
330
1F
100
AcDbEntity
  8
SECTIONCUTEDGES
100
AcDbLine
 10
182436.7573654413
 20
-3147.336832529415
 30
0.0
 11
195618.5139572381
 21
-3147.336832529415
 31
0.0
  0
LINE
  5
62
330
1F
100
AcDbEntity
  8
SECTIONCUTEDGES
100
AcDbLine
 10
179422.4246362417
 20
-3147.336832529415
 30
0.0
 11
182422.4246362417
 21
-3147.336832529415
 31
0.0
  0
LINE
  5
63
330
1F
100
AcDbEntity
  8
SECTIONCUTEDGES
100
AcDbLine
 10
178536.7573654413
 20
-3147.336832529415
 30
0.0
 11
178563.8325607538
 21
-3147.336832529415
 31
0.0
  0
LINE
  5
64
330
1F
100
AcDbEntity
  8
SECTIONCUTEDGES
100
AcDbLine
 10
178563.8325607538
 20
-3147.336832529415
 30
0.0
 11
178563.8325607538
 21
-2427.336832529415
 31
0.0
  0
LINE
  5
65
330
1F
100
AcDbEntity
  8
SECTIONCUTEDGES
100
AcDbLine
 10
190338.3381759882
 20
797.798641675602
 30
0.0
 11
190458.3381759881
 21
797.798641675602
 31
0.0
  0
LINE
  5
66
330
1F
100
AcDbEntity
  8
SECTIONCUTEDGES
100
AcDbLine
 10
190338.3381759882
 20
857.798641675602
 30
0.0
 11
190338.3381759882
 21
797.798641675602
 31
0.0
  0
LINE
  5
67
330
1F
100
AcDbEntity
  8
SECTIONCUTEDGES
100
AcDbLine
 10
190458.3381759881
 20
857.798641675602
 30
0.0
 11
190338.3381759882
 21
857.798641675602
 31
0.0
  0
LINE
  5
68
330
1F
100
AcDbEntity
  8
SECTIONCUTEDGES
100
AcDbLine
 10
190458.3381759881
 20
797.798641675602
 30
0.0
 11
190458.3381759881
 21
857.798641675602
 31
0.0
  0
LINE
  5
69
330
1F
100
AcDbEntity
  8
SECTIONCUTEDGES
100
AcDbLine
 10
174618.5139572382
 20
-3147.336832529415
 30
0.0
 11
174813.8325607538
 21
-3147.336832529415
 31
0.0
  0
LINE
  5
6A
330
1F
100
AcDbEntity
  8
SECTIONCUTEDGES
100
AcDbLine
 10
174836.7573654412
 20
-3147.336832529415
 30
0.0
 11
178536.7573654413
 21
-3147.336832529415
 31
0.0
  0
LINE
  5
6B
330
1F
100
AcDbEntity
  8
SECTIONCUTEDGES
100
AcDbLine
 10
174813.8325607538
 20
-2427.336832529415
 30
0.0
 11
174813.8325607538
 21
-3147.336832529415
 31
0.0
  0
LINE
  5
6C
330
1F
100
AcDbEntity
  8
SECTIONCUTEDGES
100
AcDbLine
 10
174810.7138907814
 20
152.663167470585
 30
0.0
 11
174810.7138907814
 21
-3147.336832529415
 31
0.0
  0
LINE
  5
6D
330
1F
100
AcDbEntity
  8
SECTIONCUTEDGES
100
AcDbLine
 10
178563.8325607538
 20
-2427.336832529415
 30
0.0
 11
174813.8325607538
 21
-2427.336832529415
 31
0.0
  0
LINE
  5
6E
330
1F
100
AcDbEntity
  8
SECTIONCUTEDGES
100
AcDbLine
 10
195618.5139572381
 20
-3147.336832529415
 30
0.0
 11
195618.5139572381
 21
-1562.129847055782
 31
0.0
  0
LINE
  5
6F
330
1F
100
AcDbEntity
  8
SECTIONCUTEDGES
100
AcDbLine
 10
193148.6060464176
 20
-2724.907494787631
 30
0.0
 11
193146.1248953831
 21
-2725.069736521005
 31
0.0
  0
LINE
  5
70
330
1F
100
AcDbEntity
  8
SECTIONCUTEDGES
100
AcDbLine
 10
193146.1248953831
 20
-2725.069736521005
 30
0.0
 11
193143.6861477353
 21
-2725.55444545072
 31
0.0
  0
LINE
  5
71
330
1F
100
AcDbEntity
  8
SECTIONCUTEDGES
100
AcDbLine
 10
193143.6861477353
 20
-2725.55444545072
 30
0.0
 11
193141.3315311226
 21
-2726.3533280726
 31
0.0
  0
LINE
  5
72
330
1F
100
AcDbEntity
  8
SECTIONCUTEDGES
100
AcDbLine
 10
193141.3315311226
 20
-2726.3533280726
 30
0.0
 11
193139.1013336882
 21
-2727.452715283494
 31
0.0
  0
LINE
  5
73
330
1F
100
AcDbEntity
  8
SECTIONCUTEDGES
100
AcDbLine
 10
193139.1013336882
 20
-2727.452715283494
 30
0.0
 11
193137.0337147283
 21
-2728.833796263415
 31
0.0
  0
LINE
  5
74
330
1F
100
AcDbEntity
  8
SECTIONCUTEDGES
100
AcDbLine
 10
193137.0337147283
 20
-2728.833796263415
 30
0.0
 11
193135.1640517768
 21
-2730.472940333891
 31
0.0
  0
LINE
  5
75
330
1F
100
AcDbEntity
  8
SECTIONCUTEDGES
100
AcDbLine
 10
193135.1640517768
 20
-2730.472940333891
 30
0.0
 11
193133.524335285
 21
-2732.342101285415
 31
0.0
  0
LINE
  5
76
330
1F
100
AcDbEntity
  8
SECTIONCUTEDGES
100
AcDbLine
 10
193133.524335285
 20
-2732.342101285415
 30
0.0
 11
193132.1426212567
 21
-2734.409297255881
 31
0.0
  0
LINE
  5
77
330
1F
100
AcDbEntity
  8
SECTIONCUTEDGES
100
AcDbLine
 10
193132.1426212567
 20
-2734.409297255881
 30
0.0
 11
193131.0425512021
 21
-2736.639157949097
 31
0.0
  0
LINE
  5
78
330
1F
100
AcDbEntity
  8
SECTIONCUTEDGES
100
AcDbLine
 10
193131.0425512021
 20
-2736.639157949097
 30
0.0
 11
193130.2429476248
 21
-2738.99352983037
 31
0.0
  0
LINE
  5
79
330
1F
100
AcDbEntity
  8
SECTIONCUTEDGES
100
AcDbLine
 10
193130.2429476248
 20
-2738.99352983037
 30
0.0
 11
193129.7574919637
 21
-2741.432128944055
 31
0.0
  0
LINE
  5
7A
330
1F
100
AcDbEntity
  8
SECTIONCUTEDGES
100
AcDbLine
 10
193129.7574919637
 20
-2741.432128944055
 30
0.0
 11
193129.5944904996
 21
-2743.913230183209
 31
0.0
  0
LINE
  5
7B
330
1F
100
AcDbEntity
  8
SECTIONCUTEDGES
100
AcDbLine
 10
193146.1011263388
 20
-2880.31949150027
 30
0.0
 11
193148.5822275779
 21
-2880.482492964275
 31
0.0
  0
LINE
  5
7C
330
1F
100
AcDbEntity
  8
SECTIONCUTEDGES
100
AcDbLine
 10
193143.6625272251
 20
-2879.834035839125
 30
0.0
 11
193146.1011263388
 21
-2880.31949150027
 31
0.0
  0
LINE
  5
7D
330
1F
100
AcDbEntity
  8
SECTIONCUTEDGES
100
AcDbLine
 10
193141.3081553438
 20
-2879.034432261799
 30
0.0
 11
193143.6625272251
 21
-2879.834035839125
 31
0.0
  0
LINE
  5
7E
330
1F
100
AcDbEntity
  8
SECTIONCUTEDGES
100
AcDbLine
 10
193139.0782946506
 20
-2877.93436220719
 30
0.0
 11
193141.3081553438
 21
-2879.034432261799
 31
0.0
  0
LINE
  5
7F
330
1F
100
AcDbEntity
  8
SECTIONCUTEDGES
100
AcDbLine
 10
193137.0110986801
 20
-2876.552648178929
 30
0.0
 11
193139.0782946506
 21
-2877.93436220719
 31
0.0
  0
LINE
  5
80
330
1F
100
AcDbEntity
  8
SECTIONCUTEDGES
100
AcDbLine
 10
193135.1419377286
 20
-2874.912931687125
 30
0.0
 11
193137.0110986801
 21
-2876.552648178929
 31
0.0
  0
LINE
  5
81
330
1F
100
AcDbEntity
  8
SECTIONCUTEDGES
100
AcDbLine
 10
193133.5027936581
 20
-2873.043268735566
 30
0.0
 11
193135.1419377286
 21
-2874.912931687125
 31
0.0
  0
LINE
  5
82
330
1F
100
AcDbEntity
  8
SECTIONCUTEDGES
100
AcDbLine
 10
193132.1217126782
 20
-2870.975649775724
 30
0.0
 11
193133.5027936581
 21
-2873.043268735566
 31
0.0
  0
LINE
  5
83
330
1F
100
AcDbEntity
  8
SECTIONCUTEDGES
100
AcDbLine
 10
193130.2234428454
 20
-2866.390835728584
 30
0.0
 11
193131.0223254673
 21
-2868.745452341253
 31
0.0
  0
LINE
  5
84
330
1F
100
AcDbEntity
  8
SECTIONCUTEDGES
100
AcDbLine
 10
193129.7387339157
 20
-2863.952088080783
 30
0.0
 11
193130.2234428454
 21
-2866.390835728584
 31
0.0
  0
LINE
  5
85
330
1F
100
AcDbEntity
  8
SECTIONCUTEDGES
100
AcDbLine
 10
193129.5764921823
 20
-2861.470937046252
 30
0.0
 11
193129.7387339157
 21
-2863.952088080783
 31
0.0
  0
LINE
  5
86
330
1F
100
AcDbEntity
  8
SECTIONCUTEDGES
100
AcDbLine
 10
193129.5944904996
 20
-2743.913230183209
 30
0.0
 11
193129.5764921823
 21
-2861.470937046252
 31
0.0
  0
LINE
  5
87
330
1F
100
AcDbEntity
  8
SECTIONCUTEDGES
100
AcDbLine
 10
193940.8069809921
 20
-2744.037428418959
 30
0.0
 11
193940.4185356415
 21
-2741.491384327911
 31
0.0
  0
LINE
  5
88
330
1F
100
AcDbEntity
  8
SECTIONCUTEDGES
100
AcDbLine
 10
193940.4185356415
 20
-2741.491384327911
 30
0.0
 11
193939.7196282736
 21
-2739.012521928541
 31
0.0
  0
LINE
  5
89
330
1F
100
AcDbEntity
  8
SECTIONCUTEDGES
100
AcDbLine
 10
193939.7196282736
 20
-2739.012521928541
 30
0.0
 11
193938.7208901767
 21
-2736.638547935898
 31
0.0
  0
LINE
  5
8A
330
1F
100
AcDbEntity
  8
SECTIONCUTEDGES
100
AcDbLine
 10
193938.7208901767
 20
-2736.638547935898
 30
0.0
 11
193937.4375134538
 21
-2734.4055735762
 31
0.0
  0
LINE
  5
8B
330
1F
100
AcDbEntity
  8
SECTIONCUTEDGES
100
AcDbLine
 10
193937.4375134538
 20
-2734.4055735762
 30
0.0
 11
193935.8890199309
 21
-2732.347565288213
 31
0.0
  0
LINE
  5
8C
330
1F
100
AcDbEntity
  8
SECTIONCUTEDGES
100
AcDbLine
 10
193935.8890199309
 20
-2732.347565288213
 30
0.0
 11
193934.0989642046
 21
-2730.495828049615
 31
0.0
  0
LINE
  5
8D
330
1F
100
AcDbEntity
  8
SECTIONCUTEDGES
100
AcDbLine
 10
193934.0989642046
 20
-2730.495828049615
 30
0.0
 11
193932.0945753464
 21
-2728.878529187652
 31
0.0
  0
LINE
  5
8E
330
1F
100
AcDbEntity
  8
SECTIONCUTEDGES
100
AcDbLine
 10
193932.0945753464
 20
-2728.878529187652
 30
0.0
 11
193929.9063427126
 21
-2727.520269917523
 31
0.0
  0
LINE
  5
8F
330
1F
100
AcDbEntity
  8
SECTIONCUTEDGES
100
AcDbLine
 10
193929.9063427126
 20
-2727.520269917523
 30
0.0
 11
193927.5675521626
 21
-2726.441711125962
 31
0.0
  0
LINE
  5
90
330
1F
100
AcDbEntity
  8
SECTIONCUTEDGES
100
AcDbLine
 10
193927.5675521626
 20
-2726.441711125962
 30
0.0
 11
193925.1137797365
 21
-2725.659259092326
 31
0.0
  0
LINE
  5
91
330
1F
100
AcDbEntity
  8
SECTIONCUTEDGES
100
AcDbLine
 10
193925.1137797365
 20
-2725.659259092326
 30
0.0
 11
193922.5823504984
 21
-2725.184815927796
 31
0.0
  0
LINE
  5
92
330
1F
100
AcDbEntity
  8
SECTIONCUTEDGES
100
AcDbLine
 10
193922.5823504984
 20
-2725.184815927796
 30
0.0
 11
193920.0117707732
 21
-2725.025598528803
 31
0.0
  0
LINE
  5
93
330
1F
100
AcDbEntity
  8
SECTIONCUTEDGES
100
AcDbLine
 10
193940.3997577337
 20
-2864.14106031019
 30
0.0
 11
193940.7889826749
 21
-2861.595135282002
 31
0.0
  0
LINE
  5
94
330
1F
100
AcDbEntity
  8
SECTIONCUTEDGES
100
AcDbLine
 10
193939.7000913611
 20
-2866.619708585156
 30
0.0
 11
193940.3997577337
 21
-2864.14106031019
 31
0.0
  0
LINE
  5
95
330
1F
100
AcDbEntity
  8
SECTIONCUTEDGES
100
AcDbLine
 10
193938.7006263908
 20
-2868.993376648961
 30
0.0
 11
193939.7000913611
 21
-2866.619708585156
 31
0.0
  0
LINE
  5
96
330
1F
100
AcDbEntity
  8
SECTIONCUTEDGES
100
AcDbLine
 10
193937.4165659825
 20
-2871.225957928958
 30
0.0
 11
193938.7006263908
 21
-2868.993376648961
 31
0.0
  0
LINE
  5
97
330
1F
100
AcDbEntity
  8
SECTIONCUTEDGES
100
AcDbLine
 10
193935.8674423619
 20
-2873.283491965637
 30
0.0
 11
193937.4165659825
 21
-2871.225957928958
 31
0.0
  0
LINE
  5
98
330
1F
100
AcDbEntity
  8
SECTIONCUTEDGES
100
AcDbLine
 10
193934.0768197103
 20
-2875.134680995298
 30
0.0
 11
193935.8674423619
 21
-2873.283491965637
 31
0.0
  0
LINE
  5
99
330
1F
100
AcDbEntity
  8
SECTIONCUTEDGES
100
AcDbLine
 10
193932.0719357227
 20
-2876.751366029664
 30
0.0
 11
193934.0768197103
 21
-2875.134680995298
 31
0.0
  0
LINE
  5
9A
330
1F
100
AcDbEntity
  8
SECTIONCUTEDGES
100
AcDbLine
 10
193929.8832872873
 20
-2878.10895519065
 30
0.0
 11
193932.0719357227
 21
-2876.751366029664
 31
0.0
  0
LINE
  5
9B
330
1F
100
AcDbEntity
  8
SECTIONCUTEDGES
100
AcDbLine
 10
193927.5441665879
 20
-2879.186797784752
 30
0.0
 11
193929.8832872873
 21
-2878.10895519065
 31
0.0
  0
LINE
  5
9C
330
1F
100
AcDbEntity
  8
SECTIONCUTEDGES
100
AcDbLine
 10
193925.0901546869
 20
-2879.968498426907
 30
0.0
 11
193927.5441665879
 21
-2879.186797784752
 31
0.0
  0
LINE
  5
9D
330
1F
100
AcDbEntity
  8
SECTIONCUTEDGES
100
AcDbLine
 10
193922.5585802911
 20
-2880.442166435573
 30
0.0
 11
193925.0901546869
 21
-2879.968498426907
 31
0.0
  0
LINE
  5
9E
330
1F
100
AcDbEntity
  8
SECTIONCUTEDGES
100
AcDbLine
 10
193919.9879519334
 20
-2880.600596705447
 30
0.0
 11
193922.5585802911
 21
-2880.442166435573
 31
0.0
  0
LINE
  5
9F
330
1F
100
AcDbEntity
  8
SECTIONCUTEDGES
100
AcDbLine
 10
193148.5822275779
 20
-2880.482492964275
 30
0.0
 11
193919.9879519334
 21
-2880.600596705447
 31
0.0
  0
LINE
  5
A0
330
1F
100
AcDbEntity
  8
SECTIONCUTEDGES
100
AcDbLine
 10
193940.7889826749
 20
-2861.595135282002
 30
0.0
 11
193940.8069809921
 21
-2744.037428418959
 31
0.0
  0
LINE
  5
A1
330
1F
100
AcDbEntity
  8
SECTIONCUTEDGES
100
AcDbLine
 10
193920.0117707732
 20
-2725.025598528803
 30
0.0
 11
193148.6060464176
 21
-2724.907494787631
 31
0.0
  0
LINE
  5
A2
330
1F
100
AcDbEntity
  8
SECTIONCUTEDGES
100
AcDbLine
 10
193131.0223254673
 20
-2868.745452341253
 30
0.0
 11
193132.1217126782
 21
-2870.975649775724
 31
0.0
  0
LINE
  5
A3
330
1F
100
AcDbEntity
  8
SECTIONCUTEDGES
100
AcDbLine
 10
193972.322392983
 20
-2597.333364110871
 30
0.0
 11
193985.4686631032
 21
-2582.347544983252
 31
0.0
  0
LINE
  5
A4
330
1F
100
AcDbEntity
  8
SECTIONCUTEDGES
100
AcDbLine
 10
194053.7937522395
 20
-2542.913982753538
 30
0.0
 11
194073.3461782186
 21
-2539.027875276108
 31
0.0
  0
LINE
  5
A5
330
1F
100
AcDbEntity
  8
SECTIONCUTEDGES
100
AcDbLine
 10
193985.4686631032
 20
-2582.347544983252
 30
0.0
 11
194000.4585069681
 21
-2569.205864196374
 31
0.0
  0
LINE
  5
A6
330
1F
100
AcDbEntity
  8
SECTIONCUTEDGES
100
AcDbLine
 10
193940.8152383398
 20
-2690.103783171483
 30
0.0
 11
193942.122086985
 21
-2670.211791325119
 31
0.0
  0
LINE
  5
A7
330
1F
100
AcDbEntity
  8
SECTIONCUTEDGES
100
AcDbLine
 10
194034.9158387866
 20
-2549.318947754509
 30
0.0
 11
194053.7937522395
 21
-2542.913982753538
 31
0.0
  0
LINE
  5
A8
330
1F
100
AcDbEntity
  8
SECTIONCUTEDGES
100
AcDbLine
 10
194017.0354441932
 20
-2558.133179552062
 30
0.0
 11
194034.9158387866
 21
-2549.318947754509
 31
0.0
  0
LINE
  5
A9
330
1F
100
AcDbEntity
  8
SECTIONCUTEDGES
100
AcDbLine
 10
193961.2446329342
 20
-2613.906910059104
 30
0.0
 11
193972.322392983
 21
-2597.333364110871
 31
0.0
  0
LINE
  5
AA
330
1F
100
AcDbEntity
  8
SECTIONCUTEDGES
100
AcDbLine
 10
194073.3461782186
 20
-2539.027875276108
 30
0.0
 11
194093.2385692947
 21
-2537.72711769859
 31
0.0
  0
LINE
  5
AB
330
1F
100
AcDbEntity
  8
SECTIONCUTEDGES
100
AcDbLine
 10
193942.122086985
 20
-2670.211791325119
 30
0.0
 11
193946.0141813103
 21
-2650.660556204015
 31
0.0
  0
LINE
  5
AC
330
1F
100
AcDbEntity
  8
SECTIONCUTEDGES
100
AcDbLine
 10
193952.4249265025
 20
-2631.78460486172
 30
0.0
 11
193961.2446329342
 21
-2613.906910059104
 31
0.0
  0
LINE
  5
AD
330
1F
100
AcDbEntity
  8
SECTIONCUTEDGES
100
AcDbLine
 10
194000.4585069681
 20
-2569.205864196374
 30
0.0
 11
194017.0354441932
 21
-2558.133179552062
 31
0.0
  0
LINE
  5
AE
330
1F
100
AcDbEntity
  8
SECTIONCUTEDGES
100
AcDbLine
 10
193946.0141813103
 20
-2650.660556204015
 30
0.0
 11
193952.4249265025
 21
-2631.78460486172
 31
0.0
  0
LINE
  5
AF
330
1F
100
AcDbEntity
  8
SECTIONCUTEDGES
100
AcDbLine
 10
194181.6854659529
 20
-2836.586776762981
 30
0.0
 11
194177.8926086824
 21
-2847.048263481588
 31
0.0
  0
LINE
  5
B0
330
1F
100
AcDbEntity
  8
SECTIONCUTEDGES
100
AcDbLine
 10
194174.7620942735
 20
-2857.726669269599
 30
0.0
 11
194172.306203048
 21
-2868.580105081657
 31
0.0
  0
LINE
  5
B1
330
1F
100
AcDbEntity
  8
SECTIONCUTEDGES
100
AcDbLine
 10
194093.2385692947
 20
-2537.72711769859
 30
0.0
 11
194113.130561141
 21
-2539.033966343772
 31
0.0
  0
LINE
  5
B2
330
1F
100
AcDbEntity
  8
SECTIONCUTEDGES
100
AcDbLine
 10
194186.1257875372
 20
-2826.383247233173
 30
0.0
 11
194181.6854659529
 21
-2836.586776762981
 31
0.0
  0
LINE
  5
B3
330
1F
100
AcDbEntity
  8
SECTIONCUTEDGES
100
AcDbLine
 10
194113.130561141
 20
-2539.033966343772
 30
0.0
 11
194132.6817962621
 21
-2542.92606066901
 31
0.0
  0
LINE
  5
B4
330
1F
100
AcDbEntity
  8
SECTIONCUTEDGES
100
AcDbLine
 10
194132.6817962621
 20
-2542.92606066901
 30
0.0
 11
194151.5577476044
 21
-2549.336805861305
 31
0.0
  0
LINE
  5
B5
330
1F
100
AcDbEntity
  8
SECTIONCUTEDGES
100
AcDbLine
 10
194151.5577476044
 20
-2549.336805861305
 30
0.0
 11
194169.435442407
 21
-2558.156512293025
 31
0.0
  0
LINE
  5
B6
330
1F
100
AcDbEntity
  8
SECTIONCUTEDGES
100
AcDbLine
 10
194169.435442407
 20
-2558.156512293025
 30
0.0
 11
194186.0089883553
 21
-2569.234272341836
 31
0.0
  0
LINE
  5
B7
330
1F
100
AcDbEntity
  8
SECTIONCUTEDGES
100
AcDbLine
 10
194191.196155027
 20
-2816.477701102046
 30
0.0
 11
194186.1257875372
 21
-2826.383247233173
 31
0.0
  0
LINE
  5
B8
330
1F
100
AcDbEntity
  8
SECTIONCUTEDGES
100
AcDbLine
 10
194186.0089883553
 20
-2569.234272341836
 30
0.0
 11
194200.9948074829
 21
-2582.380542461969
 31
0.0
  0
LINE
  5
B9
330
1F
100
AcDbEntity
  8
SECTIONCUTEDGES
100
AcDbLine
 10
194200.9948074829
 20
-2582.380542461969
 30
0.0
 11
194214.1364882698
 21
-2597.370386326833
 31
0.0
  0
LINE
  5
BA
330
1F
100
AcDbEntity
  8
SECTIONCUTEDGES
100
AcDbLine
 10
194214.1364882698
 20
-2597.370386326833
 30
0.0
 11
194225.2091729141
 21
-2613.947323551931
 31
0.0
  0
LINE
  5
BB
330
1F
100
AcDbEntity
  8
SECTIONCUTEDGES
100
AcDbLine
 10
194225.2091729141
 20
-2613.947323551931
 30
0.0
 11
194234.0234047116
 21
-2631.827718145346
 31
0.0
  0
LINE
  5
BC
330
1F
100
AcDbEntity
  8
SECTIONCUTEDGES
100
AcDbLine
 10
194234.0234047116
 20
-2631.827718145346
 30
0.0
 11
194240.4283697126
 21
-2650.705631598203
 31
0.0
  0
LINE
  5
BD
330
1F
100
AcDbEntity
  8
SECTIONCUTEDGES
100
AcDbLine
 10
194240.4283697126
 20
-2650.705631598203
 30
0.0
 11
194244.31447719
 21
-2670.258057577377
 31
0.0
  0
LINE
  5
BE
330
1F
100
AcDbEntity
  8
SECTIONCUTEDGES
100
AcDbLine
 10
194244.31447719
 20
-2670.258057577377
 30
0.0
 11
194245.6152347676
 21
-2690.150448653408
 31
0.0
  0
LINE
  5
BF
330
1F
100
AcDbEntity
  8
SECTIONCUTEDGES
100
AcDbLine
 10
194196.8766784821
 20
-2806.908995655923
 30
0.0
 11
194191.196155027
 21
-2816.477701102046
 31
0.0
  0
LINE
  5
C0
330
1F
100
AcDbEntity
  8
SECTIONCUTEDGES
100
AcDbLine
 10
194245.6152347676
 20
-2690.150448653408
 30
0.0
 11
194245.0341662135
 21
-2703.526003297151
 31
0.0
  0
LINE
  5
C1
330
1F
100
AcDbEntity
  8
SECTIONCUTEDGES
100
AcDbLine
 10
194245.0341662135
 20
-2703.526003297151
 30
0.0
 11
194243.2994036615
 21
-2716.801307496316
 31
0.0
  0
LINE
  5
C2
330
1F
100
AcDbEntity
  8
SECTIONCUTEDGES
100
AcDbLine
 10
194243.2994036615
 20
-2716.801307496316
 30
0.0
 11
194240.4239262477
 21
-2729.877038157945
 31
0.0
  0
LINE
  5
C3
330
1F
100
AcDbEntity
  8
SECTIONCUTEDGES
100
AcDbLine
 10
194240.4239262477
 20
-2729.877038157945
 30
0.0
 11
194236.4292477024
 21
-2742.6553653572
 31
0.0
  0
LINE
  5
C4
330
1F
100
AcDbEntity
  8
SECTIONCUTEDGES
100
AcDbLine
 10
194203.1450744539
 20
-2797.714666828952
 30
0.0
 11
194196.8766784821
 21
-2806.908995655923
 31
0.0
  0
LINE
  5
C5
330
1F
100
AcDbEntity
  8
SECTIONCUTEDGES
100
AcDbLine
 10
194177.8926086824
 20
-2847.048263481588
 30
0.0
 11
194174.7620942735
 21
-2857.726669269599
 31
0.0
  0
LINE
  5
C6
330
1F
100
AcDbEntity
  8
SECTIONCUTEDGES
100
AcDbLine
 10
194209.976753399
 20
-2788.930781957859
 30
0.0
 11
194203.1450744539
 21
-2797.714666828952
 31
0.0
  0
LINE
  5
C7
330
1F
100
AcDbEntity
  8
SECTIONCUTEDGES
100
AcDbLine
 10
194172.306203048
 20
-2868.580105081657
 30
0.0
 11
194170.534568929
 21
-2879.565995267983
 31
0.0
  0
LINE
  5
C8
330
1F
100
AcDbEntity
  8
SECTIONCUTEDGES
100
AcDbLine
 10
194169.3811326431
 20
-2912.885857426759
 30
0.0
 11
194169.3471818328
 21
-3134.638777073339
 31
0.0
  0
LINE
  5
C9
330
1F
100
AcDbEntity
  8
SECTIONCUTEDGES
100
AcDbLine
 10
194169.3471818328
 20
-3134.638777073339
 30
0.0
 11
194169.238277779
 21
-3136.296443060536
 31
0.0
  0
LINE
  5
CA
330
1F
100
AcDbEntity
  8
SECTIONCUTEDGES
100
AcDbLine
 10
194169.238277779
 20
-3136.296443060536
 30
0.0
 11
194168.9139365853
 21
-3137.925712653961
 31
0.0
  0
LINE
  5
CB
330
1F
100
AcDbEntity
  8
SECTIONCUTEDGES
100
AcDbLine
 10
194236.4292477024
 20
-2742.6553653572
 30
0.0
 11
194231.3452553878
 21
-2755.040684280723
 31
0.0
  0
LINE
  5
CC
330
1F
100
AcDbEntity
  8
SECTIONCUTEDGES
100
AcDbLine
 10
194168.9139365853
 20
-3137.925712653961
 30
0.0
 11
194168.3797078193
 21
-3139.498708599152
 31
0.0
  0
LINE
  5
CD
330
1F
100
AcDbEntity
  8
SECTIONCUTEDGES
100
AcDbLine
 10
194168.3797078193
 20
-3139.498708599152
 30
0.0
 11
194167.6447322833
 21
-3140.988516499371
 31
0.0
  0
LINE
  5
CE
330
1F
100
AcDbEntity
  8
SECTIONCUTEDGES
100
AcDbLine
 10
194167.6447322833
 20
-3140.988516499371
 30
0.0
 11
194166.7215856125
 21
-3142.36964532839
 31
0.0
  0
LINE
  5
CF
330
1F
100
AcDbEntity
  8
SECTIONCUTEDGES
100
AcDbLine
 10
194218.0693444198
 20
-2778.265273378178
 30
0.0
 11
194209.976753399
 21
-2788.930781957859
 31
0.0
  0
LINE
  5
D0
330
1F
100
AcDbEntity
  8
SECTIONCUTEDGES
100
AcDbLine
 10
194166.7215856125
 20
-3142.36964532839
 30
0.0
 11
194165.6260631025
 21
-3143.618463589024
 31
0.0
  0
LINE
  5
D1
330
1F
100
AcDbEntity
  8
SECTIONCUTEDGES
100
AcDbLine
 10
194165.6260631025
 20
-3143.618463589024
 30
0.0
 11
194164.3769094471
 21
-3144.713603654598
 31
0.0
  0
LINE
  5
D2
330
1F
100
AcDbEntity
  8
SECTIONCUTEDGES
100
AcDbLine
 10
194164.3769094471
 20
-3144.713603654598
 30
0.0
 11
194162.9954980117
 21
-3145.636327374957
 31
0.0
  0
LINE
  5
D3
330
1F
100
AcDbEntity
  8
SECTIONCUTEDGES
100
AcDbLine
 10
194162.9954980117
 20
-3145.636327374957
 30
0.0
 11
194161.5054651289
 21
-3146.37084669142
 31
0.0
  0
LINE
  5
D4
330
1F
100
AcDbEntity
  8
SECTIONCUTEDGES
100
AcDbLine
 10
194161.5054651289
 20
-3146.37084669142
 30
0.0
 11
194159.9323056745
 21
-3146.904593774834
 31
0.0
  0
LINE
  5
D5
330
1F
100
AcDbEntity
  8
SECTIONCUTEDGES
100
AcDbLine
 10
194159.9323056745
 20
-3146.904593774834
 30
0.0
 11
194158.3029368429
 21
-3147.22843606462
 31
0.0
  0
LINE
  5
D6
330
1F
100
AcDbEntity
  8
SECTIONCUTEDGES
100
AcDbLine
 10
194158.3029368429
 20
-3147.22843606462
 30
0.0
 11
194156.6452375865
 21
-3147.336832529413
 31
0.0
  0
LINE
  5
D7
330
1F
100
AcDbEntity
  8
SECTIONCUTEDGES
100
AcDbLine
 10
194225.2099866878
 20
-2766.940330522159
 30
0.0
 11
194218.0693444198
 21
-2778.265273378178
 31
0.0
  0
LINE
  5
D8
330
1F
100
AcDbEntity
  8
SECTIONCUTEDGES
100
AcDbLine
 10
194156.6452375865
 20
-3147.336832529413
 30
0.0
 11
193959.7952398937
 21
-3147.30669440567
 31
0.0
  0
LINE
  5
D9
330
1F
100
AcDbEntity
  8
SECTIONCUTEDGES
100
AcDbLine
 10
194231.3452553878
 20
-2755.040684280723
 30
0.0
 11
194225.2099866878
 21
-2766.940330522159
 31
0.0
  0
LINE
  5
DA
330
1F
100
AcDbEntity
  8
SECTIONCUTEDGES
100
AcDbLine
 10
194170.534568929
 20
-2879.565995267983
 30
0.0
 11
194169.4541416486
 21
-2890.641244589321
 31
0.0
  0
LINE
  5
DB
330
1F
100
AcDbEntity
  8
SECTIONCUTEDGES
100
AcDbLine
 10
194169.0691594865
 20
-2901.762407270114
 30
0.0
 11
194169.3811326431
 21
-2912.885857426759
 31
0.0
  0
LINE
  5
DC
330
1F
100
AcDbEntity
  8
SECTIONCUTEDGES
100
AcDbLine
 10
194169.4541416486
 20
-2890.641244589321
 30
0.0
 11
194169.0691594865
 21
-2901.762407270114
 31
0.0
  0
LINE
  5
DD
330
1F
100
AcDbEntity
  8
SECTIONCUTEDGES
100
AcDbLine
 10
193959.7952398937
 20
-3147.30669440567
 30
0.0
 11
193957.3087409129
 21
-3147.143338325022
 31
0.0
  0
LINE
  5
DE
330
1F
100
AcDbEntity
  8
SECTIONCUTEDGES
100
AcDbLine
 10
193957.3087409129
 20
-3147.143338325022
 30
0.0
 11
193954.8648365227
 21
-3146.656826534367
 31
0.0
  0
LINE
  5
DF
330
1F
100
AcDbEntity
  8
SECTIONCUTEDGES
100
AcDbLine
 10
193954.8648365227
 20
-3146.656826534367
 30
0.0
 11
193952.5053426049
 21
-3145.85548338533
 31
0.0
  0
LINE
  5
E0
330
1F
100
AcDbEntity
  8
SECTIONCUTEDGES
100
AcDbLine
 10
193952.5053426049
 20
-3145.85548338533
 30
0.0
 11
193950.2706307546
 21
-3144.753020081365
 31
0.0
  0
LINE
  5
E1
330
1F
100
AcDbEntity
  8
SECTIONCUTEDGES
100
AcDbLine
 10
193950.2706307546
 20
-3144.753020081365
 30
0.0
 11
193948.1989375111
 21
-3143.368300075264
 31
0.0
  0
LINE
  5
E2
330
1F
100
AcDbEntity
  8
SECTIONCUTEDGES
100
AcDbLine
 10
193948.1989375111
 20
-3143.368300075264
 30
0.0
 11
193946.3257101202
 21
-3141.725016310248
 31
0.0
  0
LINE
  5
E3
330
1F
100
AcDbEntity
  8
SECTIONCUTEDGES
100
AcDbLine
 10
193946.3257101202
 20
-3141.725016310248
 30
0.0
 11
193944.6830000218
 21
-3139.851285827139
 31
0.0
  0
LINE
  5
E4
330
1F
100
AcDbEntity
  8
SECTIONCUTEDGES
100
AcDbLine
 10
193944.6830000218
 20
-3139.851285827139
 30
0.0
 11
193943.2989144413
 21
-3137.779168674002
 31
0.0
  0
LINE
  5
E5
330
1F
100
AcDbEntity
  8
SECTIONCUTEDGES
100
AcDbLine
 10
193943.2989144413
 20
-3137.779168674002
 30
0.0
 11
193942.1971354666
 21
-3135.544119349825
 31
0.0
  0
LINE
  5
E6
330
1F
100
AcDbEntity
  8
SECTIONCUTEDGES
100
AcDbLine
 10
193942.1971354666
 20
-3135.544119349825
 30
0.0
 11
193941.3965148414
 21
-3133.184380168218
 31
0.0
  0
LINE
  5
E7
330
1F
100
AcDbEntity
  8
SECTIONCUTEDGES
100
AcDbLine
 10
193941.3965148414
 20
-3133.184380168218
 30
0.0
 11
193940.9107514067
 21
-3130.740326920822
 31
0.0
  0
LINE
  5
E8
330
1F
100
AcDbEntity
  8
SECTIONCUTEDGES
100
AcDbLine
 10
193940.9107514067
 20
-3130.740326920822
 30
0.0
 11
193940.7481567096
 21
-3128.253778036317
 31
0.0
  0
LINE
  5
E9
330
1F
100
AcDbEntity
  8
SECTIONCUTEDGES
100
AcDbLine
 10
193940.7481567096
 20
-3128.253778036317
 30
0.0
 11
193940.8152383398
 21
-2690.103783171483
 31
0.0
  0
LINE
  5
EA
330
1F
100
AcDbEntity
  8
SECTIONCUTEDGES
100
AcDbLine
 10
192283.7365108942
 20
-2597.074838274638
 30
0.0
 11
192270.5948301074
 21
-2582.084994409774
 31
0.0
  0
LINE
  5
EB
330
1F
100
AcDbEntity
  8
SECTIONCUTEDGES
100
AcDbLine
 10
192202.2818188866
 20
-2542.630512616815
 30
0.0
 11
192182.7305837655
 21
-2538.738418291578
 31
0.0
  0
LINE
  5
EC
330
1F
100
AcDbEntity
  8
SECTIONCUTEDGES
100
AcDbLine
 10
192270.5948301074
 20
-2582.084994409774
 30
0.0
 11
192255.6090109797
 21
-2568.938724289641
 31
0.0
  0
LINE
  5
ED
330
1F
100
AcDbEntity
  8
SECTIONCUTEDGES
100
AcDbLine
 10
192315.215257392
 20
-2689.854900601214
 30
0.0
 11
192313.9144998145
 21
-2669.962509525183
 31
0.0
  0
LINE
  5
EE
330
1F
100
AcDbEntity
  8
SECTIONCUTEDGES
100
AcDbLine
 10
192221.1577702289
 20
-2549.041257809111
 30
0.0
 11
192202.2818188866
 21
-2542.630512616815
 31
0.0
  0
LINE
  5
EF
330
1F
100
AcDbEntity
  8
SECTIONCUTEDGES
100
AcDbLine
 10
192239.0354650315
 20
-2557.86096424083
 30
0.0
 11
192221.1577702289
 21
-2549.041257809111
 31
0.0
  0
LINE
  5
F0
330
1F
100
AcDbEntity
  8
SECTIONCUTEDGES
100
AcDbLine
 10
192294.8091955385
 20
-2613.651775499737
 30
0.0
 11
192283.7365108942
 21
-2597.074838274638
 31
0.0
  0
LINE
  5
F1
330
1F
100
AcDbEntity
  8
SECTIONCUTEDGES
100
AcDbLine
 10
192182.7305837655
 20
-2538.738418291578
 30
0.0
 11
192162.8385919191
 21
-2537.431569646395
 31
0.0
  0
LINE
  5
F2
330
1F
100
AcDbEntity
  8
SECTIONCUTEDGES
100
AcDbLine
 10
192313.9144998145
 20
-2669.962509525183
 30
0.0
 11
192310.0283923371
 21
-2650.410083546009
 31
0.0
  0
LINE
  5
F3
330
1F
100
AcDbEntity
  8
SECTIONCUTEDGES
100
AcDbLine
 10
192303.6234273361
 20
-2631.532170093152
 30
0.0
 11
192294.8091955385
 21
-2613.651775499737
 31
0.0
  0
LINE
  5
F4
330
1F
100
AcDbEntity
  8
SECTIONCUTEDGES
100
AcDbLine
 10
192255.6090109797
 20
-2568.938724289641
 30
0.0
 11
192239.0354650315
 21
-2557.86096424083
 31
0.0
  0
LINE
  5
F5
330
1F
100
AcDbEntity
  8
SECTIONCUTEDGES
100
AcDbLine
 10
192310.0283923371
 20
-2650.410083546009
 30
0.0
 11
192303.6234273361
 21
-2631.532170093152
 31
0.0
  0
LINE
  5
F6
330
1F
100
AcDbEntity
  8
SECTIONCUTEDGES
100
AcDbLine
 10
192074.3001874004
 20
-2836.264131911344
 30
0.0
 11
192078.0898411445
 21
-2846.726779527376
 31
0.0
  0
LINE
  5
F7
330
1F
100
AcDbEntity
  8
SECTIONCUTEDGES
100
AcDbLine
 10
192081.2170856367
 20
-2857.406143390643
 30
0.0
 11
192083.6696533822
 21
-2868.260330697472
 31
0.0
  0
LINE
  5
F8
330
1F
100
AcDbEntity
  8
SECTIONCUTEDGES
100
AcDbLine
 10
192162.8385919191
 20
-2537.431569646395
 30
0.0
 11
192142.9462008431
 21
-2538.732327223914
 31
0.0
  0
LINE
  5
F9
330
1F
100
AcDbEntity
  8
SECTIONCUTEDGES
100
AcDbLine
 10
192069.8629903852
 20
-2826.059243215891
 30
0.0
 11
192074.3001874004
 21
-2836.264131911344
 31
0.0
  0
LINE
  5
FA
330
1F
100
AcDbEntity
  8
SECTIONCUTEDGES
100
AcDbLine
 10
192142.9462008431
 20
-2538.732327223914
 30
0.0
 11
192123.3937748639
 21
-2542.618434701344
 31
0.0
  0
LINE
  5
FB
330
1F
100
AcDbEntity
  8
SECTIONCUTEDGES
100
AcDbLine
 10
192123.3937748639
 20
-2542.618434701344
 30
0.0
 11
192104.5158614111
 21
-2549.023399702315
 31
0.0
  0
LINE
  5
FC
330
1F
100
AcDbEntity
  8
SECTIONCUTEDGES
100
AcDbLine
 10
192104.5158614111
 20
-2549.023399702315
 30
0.0
 11
192086.6354668177
 21
-2557.837631499867
 31
0.0
  0
LINE
  5
FD
330
1F
100
AcDbEntity
  8
SECTIONCUTEDGES
100
AcDbLine
 10
192086.6354668177
 20
-2557.837631499867
 30
0.0
 11
192070.0585295926
 21
-2568.910316144179
 31
0.0
  0
LINE
  5
FE
330
1F
100
AcDbEntity
  8
SECTIONCUTEDGES
100
AcDbLine
 10
192064.7956562504
 20
-2816.152144982606
 30
0.0
 11
192069.8629903852
 21
-2826.059243215891
 31
0.0
  0
LINE
  5
FF
330
1F
100
AcDbEntity
  8
SECTIONCUTEDGES
100
AcDbLine
 10
192070.0585295926
 20
-2568.910316144179
 30
0.0
 11
192055.0686857277
 21
-2582.051996931057
 31
0.0
  0
LINE
  5
100
330
1F
100
AcDbEntity
  8
SECTIONCUTEDGES
100
AcDbLine
 10
192055.0686857277
 20
-2582.051996931057
 30
0.0
 11
192041.9224156076
 21
-2597.037816058676
 31
0.0
  0
LINE
  5
101
330
1F
100
AcDbEntity
  8
SECTIONCUTEDGES
100
AcDbLine
 10
192041.9224156076
 20
-2597.037816058676
 30
0.0
 11
192030.8446555588
 21
-2613.611362006909
 31
0.0
  0
LINE
  5
102
330
1F
100
AcDbEntity
  8
SECTIONCUTEDGES
100
AcDbLine
 10
192030.8446555588
 20
-2613.611362006909
 30
0.0
 11
192022.024949127
 21
-2631.489056809526
 31
0.0
  0
LINE
  5
103
330
1F
100
AcDbEntity
  8
SECTIONCUTEDGES
100
AcDbLine
 10
192022.024949127
 20
-2631.489056809526
 30
0.0
 11
192015.6142039347
 21
-2650.365008151821
 31
0.0
  0
LINE
  5
104
330
1F
100
AcDbEntity
  8
SECTIONCUTEDGES
100
AcDbLine
 10
192015.6142039347
 20
-2650.365008151821
 30
0.0
 11
192011.7221096095
 21
-2669.916243272924
 31
0.0
  0
LINE
  5
105
330
1F
100
AcDbEntity
  8
SECTIONCUTEDGES
100
AcDbLine
 10
192011.7221096095
 20
-2669.916243272924
 30
0.0
 11
192010.4152609643
 21
-2689.808235119288
 31
0.0
  0
LINE
  5
106
330
1F
100
AcDbEntity
  8
SECTIONCUTEDGES
100
AcDbLine
 10
192059.1180630371
 20
-2806.581700586372
 30
0.0
 11
192064.7956562504
 21
-2816.152144982606
 31
0.0
  0
LINE
  5
107
330
1F
100
AcDbEntity
  8
SECTIONCUTEDGES
100
AcDbLine
 10
192010.4152609643
 20
-2689.808235119288
 30
0.0
 11
192010.9922338435
 21
-2703.183967061463
 31
0.0
  0
LINE
  5
108
330
1F
100
AcDbEntity
  8
SECTIONCUTEDGES
100
AcDbLine
 10
192010.9922338435
 20
-2703.183967061463
 30
0.0
 11
192012.7229313637
 21
-2716.459801829415
 31
0.0
  0
LINE
  5
109
330
1F
100
AcDbEntity
  8
SECTIONCUTEDGES
100
AcDbLine
 10
192012.7229313637
 20
-2716.459801829415
 30
0.0
 11
192015.5944048023
 21
-2729.536412360579
 31
0.0
  0
LINE
  5
10A
330
1F
100
AcDbEntity
  8
SECTIONCUTEDGES
100
AcDbLine
 10
192015.5944048023
 20
-2729.536412360579
 30
0.0
 11
192019.5851703862
 21
-2742.315962147115
 31
0.0
  0
LINE
  5
10B
330
1F
100
AcDbEntity
  8
SECTIONCUTEDGES
100
AcDbLine
 10
192052.8524826989
 20
-2797.385452782852
 30
0.0
 11
192059.1180630371
 21
-2806.581700586372
 31
0.0
  0
LINE
  5
10C
330
1F
100
AcDbEntity
  8
SECTIONCUTEDGES
100
AcDbLine
 10
192078.0898411445
 20
-2846.726779527376
 30
0.0
 11
192081.2170856367
 21
-2857.406143390643
 31
0.0
  0
LINE
  5
10D
330
1F
100
AcDbEntity
  8
SECTIONCUTEDGES
100
AcDbLine
 10
192046.0234937342
 20
-2788.5994764365
 30
0.0
 11
192052.8524826989
 21
-2797.385452782852
 31
0.0
  0
LINE
  5
10E
330
1F
100
AcDbEntity
  8
SECTIONCUTEDGES
100
AcDbLine
 10
192083.6696533822
 20
-2868.260330697472
 30
0.0
 11
192085.4379234953
 21
-2879.246762850133
 31
0.0
  0
LINE
  5
10F
330
1F
100
AcDbEntity
  8
SECTIONCUTEDGES
100
AcDbLine
 10
192086.5811570537
 20
-2912.566976633602
 30
0.0
 11
192086.5472062434
 21
-3134.319896280181
 31
0.0
  0
LINE
  5
110
330
1F
100
AcDbEntity
  8
SECTIONCUTEDGES
100
AcDbLine
 10
192086.5472062434
 20
-3134.319896280182
 30
0.0
 11
192086.6556027082
 21
-3135.977595536518
 31
0.0
  0
LINE
  5
111
330
1F
100
AcDbEntity
  8
SECTIONCUTEDGES
100
AcDbLine
 10
192086.6556027082
 20
-3135.977595536518
 30
0.0
 11
192086.979444998
 21
-3137.606964368115
 31
0.0
  0
LINE
  5
112
330
1F
100
AcDbEntity
  8
SECTIONCUTEDGES
100
AcDbLine
 10
192019.5851703862
 20
-2742.315962147115
 30
0.0
 11
192024.6653700289
 21
-2754.702837228517
 31
0.0
  0
LINE
  5
113
330
1F
100
AcDbEntity
  8
SECTIONCUTEDGES
100
AcDbLine
 10
192086.979444998
 20
-3137.606964368115
 30
0.0
 11
192087.5131920814
 21
-3139.18012382252
 31
0.0
  0
LINE
  5
114
330
1F
100
AcDbEntity
  8
SECTIONCUTEDGES
100
AcDbLine
 10
192087.5131920814
 20
-3139.18012382252
 30
0.0
 11
192088.2477113979
 21
-3140.670156705305
 31
0.0
  0
LINE
  5
115
330
1F
100
AcDbEntity
  8
SECTIONCUTEDGES
100
AcDbLine
 10
192088.2477113979
 20
-3140.670156705305
 30
0.0
 11
192089.1704351182
 21
-3142.051568140729
 31
0.0
  0
LINE
  5
116
330
1F
100
AcDbEntity
  8
SECTIONCUTEDGES
100
AcDbLine
 10
192037.9341689137
 20
-2777.93149037352
 30
0.0
 11
192046.0234937342
 21
-2788.5994764365
 31
0.0
  0
LINE
  5
117
330
1F
100
AcDbEntity
  8
SECTIONCUTEDGES
100
AcDbLine
 10
192089.1704351182
 20
-3142.051568140729
 30
0.0
 11
192090.2655751838
 21
-3143.300721796135
 31
0.0
  0
LINE
  5
118
330
1F
100
AcDbEntity
  8
SECTIONCUTEDGES
100
AcDbLine
 10
192090.2655751838
 20
-3143.300721796135
 30
0.0
 11
192091.5143934444
 21
-3144.396244306146
 31
0.0
  0
LINE
  5
119
330
1F
100
AcDbEntity
  8
SECTIONCUTEDGES
100
AcDbLine
 10
192091.5143934444
 20
-3144.396244306146
 30
0.0
 11
192092.8955222734
 21
-3145.31939097688
 31
0.0
  0
LINE
  5
11A
330
1F
100
AcDbEntity
  8
SECTIONCUTEDGES
100
AcDbLine
 10
192092.8955222734
 20
-3145.31939097688
 30
0.0
 11
192094.3853301737
 21
-3146.054366512857
 31
0.0
  0
LINE
  5
11B
330
1F
100
AcDbEntity
  8
SECTIONCUTEDGES
100
AcDbLine
 10
192094.3853301737
 20
-3146.054366512857
 30
0.0
 11
192095.9583261189
 21
-3146.588595278881
 31
0.0
  0
LINE
  5
11C
330
1F
100
AcDbEntity
  8
SECTIONCUTEDGES
100
AcDbLine
 10
192095.9583261189
 20
-3146.588595278881
 30
0.0
 11
192097.5875957123
 21
-3146.912936472651
 31
0.0
  0
LINE
  5
11D
330
1F
100
AcDbEntity
  8
SECTIONCUTEDGES
100
AcDbLine
 10
192097.5875957123
 20
-3146.912936472651
 30
0.0
 11
192099.2452616995
 21
-3147.021840526416
 31
0.0
  0
LINE
  5
11E
330
1F
100
AcDbEntity
  8
SECTIONCUTEDGES
100
AcDbLine
 10
192030.7969947226
 20
-2766.604361555579
 30
0.0
 11
192037.9341689137
 21
-2777.93149037352
 31
0.0
  0
LINE
  5
11F
330
1F
100
AcDbEntity
  8
SECTIONCUTEDGES
100
AcDbLine
 10
192099.2452616995
 20
-3147.021840526416
 30
0.0
 11
192296.0952593924
 21
-3147.05197865016
 31
0.0
  0
LINE
  5
120
330
1F
100
AcDbEntity
  8
SECTIONCUTEDGES
100
AcDbLine
 10
192024.6653700289
 20
-2754.702837228517
 30
0.0
 11
192030.7969947226
 21
-2766.604361555579
 31
0.0
  0
LINE
  5
121
330
1F
100
AcDbEntity
  8
SECTIONCUTEDGES
100
AcDbLine
 10
192085.4379234953
 20
-2879.246762850133
 30
0.0
 11
192086.5149594399
 21
-2890.322342483355
 31
0.0
  0
LINE
  5
122
330
1F
100
AcDbEntity
  8
SECTIONCUTEDGES
100
AcDbLine
 10
192086.8965362401
 20
-2901.44362252584
 30
0.0
 11
192086.5811570537
 21
-2912.566976633602
 31
0.0
  0
LINE
  5
123
330
1F
100
AcDbEntity
  8
SECTIONCUTEDGES
100
AcDbLine
 10
192086.5149594399
 20
-2890.322342483355
 30
0.0
 11
192086.8965362401
 21
-2901.44362252584
 31
0.0
  0
LINE
  5
124
330
1F
100
AcDbEntity
  8
SECTIONCUTEDGES
100
AcDbLine
 10
192296.0952593924
 20
-3147.05197865016
 30
0.0
 11
192298.5818082769
 21
-3146.88938395297
 31
0.0
  0
LINE
  5
125
330
1F
100
AcDbEntity
  8
SECTIONCUTEDGES
100
AcDbLine
 10
192298.5818082769
 20
-3146.88938395297
 30
0.0
 11
192301.0258615243
 21
-3146.403620518291
 31
0.0
  0
LINE
  5
126
330
1F
100
AcDbEntity
  8
SECTIONCUTEDGES
100
AcDbLine
 10
192301.0258615243
 20
-3146.403620518291
 30
0.0
 11
192303.3856007059
 21
-3145.60299989317
 31
0.0
  0
LINE
  5
127
330
1F
100
AcDbEntity
  8
SECTIONCUTEDGES
100
AcDbLine
 10
192303.3856007059
 20
-3145.60299989317
 30
0.0
 11
192305.6206500301
 21
-3144.501220918476
 31
0.0
  0
LINE
  5
128
330
1F
100
AcDbEntity
  8
SECTIONCUTEDGES
100
AcDbLine
 10
192305.6206500301
 20
-3144.501220918476
 30
0.0
 11
192307.6927671832
 21
-3143.117135337937
 31
0.0
  0
LINE
  5
129
330
1F
100
AcDbEntity
  8
SECTIONCUTEDGES
100
AcDbLine
 10
192307.6927671832
 20
-3143.117135337937
 30
0.0
 11
192309.5664976663
 21
-3141.474425239577
 31
0.0
  0
LINE
  5
12A
330
1F
100
AcDbEntity
  8
SECTIONCUTEDGES
100
AcDbLine
 10
192309.5664976663
 20
-3141.474425239577
 30
0.0
 11
192311.2097814313
 21
-3139.601197848624
 31
0.0
  0
LINE
  5
12B
330
1F
100
AcDbEntity
  8
SECTIONCUTEDGES
100
AcDbLine
 10
192311.2097814313
 20
-3139.601197848624
 30
0.0
 11
192312.5945014374
 21
-3137.529504605096
 31
0.0
  0
LINE
  5
12C
330
1F
100
AcDbEntity
  8
SECTIONCUTEDGES
100
AcDbLine
 10
192312.5945014374
 20
-3137.529504605096
 30
0.0
 11
192313.6969647414
 21
-3135.294792754768
 31
0.0
  0
LINE
  5
12D
330
1F
100
AcDbEntity
  8
SECTIONCUTEDGES
100
AcDbLine
 10
192313.6969647414
 20
-3135.294792754768
 30
0.0
 11
192314.4983078904
 21
-3132.935298836981
 31
0.0
  0
LINE
  5
12E
330
1F
100
AcDbEntity
  8
SECTIONCUTEDGES
100
AcDbLine
 10
192314.4983078904
 20
-3132.935298836981
 30
0.0
 11
192314.9848196811
 21
-3130.491394446844
 31
0.0
  0
LINE
  5
12F
330
1F
100
AcDbEntity
  8
SECTIONCUTEDGES
100
AcDbLine
 10
192314.9848196811
 20
-3130.491394446844
 30
0.0
 11
192315.1481757617
 21
-3128.004895466048
 31
0.0
  0
LINE
  5
130
330
1F
100
AcDbEntity
  8
SECTIONCUTEDGES
100
AcDbLine
 10
192315.1481757617
 20
-3128.004895466048
 30
0.0
 11
192315.215257392
 21
-2689.854900601214
 31
0.0
  0
LINE
  5
131
330
1F
100
AcDbEntity
  8
SECTIONCUTEDGES
100
AcDbLine
 10
192331.0610912798
 20
-2880.357328862383
 30
0.0
 11
192328.9889672093
 21
-2880.492824443375
 31
0.0
  0
LINE
  5
132
330
1F
100
AcDbEntity
  8
SECTIONCUTEDGES
100
AcDbLine
 10
192328.9889672093
 20
-2880.492824443375
 30
0.0
 11
192326.9522561699
 21
-2880.897627305607
 31
0.0
  0
LINE
  5
133
330
1F
100
AcDbEntity
  8
SECTIONCUTEDGES
100
AcDbLine
 10
192326.9522561699
 20
-2880.897627305607
 30
0.0
 11
192324.9858068518
 21
-2881.564811159875
 31
0.0
  0
LINE
  5
134
330
1F
100
AcDbEntity
  8
SECTIONCUTEDGES
100
AcDbLine
 10
192324.9858068518
 20
-2881.564811159875
 30
0.0
 11
192323.1232657483
 21
-2882.482960305453
 31
0.0
  0
LINE
  5
135
330
1F
100
AcDbEntity
  8
SECTIONCUTEDGES
100
AcDbLine
 10
192323.1232657483
 20
-2882.482960305453
 30
0.0
 11
192321.3965014541
 21
-2883.636364955902
 31
0.0
  0
LINE
  5
136
330
1F
100
AcDbEntity
  8
SECTIONCUTEDGES
100
AcDbLine
 10
192321.3965014541
 20
-2883.636364955902
 30
0.0
 11
192319.8350593848
 21
-2885.005290037869
 31
0.0
  0
LINE
  5
137
330
1F
100
AcDbEntity
  8
SECTIONCUTEDGES
100
AcDbLine
 10
192319.8350593848
 20
-2885.005290037869
 30
0.0
 11
192318.4656562473
 21
-2886.566312863662
 31
0.0
  0
LINE
  5
138
330
1F
100
AcDbEntity
  8
SECTIONCUTEDGES
100
AcDbLine
 10
192318.4656562473
 20
-2886.566312863662
 30
0.0
 11
192317.3117229089
 21
-2888.292723899936
 31
0.0
  0
LINE
  5
139
330
1F
100
AcDbEntity
  8
SECTIONCUTEDGES
100
AcDbLine
 10
192317.3117229089
 20
-2888.292723899936
 30
0.0
 11
192316.3930034889
 21
-2890.154983775209
 31
0.0
  0
LINE
  5
13A
330
1F
100
AcDbEntity
  8
SECTIONCUTEDGES
100
AcDbLine
 10
192316.3930034889
 20
-2890.154983775209
 30
0.0
 11
192315.7252175314
 21
-2892.121228706698
 31
0.0
  0
LINE
  5
13B
330
1F
100
AcDbEntity
  8
SECTIONCUTEDGES
100
AcDbLine
 10
192315.7252175314
 20
-2892.121228706698
 30
0.0
 11
192315.3197910392
 21
-2894.15781569848
 31
0.0
  0
LINE
  5
13C
330
1F
100
AcDbEntity
  8
SECTIONCUTEDGES
100
AcDbLine
 10
192315.3197910392
 20
-2894.15781569848
 30
0.0
 11
192315.183660972
 21
-2896.229898182476
 31
0.0
  0
LINE
  5
13D
330
1F
100
AcDbEntity
  8
SECTIONCUTEDGES
100
AcDbLine
 10
192328.9481764991
 20
-3146.921195669424
 30
0.0
 11
192331.0202589831
 21
-3147.05732573663
 31
0.0
  0
LINE
  5
13E
330
1F
100
AcDbEntity
  8
SECTIONCUTEDGES
100
AcDbLine
 10
192326.9115895073
 20
-3146.515769177211
 30
0.0
 11
192328.9481764991
 21
-3146.921195669424
 31
0.0
  0
LINE
  5
13F
330
1F
100
AcDbEntity
  8
SECTIONCUTEDGES
100
AcDbLine
 10
192324.9453445758
 20
-3145.84798321968
 30
0.0
 11
192326.9115895073
 21
-3146.515769177211
 31
0.0
  0
LINE
  5
140
330
1F
100
AcDbEntity
  8
SECTIONCUTEDGES
100
AcDbLine
 10
192323.0830847006
 20
-3144.92926379971
 30
0.0
 11
192324.9453445758
 21
-3145.84798321968
 31
0.0
  0
LINE
  5
141
330
1F
100
AcDbEntity
  8
SECTIONCUTEDGES
100
AcDbLine
 10
192321.3566736643
 20
-3143.775330461292
 30
0.0
 11
192323.0830847006
 21
-3144.92926379971
 31
0.0
  0
LINE
  5
142
330
1F
100
AcDbEntity
  8
SECTIONCUTEDGES
100
AcDbLine
 10
192319.7956508385
 20
-3142.405927323779
 30
0.0
 11
192321.3566736643
 21
-3143.775330461292
 31
0.0
  0
LINE
  5
143
330
1F
100
AcDbEntity
  8
SECTIONCUTEDGES
100
AcDbLine
 10
192318.4267257565
 20
-3140.844485254522
 30
0.0
 11
192319.7956508385
 21
-3142.405927323779
 31
0.0
  0
LINE
  5
144
330
1F
100
AcDbEntity
  8
SECTIONCUTEDGES
100
AcDbLine
 10
192317.2733211061
 20
-3139.117720960241
 30
0.0
 11
192318.4267257565
 21
-3140.844485254522
 31
0.0
  0
LINE
  5
145
330
1F
100
AcDbEntity
  8
SECTIONCUTEDGES
100
AcDbLine
 10
192316.3551719605
 20
-3137.25517985676
 30
0.0
 11
192317.2733211061
 21
-3139.117720960241
 31
0.0
  0
LINE
  5
146
330
1F
100
AcDbEntity
  8
SECTIONCUTEDGES
100
AcDbLine
 10
192315.6879881062
 20
-3135.288730538754
 30
0.0
 11
192316.3551719605
 21
-3137.25517985676
 31
0.0
  0
LINE
  5
147
330
1F
100
AcDbEntity
  8
SECTIONCUTEDGES
100
AcDbLine
 10
192315.283185244
 20
-3133.252019499257
 30
0.0
 11
192315.6879881062
 21
-3135.288730538754
 31
0.0
  0
LINE
  5
148
330
1F
100
AcDbEntity
  8
SECTIONCUTEDGES
100
AcDbLine
 10
192315.147689663
 20
-3131.179895428837
 30
0.0
 11
192315.283185244
 21
-3133.252019499257
 31
0.0
  0
LINE
  5
149
330
1F
100
AcDbEntity
  8
SECTIONCUTEDGES
100
AcDbLine
 10
192315.183660972
 20
-2896.229898182476
 30
0.0
 11
192315.147689663
 21
-3131.179895428837
 31
0.0
  0
LINE
  5
14A
330
1F
100
AcDbEntity
  8
SECTIONCUTEDGES
100
AcDbLine
 10
193940.7836419198
 20
-2896.478780752745
 30
0.0
 11
193940.6481463388
 21
-2894.406656682325
 31
0.0
  0
LINE
  5
14B
330
1F
100
AcDbEntity
  8
SECTIONCUTEDGES
100
AcDbLine
 10
193940.6481463388
 20
-2894.406656682325
 30
0.0
 11
193940.2433434766
 21
-2892.369945642828
 31
0.0
  0
LINE
  5
14C
330
1F
100
AcDbEntity
  8
SECTIONCUTEDGES
100
AcDbLine
 10
193940.2433434766
 20
-2892.369945642828
 30
0.0
 11
193939.5761596223
 21
-2890.403496324822
 31
0.0
  0
LINE
  5
14D
330
1F
100
AcDbEntity
  8
SECTIONCUTEDGES
100
AcDbLine
 10
193939.5761596223
 20
-2890.403496324822
 30
0.0
 11
193938.6580104767
 21
-2888.540955221342
 31
0.0
  0
LINE
  5
14E
330
1F
100
AcDbEntity
  8
SECTIONCUTEDGES
100
AcDbLine
 10
193938.6580104767
 20
-2888.540955221342
 30
0.0
 11
193937.5046058263
 21
-2886.81419092706
 31
0.0
  0
LINE
  5
14F
330
1F
100
AcDbEntity
  8
SECTIONCUTEDGES
100
AcDbLine
 10
193937.5046058263
 20
-2886.81419092706
 30
0.0
 11
193936.1356807443
 21
-2885.252748857804
 31
0.0
  0
LINE
  5
150
330
1F
100
AcDbEntity
  8
SECTIONCUTEDGES
100
AcDbLine
 10
193936.1356807443
 20
-2885.252748857804
 30
0.0
 11
193934.5746579185
 21
-2883.88334572029
 31
0.0
  0
LINE
  5
151
330
1F
100
AcDbEntity
  8
SECTIONCUTEDGES
100
AcDbLine
 10
193934.5746579185
 20
-2883.88334572029
 30
0.0
 11
193932.8482468822
 21
-2882.729412381872
 31
0.0
  0
LINE
  5
152
330
1F
100
AcDbEntity
  8
SECTIONCUTEDGES
100
AcDbLine
 10
193932.8482468822
 20
-2882.729412381872
 30
0.0
 11
193930.9859870069
 21
-2881.810692961901
 31
0.0
  0
LINE
  5
153
330
1F
100
AcDbEntity
  8
SECTIONCUTEDGES
100
AcDbLine
 10
193930.9859870069
 20
-2881.810692961901
 30
0.0
 11
193929.0197420754
 21
-2881.14290700437
 31
0.0
  0
LINE
  5
154
330
1F
100
AcDbEntity
  8
SECTIONCUTEDGES
100
AcDbLine
 10
193929.0197420754
 20
-2881.14290700437
 30
0.0
 11
193926.9831550837
 21
-2880.737480512158
 31
0.0
  0
LINE
  5
155
330
1F
100
AcDbEntity
  8
SECTIONCUTEDGES
100
AcDbLine
 10
193926.9831550837
 20
-2880.737480512158
 30
0.0
 11
193924.9110725997
 21
-2880.601350444952
 31
0.0
  0
LINE
  5
156
330
1F
100
AcDbEntity
  8
SECTIONCUTEDGES
100
AcDbLine
 10
193940.6115405436
 20
-3133.500860483102
 30
0.0
 11
193940.7476706108
 21
-3131.428777999106
 31
0.0
  0
LINE
  5
157
330
1F
100
AcDbEntity
  8
SECTIONCUTEDGES
100
AcDbLine
 10
193940.2061140514
 20
-3135.537447474884
 30
0.0
 11
193940.6115405436
 21
-3133.500860483102
 31
0.0
  0
LINE
  5
158
330
1F
100
AcDbEntity
  8
SECTIONCUTEDGES
100
AcDbLine
 10
193939.5383280939
 20
-3137.503692406373
 30
0.0
 11
193940.2061140514
 21
-3135.537447474884
 31
0.0
  0
LINE
  5
159
330
1F
100
AcDbEntity
  8
SECTIONCUTEDGES
100
AcDbLine
 10
193938.6196086739
 20
-3139.365952281646
 30
0.0
 11
193939.5383280939
 21
-3137.503692406373
 31
0.0
  0
LINE
  5
15A
330
1F
100
AcDbEntity
  8
SECTIONCUTEDGES
100
AcDbLine
 10
193937.4656753355
 20
-3141.09236331792
 30
0.0
 11
193938.6196086739
 21
-3139.365952281646
 31
0.0
  0
LINE
  5
15B
330
1F
100
AcDbEntity
  8
SECTIONCUTEDGES
100
AcDbLine
 10
193936.0962721979
 20
-3142.653386143713
 30
0.0
 11
193937.4656753355
 21
-3141.09236331792
 31
0.0
  0
LINE
  5
15C
330
1F
100
AcDbEntity
  8
SECTIONCUTEDGES
100
AcDbLine
 10
193934.5348301287
 20
-3144.02231122568
 30
0.0
 11
193936.0962721979
 21
-3142.653386143713
 31
0.0
  0
LINE
  5
15D
330
1F
100
AcDbEntity
  8
SECTIONCUTEDGES
100
AcDbLine
 10
193932.8080658344
 20
-3145.175715876129
 30
0.0
 11
193934.5348301287
 21
-3144.02231122568
 31
0.0
  0
LINE
  5
15E
330
1F
100
AcDbEntity
  8
SECTIONCUTEDGES
100
AcDbLine
 10
193930.9455247309
 20
-3146.093865021707
 30
0.0
 11
193932.8080658344
 21
-3145.175715876129
 31
0.0
  0
LINE
  5
15F
330
1F
100
AcDbEntity
  8
SECTIONCUTEDGES
100
AcDbLine
 10
193928.9790754129
 20
-3146.761048875975
 30
0.0
 11
193930.9455247309
 21
-3146.093865021707
 31
0.0
  0
LINE
  5
160
330
1F
100
AcDbEntity
  8
SECTIONCUTEDGES
100
AcDbLine
 10
193926.9423643734
 20
-3147.165851738207
 30
0.0
 11
193928.9790754129
 21
-3146.761048875975
 31
0.0
  0
LINE
  5
161
330
1F
100
AcDbEntity
  8
SECTIONCUTEDGES
100
AcDbLine
 10
193924.870240303
 20
-3147.3013473192
 30
0.0
 11
193926.9423643734
 21
-3147.165851738207
 31
0.0
  0
LINE
  5
162
330
1F
100
AcDbEntity
  8
SECTIONCUTEDGES
100
AcDbLine
 10
193940.7476706108
 20
-3131.428777999106
 30
0.0
 11
193940.7836419198
 21
-2896.478780752745
 31
0.0
  0
LINE
  5
163
330
1F
100
AcDbEntity
  8
SECTIONCUTEDGES
100
AcDbLine
 10
192331.0202589831
 20
-3147.05732573663
 30
0.0
 11
193924.870240303
 21
-3147.3013473192
 31
0.0
  0
LINE
  5
164
330
1F
100
AcDbEntity
  8
SECTIONCUTEDGES
100
AcDbLine
 10
193924.9110725997
 20
-2880.601350444952
 30
0.0
 11
192331.0610912798
 21
-2880.357328862383
 31
0.0
  0
LINE
  5
165
330
1F
100
AcDbEntity
  8
SECTIONCUTEDGES
100
AcDbLine
 10
192337.3935559251
 20
-2724.783296551881
 30
0.0
 11
192334.9124048906
 21
-2724.945538285256
 31
0.0
  0
LINE
  5
166
330
1F
100
AcDbEntity
  8
SECTIONCUTEDGES
100
AcDbLine
 10
192334.9124048906
 20
-2724.945538285256
 30
0.0
 11
192332.4736572428
 21
-2725.43024721497
 31
0.0
  0
LINE
  5
167
330
1F
100
AcDbEntity
  8
SECTIONCUTEDGES
100
AcDbLine
 10
192332.4736572428
 20
-2725.43024721497
 30
0.0
 11
192330.1190406301
 21
-2726.229129836851
 31
0.0
  0
LINE
  5
168
330
1F
100
AcDbEntity
  8
SECTIONCUTEDGES
100
AcDbLine
 10
192330.1190406301
 20
-2726.229129836851
 30
0.0
 11
192327.8888431957
 21
-2727.328517047745
 31
0.0
  0
LINE
  5
169
330
1F
100
AcDbEntity
  8
SECTIONCUTEDGES
100
AcDbLine
 10
192327.8888431957
 20
-2727.328517047745
 30
0.0
 11
192325.8212242358
 21
-2728.709598027666
 31
0.0
  0
LINE
  5
16A
330
1F
100
AcDbEntity
  8
SECTIONCUTEDGES
100
AcDbLine
 10
192325.8212242358
 20
-2728.709598027666
 30
0.0
 11
192323.9515612843
 21
-2730.348742098141
 31
0.0
  0
LINE
  5
16B
330
1F
100
AcDbEntity
  8
SECTIONCUTEDGES
100
AcDbLine
 10
192323.9515612843
 20
-2730.348742098141
 30
0.0
 11
192322.3118447924
 21
-2732.217903049666
 31
0.0
  0
LINE
  5
16C
330
1F
100
AcDbEntity
  8
SECTIONCUTEDGES
100
AcDbLine
 10
192322.3118447924
 20
-2732.217903049666
 30
0.0
 11
192320.9301307642
 21
-2734.285099020131
 31
0.0
  0
LINE
  5
16D
330
1F
100
AcDbEntity
  8
SECTIONCUTEDGES
100
AcDbLine
 10
192320.9301307642
 20
-2734.285099020131
 30
0.0
 11
192319.8300607096
 21
-2736.514959713348
 31
0.0
  0
LINE
  5
16E
330
1F
100
AcDbEntity
  8
SECTIONCUTEDGES
100
AcDbLine
 10
192319.8300607096
 20
-2736.514959713348
 30
0.0
 11
192319.0304571323
 21
-2738.869331594621
 31
0.0
  0
LINE
  5
16F
330
1F
100
AcDbEntity
  8
SECTIONCUTEDGES
100
AcDbLine
 10
192319.0304571323
 20
-2738.869331594621
 30
0.0
 11
192318.5450014711
 21
-2741.307930708305
 31
0.0
  0
LINE
  5
170
330
1F
100
AcDbEntity
  8
SECTIONCUTEDGES
100
AcDbLine
 10
192318.5450014711
 20
-2741.307930708305
 30
0.0
 11
192318.3820000071
 21
-2743.789031947459
 31
0.0
  0
LINE
  5
171
330
1F
100
AcDbEntity
  8
SECTIONCUTEDGES
100
AcDbLine
 10
192334.8886358462
 20
-2880.19529326452
 30
0.0
 11
192337.3697370854
 21
-2880.358294728526
 31
0.0
  0
LINE
  5
172
330
1F
100
AcDbEntity
  8
SECTIONCUTEDGES
100
AcDbLine
 10
192332.4500367325
 20
-2879.709837603375
 30
0.0
 11
192334.8886358462
 21
-2880.19529326452
 31
0.0
  0
LINE
  5
173
330
1F
100
AcDbEntity
  8
SECTIONCUTEDGES
100
AcDbLine
 10
192330.0956648513
 20
-2878.910234026049
 30
0.0
 11
192332.4500367325
 21
-2879.709837603375
 31
0.0
  0
LINE
  5
174
330
1F
100
AcDbEntity
  8
SECTIONCUTEDGES
100
AcDbLine
 10
192327.865804158
 20
-2877.81016397144
 30
0.0
 11
192330.0956648513
 21
-2878.910234026049
 31
0.0
  0
LINE
  5
175
330
1F
100
AcDbEntity
  8
SECTIONCUTEDGES
100
AcDbLine
 10
192325.7986081876
 20
-2876.42844994318
 30
0.0
 11
192327.865804158
 21
-2877.81016397144
 31
0.0
  0
LINE
  5
176
330
1F
100
AcDbEntity
  8
SECTIONCUTEDGES
100
AcDbLine
 10
192323.9294472361
 20
-2874.788733451375
 30
0.0
 11
192325.7986081876
 21
-2876.42844994318
 31
0.0
  0
LINE
  5
177
330
1F
100
AcDbEntity
  8
SECTIONCUTEDGES
100
AcDbLine
 10
192322.2903031656
 20
-2872.919070499817
 30
0.0
 11
192323.9294472361
 21
-2874.788733451375
 31
0.0
  0
LINE
  5
178
330
1F
100
AcDbEntity
  8
SECTIONCUTEDGES
100
AcDbLine
 10
192320.9092221856
 20
-2870.851451539975
 30
0.0
 11
192322.2903031656
 21
-2872.919070499817
 31
0.0
  0
LINE
  5
179
330
1F
100
AcDbEntity
  8
SECTIONCUTEDGES
100
AcDbLine
 10
192319.0109523529
 20
-2866.266637492834
 30
0.0
 11
192319.8098349748
 21
-2868.621254105503
 31
0.0
  0
LINE
  5
17A
330
1F
100
AcDbEntity
  8
SECTIONCUTEDGES
100
AcDbLine
 10
192318.5262434232
 20
-2863.827889845033
 30
0.0
 11
192319.0109523529
 21
-2866.266637492834
 31
0.0
  0
LINE
  5
17B
330
1F
100
AcDbEntity
  8
SECTIONCUTEDGES
100
AcDbLine
 10
192318.3640016898
 20
-2861.346738810502
 30
0.0
 11
192318.5262434232
 21
-2863.827889845033
 31
0.0
  0
LINE
  5
17C
330
1F
100
AcDbEntity
  8
SECTIONCUTEDGES
100
AcDbLine
 10
192318.3820000071
 20
-2743.789031947459
 30
0.0
 11
192318.3640016898
 21
-2861.346738810502
 31
0.0
  0
LINE
  5
17D
330
1F
100
AcDbEntity
  8
SECTIONCUTEDGES
100
AcDbLine
 10
193129.5944904996
 20
-2743.913230183209
 30
0.0
 11
193129.206045149
 21
-2741.367186092161
 31
0.0
  0
LINE
  5
17E
330
1F
100
AcDbEntity
  8
SECTIONCUTEDGES
100
AcDbLine
 10
193129.206045149
 20
-2741.367186092161
 30
0.0
 11
193128.507137781
 21
-2738.888323692792
 31
0.0
  0
LINE
  5
17F
330
1F
100
AcDbEntity
  8
SECTIONCUTEDGES
100
AcDbLine
 10
193128.507137781
 20
-2738.888323692792
 30
0.0
 11
193127.5083996841
 21
-2736.514349700148
 31
0.0
  0
LINE
  5
180
330
1F
100
AcDbEntity
  8
SECTIONCUTEDGES
100
AcDbLine
 10
193127.5083996841
 20
-2736.514349700148
 30
0.0
 11
193126.2250229612
 21
-2734.281375340451
 31
0.0
  0
LINE
  5
181
330
1F
100
AcDbEntity
  8
SECTIONCUTEDGES
100
AcDbLine
 10
193126.2250229612
 20
-2734.281375340451
 30
0.0
 11
193124.6765294383
 21
-2732.223367052463
 31
0.0
  0
LINE
  5
182
330
1F
100
AcDbEntity
  8
SECTIONCUTEDGES
100
AcDbLine
 10
193124.6765294383
 20
-2732.223367052463
 30
0.0
 11
193122.886473712
 21
-2730.371629813866
 31
0.0
  0
LINE
  5
183
330
1F
100
AcDbEntity
  8
SECTIONCUTEDGES
100
AcDbLine
 10
193122.886473712
 20
-2730.371629813866
 30
0.0
 11
193120.8820848538
 21
-2728.754330951902
 31
0.0
  0
LINE
  5
184
330
1F
100
AcDbEntity
  8
SECTIONCUTEDGES
100
AcDbLine
 10
193120.8820848538
 20
-2728.754330951902
 30
0.0
 11
193118.6938522201
 21
-2727.396071681774
 31
0.0
  0
LINE
  5
185
330
1F
100
AcDbEntity
  8
SECTIONCUTEDGES
100
AcDbLine
 10
193118.6938522201
 20
-2727.396071681774
 30
0.0
 11
193116.35506167
 21
-2726.317512890213
 31
0.0
  0
LINE
  5
186
330
1F
100
AcDbEntity
  8
SECTIONCUTEDGES
100
AcDbLine
 10
193116.35506167
 20
-2726.317512890213
 30
0.0
 11
193113.9012892439
 21
-2725.535060856577
 31
0.0
  0
LINE
  5
187
330
1F
100
AcDbEntity
  8
SECTIONCUTEDGES
100
AcDbLine
 10
193113.9012892439
 20
-2725.535060856577
 30
0.0
 11
193111.3698600058
 21
-2725.060617692046
 31
0.0
  0
LINE
  5
188
330
1F
100
AcDbEntity
  8
SECTIONCUTEDGES
100
AcDbLine
 10
193111.3698600058
 20
-2725.060617692046
 30
0.0
 11
193108.7992802806
 21
-2724.901400293053
 31
0.0
  0
LINE
  5
189
330
1F
100
AcDbEntity
  8
SECTIONCUTEDGES
100
AcDbLine
 10
193129.1872672412
 20
-2864.016862074441
 30
0.0
 11
193129.5764921823
 21
-2861.470937046252
 31
0.0
  0
LINE
  5
18A
330
1F
100
AcDbEntity
  8
SECTIONCUTEDGES
100
AcDbLine
 10
193128.4876008686
 20
-2866.495510349406
 30
0.0
 11
193129.1872672412
 21
-2864.016862074441
 31
0.0
  0
LINE
  5
18B
330
1F
100
AcDbEntity
  8
SECTIONCUTEDGES
100
AcDbLine
 10
193127.4881358982
 20
-2868.869178413211
 30
0.0
 11
193128.4876008686
 21
-2866.495510349406
 31
0.0
  0
LINE
  5
18C
330
1F
100
AcDbEntity
  8
SECTIONCUTEDGES
100
AcDbLine
 10
193126.2040754899
 20
-2871.101759693208
 30
0.0
 11
193127.4881358982
 21
-2868.869178413211
 31
0.0
  0
LINE
  5
18D
330
1F
100
AcDbEntity
  8
SECTIONCUTEDGES
100
AcDbLine
 10
193124.6549518694
 20
-2873.159293729888
 30
0.0
 11
193126.2040754899
 21
-2871.101759693208
 31
0.0
  0
LINE
  5
18E
330
1F
100
AcDbEntity
  8
SECTIONCUTEDGES
100
AcDbLine
 10
193122.8643292178
 20
-2875.010482759549
 30
0.0
 11
193124.6549518694
 21
-2873.159293729888
 31
0.0
  0
LINE
  5
18F
330
1F
100
AcDbEntity
  8
SECTIONCUTEDGES
100
AcDbLine
 10
193120.8594452302
 20
-2876.627167793915
 30
0.0
 11
193122.8643292178
 21
-2875.010482759549
 31
0.0
  0
LINE
  5
190
330
1F
100
AcDbEntity
  8
SECTIONCUTEDGES
100
AcDbLine
 10
193118.6707967948
 20
-2877.9847569549
 30
0.0
 11
193120.8594452302
 21
-2876.627167793915
 31
0.0
  0
LINE
  5
191
330
1F
100
AcDbEntity
  8
SECTIONCUTEDGES
100
AcDbLine
 10
193116.3316760954
 20
-2879.062599549003
 30
0.0
 11
193118.6707967948
 21
-2877.9847569549
 31
0.0
  0
LINE
  5
192
330
1F
100
AcDbEntity
  8
SECTIONCUTEDGES
100
AcDbLine
 10
193113.8776641944
 20
-2879.844300191157
 30
0.0
 11
193116.3316760954
 21
-2879.062599549003
 31
0.0
  0
LINE
  5
193
330
1F
100
AcDbEntity
  8
SECTIONCUTEDGES
100
AcDbLine
 10
193111.3460897986
 20
-2880.317968199823
 30
0.0
 11
193113.8776641944
 21
-2879.844300191157
 31
0.0
  0
LINE
  5
194
330
1F
100
AcDbEntity
  8
SECTIONCUTEDGES
100
AcDbLine
 10
193108.7754614408
 20
-2880.476398469697
 30
0.0
 11
193111.3460897986
 21
-2880.317968199823
 31
0.0
  0
LINE
  5
195
330
1F
100
AcDbEntity
  8
SECTIONCUTEDGES
100
AcDbLine
 10
192337.3697370854
 20
-2880.358294728526
 30
0.0
 11
193108.7754614408
 21
-2880.476398469697
 31
0.0
  0
LINE
  5
196
330
1F
100
AcDbEntity
  8
SECTIONCUTEDGES
100
AcDbLine
 10
193129.5764921823
 20
-2861.470937046252
 30
0.0
 11
193129.5944904996
 21
-2743.913230183209
 31
0.0
  0
LINE
  5
197
330
1F
100
AcDbEntity
  8
SECTIONCUTEDGES
100
AcDbLine
 10
193108.7992802806
 20
-2724.901400293053
 30
0.0
 11
192337.3935559251
 21
-2724.783296551881
 31
0.0
  0
LINE
  5
198
330
1F
100
AcDbEntity
  8
SECTIONCUTEDGES
100
AcDbLine
 10
192319.8098349748
 20
-2868.621254105503
 30
0.0
 11
192320.9092221856
 21
-2870.851451539975
 31
0.0
  0
LINE
  5
199
330
1F
100
AcDbEntity
  8
SECTIONCUTEDGES
100
AcDbLine
 10
175441.7573654413
 20
-3147.336832529415
 30
0.0
 11
179399.951923193
 21
-3147.336832529409
 31
0.0
  0
LINE
  5
19A
330
1F
100
AcDbEntity
  8
SECTIONCUTEDGES
100
AcDbLine
 10
187789.7478520912
 20
-2847.33683252935
 30
0.0
 11
180683.7196173097
 21
-2847.336832529521
 31
0.0
  0
LINE
  5
19B
330
1F
100
AcDbEntity
  8
SECTIONCUTEDGES
100
AcDbLine
 10
180683.7196173097
 20
-3147.336832529524
 30
0.0
 11
180137.4099832514
 21
-3147.336832529486
 31
0.0
  0
LINE
  5
19C
330
1F
100
AcDbEntity
  8
SECTIONCUTEDGES
100
AcDbLine
 10
180683.7196173097
 20
-3147.336832529524
 30
0.0
 11
180683.7196173097
 21
-2847.336832529521
 31
0.0
  0
LINE
  5
19D
330
1F
100
AcDbEntity
  8
SECTIONCUTEDGES
100
AcDbLine
 10
187789.7478520912
 20
-2847.33683252935
 30
0.0
 11
187789.7478520912
 21
-3147.336832529415
 31
0.0
  0
LINE
  5
19E
330
1F
100
AcDbEntity
  8
SECTIONCUTEDGES
100
AcDbLine
 10
187789.7478520912
 20
-3147.336832529415
 30
0.0
 11
187401.5603413284
 21
-3147.336832529415
 31
0.0
  0
LINE
  5
19F
330
1F
100
AcDbEntity
  8
SECTIONCUTEDGES
100
AcDbLine
 10
179399.951923193
 20
-3147.336832529409
 30
0.0
 11
180137.4099832514
 21
-3147.336832529486
 31
0.0
  0
LINE
  5
1A0
330
1F
100
AcDbEntity
  8
SECTIONCUTEDGES
100
AcDbLine
 10
183771.4580061013
 20
850.7683046349102
 30
0.0
 11
183770.9858810663
 21
919.474371427189
 31
0.0
  0
LINE
  5
1A1
330
1F
100
AcDbEntity
  8
SECTIONCUTEDGES
100
AcDbLine
 10
183770.9858810663
 20
919.474371427189
 30
0.0
 11
183711.2486193126
 21
953.4185325493012
 31
0.0
  0
LINE
  5
1A2
330
1F
100
AcDbEntity
  8
SECTIONCUTEDGES
100
AcDbLine
 10
183711.2486193126
 20
953.4185325493012
 30
0.0
 11
183651.9834825939
 21
918.6566268791354
 31
0.0
  0
LINE
  5
1A3
330
1F
100
AcDbEntity
  8
SECTIONCUTEDGES
100
AcDbLine
 10
183651.9834825939
 20
918.6566268791354
 30
0.0
 11
183652.4556076288
 21
849.9505600868567
 31
0.0
  0
LINE
  5
1A4
330
1F
100
AcDbEntity
  8
SECTIONCUTEDGES
100
AcDbLine
 10
183652.4556076288
 20
849.9505600868567
 30
0.0
 11
183712.1928693825
 21
816.0063989647446
 31
0.0
  0
LINE
  5
1A5
330
1F
100
AcDbEntity
  8
SECTIONCUTEDGES
100
AcDbLine
 10
183712.1928693825
 20
816.0063989647446
 30
0.0
 11
183771.4580061013
 21
850.7683046349102
 31
0.0
  0
LINE
  5
1A6
330
1F
100
AcDbEntity
  8
SECTIONCUTEDGES
100
AcDbLine
 10
182230.2165899219
 20
919.695657785855
 30
0.0
 11
182216.6951095819
 21
958.6885056434974
 31
0.0
  0
LINE
  5
1A7
330
1F
100
AcDbEntity
  8
SECTIONCUTEDGES
100
AcDbLine
 10
182216.6951095819
 20
958.6885056434974
 30
0.0
 11
182176.1655726013
 21
966.4749841011153
 31
0.0
  0
LINE
  5
1A8
330
1F
100
AcDbEntity
  8
SECTIONCUTEDGES
100
AcDbLine
 10
182176.1655726013
 20
966.4749841011153
 30
0.0
 11
182149.1575159607
 21
935.2686147010908
 31
0.0
  0
LINE
  5
1A9
330
1F
100
AcDbEntity
  8
SECTIONCUTEDGES
100
AcDbLine
 10
182149.1575159607
 20
935.2686147010908
 30
0.0
 11
182162.6789963007
 21
896.2757668434484
 31
0.0
  0
LINE
  5
1AA
330
1F
100
AcDbEntity
  8
SECTIONCUTEDGES
100
AcDbLine
 10
182162.6789963007
 20
896.2757668434484
 30
0.0
 11
182203.2085332813
 21
888.4892883858305
 31
0.0
  0
LINE
  5
1AB
330
1F
100
AcDbEntity
  8
SECTIONCUTEDGES
100
AcDbLine
 10
182203.2085332813
 20
888.4892883858305
 30
0.0
 11
182230.2165899219
 21
919.695657785855
 31
0.0
  0
LINE
  5
1AC
330
1F
100
AcDbEntity
  8
SECTIONCUTEDGES
100
AcDbLine
 10
179936.6597091913
 20
838.9706692634925
 30
0.0
 11
180086.6597091913
 21
838.9706692634925
 31
0.0
  0
LINE
  5
1AD
330
1F
100
AcDbEntity
  8
SECTIONCUTEDGES
100
AcDbLine
 10
179936.6597091913
 20
888.9706692634923
 30
0.0
 11
179936.6597091913
 21
838.9706692634925
 31
0.0
  0
LINE
  5
1AE
330
1F
100
AcDbEntity
  8
SECTIONCUTEDGES
100
AcDbLine
 10
180086.6597091913
 20
888.9706692634923
 30
0.0
 11
179936.6597091913
 21
888.9706692634923
 31
0.0
  0
LINE
  5
1AF
330
1F
100
AcDbEntity
  8
SECTIONCUTEDGES
100
AcDbLine
 10
180086.6597091913
 20
838.9706692634925
 30
0.0
 11
180086.6597091913
 21
888.9706692634923
 31
0.0
  0
LINE
  5
1B0
330
1F
100
AcDbEntity
  8
SECTIONCUTEDGES
100
AcDbLine
 10
184863.4883224725
 20
899.298017972599
 30
0.0
 11
184863.4883224725
 21
839.2980179725989
 31
0.0
  0
LINE
  5
1B1
330
1F
100
AcDbEntity
  8
SECTIONCUTEDGES
100
AcDbLine
 10
185023.4883224725
 20
899.298017972599
 30
0.0
 11
184863.4883224725
 21
899.298017972599
 31
0.0
  0
LINE
  5
1B2
330
1F
100
AcDbEntity
  8
SECTIONCUTEDGES
100
AcDbLine
 10
185023.4883224725
 20
839.2980179725989
 30
0.0
 11
185023.4883224725
 21
899.298017972599
 31
0.0
  0
LINE
  5
1B3
330
1F
100
AcDbEntity
  8
SECTIONCUTEDGES
100
AcDbLine
 10
184863.4883224725
 20
839.2980179725989
 30
0.0
 11
185023.4883224725
 21
839.2980179725989
 31
0.0
  0
LINE
  5
1B4
330
1F
100
AcDbEntity
  8
SECTIONCUTEDGES
100
AcDbLine
 10
186363.4883224725
 20
899.298017972599
 30
0.0
 11
186363.4883224725
 21
839.2980179725989
 31
0.0
  0
LINE
  5
1B5
330
1F
100
AcDbEntity
  8
SECTIONCUTEDGES
100
AcDbLine
 10
186523.4883224725
 20
899.298017972599
 30
0.0
 11
186363.4883224725
 21
899.298017972599
 31
0.0
  0
LINE
  5
1B6
330
1F
100
AcDbEntity
  8
SECTIONCUTEDGES
100
AcDbLine
 10
186523.4883224725
 20
839.2980179725989
 30
0.0
 11
186523.4883224725
 21
899.298017972599
 31
0.0
  0
LINE
  5
1B7
330
1F
100
AcDbEntity
  8
SECTIONCUTEDGES
100
AcDbLine
 10
186363.4883224725
 20
839.2980179725989
 30
0.0
 11
186523.4883224725
 21
839.2980179725989
 31
0.0
  0
LINE
  5
1B8
330
1F
100
AcDbEntity
  8
SECTIONCUTEDGES
100
AcDbLine
 10
182230.2165899219
 20
1819.695657785855
 30
0.0
 11
182216.6951095819
 21
1858.688505643497
 31
0.0
  0
LINE
  5
1B9
330
1F
100
AcDbEntity
  8
SECTIONCUTEDGES
100
AcDbLine
 10
182216.6951095819
 20
1858.688505643497
 30
0.0
 11
182176.1655726013
 21
1866.474984101115
 31
0.0
  0
LINE
  5
1BA
330
1F
100
AcDbEntity
  8
SECTIONCUTEDGES
100
AcDbLine
 10
182176.1655726013
 20
1866.474984101115
 30
0.0
 11
182149.1575159607
 21
1835.268614701091
 31
0.0
  0
LINE
  5
1BB
330
1F
100
AcDbEntity
  8
SECTIONCUTEDGES
100
AcDbLine
 10
182149.1575159607
 20
1835.268614701091
 30
0.0
 11
182162.6789963007
 21
1796.275766843448
 31
0.0
  0
LINE
  5
1BC
330
1F
100
AcDbEntity
  8
SECTIONCUTEDGES
100
AcDbLine
 10
182162.6789963007
 20
1796.275766843448
 30
0.0
 11
182203.2085332813
 21
1788.489288385831
 31
0.0
  0
LINE
  5
1BD
330
1F
100
AcDbEntity
  8
SECTIONCUTEDGES
100
AcDbLine
 10
182203.2085332813
 20
1788.489288385831
 30
0.0
 11
182230.2165899219
 21
1819.695657785855
 31
0.0
  0
LINE
  5
1BE
330
1F
100
AcDbEntity
  8
SECTIONCUTEDGES
100
AcDbLine
 10
179746.0419587935
 20
-3137.379269258268
 30
0.0
 11
179766.6978786644
 21
-3147.336832529614
 31
0.0
  0
LINE
  5
1BF
330
1F
100
AcDbEntity
  8
SECTIONCUTEDGES
100
AcDbLine
 10
180298.9397730373
 20
-2218.456639202185
 30
0.0
 11
180299.3375952997
 21
-2262.083397495663
 31
0.0
  0
LINE
  5
1C0
330
1F
100
AcDbEntity
  8
SECTIONCUTEDGES
100
AcDbLine
 10
180299.3375952997
 20
-2262.083397495664
 30
0.0
 11
179766.6978786644
 21
-3147.336832529614
 31
0.0
  0
LINE
  5
1C1
330
1F
100
AcDbEntity
  8
SECTIONCUTEDGES
100
AcDbLine
 10
180298.9397730373
 20
-2218.456639202185
 30
0.0
 11
179746.0419587935
 21
-3137.379269258267
 31
0.0
  0
LINE
  5
1C2
330
1F
100
AcDbEntity
  8
SECTIONCUTEDGES
100
AcDbLine
 10
183471.2843833361
 20
18.54206756151672
 30
0.0
 11
182958.4354697617
 21
-350.1955934758503
 31
0.0
  0
LINE
  5
1C3
330
1F
100
AcDbEntity
  8
SECTIONCUTEDGES
100
AcDbLine
 10
183471.2843833361
 20
18.54206756151672
 30
0.0
 11
183438.6606455163
 21
33.00327499085287
 31
0.0
  0
LINE
  5
1C4
330
1F
100
AcDbEntity
  8
SECTIONCUTEDGES
100
AcDbLine
 10
182963.2646792902
 20
-308.8057685948045
 30
0.0
 11
182958.4354697617
 21
-350.1955934758503
 31
0.0
  0
LINE
  5
1C5
330
1F
100
AcDbEntity
  8
SECTIONCUTEDGES
100
AcDbLine
 10
183438.6606455163
 20
33.00327499085287
 30
0.0
 11
182963.2646792902
 21
-308.8057685948045
 31
0.0
  0
LINE
  5
1C6
330
1F
100
AcDbEntity
  8
SECTIONCUTEDGES
100
AcDbLine
 10
182201.7708028511
 20
-894.2364787584411
 30
0.0
 11
182958.4354679644
 21
-350.1956088793414
 31
0.0
  0
LINE
  5
1C7
330
1F
100
AcDbEntity
  8
SECTIONCUTEDGES
100
AcDbLine
 10
182170.4530604295
 20
-878.8362618866818
 30
0.0
 11
182963.2646776851
 21
-308.8057823513234
 31
0.0
  0
LINE
  5
1C8
330
1F
100
AcDbEntity
  8
SECTIONCUTEDGES
100
AcDbLine
 10
182170.4530604295
 20
-878.8362618866818
 30
0.0
 11
182201.7708028511
 21
-894.2364787584411
 31
0.0
  0
LINE
  5
1C9
330
1F
100
AcDbEntity
  8
SECTIONCUTEDGES
100
AcDbLine
 10
182958.4354679644
 20
-350.1956088793414
 30
0.0
 11
182963.2646776851
 21
-308.8057823513234
 31
0.0
  0
LINE
  5
1CA
330
1F
100
AcDbEntity
  8
SECTIONCUTEDGES
100
AcDbLine
 10
182201.7708037779
 20
-894.2364852036035
 30
0.0
 11
181265.2443955787
 21
-1567.597713326267
 31
0.0
  0
LINE
  5
1CB
330
1F
100
AcDbEntity
  8
SECTIONCUTEDGES
100
AcDbLine
 10
182170.4530614649
 20
-878.8362683746318
 30
0.0
 11
181233.9266532657
 21
-1552.197496497354
 31
0.0
  0
LINE
  5
1CC
330
1F
100
AcDbEntity
  8
SECTIONCUTEDGES
100
AcDbLine
 10
182170.4530614649
 20
-878.8362683746318
 30
0.0
 11
182201.7708037779
 21
-894.2364852036035
 31
0.0
  0
LINE
  5
1CD
330
1F
100
AcDbEntity
  8
SECTIONCUTEDGES
100
AcDbLine
 10
181265.2443923255
 20
-1567.59771252819
 30
0.0
 11
180299.3375950738
 21
-2262.083343036012
 31
0.0
  0
LINE
  5
1CE
330
1F
100
AcDbEntity
  8
SECTIONCUTEDGES
100
AcDbLine
 10
180298.9940852016
 20
-2224.412696612978
 30
0.0
 11
180299.3375950738
 21
-2262.083343036013
 31
0.0
  0
LINE
  5
1CF
330
1F
100
AcDbEntity
  8
SECTIONCUTEDGES
100
AcDbLine
 10
180298.9940852016
 20
-2224.412696612978
 30
0.0
 11
181233.9266500317
 21
-1552.197495709864
 31
0.0
  0
LINE
  5
1D0
330
1F
100
AcDbEntity
  8
SECTIONCUTEDGES
100
AcDbLine
 10
184348.589207197
 20
1354.813489456831
 30
0.0
 11
184309.2725179105
 21
1361.443527214103
 31
0.0
  0
LINE
  5
1D1
330
1F
100
AcDbEntity
  8
SECTIONCUTEDGES
100
AcDbLine
 10
184348.589207197
 20
1354.813489456831
 30
0.0
 11
184126.0084943345
 21
1015.788514641054
 31
0.0
  0
LINE
  5
1D2
330
1F
100
AcDbEntity
  8
SECTIONCUTEDGES
100
AcDbLine
 10
184135.446565074
 20
1096.679619660221
 30
0.0
 11
184126.0084943345
 21
1015.788514641054
 31
0.0
  0
LINE
  5
1D3
330
1F
100
AcDbEntity
  8
SECTIONCUTEDGES
100
AcDbLine
 10
184309.2725179105
 20
1361.443527214103
 30
0.0
 11
184135.446565074
 21
1096.679619660221
 31
0.0
  0
LINE
  5
1D4
330
1F
100
AcDbEntity
  8
SECTIONCUTEDGES
100
AcDbLine
 10
183471.2843836964
 20
18.54206741615462
 30
0.0
 11
183437.4588553408
 21
33.53599559994234
 31
0.0
  0
LINE
  5
1D5
330
1F
100
AcDbEntity
  8
SECTIONCUTEDGES
100
AcDbLine
 10
184126.0084943346
 20
1015.788514641288
 30
0.0
 11
183471.2843836964
 21
18.54206741615462
 31
0.0
  0
LINE
  5
1D6
330
1F
100
AcDbEntity
  8
SECTIONCUTEDGES
100
AcDbLine
 10
184135.4465650741
 20
1096.679619660354
 30
0.0
 11
183437.4588553408
 21
33.53599559994215
 31
0.0
  0
LINE
  5
1D7
330
1F
100
AcDbEntity
  8
SECTIONCUTEDGES
100
AcDbLine
 10
184126.0084943346
 20
1015.788514641288
 30
0.0
 11
184135.4465650741
 21
1096.679619660354
 31
0.0
  0
LINE
  5
1D8
330
1F
100
AcDbEntity
  8
SECTIONCUTEDGES
100
AcDbLine
 10
175713.8325607538
 20
-627.3368325294156
 30
0.0
 11
174813.8325607539
 21
-627.3368325294152
 31
0.0
  0
LINE
  5
1D9
330
1F
100
AcDbEntity
  8
SECTIONCUTEDGES
100
AcDbLine
 10
174813.8325607538
 20
-2427.336832529415
 30
0.0
 11
175713.8325607538
 21
-2427.336832529415
 31
0.0
  0
LINE
  5
1DA
330
1F
100
AcDbEntity
  8
SECTIONCUTEDGES
100
AcDbLine
 10
177613.8325607538
 20
-627.3368325294156
 30
0.0
 11
176713.8325607538
 21
-627.3368325294152
 31
0.0
  0
LINE
  5
1DB
330
1F
100
AcDbEntity
  8
SECTIONCUTEDGES
100
AcDbLine
 10
176713.8325607538
 20
-2427.336832529415
 30
0.0
 11
177613.8325607537
 21
-2427.336832529415
 31
0.0
  0
LINE
  5
1DC
330
1F
100
AcDbEntity
  8
SECTIONCUTEDGES
100
AcDbLine
 10
177497.7055316306
 20
369.2631335148322
 30
0.0
 11
177192.4088955506
 21
369.2631335148322
 31
0.0
  0
LINE
  5
1DD
330
1F
100
AcDbEntity
  8
SECTIONCUTEDGES
100
AcDbLine
 10
177192.4088955506
 20
369.2631335148322
 30
0.0
 11
176771.7054095603
 21
369.2631335148322
 31
0.0
  0
LINE
  5
1DE
330
1F
100
AcDbEntity
  8
SECTIONCUTEDGES
100
AcDbLine
 10
178035.3603898062
 20
369.2631335148322
 30
0.0
 11
177554.2741351463
 21
369.2631335148322
 31
0.0
  0
LINE
  5
1DF
330
1F
100
AcDbEntity
  8
SECTIONCUTEDGES
100
AcDbLine
 10
178695.4186663963
 20
369.2631335148322
 30
0.0
 11
178035.3603898062
 21
369.2631335148322
 31
0.0
  0
LINE
  5
1E0
330
1F
100
AcDbEntity
  8
SECTIONCUTEDGES
100
AcDbLine
 10
179157.3069314114
 20
369.2631335148322
 30
0.0
 11
178833.6142230369
 21
369.2631335148322
 31
0.0
  0
LINE
  5
1E1
330
1F
100
AcDbEntity
  8
SECTIONCUTEDGES
100
AcDbLine
 10
179601.4186663963
 20
369.2631335148322
 30
0.0
 11
179157.3069314114
 21
369.2631335148322
 31
0.0
  0
LINE
  5
1E2
330
1F
100
AcDbEntity
  8
SECTIONCUTEDGES
100
AcDbLine
 10
181302.6686663963
 20
369.2631335148322
 30
0.0
 11
180755.5057000724
 21
369.2631335148322
 31
0.0
  0
LINE
  5
1E3
330
1F
100
AcDbEntity
  8
SECTIONCUTEDGES
100
AcDbLine
 10
183094.378807197
 20
369.2631335148322
 30
0.0
 11
182969.50606874
 21
369.2631335148322
 31
0.0
  0
LINE
  5
1E4
330
1F
100
AcDbEntity
  8
SECTIONCUTEDGES
100
AcDbLine
 10
183265.7062640525
 20
369.2631335148322
 30
0.0
 11
183094.378807197
 21
369.2631335148322
 31
0.0
  0
LINE
  5
1E5
330
1F
100
AcDbEntity
  8
SECTIONCUTEDGES
100
AcDbLine
 10
182907.2770648338
 20
369.2631335148322
 30
0.0
 11
182138.994622075
 21
369.2631335148322
 31
0.0
  0
LINE
  5
1E6
330
1F
100
AcDbEntity
  8
SECTIONCUTEDGES
100
AcDbLine
 10
182138.994622075
 20
369.2631335148322
 30
0.0
 11
181368.7770648338
 21
369.2631335148322
 31
0.0
  0
LINE
  5
1E7
330
1F
100
AcDbEntity
  8
SECTIONCUTEDGES
100
AcDbLine
 10
180154.7487445213
 20
369.2631335148322
 30
0.0
 11
179966.6380763308
 21
369.2631335148322
 31
0.0
  0
LINE
  5
1E8
330
1F
100
AcDbEntity
  8
SECTIONCUTEDGES
100
AcDbLine
 10
179966.6380763308
 20
369.2631335148322
 30
0.0
 11
179707.4186663963
 21
369.2631335148322
 31
0.0
  0
LINE
  5
1E9
330
1F
100
AcDbEntity
  8
SECTIONCUTEDGES
100
AcDbLine
 10
180755.5057000724
 20
369.2631335148322
 30
0.0
 11
180206.9645648338
 21
369.2631335148322
 31
0.0
  0
LINE
  5
1EA
330
1F
100
AcDbEntity
  8
SECTIONCUTEDGES
100
AcDbLine
 10
178801.4186663963
 20
344.3395495304576
 30
0.0
 11
178801.4186663963
 21
4.2296680862859
 31
0.0
  0
LINE
  5
1EB
330
1F
100
AcDbEntity
  8
SECTIONCUTEDGES
100
AcDbLine
 10
178801.4186663963
 20
4.2296680862859
 30
0.0
 11
178801.4186663963
 21
-336.7368664851675
 31
0.0
  0
LINE
  5
1EC
330
1F
100
AcDbEntity
  8
SECTIONCUTEDGES
100
AcDbLine
 10
178801.4186663963
 20
-721.7703319137147
 30
0.0
 11
178801.4186663963
 21
-1062.736866485168
 31
0.0
  0
LINE
  5
1ED
330
1F
100
AcDbEntity
  8
SECTIONCUTEDGES
100
AcDbLine
 10
178801.4186663963
 20
-1833.660572539855
 30
0.0
 11
178801.4186663963
 21
-2173.77039302564
 31
0.0
  0
LINE
  5
1EE
330
1F
100
AcDbEntity
  8
SECTIONCUTEDGES
100
AcDbLine
 10
178801.4186663963
 20
-2173.77039302564
 30
0.0
 11
178801.4186663963
 21
-2514.736866485167
 31
0.0
  0
LINE
  5
1EF
330
1F
100
AcDbEntity
  8
SECTIONCUTEDGES
100
AcDbLine
 10
178801.4186663963
 20
-2806.753728525731
 30
0.0
 11
178801.4186663963
 21
-3154.036861907531
 31
0.0
  0
LINE
  5
1F0
330
1F
100
AcDbEntity
  8
SECTIONCUTEDGES
100
AcDbLine
 10
178801.4186663963
 20
-2554.736866485167
 30
0.0
 11
178801.4186663963
 21
-2806.753728525731
 31
0.0
  0
LINE
  5
1F1
330
1F
100
AcDbEntity
  8
SECTIONCUTEDGES
100
AcDbLine
 10
178801.4186663963
 20
-1447.770331913714
 30
0.0
 11
178801.4186663963
 21
-1788.736866485168
 31
0.0
  0
LINE
  5
1F2
330
1F
100
AcDbEntity
  8
SECTIONCUTEDGES
100
AcDbLine
 10
178801.4186663963
 20
-1107.660450469542
 30
0.0
 11
178801.4186663963
 21
-1447.770331913714
 31
0.0
  0
LINE
  5
1F3
330
1F
100
AcDbEntity
  8
SECTIONCUTEDGES
100
AcDbLine
 10
178801.4186663963
 20
-381.6604504695426
 30
0.0
 11
178801.4186663963
 21
-721.7703319137147
 31
0.0
  0
LINE
  5
1F4
330
1F
100
AcDbEntity
  8
SECTIONCUTEDGES
100
AcDbLine
 10
179601.4186663963
 20
-1762.033009063292
 30
0.0
 11
179601.4186663963
 21
-1432.799566800477
 31
0.0
  0
LINE
  5
1F5
330
1F
100
AcDbEntity
  8
SECTIONCUTEDGES
100
AcDbLine
 10
179601.4186663963
 20
-1036.033009063293
 30
0.0
 11
179601.4186663963
 21
-706.7995668004764
 31
0.0
  0
LINE
  5
1F6
330
1F
100
AcDbEntity
  8
SECTIONCUTEDGES
100
AcDbLine
 10
179601.4186663963
 20
-706.7995668004764
 30
0.0
 11
179601.4186663963
 21
-376.7368664851675
 31
0.0
  0
LINE
  5
1F7
330
1F
100
AcDbEntity
  8
SECTIONCUTEDGES
100
AcDbLine
 10
179601.4186663963
 20
-24.37627027398695
 30
0.0
 11
179601.4186663963
 21
369.2631335148322
 31
0.0
  0
LINE
  5
1F8
330
1F
100
AcDbEntity
  8
SECTIONCUTEDGES
100
AcDbLine
 10
179601.4186663963
 20
-310.0330090632928
 30
0.0
 11
179601.4186663963
 21
-24.37627027398695
 31
0.0
  0
LINE
  5
1F9
330
1F
100
AcDbEntity
  8
SECTIONCUTEDGES
100
AcDbLine
 10
179601.4186663963
 20
-1432.799566800477
 30
0.0
 11
179601.4186663963
 21
-1102.736866485168
 31
0.0
  0
LINE
  5
1FA
330
1F
100
AcDbEntity
  8
SECTIONCUTEDGES
100
AcDbLine
 10
179601.4186663963
 20
-2158.79959735644
 30
0.0
 11
179601.4186663963
 21
-1828.736866485167
 31
0.0
  0
LINE
  5
1FB
330
1F
100
AcDbEntity
  8
SECTIONCUTEDGES
100
AcDbLine
 10
179601.4186663963
 20
-2488.033070098449
 30
0.0
 11
179601.4186663963
 21
-2158.79959735644
 31
0.0
  0
LINE
  5
1FC
330
1F
100
AcDbEntity
  8
SECTIONCUTEDGES
100
AcDbLine
 10
179601.4186663963
 20
-3154.036861907531
 30
0.0
 11
179601.4186663963
 21
-2807.391094166273
 31
0.0
  0
LINE
  5
1FD
330
1F
100
AcDbEntity
  8
SECTIONCUTEDGES
100
AcDbLine
 10
179601.4186663963
 20
-2807.391094166273
 30
0.0
 11
179601.4186663963
 21
-2554.736866485167
 31
0.0
  0
LINE
  5
1FE
330
1F
100
AcDbEntity
  8
SECTIONCUTEDGES
100
AcDbLine
 10
179707.4186663963
 20
-424.4866223445426
 30
0.0
 11
179707.4186663963
 21
-873.9915710706534
 31
0.0
  0
LINE
  5
1FF
330
1F
100
AcDbEntity
  8
SECTIONCUTEDGES
100
AcDbLine
 10
179707.4186663963
 20
-873.9915710706534
 30
0.0
 11
179707.4186663963
 21
-1324.628712188292
 31
0.0
  0
LINE
  5
200
330
1F
100
AcDbEntity
  8
SECTIONCUTEDGES
100
AcDbLine
 10
179707.4186663963
 20
-1390.736866485167
 30
0.0
 11
179707.4186663963
 21
-1852.655137237097
 31
0.0
  0
LINE
  5
201
330
1F
100
AcDbEntity
  8
SECTIONCUTEDGES
100
AcDbLine
 10
179707.4186663963
 20
-1852.655137237097
 30
0.0
 11
179707.4186663963
 21
-2315.736866485167
 31
0.0
  0
LINE
  5
202
330
1F
100
AcDbEntity
  8
SECTIONCUTEDGES
100
AcDbLine
 10
179707.4186663963
 20
-2698.516074409838
 30
0.0
 11
179707.4186663963
 21
-3154.036861907531
 31
0.0
  0
LINE
  5
203
330
1F
100
AcDbEntity
  8
SECTIONCUTEDGES
100
AcDbLine
 10
179707.4186663963
 20
-2367.953175078917
 30
0.0
 11
179707.4186663963
 21
-2698.516074409838
 31
0.0
  0
LINE
  5
204
330
1F
100
AcDbEntity
  8
SECTIONCUTEDGES
100
AcDbLine
 10
179707.4186663963
 20
369.2631335148322
 30
0.0
 11
179707.4186663963
 21
-66.7191204488368
 31
0.0
  0
LINE
  5
205
330
1F
100
AcDbEntity
  8
SECTIONCUTEDGES
100
AcDbLine
 10
179707.4186663963
 20
-66.7191204488368
 30
0.0
 11
179707.4186663963
 21
-384.4866223445427
 31
0.0
  0
LINE
  5
206
330
1F
100
AcDbEntity
  8
SECTIONCUTEDGES
100
AcDbLine
 10
176771.7054095603
 20
-50.66816850827114
 30
0.0
 11
176771.7054095603
 21
-356.7368664851677
 31
0.0
  0
LINE
  5
207
330
1F
100
AcDbEntity
  8
SECTIONCUTEDGES
100
AcDbLine
 10
176771.7054095603
 20
369.2631335148322
 30
0.0
 11
176771.7054095603
 21
-50.66816850827114
 31
0.0
  0
LINE
  5
208
330
1F
100
AcDbEntity
  8
SECTIONCUTEDGES
100
AcDbLine
 10
176771.7054095603
 20
-413.3054700007925
 30
0.0
 11
176771.7054095603
 21
-1269.789127944694
 31
0.0
  0
LINE
  5
209
330
1F
100
AcDbEntity
  8
SECTIONCUTEDGES
100
AcDbLine
 10
176771.7054095603
 20
-1269.789127944694
 30
0.0
 11
176771.7054095603
 21
-2450.036854278136
 31
0.0
  0
LINE
  5
20A
330
1F
100
AcDbEntity
  8
SECTIONCUTEDGES
100
AcDbLine
 10
178695.4186663963
 20
-3154.036861907531
 30
0.0
 11
178695.4186663963
 21
-1394.013973749023
 31
0.0
  0
LINE
  5
20B
330
1F
100
AcDbEntity
  8
SECTIONCUTEDGES
100
AcDbLine
 10
178695.4186663963
 20
-1394.013973749023
 30
0.0
 11
178695.4186663963
 21
369.2631335148322
 31
0.0
  0
LINE
  5
20C
330
1F
100
AcDbEntity
  8
SECTIONCUTEDGES
100
AcDbLine
 10
179968.7538711204
 20
486.6632799992074
 30
0.0
 11
183265.7062640525
 21
486.6632799992074
 31
0.0
  0
LINE
  5
20D
330
1F
100
AcDbEntity
  8
SECTIONCUTEDGES
100
AcDbLine
 10
176665.7055316306
 20
486.6632799992074
 30
0.0
 11
179968.7538711204
 21
486.6632799992074
 31
0.0
  0
LINE
  5
20E
330
1F
100
AcDbEntity
  8
SECTIONCUTEDGES
100
AcDbLine
 10
183265.7062640525
 20
374.5725505057938
 30
0.0
 11
183265.7062640525
 21
369.2631335148322
 31
0.0
  0
LINE
  5
20F
330
1F
100
AcDbEntity
  8
SECTIONCUTEDGES
100
AcDbLine
 10
183265.7062640525
 20
374.9630846867075
 30
0.0
 11
183265.7062640525
 21
374.5725505057938
 31
0.0
  0
LINE
  5
210
330
1F
100
AcDbEntity
  8
SECTIONCUTEDGES
100
AcDbLine
 10
183265.7062640525
 20
427.3126517179994
 30
0.0
 11
183265.7062640525
 21
374.9630846867075
 31
0.0
  0
LINE
  5
211
330
1F
100
AcDbEntity
  8
SECTIONCUTEDGES
100
AcDbLine
 10
183265.7062640525
 20
480.9630846867072
 30
0.0
 11
183265.7062640525
 21
427.3126517179994
 31
0.0
  0
LINE
  5
212
330
1F
100
AcDbEntity
  8
SECTIONCUTEDGES
100
AcDbLine
 10
183265.7062640525
 20
481.3536355950022
 30
0.0
 11
183265.7062640525
 21
480.9630846867072
 31
0.0
  0
LINE
  5
213
330
1F
100
AcDbEntity
  8
SECTIONCUTEDGES
100
AcDbLine
 10
183265.7062640525
 20
486.6632799992074
 30
0.0
 11
183265.7062640525
 21
481.3536355950022
 31
0.0
  0
LINE
  5
214
330
1F
100
AcDbEntity
  8
SECTIONCUTEDGES
100
AcDbLine
 10
176665.7055316306
 20
-2450.036854278136
 30
0.0
 11
176665.7055316306
 21
-1038.841509548918
 31
0.0
  0
LINE
  5
215
330
1F
100
AcDbEntity
  8
SECTIONCUTEDGES
100
AcDbLine
 10
176665.7055316306
 20
-1038.841509548918
 30
0.0
 11
176665.7055316306
 21
176.5941451862559
 31
0.0
  0
LINE
  5
216
330
1F
100
AcDbEntity
  8
SECTIONCUTEDGES
100
AcDbLine
 10
176665.7055316306
 20
176.5941451862559
 30
0.0
 11
176665.7055316306
 21
374.9630846867075
 31
0.0
  0
LINE
  5
217
330
1F
100
AcDbEntity
  8
SECTIONCUTEDGES
100
AcDbLine
 10
176665.7055316306
 20
374.9630846867075
 30
0.0
 11
176665.7055316306
 21
428.6135176554154
 31
0.0
  0
LINE
  5
218
330
1F
100
AcDbEntity
  8
SECTIONCUTEDGES
100
AcDbLine
 10
176665.7055316306
 20
428.6135176554154
 30
0.0
 11
176665.7055316306
 21
480.9630846867072
 31
0.0
  0
LINE
  5
219
330
1F
100
AcDbEntity
  8
SECTIONCUTEDGES
100
AcDbLine
 10
176665.7055316306
 20
480.9630846867072
 30
0.0
 11
176665.7055316306
 21
481.3633472437037
 31
0.0
  0
LINE
  5
21A
330
1F
100
AcDbEntity
  8
SECTIONCUTEDGES
100
AcDbLine
 10
176665.7055316306
 20
481.3633472437037
 30
0.0
 11
176665.7055316306
 21
486.6632799992074
 31
0.0
  0
LINE
  5
21B
330
1F
100
AcDbEntity
  8
SECTIONCUTEDGES
100
AcDbLine
 10
176771.7054095603
 20
-2450.036854278136
 30
0.0
 11
176766.3959925694
 21
-2450.036854278136
 31
0.0
  0
LINE
  5
21C
330
1F
100
AcDbEntity
  8
SECTIONCUTEDGES
100
AcDbLine
 10
176766.3959925694
 20
-2450.036854278136
 30
0.0
 11
176766.0054583884
 21
-2450.036854278136
 31
0.0
  0
LINE
  5
21D
330
1F
100
AcDbEntity
  8
SECTIONCUTEDGES
100
AcDbLine
 10
176766.0054583884
 20
-2450.036854278136
 30
0.0
 11
176718.1249900015
 21
-2450.036854278136
 31
0.0
  0
LINE
  5
21E
330
1F
100
AcDbEntity
  8
SECTIONCUTEDGES
100
AcDbLine
 10
176718.1249900015
 20
-2450.036854278136
 30
0.0
 11
176671.4054828025
 21
-2450.036854278136
 31
0.0
  0
LINE
  5
21F
330
1F
100
AcDbEntity
  8
SECTIONCUTEDGES
100
AcDbLine
 10
176671.4054828025
 20
-2450.036854278136
 30
0.0
 11
176671.0052373889
 21
-2450.036854278136
 31
0.0
  0
LINE
  5
220
330
1F
100
AcDbEntity
  8
SECTIONCUTEDGES
100
AcDbLine
 10
176671.0052373889
 20
-2450.036854278136
 30
0.0
 11
176665.7055316306
 21
-2450.036854278136
 31
0.0
  0
LINE
  5
221
330
1F
100
AcDbEntity
  8
SECTIONCUTEDGES
100
AcDbLine
 10
179707.4186663963
 20
-3154.036861907531
 30
0.0
 11
179702.109021992
 21
-3154.036861907531
 31
0.0
  0
LINE
  5
222
330
1F
100
AcDbEntity
  8
SECTIONCUTEDGES
100
AcDbLine
 10
179702.109021992
 20
-3154.036861907531
 30
0.0
 11
179701.7184710838
 21
-3154.036861907531
 31
0.0
  0
LINE
  5
223
330
1F
100
AcDbEntity
  8
SECTIONCUTEDGES
100
AcDbLine
 10
179701.7184710838
 20
-3154.036861907531
 30
0.0
 11
179653.8381880494
 21
-3154.036861907531
 31
0.0
  0
LINE
  5
224
330
1F
100
AcDbEntity
  8
SECTIONCUTEDGES
100
AcDbLine
 10
179653.8381880494
 20
-3154.036861907531
 30
0.0
 11
179607.1188617088
 21
-3154.036861907531
 31
0.0
  0
LINE
  5
225
330
1F
100
AcDbEntity
  8
SECTIONCUTEDGES
100
AcDbLine
 10
179607.1188617088
 20
-3154.036861907531
 30
0.0
 11
179606.7185991518
 21
-3154.036861907531
 31
0.0
  0
LINE
  5
226
330
1F
100
AcDbEntity
  8
SECTIONCUTEDGES
100
AcDbLine
 10
179606.7185991518
 20
-3154.036861907531
 30
0.0
 11
179601.4186663963
 21
-3154.036861907531
 31
0.0
  0
LINE
  5
227
330
1F
100
AcDbEntity
  8
SECTIONCUTEDGES
100
AcDbLine
 10
178801.4186663963
 20
-3154.036861907531
 30
0.0
 11
178796.118960638
 21
-3154.036861907531
 31
0.0
  0
LINE
  5
228
330
1F
100
AcDbEntity
  8
SECTIONCUTEDGES
100
AcDbLine
 10
178796.118960638
 20
-3154.036861907531
 30
0.0
 11
178795.7187152244
 21
-3154.036861907531
 31
0.0
  0
LINE
  5
229
330
1F
100
AcDbEntity
  8
SECTIONCUTEDGES
100
AcDbLine
 10
178795.7187152244
 20
-3154.036861907531
 30
0.0
 11
178747.8383086217
 21
-3154.036861907531
 31
0.0
  0
LINE
  5
22A
330
1F
100
AcDbEntity
  8
SECTIONCUTEDGES
100
AcDbLine
 10
178747.8383086217
 20
-3154.036861907531
 30
0.0
 11
178701.1188617088
 21
-3154.036861907531
 31
0.0
  0
LINE
  5
22B
330
1F
100
AcDbEntity
  8
SECTIONCUTEDGES
100
AcDbLine
 10
178701.1188617088
 20
-3154.036861907531
 30
0.0
 11
178700.7185991518
 21
-3154.036861907531
 31
0.0
  0
LINE
  5
22C
330
1F
100
AcDbEntity
  8
SECTIONCUTEDGES
100
AcDbLine
 10
178700.7185991518
 20
-3154.036861907531
 30
0.0
 11
178695.4186663963
 21
-3154.036861907531
 31
0.0
  0
LINE
  5
22D
330
1F
100
AcDbEntity
  8
SECTIONCUTEDGES
100
AcDbLine
 10
182969.50606874
 20
369.2631335148322
 30
0.0
 11
182169.3026448902
 21
-302.1872777854318
 31
0.0
  0
LINE
  5
22E
330
1F
100
AcDbEntity
  8
SECTIONCUTEDGES
100
AcDbLine
 10
182169.3026448902
 20
-302.1872777854318
 30
0.0
 11
180536.2074284192
 21
-1672.516857795826
 31
0.0
  0
LINE
  5
22F
330
1F
100
AcDbEntity
  8
SECTIONCUTEDGES
100
AcDbLine
 10
180536.2074284192
 20
-1672.516857795826
 30
0.0
 11
180511.5658540295
 21
-1693.193454883676
 31
0.0
  0
LINE
  5
230
330
1F
100
AcDbEntity
  8
SECTIONCUTEDGES
100
AcDbLine
 10
180511.5658540295
 20
-1693.193454883676
 30
0.0
 11
179707.4186663963
 21
-2367.953175078917
 31
0.0
  0
LINE
  5
231
330
1F
100
AcDbEntity
  8
SECTIONCUTEDGES
100
AcDbLine
 10
177554.2741351463
 20
369.2631335148322
 30
0.0
 11
177163.4819270736
 21
-21.52901359942686
 31
0.0
  0
LINE
  5
232
330
1F
100
AcDbEntity
  8
SECTIONCUTEDGES
100
AcDbLine
 10
177163.4819270736
 20
-21.52901359942686
 30
0.0
 11
176771.7054095603
 21
-413.3054700007925
 31
0.0
  0
LINE
  5
233
330
1F
100
AcDbEntity
  8
SECTIONCUTEDGES
100
AcDbLine
 10
176771.7054095603
 20
-356.7368664851677
 30
0.0
 11
177134.248891671
 21
5.806554667157005
 31
0.0
  0
LINE
  5
234
330
1F
100
AcDbEntity
  8
SECTIONCUTEDGES
100
AcDbLine
 10
177134.248891671
 20
5.806554667157005
 30
0.0
 11
177497.7055316306
 21
369.2631335148322
 31
0.0
  0
LINE
  5
235
330
1F
100
AcDbEntity
  8
SECTIONCUTEDGES
100
AcDbLine
 10
180298.7007249483
 20
-1350.736866485168
 30
0.0
 11
180857.4606585837
 21
-1350.736866485168
 31
0.0
  0
LINE
  5
236
330
1F
100
AcDbEntity
  8
SECTIONCUTEDGES
100
AcDbLine
 10
179738.53341249
 20
-1350.736866485168
 30
0.0
 11
180298.7007249483
 21
-1350.736866485168
 31
0.0
  0
LINE
  5
237
330
1F
100
AcDbEntity
  8
SECTIONCUTEDGES
100
AcDbLine
 10
181075.0171589939
 20
-1168.185521644112
 30
0.0
 11
181292.0270648338
 21
-986.0928235164176
 31
0.0
  0
LINE
  5
238
330
1F
100
AcDbEntity
  8
SECTIONCUTEDGES
100
AcDbLine
 10
180857.4606585837
 20
-1350.736866485168
 30
0.0
 11
181075.0171589939
 21
-1168.185521644112
 31
0.0
  0
LINE
  5
239
330
1F
100
AcDbEntity
  8
SECTIONCUTEDGES
100
AcDbLine
 10
181292.0270648338
 20
-986.0928235164176
 30
0.0
 11
181060.5793347847
 21
-710.2641462358582
 31
0.0
  0
LINE
  5
23A
330
1F
100
AcDbEntity
  8
SECTIONCUTEDGES
100
AcDbLine
 10
181060.5793347847
 20
-710.2641462358582
 30
0.0
 11
180829.71309999
 21
-435.1284680476678
 31
0.0
  0
LINE
  5
23B
330
1F
100
AcDbEntity
  8
SECTIONCUTEDGES
100
AcDbLine
 10
180829.71309999
 20
-435.1284680476678
 30
0.0
 11
180284.8094953093
 21
-892.3568443635523
 31
0.0
  0
LINE
  5
23C
330
1F
100
AcDbEntity
  8
SECTIONCUTEDGES
100
AcDbLine
 10
180284.8094953093
 20
-892.3568443635523
 30
0.0
 11
179738.53341249
 21
-1350.736866485168
 31
0.0
  0
LINE
  5
23D
330
1F
100
AcDbEntity
  8
SECTIONCUTEDGES
100
AcDbLine
 10
181973.8063617087
 20
-414.0117688289176
 30
0.0
 11
181658.6344343303
 21
-38.40459966511607
 31
0.0
  0
LINE
  5
23E
330
1F
100
AcDbEntity
  8
SECTIONCUTEDGES
100
AcDbLine
 10
181658.6344343303
 20
-38.40459966511607
 30
0.0
 11
181342.6686663963
 21
338.1486315617076
 31
0.0
  0
LINE
  5
23F
330
1F
100
AcDbEntity
  8
SECTIONCUTEDGES
100
AcDbLine
 10
181342.6686663963
 20
-303.5313564925083
 30
0.0
 11
181342.6686663963
 21
-943.5991711726674
 31
0.0
  0
LINE
  5
240
330
1F
100
AcDbEntity
  8
SECTIONCUTEDGES
100
AcDbLine
 10
181342.6686663963
 20
338.1486315617076
 30
0.0
 11
181342.6686663963
 21
-303.5313564925083
 31
0.0
  0
LINE
  5
241
330
1F
100
AcDbEntity
  8
SECTIONCUTEDGES
100
AcDbLine
 10
181342.6686663963
 20
-943.5991711726674
 30
0.0
 11
181658.6344343303
 21
-678.4724143452755
 31
0.0
  0
LINE
  5
242
330
1F
100
AcDbEntity
  8
SECTIONCUTEDGES
100
AcDbLine
 10
181658.6344343303
 20
-678.4724143452755
 30
0.0
 11
181973.8063617087
 21
-414.0117688289176
 31
0.0
  0
LINE
  5
243
330
1F
100
AcDbEntity
  8
SECTIONCUTEDGES
100
AcDbLine
 10
180257.911423633
 20
-1390.736866485167
 30
0.0
 11
179707.4186663963
 21
-1390.736866485167
 31
0.0
  0
LINE
  5
244
330
1F
100
AcDbEntity
  8
SECTIONCUTEDGES
100
AcDbLine
 10
180809.7907367088
 20
-1390.736866485167
 30
0.0
 11
180257.911423633
 21
-1390.736866485167
 31
0.0
  0
LINE
  5
245
330
1F
100
AcDbEntity
  8
SECTIONCUTEDGES
100
AcDbLine
 10
180244.4670928614
 20
-424.4866223445426
 30
0.0
 11
179707.4186663963
 21
-424.4866223445426
 31
0.0
  0
LINE
  5
246
330
1F
100
AcDbEntity
  8
SECTIONCUTEDGES
100
AcDbLine
 10
180780.16622499
 20
-424.4866223445426
 30
0.0
 11
180244.4670928614
 21
-424.4866223445426
 31
0.0
  0
LINE
  5
247
330
1F
100
AcDbEntity
  8
SECTIONCUTEDGES
100
AcDbLine
 10
179707.4186663963
 20
-384.4866223445427
 30
0.0
 11
180247.9983843841
 21
-384.4866223445427
 31
0.0
  0
LINE
  5
248
330
1F
100
AcDbEntity
  8
SECTIONCUTEDGES
100
AcDbLine
 10
180247.9983843841
 20
-384.4866223445427
 30
0.0
 11
180787.2199359275
 21
-384.4866223445427
 31
0.0
  0
LINE
  5
249
330
1F
100
AcDbEntity
  8
SECTIONCUTEDGES
100
AcDbLine
 10
179707.4186663963
 20
-2315.736866485167
 30
0.0
 11
180259.297979472
 21
-1852.655137237097
 31
0.0
  0
LINE
  5
24A
330
1F
100
AcDbEntity
  8
SECTIONCUTEDGES
100
AcDbLine
 10
180259.297979472
 20
-1852.655137237097
 30
0.0
 11
180809.7907367088
 21
-1390.736866485167
 31
0.0
  0
LINE
  5
24B
330
1F
100
AcDbEntity
  8
SECTIONCUTEDGES
100
AcDbLine
 10
179707.4186663963
 20
-1324.628712188292
 30
0.0
 11
180244.4670928614
 21
-873.9915710706534
 31
0.0
  0
LINE
  5
24C
330
1F
100
AcDbEntity
  8
SECTIONCUTEDGES
100
AcDbLine
 10
180244.4670928614
 20
-873.9915710706534
 30
0.0
 11
180780.16622499
 21
-424.4866223445426
 31
0.0
  0
LINE
  5
24D
330
1F
100
AcDbEntity
  8
SECTIONCUTEDGES
100
AcDbLine
 10
181686.2129866928
 20
-9.042175759296835
 30
0.0
 11
182004.4484515525
 21
-388.3003430476677
 31
0.0
  0
LINE
  5
24E
330
1F
100
AcDbEntity
  8
SECTIONCUTEDGES
100
AcDbLine
 10
181368.7770648338
 20
369.2631335148322
 30
0.0
 11
181686.2129866928
 21
-9.042175759296835
 31
0.0
  0
LINE
  5
24F
330
1F
100
AcDbEntity
  8
SECTIONCUTEDGES
100
AcDbLine
 10
181302.6686663963
 20
-284.4626262417811
 30
0.0
 11
181302.6686663963
 21
369.2631335148322
 31
0.0
  0
LINE
  5
250
330
1F
100
AcDbEntity
  8
SECTIONCUTEDGES
100
AcDbLine
 10
181302.6686663963
 20
-936.5459485164176
 30
0.0
 11
181302.6686663963
 21
-284.4626262417811
 31
0.0
  0
LINE
  5
251
330
1F
100
AcDbEntity
  8
SECTIONCUTEDGES
100
AcDbLine
 10
180470.5865813156
 20
-7.13771384327725
 30
0.0
 11
180154.7487445213
 21
369.2631335148322
 31
0.0
  0
LINE
  5
252
330
1F
100
AcDbEntity
  8
SECTIONCUTEDGES
100
AcDbLine
 10
180787.2199359275
 20
-384.4866223445427
 30
0.0
 11
180470.5865813156
 21
-7.13771384327725
 31
0.0
  0
LINE
  5
253
330
1F
100
AcDbEntity
  8
SECTIONCUTEDGES
100
AcDbLine
 10
180206.9645648338
 20
369.2631335148322
 30
0.0
 11
180755.5057000724
 21
-284.4626262417811
 31
0.0
  0
LINE
  5
254
330
1F
100
AcDbEntity
  8
SECTIONCUTEDGES
100
AcDbLine
 10
180755.5057000724
 20
-284.4626262417811
 30
0.0
 11
181302.6686663963
 21
-936.5459485164176
 31
0.0
  0
LINE
  5
255
330
1F
100
AcDbEntity
  8
SECTIONCUTEDGES
100
AcDbLine
 10
182456.4305439341
 20
-9.042175759296835
 30
0.0
 11
182907.2770648338
 21
369.2631335148322
 31
0.0
  0
LINE
  5
256
330
1F
100
AcDbEntity
  8
SECTIONCUTEDGES
100
AcDbLine
 10
182004.4484515525
 20
-388.3003430476677
 30
0.0
 11
182456.4305439341
 21
-9.042175759296835
 31
0.0
  0
LINE
  5
257
330
1F
100
AcDbEntity
  8
SECTIONCUTEDGES
100
AcDbLine
 10
178801.4186663963
 20
-336.7368664851675
 30
0.0
 11
179186.8112488005
 21
-336.7368664851675
 31
0.0
  0
LINE
  5
258
330
1F
100
AcDbEntity
  8
SECTIONCUTEDGES
100
AcDbLine
 10
179186.8112488005
 20
-336.7368664851675
 30
0.0
 11
179571.2355609275
 21
-336.7368664851675
 31
0.0
  0
LINE
  5
259
330
1F
100
AcDbEntity
  8
SECTIONCUTEDGES
100
AcDbLine
 10
179601.4186663963
 20
-2554.736866485167
 30
0.0
 11
179200.9155492087
 21
-2554.736866485167
 31
0.0
  0
LINE
  5
25A
330
1F
100
AcDbEntity
  8
SECTIONCUTEDGES
100
AcDbLine
 10
179200.9155492087
 20
-2554.736866485167
 30
0.0
 11
178801.4186663963
 21
-2554.736866485167
 31
0.0
  0
LINE
  5
25B
330
1F
100
AcDbEntity
  8
SECTIONCUTEDGES
100
AcDbLine
 10
178801.4186663963
 20
-2514.736866485167
 30
0.0
 11
179185.8429785233
 21
-2514.736866485167
 31
0.0
  0
LINE
  5
25C
330
1F
100
AcDbEntity
  8
SECTIONCUTEDGES
100
AcDbLine
 10
179185.8429785233
 20
-2514.736866485167
 30
0.0
 11
179571.2355609275
 21
-2514.736866485167
 31
0.0
  0
LINE
  5
25D
330
1F
100
AcDbEntity
  8
SECTIONCUTEDGES
100
AcDbLine
 10
178801.4186663963
 20
-1788.736866485168
 30
0.0
 11
179185.8429785233
 21
-1788.736866485168
 31
0.0
  0
LINE
  5
25E
330
1F
100
AcDbEntity
  8
SECTIONCUTEDGES
100
AcDbLine
 10
179185.8429785233
 20
-1788.736866485168
 30
0.0
 11
179571.2355609275
 21
-1788.736866485168
 31
0.0
  0
LINE
  5
25F
330
1F
100
AcDbEntity
  8
SECTIONCUTEDGES
100
AcDbLine
 10
179601.4186663963
 20
-1828.736866485167
 30
0.0
 11
179229.2879540237
 21
-1828.736866485167
 31
0.0
  0
LINE
  5
260
330
1F
100
AcDbEntity
  8
SECTIONCUTEDGES
100
AcDbLine
 10
179229.2879540237
 20
-1828.736866485167
 30
0.0
 11
178856.2199359275
 21
-1828.736866485167
 31
0.0
  0
LINE
  5
261
330
1F
100
AcDbEntity
  8
SECTIONCUTEDGES
100
AcDbLine
 10
178801.4186663963
 20
-1062.736866485168
 30
0.0
 11
179185.8429785233
 21
-1062.736866485168
 31
0.0
  0
LINE
  5
262
330
1F
100
AcDbEntity
  8
SECTIONCUTEDGES
100
AcDbLine
 10
179185.8429785233
 20
-1062.736866485168
 30
0.0
 11
179571.2355609275
 21
-1062.736866485168
 31
0.0
  0
LINE
  5
263
330
1F
100
AcDbEntity
  8
SECTIONCUTEDGES
100
AcDbLine
 10
179601.4186663963
 20
-1102.736866485168
 30
0.0
 11
179229.2879540237
 21
-1102.736866485168
 31
0.0
  0
LINE
  5
264
330
1F
100
AcDbEntity
  8
SECTIONCUTEDGES
100
AcDbLine
 10
179229.2879540237
 20
-1102.736866485168
 30
0.0
 11
178856.2199359275
 21
-1102.736866485168
 31
0.0
  0
LINE
  5
265
330
1F
100
AcDbEntity
  8
SECTIONCUTEDGES
100
AcDbLine
 10
179601.4186663963
 20
-376.7368664851675
 30
0.0
 11
179229.2879540237
 21
-376.7368664851675
 31
0.0
  0
LINE
  5
266
330
1F
100
AcDbEntity
  8
SECTIONCUTEDGES
100
AcDbLine
 10
179229.2879540237
 20
-376.7368664851675
 30
0.0
 11
178856.2199359275
 21
-376.7368664851675
 31
0.0
  0
LINE
  5
267
330
1F
100
AcDbEntity
  8
SECTIONCUTEDGES
100
AcDbLine
 10
179571.2355609275
 20
-336.7368664851675
 30
0.0
 11
179185.8429785233
 21
4.2296680862859
 31
0.0
  0
LINE
  5
268
330
1F
100
AcDbEntity
  8
SECTIONCUTEDGES
100
AcDbLine
 10
179185.8429785233
 20
4.2296680862859
 30
0.0
 11
178801.4186663963
 21
344.3395495304576
 31
0.0
  0
LINE
  5
269
330
1F
100
AcDbEntity
  8
SECTIONCUTEDGES
100
AcDbLine
 10
179217.0335752014
 20
30.04226918170448
 30
0.0
 11
179601.4186663963
 21
-310.0330090632928
 31
0.0
  0
LINE
  5
26A
330
1F
100
AcDbEntity
  8
SECTIONCUTEDGES
100
AcDbLine
 10
178833.6142230369
 20
369.2631335148322
 30
0.0
 11
179217.0335752014
 21
30.04226918170448
 31
0.0
  0
LINE
  5
26B
330
1F
100
AcDbEntity
  8
SECTIONCUTEDGES
100
AcDbLine
 10
178856.2199359275
 20
-376.7368664851675
 30
0.0
 11
179228.3506483001
 21
-705.9703087479836
 31
0.0
  0
LINE
  5
26C
330
1F
100
AcDbEntity
  8
SECTIONCUTEDGES
100
AcDbLine
 10
179228.3506483001
 20
-705.9703087479836
 30
0.0
 11
179601.4186663963
 21
-1036.033009063293
 31
0.0
  0
LINE
  5
26D
330
1F
100
AcDbEntity
  8
SECTIONCUTEDGES
100
AcDbLine
 10
179186.8112488005
 20
-722.6269850409957
 30
0.0
 11
178801.4186663963
 21
-381.6604504695426
 31
0.0
  0
LINE
  5
26E
330
1F
100
AcDbEntity
  8
SECTIONCUTEDGES
100
AcDbLine
 10
179571.2355609275
 20
-1062.736866485168
 30
0.0
 11
179186.8112488005
 21
-722.6269850409957
 31
0.0
  0
LINE
  5
26F
330
1F
100
AcDbEntity
  8
SECTIONCUTEDGES
100
AcDbLine
 10
178856.2199359275
 20
-1102.736866485168
 30
0.0
 11
179228.3506483001
 21
-1431.970308747983
 31
0.0
  0
LINE
  5
270
330
1F
100
AcDbEntity
  8
SECTIONCUTEDGES
100
AcDbLine
 10
179228.3506483001
 20
-1431.970308747983
 30
0.0
 11
179601.4186663963
 21
-1762.033009063292
 31
0.0
  0
LINE
  5
271
330
1F
100
AcDbEntity
  8
SECTIONCUTEDGES
100
AcDbLine
 10
179186.8112488005
 20
-1448.626985040996
 30
0.0
 11
178801.4186663963
 21
-1107.660450469542
 31
0.0
  0
LINE
  5
272
330
1F
100
AcDbEntity
  8
SECTIONCUTEDGES
100
AcDbLine
 10
179571.2355609275
 20
-1788.736866485168
 30
0.0
 11
179186.8112488005
 21
-1448.626985040996
 31
0.0
  0
LINE
  5
273
330
1F
100
AcDbEntity
  8
SECTIONCUTEDGES
100
AcDbLine
 10
178856.2199359275
 20
-1828.736866485167
 30
0.0
 11
179228.3506483001
 21
-2157.970339227177
 31
0.0
  0
LINE
  5
274
330
1F
100
AcDbEntity
  8
SECTIONCUTEDGES
100
AcDbLine
 10
179228.3506483001
 20
-2157.970339227177
 30
0.0
 11
179601.4186663963
 21
-2488.033070098449
 31
0.0
  0
LINE
  5
275
330
1F
100
AcDbEntity
  8
SECTIONCUTEDGES
100
AcDbLine
 10
179186.8112488005
 20
-2174.627045999382
 30
0.0
 11
178801.4186663963
 21
-1833.660572539855
 31
0.0
  0
LINE
  5
276
330
1F
100
AcDbEntity
  8
SECTIONCUTEDGES
100
AcDbLine
 10
179571.2355609275
 20
-2514.736866485167
 30
0.0
 11
179186.8112488005
 21
-2174.627045999382
 31
0.0
  0
LINE
  5
277
330
1F
100
AcDbEntity
  8
SECTIONCUTEDGES
100
AcDbLine
 10
179601.4186663963
 20
-336.7368664851675
 30
0.0
 11
179601.4186663963
 21
-324.7030639075427
 31
0.0
  0
LINE
  5
278
330
1F
100
AcDbEntity
  8
SECTIONCUTEDGES
100
AcDbLine
 10
179601.4186663963
 20
-324.7030639075427
 30
0.0
 11
179601.4186663963
 21
-312.7031750789175
 31
0.0
  0
LINE
  5
279
330
1F
100
AcDbEntity
  8
SECTIONCUTEDGES
100
AcDbLine
 10
179587.8553130493
 20
-336.7368664851675
 30
0.0
 11
179601.4186663963
 21
-336.7368664851675
 31
0.0
  0
LINE
  5
27A
330
1F
100
AcDbEntity
  8
SECTIONCUTEDGES
100
AcDbLine
 10
179574.2536273338
 20
-336.7368664851675
 30
0.0
 11
179587.8553130493
 21
-336.7368664851675
 31
0.0
  0
LINE
  5
27B
330
1F
100
AcDbEntity
  8
SECTIONCUTEDGES
100
AcDbLine
 10
179601.4186663963
 20
-312.7031750789175
 30
0.0
 11
179215.4633163007
 21
28.76113780955857
 31
0.0
  0
LINE
  5
27C
330
1F
100
AcDbEntity
  8
SECTIONCUTEDGES
100
AcDbLine
 10
179215.4633163007
 20
28.76113780955857
 30
0.0
 11
178830.5956683494
 21
369.2631335148322
 31
0.0
  0
LINE
  5
27D
330
1F
100
AcDbEntity
  8
SECTIONCUTEDGES
100
AcDbLine
 10
179187.2908762605
 20
5.618961429401267
 30
0.0
 11
179574.2536273338
 21
-336.7368664851675
 31
0.0
  0
LINE
  5
27E
330
1F
100
AcDbEntity
  8
SECTIONCUTEDGES
100
AcDbLine
 10
178801.4186663963
 20
347.0099596867075
 30
0.0
 11
179187.2908762605
 21
5.618961429401267
 31
0.0
  0
LINE
  5
27F
330
1F
100
AcDbEntity
  8
SECTIONCUTEDGES
100
AcDbLine
 10
178801.4186663963
 20
369.2631335148322
 30
0.0
 11
178801.4186663963
 21
358.1208459633001
 31
0.0
  0
LINE
  5
280
330
1F
100
AcDbEntity
  8
SECTIONCUTEDGES
100
AcDbLine
 10
178801.4186663963
 20
358.1208459633001
 30
0.0
 11
178801.4186663963
 21
347.0099596867075
 31
0.0
  0
LINE
  5
281
330
1F
100
AcDbEntity
  8
SECTIONCUTEDGES
100
AcDbLine
 10
178830.5956683494
 20
369.2631335148322
 30
0.0
 11
178816.0277530894
 21
369.2631335148322
 31
0.0
  0
LINE
  5
282
330
1F
100
AcDbEntity
  8
SECTIONCUTEDGES
100
AcDbLine
 10
178816.0277530894
 20
369.2631335148322
 30
0.0
 11
178801.4186663963
 21
369.2631335148322
 31
0.0
  0
LINE
  5
283
330
1F
100
AcDbEntity
  8
SECTIONCUTEDGES
100
AcDbLine
 10
179601.4186663963
 20
-356.7114668296724
 30
0.0
 11
179601.4186663963
 21
-338.7368664851674
 31
0.0
  0
LINE
  5
284
330
1F
100
AcDbEntity
  8
SECTIONCUTEDGES
100
AcDbLine
 10
179601.4186663963
 20
-374.7368664851675
 30
0.0
 11
179601.4186663963
 21
-356.7114668296724
 31
0.0
  0
LINE
  5
285
330
1F
100
AcDbEntity
  8
SECTIONCUTEDGES
100
AcDbLine
 10
179200.8542296074
 20
-374.7368664851675
 30
0.0
 11
179601.4186663963
 21
-374.7368664851675
 31
0.0
  0
LINE
  5
286
330
1F
100
AcDbEntity
  8
SECTIONCUTEDGES
100
AcDbLine
 10
178801.4186663963
 20
-374.7368664851675
 30
0.0
 11
179200.8542296074
 21
-374.7368664851675
 31
0.0
  0
LINE
  5
287
330
1F
100
AcDbEntity
  8
SECTIONCUTEDGES
100
AcDbLine
 10
179601.4186663963
 20
-338.7368664851674
 30
0.0
 11
179201.983103185
 21
-338.7368664851674
 31
0.0
  0
LINE
  5
288
330
1F
100
AcDbEntity
  8
SECTIONCUTEDGES
100
AcDbLine
 10
179201.983103185
 20
-338.7368664851674
 30
0.0
 11
178801.4186663963
 21
-338.7368664851674
 31
0.0
  0
LINE
  5
289
330
1F
100
AcDbEntity
  8
SECTIONCUTEDGES
100
AcDbLine
 10
178801.4186663963
 20
-356.7622661406626
 30
0.0
 11
178801.4186663963
 21
-374.7368664851675
 31
0.0
  0
LINE
  5
28A
330
1F
100
AcDbEntity
  8
SECTIONCUTEDGES
100
AcDbLine
 10
178801.4186663963
 20
-338.7368664851674
 30
0.0
 11
178801.4186663963
 21
-356.7622661406626
 31
0.0
  0
LINE
  5
28B
330
1F
100
AcDbEntity
  8
SECTIONCUTEDGES
100
AcDbLine
 10
179601.4186663963
 20
-1082.711466829672
 30
0.0
 11
179601.4186663963
 21
-1064.736866485168
 31
0.0
  0
LINE
  5
28C
330
1F
100
AcDbEntity
  8
SECTIONCUTEDGES
100
AcDbLine
 10
179601.4186663963
 20
-1100.736866485167
 30
0.0
 11
179601.4186663963
 21
-1082.711466829672
 31
0.0
  0
LINE
  5
28D
330
1F
100
AcDbEntity
  8
SECTIONCUTEDGES
100
AcDbLine
 10
179200.8542296074
 20
-1100.736866485167
 30
0.0
 11
179601.4186663963
 21
-1100.736866485167
 31
0.0
  0
LINE
  5
28E
330
1F
100
AcDbEntity
  8
SECTIONCUTEDGES
100
AcDbLine
 10
178801.4186663963
 20
-1100.736866485167
 30
0.0
 11
179200.8542296074
 21
-1100.736866485167
 31
0.0
  0
LINE
  5
28F
330
1F
100
AcDbEntity
  8
SECTIONCUTEDGES
100
AcDbLine
 10
179601.4186663963
 20
-1064.736866485168
 30
0.0
 11
179201.983103185
 21
-1064.736866485168
 31
0.0
  0
LINE
  5
290
330
1F
100
AcDbEntity
  8
SECTIONCUTEDGES
100
AcDbLine
 10
179201.983103185
 20
-1064.736866485168
 30
0.0
 11
178801.4186663963
 21
-1064.736866485168
 31
0.0
  0
LINE
  5
291
330
1F
100
AcDbEntity
  8
SECTIONCUTEDGES
100
AcDbLine
 10
178801.4186663963
 20
-1082.762266140663
 30
0.0
 11
178801.4186663963
 21
-1100.736866485167
 31
0.0
  0
LINE
  5
292
330
1F
100
AcDbEntity
  8
SECTIONCUTEDGES
100
AcDbLine
 10
178801.4186663963
 20
-1064.736866485168
 30
0.0
 11
178801.4186663963
 21
-1082.762266140663
 31
0.0
  0
LINE
  5
293
330
1F
100
AcDbEntity
  8
SECTIONCUTEDGES
100
AcDbLine
 10
179601.4186663963
 20
-1808.711466829672
 30
0.0
 11
179601.4186663963
 21
-1790.736866485167
 31
0.0
  0
LINE
  5
294
330
1F
100
AcDbEntity
  8
SECTIONCUTEDGES
100
AcDbLine
 10
179601.4186663963
 20
-1826.736866485168
 30
0.0
 11
179601.4186663963
 21
-1808.711466829672
 31
0.0
  0
LINE
  5
295
330
1F
100
AcDbEntity
  8
SECTIONCUTEDGES
100
AcDbLine
 10
179200.8542296074
 20
-1826.736866485168
 30
0.0
 11
179601.4186663963
 21
-1826.736866485168
 31
0.0
  0
LINE
  5
296
330
1F
100
AcDbEntity
  8
SECTIONCUTEDGES
100
AcDbLine
 10
178801.4186663963
 20
-1826.736866485168
 30
0.0
 11
179200.8542296074
 21
-1826.736866485168
 31
0.0
  0
LINE
  5
297
330
1F
100
AcDbEntity
  8
SECTIONCUTEDGES
100
AcDbLine
 10
179601.4186663963
 20
-1790.736866485167
 30
0.0
 11
179201.983103185
 21
-1790.736866485167
 31
0.0
  0
LINE
  5
298
330
1F
100
AcDbEntity
  8
SECTIONCUTEDGES
100
AcDbLine
 10
179201.983103185
 20
-1790.736866485167
 30
0.0
 11
178801.4186663963
 21
-1790.736866485167
 31
0.0
  0
LINE
  5
299
330
1F
100
AcDbEntity
  8
SECTIONCUTEDGES
100
AcDbLine
 10
178801.4186663963
 20
-1808.762266140663
 30
0.0
 11
178801.4186663963
 21
-1826.736866485168
 31
0.0
  0
LINE
  5
29A
330
1F
100
AcDbEntity
  8
SECTIONCUTEDGES
100
AcDbLine
 10
178801.4186663963
 20
-1790.736866485167
 30
0.0
 11
178801.4186663963
 21
-1808.762266140663
 31
0.0
  0
LINE
  5
29B
330
1F
100
AcDbEntity
  8
SECTIONCUTEDGES
100
AcDbLine
 10
179601.4186663963
 20
-2534.762266140663
 30
0.0
 11
179601.4186663963
 21
-2516.736866485167
 31
0.0
  0
LINE
  5
29C
330
1F
100
AcDbEntity
  8
SECTIONCUTEDGES
100
AcDbLine
 10
179601.4186663963
 20
-2552.736866485167
 30
0.0
 11
179601.4186663963
 21
-2534.762266140663
 31
0.0
  0
LINE
  5
29D
330
1F
100
AcDbEntity
  8
SECTIONCUTEDGES
100
AcDbLine
 10
179601.4186663963
 20
-2516.736866485167
 30
0.0
 11
179201.983103185
 21
-2516.736866485167
 31
0.0
  0
LINE
  5
29E
330
1F
100
AcDbEntity
  8
SECTIONCUTEDGES
100
AcDbLine
 10
179201.983103185
 20
-2516.736866485167
 30
0.0
 11
178801.4186663963
 21
-2516.736866485167
 31
0.0
  0
LINE
  5
29F
330
1F
100
AcDbEntity
  8
SECTIONCUTEDGES
100
AcDbLine
 10
179200.8542296074
 20
-2552.736866485167
 30
0.0
 11
179601.4186663963
 21
-2552.736866485167
 31
0.0
  0
LINE
  5
2A0
330
1F
100
AcDbEntity
  8
SECTIONCUTEDGES
100
AcDbLine
 10
178801.4186663963
 20
-2552.736866485167
 30
0.0
 11
179200.8542296074
 21
-2552.736866485167
 31
0.0
  0
LINE
  5
2A1
330
1F
100
AcDbEntity
  8
SECTIONCUTEDGES
100
AcDbLine
 10
178801.4186663963
 20
-2516.736866485167
 30
0.0
 11
178801.4186663963
 21
-2534.711466829672
 31
0.0
  0
LINE
  5
2A2
330
1F
100
AcDbEntity
  8
SECTIONCUTEDGES
100
AcDbLine
 10
178801.4186663963
 20
-2534.711466829672
 30
0.0
 11
178801.4186663963
 21
-2552.736866485167
 31
0.0
  0
LINE
  5
2A3
330
1F
100
AcDbEntity
  8
SECTIONCUTEDGES
100
AcDbLine
 10
181342.6686663963
 20
355.2417890738807
 30
0.0
 11
181342.6686663963
 21
341.2599596867073
 31
0.0
  0
LINE
  5
2A4
330
1F
100
AcDbEntity
  8
SECTIONCUTEDGES
100
AcDbLine
 10
181342.6686663963
 20
369.2631335148322
 30
0.0
 11
181342.6686663963
 21
355.2417890738807
 31
0.0
  0
LINE
  5
2A5
330
1F
100
AcDbEntity
  8
SECTIONCUTEDGES
100
AcDbLine
 10
181659.4497605725
 20
-36.26517640308412
 30
0.0
 11
181975.33809999
 21
-412.7263684382927
 31
0.0
  0
LINE
  5
2A6
330
1F
100
AcDbEntity
  8
SECTIONCUTEDGES
100
AcDbLine
 10
181342.6686663963
 20
341.2599596867073
 30
0.0
 11
181659.4497605725
 21
-36.26517640308412
 31
0.0
  0
LINE
  5
2A7
330
1F
100
AcDbEntity
  8
SECTIONCUTEDGES
100
AcDbLine
 10
182002.91622499
 20
-389.5859875789175
 30
0.0
 11
181684.0919685834
 21
-9.626024080691229
 31
0.0
  0
LINE
  5
2A8
330
1F
100
AcDbEntity
  8
SECTIONCUTEDGES
100
AcDbLine
 10
181684.0919685834
 20
-9.626024080691229
 30
0.0
 11
181366.16622499
 21
369.2631335148322
 31
0.0
  0
LINE
  5
2A9
330
1F
100
AcDbEntity
  8
SECTIONCUTEDGES
100
AcDbLine
 10
181989.1077048546
 20
-401.1725046114344
 30
0.0
 11
182002.91622499
 21
-389.5859875789175
 31
0.0
  0
LINE
  5
2AA
330
1F
100
AcDbEntity
  8
SECTIONCUTEDGES
100
AcDbLine
 10
181975.33809999
 20
-412.7263684382927
 30
0.0
 11
181989.1077048546
 21
-401.1725046114344
 31
0.0
  0
LINE
  5
2AB
330
1F
100
AcDbEntity
  8
SECTIONCUTEDGES
100
AcDbLine
 10
181354.4340243012
 20
369.2631335148322
 30
0.0
 11
181342.6686663963
 21
369.2631335148322
 31
0.0
  0
LINE
  5
2AC
330
1F
100
AcDbEntity
  8
SECTIONCUTEDGES
100
AcDbLine
 10
181366.16622499
 20
369.2631335148322
 30
0.0
 11
181354.4340243012
 21
369.2631335148322
 31
0.0
  0
LINE
  5
2AD
330
1F
100
AcDbEntity
  8
SECTIONCUTEDGES
100
AcDbLine
 10
181304.6686663963
 20
-938.9294934382924
 30
0.0
 11
181313.681366224
 21
-949.6704586491333
 31
0.0
  0
LINE
  5
2AE
330
1F
100
AcDbEntity
  8
SECTIONCUTEDGES
100
AcDbLine
 10
181313.681366224
 20
-949.6704586491333
 30
0.0
 11
181322.6686663963
 21
-960.3811535945425
 31
0.0
  0
LINE
  5
2AF
330
1F
100
AcDbEntity
  8
SECTIONCUTEDGES
100
AcDbLine
 10
181322.6686663963
 20
-960.3811535945425
 30
0.0
 11
181331.6816107091
 21
-952.8186173146541
 31
0.0
  0
LINE
  5
2B0
330
1F
100
AcDbEntity
  8
SECTIONCUTEDGES
100
AcDbLine
 10
181331.6816107091
 20
-952.8186173146541
 30
0.0
 11
181340.6691546775
 21
-945.2773938289176
 31
0.0
  0
LINE
  5
2B1
330
1F
100
AcDbEntity
  8
SECTIONCUTEDGES
100
AcDbLine
 10
181304.6686663963
 20
-285.7561700185641
 30
0.0
 11
181304.6686663963
 21
-938.9294934382924
 31
0.0
  0
LINE
  5
2B2
330
1F
100
AcDbEntity
  8
SECTIONCUTEDGES
100
AcDbLine
 10
181304.6686663963
 20
369.2631335148322
 30
0.0
 11
181304.6686663963
 21
-285.7561700185641
 31
0.0
  0
LINE
  5
2B3
330
1F
100
AcDbEntity
  8
SECTIONCUTEDGES
100
AcDbLine
 10
181340.6691546775
 20
-945.2773938289176
 30
0.0
 11
181340.6691546775
 21
-287.0796613645689
 31
0.0
  0
LINE
  5
2B4
330
1F
100
AcDbEntity
  8
SECTIONCUTEDGES
100
AcDbLine
 10
181340.6691546775
 20
-287.0796613645689
 30
0.0
 11
181340.6691546775
 21
369.2631335148322
 31
0.0
  0
LINE
  5
2B5
330
1F
100
AcDbEntity
  8
SECTIONCUTEDGES
100
AcDbLine
 10
181322.6943105369
 20
369.2631335148322
 30
0.0
 11
181304.6686663963
 21
369.2631335148322
 31
0.0
  0
LINE
  5
2B6
330
1F
100
AcDbEntity
  8
SECTIONCUTEDGES
100
AcDbLine
 10
181340.6691546775
 20
369.2631335148322
 30
0.0
 11
181322.6943105369
 21
369.2631335148322
 31
0.0
  0
LINE
  5
2B7
330
1F
100
AcDbEntity
  8
SECTIONCUTEDGES
100
AcDbLine
 10
180262.4775821507
 20
-422.4863782039175
 30
0.0
 11
180819.1051898338
 21
-422.4863782039175
 31
0.0
  0
LINE
  5
2B8
330
1F
100
AcDbEntity
  8
SECTIONCUTEDGES
100
AcDbLine
 10
179707.4186663963
 20
-422.4863782039175
 30
0.0
 11
180262.4775821507
 21
-422.4863782039175
 31
0.0
  0
LINE
  5
2B9
330
1F
100
AcDbEntity
  8
SECTIONCUTEDGES
100
AcDbLine
 10
180248.9212015195
 20
-386.4863782039178
 30
0.0
 11
179707.4186663963
 21
-386.4863782039178
 31
0.0
  0
LINE
  5
2BA
330
1F
100
AcDbEntity
  8
SECTIONCUTEDGES
100
AcDbLine
 10
180788.8976703025
 20
-386.4863782039178
 30
0.0
 11
180248.9212015195
 21
-386.4863782039178
 31
0.0
  0
LINE
  5
2BB
330
1F
100
AcDbEntity
  8
SECTIONCUTEDGES
100
AcDbLine
 10
180804.0227428623
 20
-404.511777859413
 30
0.0
 11
180788.8976703025
 21
-386.4863782039178
 31
0.0
  0
LINE
  5
2BC
330
1F
100
AcDbEntity
  8
SECTIONCUTEDGES
100
AcDbLine
 10
180819.1051898338
 20
-422.4863782039175
 30
0.0
 11
180804.0227428623
 21
-404.511777859413
 31
0.0
  0
LINE
  5
2BD
330
1F
100
AcDbEntity
  8
SECTIONCUTEDGES
100
AcDbLine
 10
179707.4186663963
 20
-404.511777859413
 30
0.0
 11
179707.4186663963
 21
-422.4863782039175
 31
0.0
  0
LINE
  5
2BE
330
1F
100
AcDbEntity
  8
SECTIONCUTEDGES
100
AcDbLine
 10
179707.4186663963
 20
-386.4863782039178
 30
0.0
 11
179707.4186663963
 21
-404.511777859413
 31
0.0
  0
LINE
  5
2BF
330
1F
100
AcDbEntity
  8
SECTIONCUTEDGES
100
AcDbLine
 10
180246.1071776746
 20
-875.2261534824211
 30
0.0
 11
179707.4186663963
 21
-1327.239552032043
 31
0.0
  0
LINE
  5
2C0
330
1F
100
AcDbEntity
  8
SECTIONCUTEDGES
100
AcDbLine
 10
180783.277553115
 20
-424.4866223445426
 30
0.0
 11
180246.1071776746
 21
-875.2261534824211
 31
0.0
  0
LINE
  5
2C1
330
1F
100
AcDbEntity
  8
SECTIONCUTEDGES
100
AcDbLine
 10
180828.4274554588
 20
-433.5959973445424
 30
0.0
 11
180824.6000407506
 21
-429.0348827615766
 31
0.0
  0
LINE
  5
2C2
330
1F
100
AcDbEntity
  8
SECTIONCUTEDGES
100
AcDbLine
 10
180824.6000407506
 20
-429.0348827615766
 30
0.0
 11
180820.78341249
 21
-424.4866223445426
 31
0.0
  0
LINE
  5
2C3
330
1F
100
AcDbEntity
  8
SECTIONCUTEDGES
100
AcDbLine
 10
179707.4186663963
 20
-1350.736866485168
 30
0.0
 11
179721.4401330798
 21
-1350.736866485168
 31
0.0
  0
LINE
  5
2C4
330
1F
100
AcDbEntity
  8
SECTIONCUTEDGES
100
AcDbLine
 10
179721.4401330798
 20
-1350.736866485168
 30
0.0
 11
179735.422084365
 21
-1350.736866485168
 31
0.0
  0
LINE
  5
2C5
330
1F
100
AcDbEntity
  8
SECTIONCUTEDGES
100
AcDbLine
 10
180282.6959354641
 20
-891.5193468560557
 30
0.0
 11
180828.4274554588
 21
-433.5959973445424
 31
0.0
  0
LINE
  5
2C6
330
1F
100
AcDbEntity
  8
SECTIONCUTEDGES
100
AcDbLine
 10
179735.422084365
 20
-1350.736866485168
 30
0.0
 11
180282.6959354641
 21
-891.5193468560557
 31
0.0
  0
LINE
  5
2C7
330
1F
100
AcDbEntity
  8
SECTIONCUTEDGES
100
AcDbLine
 10
180820.78341249
 20
-424.4866223445426
 30
0.0
 11
180802.056944911
 21
-424.4866223445426
 31
0.0
  0
LINE
  5
2C8
330
1F
100
AcDbEntity
  8
SECTIONCUTEDGES
100
AcDbLine
 10
180802.056944911
 20
-424.4866223445426
 30
0.0
 11
180783.277553115
 21
-424.4866223445426
 31
0.0
  0
LINE
  5
2C9
330
1F
100
AcDbEntity
  8
SECTIONCUTEDGES
100
AcDbLine
 10
179707.4186663963
 20
-1327.239552032043
 30
0.0
 11
179707.4186663963
 21
-1338.971630822711
 31
0.0
  0
LINE
  5
2CA
330
1F
100
AcDbEntity
  8
SECTIONCUTEDGES
100
AcDbLine
 10
179707.4186663963
 20
-1338.971630822711
 30
0.0
 11
179707.4186663963
 21
-1350.736866485168
 31
0.0
  0
LINE
  5
2CB
330
1F
100
AcDbEntity
  8
SECTIONCUTEDGES
100
AcDbLine
 10
180260.5758076607
 20
-1388.736866485168
 30
0.0
 11
180812.17403749
 21
-1388.736866485168
 31
0.0
  0
LINE
  5
2CC
330
1F
100
AcDbEntity
  8
SECTIONCUTEDGES
100
AcDbLine
 10
179707.4186663963
 20
-1388.736866485168
 30
0.0
 11
180260.5758076607
 21
-1388.736866485168
 31
0.0
  0
LINE
  5
2CD
330
1F
100
AcDbEntity
  8
SECTIONCUTEDGES
100
AcDbLine
 10
180812.17403749
 20
-1388.736866485168
 30
0.0
 11
180833.6559679117
 21
-1370.711466829672
 31
0.0
  0
LINE
  5
2CE
330
1F
100
AcDbEntity
  8
SECTIONCUTEDGES
100
AcDbLine
 10
180833.6559679117
 20
-1370.711466829672
 30
0.0
 11
180855.0773578025
 21
-1352.736866485167
 31
0.0
  0
LINE
  5
2CF
330
1F
100
AcDbEntity
  8
SECTIONCUTEDGES
100
AcDbLine
 10
180855.0773578025
 20
-1352.736866485167
 30
0.0
 11
180280.4382861164
 21
-1352.736866485167
 31
0.0
  0
LINE
  5
2D0
330
1F
100
AcDbEntity
  8
SECTIONCUTEDGES
100
AcDbLine
 10
180280.4382861164
 20
-1352.736866485167
 30
0.0
 11
179707.4186663963
 21
-1352.736866485167
 31
0.0
  0
LINE
  5
2D1
330
1F
100
AcDbEntity
  8
SECTIONCUTEDGES
100
AcDbLine
 10
179707.4186663963
 20
-1352.736866485167
 30
0.0
 11
179707.4186663963
 21
-1370.762266140663
 31
0.0
  0
LINE
  5
2D2
330
1F
100
AcDbEntity
  8
SECTIONCUTEDGES
100
AcDbLine
 10
179707.4186663963
 20
-1370.762266140663
 30
0.0
 11
179707.4186663963
 21
-1388.736866485168
 31
0.0
  0
LINE
  5
2D3
330
1F
100
AcDbEntity
  8
SECTIONCUTEDGES
100
AcDbLine
 10
180726.2610790232
 20
-308.7272593663204
 30
0.0
 11
181293.5592913963
 21
-984.8069348445428
 31
0.0
  0
LINE
  5
2D4
330
1F
100
AcDbEntity
  8
SECTIONCUTEDGES
100
AcDbLine
 10
180157.359584365
 20
369.2631335148322
 30
0.0
 11
180726.2610790232
 21
-308.7272593663204
 31
0.0
  0
LINE
  5
2D5
330
1F
100
AcDbEntity
  8
SECTIONCUTEDGES
100
AcDbLine
 10
180761.9576291315
 20
-295.2628000345919
 30
0.0
 11
180204.3542132713
 21
369.2631335148322
 31
0.0
  0
LINE
  5
2D6
330
1F
100
AcDbEntity
  8
SECTIONCUTEDGES
100
AcDbLine
 10
181321.136928115
 20
-961.6667981257926
 30
0.0
 11
180761.9576291315
 21
-295.2628000345919
 31
0.0
  0
LINE
  5
2D7
330
1F
100
AcDbEntity
  8
SECTIONCUTEDGES
100
AcDbLine
 10
181307.3286524648
 20
-973.2531929157445
 30
0.0
 11
181321.136928115
 21
-961.6667981257926
 31
0.0
  0
LINE
  5
2D8
330
1F
100
AcDbEntity
  8
SECTIONCUTEDGES
100
AcDbLine
 10
181293.5592913963
 20
-984.8069348445428
 30
0.0
 11
181307.3286524648
 21
-973.2531929157445
 31
0.0
  0
LINE
  5
2D9
330
1F
100
AcDbEntity
  8
SECTIONCUTEDGES
100
AcDbLine
 10
180204.3542132713
 20
369.2631335148322
 30
0.0
 11
180180.8237419463
 21
369.2631335148322
 31
0.0
  0
LINE
  5
2DA
330
1F
100
AcDbEntity
  8
SECTIONCUTEDGES
100
AcDbLine
 10
180180.8237419463
 20
369.2631335148322
 30
0.0
 11
180157.359584365
 21
369.2631335148322
 31
0.0
  0
LINE
  5
2DB
330
1F
100
AcDbEntity
  8
SECTIONCUTEDGES
100
AcDbLine
 10
181339.2058165081
 20
-996.1102109484557
 30
0.0
 11
182966.3942523338
 21
369.2631335148322
 31
0.0
  0
LINE
  5
2DC
330
1F
100
AcDbEntity
  8
SECTIONCUTEDGES
100
AcDbLine
 10
179707.4186663963
 20
-2365.342335235168
 30
0.0
 11
181339.2058165081
 21
-996.1102109484557
 31
0.0
  0
LINE
  5
2DD
330
1F
100
AcDbEntity
  8
SECTIONCUTEDGES
100
AcDbLine
 10
182910.38888124
 20
369.2631335148322
 30
0.0
 11
181306.6439310398
 21
-976.4385194469673
 31
0.0
  0
LINE
  5
2DE
330
1F
100
AcDbEntity
  8
SECTIONCUTEDGES
100
AcDbLine
 10
181306.6439310398
 20
-976.4385194469673
 30
0.0
 11
179707.4186663963
 21
-2318.347706328918
 31
0.0
  0
LINE
  5
2DF
330
1F
100
AcDbEntity
  8
SECTIONCUTEDGES
100
AcDbLine
 10
179707.4186663963
 20
-2318.347706328918
 30
0.0
 11
179707.4186663963
 21
-2341.87817765383
 31
0.0
  0
LINE
  5
2E0
330
1F
100
AcDbEntity
  8
SECTIONCUTEDGES
100
AcDbLine
 10
179707.4186663963
 20
-2341.87817765383
 30
0.0
 11
179707.4186663963
 21
-2365.342335235168
 31
0.0
  0
LINE
  5
2E1
330
1F
100
AcDbEntity
  8
SECTIONCUTEDGES
100
AcDbLine
 10
182966.3942523338
 20
369.2631335148322
 30
0.0
 11
182938.4310811517
 21
369.2631335148322
 31
0.0
  0
LINE
  5
2E2
330
1F
100
AcDbEntity
  8
SECTIONCUTEDGES
100
AcDbLine
 10
182938.4310811517
 20
369.2631335148322
 30
0.0
 11
182910.38888124
 21
369.2631335148322
 31
0.0
  0
LINE
  5
2E3
330
1F
100
AcDbEntity
  8
SECTIONCUTEDGES
100
AcDbLine
 10
177500.5339007713
 20
369.2631335148322
 30
0.0
 11
177135.6054331494
 21
4.334727014204989
 31
0.0
  0
LINE
  5
2E4
330
1F
100
AcDbEntity
  8
SECTIONCUTEDGES
100
AcDbLine
 10
177135.6054331494
 20
4.334727014204989
 30
0.0
 11
176771.7054095603
 21
-359.5652356257925
 31
0.0
  0
LINE
  5
2E5
330
1F
100
AcDbEntity
  8
SECTIONCUTEDGES
100
AcDbLine
 10
177162.125608219
 20
-20.05684108019836
 30
0.0
 11
177551.445521865
 21
369.2631335148322
 31
0.0
  0
LINE
  5
2E6
330
1F
100
AcDbEntity
  8
SECTIONCUTEDGES
100
AcDbLine
 10
176771.7054095603
 20
-410.4771008601676
 30
0.0
 11
177162.125608219
 21
-20.05684108019836
 31
0.0
  0
LINE
  5
2E7
330
1F
100
AcDbEntity
  8
SECTIONCUTEDGES
100
AcDbLine
 10
176771.7054095603
 20
-385.0570889051349
 30
0.0
 11
176771.7054095603
 21
-410.4771008601676
 31
0.0
  0
LINE
  5
2E8
330
1F
100
AcDbEntity
  8
SECTIONCUTEDGES
100
AcDbLine
 10
176771.7054095603
 20
-359.5652356257925
 30
0.0
 11
176771.7054095603
 21
-385.0570889051349
 31
0.0
  0
LINE
  5
2E9
330
1F
100
AcDbEntity
  8
SECTIONCUTEDGES
100
AcDbLine
 10
177526.0256318081
 20
369.2631335148322
 30
0.0
 11
177500.5339007713
 21
369.2631335148322
 31
0.0
  0
LINE
  5
2EA
330
1F
100
AcDbEntity
  8
SECTIONCUTEDGES
100
AcDbLine
 10
177551.445521865
 20
369.2631335148322
 30
0.0
 11
177526.0256318081
 21
369.2631335148322
 31
0.0
  0
LINE
  5
2EB
330
1F
100
AcDbEntity
  8
SECTIONCUTEDGES
100
AcDbLine
 10
179226.7822443585
 20
-707.2530950082212
 30
0.0
 11
178853.2016253806
 21
-376.7368664851675
 31
0.0
  0
LINE
  5
2EC
330
1F
100
AcDbEntity
  8
SECTIONCUTEDGES
100
AcDbLine
 10
179601.4186663963
 20
-1038.703419219542
 30
0.0
 11
179226.7822443585
 21
-707.2530950082212
 31
0.0
  0
LINE
  5
2ED
330
1F
100
AcDbEntity
  8
SECTIONCUTEDGES
100
AcDbLine
 10
178801.4186663963
 20
-378.9900403132928
 30
0.0
 11
179188.3814174695
 21
-721.3458682278615
 31
0.0
  0
LINE
  5
2EE
330
1F
100
AcDbEntity
  8
SECTIONCUTEDGES
100
AcDbLine
 10
179188.3814174695
 20
-721.3458682278615
 30
0.0
 11
179574.2536273338
 21
-1062.736866485168
 31
0.0
  0
LINE
  5
2EF
330
1F
100
AcDbEntity
  8
SECTIONCUTEDGES
100
AcDbLine
 10
178853.2016253806
 20
-376.7368664851675
 30
0.0
 11
178827.3466811473
 21
-376.7368664851675
 31
0.0
  0
LINE
  5
2F0
330
1F
100
AcDbEntity
  8
SECTIONCUTEDGES
100
AcDbLine
 10
178827.3466811473
 20
-376.7368664851675
 30
0.0
 11
178801.4186663963
 21
-376.7368664851675
 31
0.0
  0
LINE
  5
2F1
330
1F
100
AcDbEntity
  8
SECTIONCUTEDGES
100
AcDbLine
 10
179574.2536273338
 20
-1062.736866485168
 30
0.0
 11
179587.8169806807
 21
-1062.736866485168
 31
0.0
  0
LINE
  5
2F2
330
1F
100
AcDbEntity
  8
SECTIONCUTEDGES
100
AcDbLine
 10
179587.8169806807
 20
-1062.736866485168
 30
0.0
 11
179601.4186663963
 21
-1062.736866485168
 31
0.0
  0
LINE
  5
2F3
330
1F
100
AcDbEntity
  8
SECTIONCUTEDGES
100
AcDbLine
 10
179601.4186663963
 20
-1062.736866485168
 30
0.0
 11
179601.4186663963
 21
-1050.703186150108
 31
0.0
  0
LINE
  5
2F4
330
1F
100
AcDbEntity
  8
SECTIONCUTEDGES
100
AcDbLine
 10
179601.4186663963
 20
-1050.703186150108
 30
0.0
 11
179601.4186663963
 21
-1038.703419219542
 31
0.0
  0
LINE
  5
2F5
330
1F
100
AcDbEntity
  8
SECTIONCUTEDGES
100
AcDbLine
 10
178801.4186663963
 20
-376.7368664851675
 30
0.0
 11
178801.4186663963
 21
-377.8650431169804
 31
0.0
  0
LINE
  5
2F6
330
1F
100
AcDbEntity
  8
SECTIONCUTEDGES
100
AcDbLine
 10
178801.4186663963
 20
-377.8650431169804
 30
0.0
 11
178801.4186663963
 21
-378.9900403132928
 31
0.0
  0
LINE
  5
2F7
330
1F
100
AcDbEntity
  8
SECTIONCUTEDGES
100
AcDbLine
 10
179226.7822443585
 20
-1433.253095008221
 30
0.0
 11
178853.2016253806
 21
-1102.736866485168
 31
0.0
  0
LINE
  5
2F8
330
1F
100
AcDbEntity
  8
SECTIONCUTEDGES
100
AcDbLine
 10
179601.4186663963
 20
-1764.703419219543
 30
0.0
 11
179226.7822443585
 21
-1433.253095008221
 31
0.0
  0
LINE
  5
2F9
330
1F
100
AcDbEntity
  8
SECTIONCUTEDGES
100
AcDbLine
 10
178801.4186663963
 20
-1104.990284453917
 30
0.0
 11
179188.3814174695
 21
-1447.345990125921
 31
0.0
  0
LINE
  5
2FA
330
1F
100
AcDbEntity
  8
SECTIONCUTEDGES
100
AcDbLine
 10
179188.3814174695
 20
-1447.345990125921
 30
0.0
 11
179574.2536273338
 21
-1788.736866485168
 31
0.0
  0
LINE
  5
2FB
330
1F
100
AcDbEntity
  8
SECTIONCUTEDGES
100
AcDbLine
 10
178853.2016253806
 20
-1102.736866485168
 30
0.0
 11
178827.3466811473
 21
-1102.736866485168
 31
0.0
  0
LINE
  5
2FC
330
1F
100
AcDbEntity
  8
SECTIONCUTEDGES
100
AcDbLine
 10
178827.3466811473
 20
-1102.736866485168
 30
0.0
 11
178801.4186663963
 21
-1102.736866485168
 31
0.0
  0
LINE
  5
2FD
330
1F
100
AcDbEntity
  8
SECTIONCUTEDGES
100
AcDbLine
 10
179574.2536273338
 20
-1788.736866485168
 30
0.0
 11
179587.8169806807
 21
-1788.736866485168
 31
0.0
  0
LINE
  5
2FE
330
1F
100
AcDbEntity
  8
SECTIONCUTEDGES
100
AcDbLine
 10
179587.8169806807
 20
-1788.736866485168
 30
0.0
 11
179601.4186663963
 21
-1788.736866485168
 31
0.0
  0
LINE
  5
2FF
330
1F
100
AcDbEntity
  8
SECTIONCUTEDGES
100
AcDbLine
 10
179601.4186663963
 20
-1788.736866485168
 30
0.0
 11
179601.4186663963
 21
-1776.703186150108
 31
0.0
  0
LINE
  5
300
330
1F
100
AcDbEntity
  8
SECTIONCUTEDGES
100
AcDbLine
 10
179601.4186663963
 20
-1776.703186150108
 30
0.0
 11
179601.4186663963
 21
-1764.703419219543
 31
0.0
  0
LINE
  5
301
330
1F
100
AcDbEntity
  8
SECTIONCUTEDGES
100
AcDbLine
 10
178801.4186663963
 20
-1102.736866485168
 30
0.0
 11
178801.4186663963
 21
-1103.865165359545
 31
0.0
  0
LINE
  5
302
330
1F
100
AcDbEntity
  8
SECTIONCUTEDGES
100
AcDbLine
 10
178801.4186663963
 20
-1103.865165359545
 30
0.0
 11
178801.4186663963
 21
-1104.990284453917
 31
0.0
  0
LINE
  5
303
330
1F
100
AcDbEntity
  8
SECTIONCUTEDGES
100
AcDbLine
 10
179226.7822443585
 20
-2159.253064533706
 30
0.0
 11
178853.2016253806
 21
-1828.736866485167
 31
0.0
  0
LINE
  5
304
330
1F
100
AcDbEntity
  8
SECTIONCUTEDGES
100
AcDbLine
 10
179601.4186663963
 20
-2490.703358184386
 30
0.0
 11
179226.7822443585
 21
-2159.253064533706
 31
0.0
  0
LINE
  5
305
330
1F
100
AcDbEntity
  8
SECTIONCUTEDGES
100
AcDbLine
 10
178801.4186663963
 20
-1830.990162383605
 30
0.0
 11
179188.3814174695
 21
-2173.345929176891
 31
0.0
  0
LINE
  5
306
330
1F
100
AcDbEntity
  8
SECTIONCUTEDGES
100
AcDbLine
 10
179188.3814174695
 20
-2173.345929176891
 30
0.0
 11
179574.2536273338
 21
-2514.736866485167
 31
0.0
  0
LINE
  5
307
330
1F
100
AcDbEntity
  8
SECTIONCUTEDGES
100
AcDbLine
 10
178853.2016253806
 20
-1828.736866485167
 30
0.0
 11
178827.3466811473
 21
-1828.736866485167
 31
0.0
  0
LINE
  5
308
330
1F
100
AcDbEntity
  8
SECTIONCUTEDGES
100
AcDbLine
 10
178827.3466811473
 20
-1828.736866485167
 30
0.0
 11
178801.4186663963
 21
-1828.736866485167
 31
0.0
  0
LINE
  5
309
330
1F
100
AcDbEntity
  8
SECTIONCUTEDGES
100
AcDbLine
 10
179574.2536273338
 20
-2514.736866485167
 30
0.0
 11
179587.8169806807
 21
-2514.736866485167
 31
0.0
  0
LINE
  5
30A
330
1F
100
AcDbEntity
  8
SECTIONCUTEDGES
100
AcDbLine
 10
179587.8169806807
 20
-2514.736866485167
 30
0.0
 11
179601.4186663963
 21
-2514.736866485167
 31
0.0
  0
LINE
  5
30B
330
1F
100
AcDbEntity
  8
SECTIONCUTEDGES
100
AcDbLine
 10
179601.4186663963
 20
-2514.736866485167
 30
0.0
 11
179601.4186663963
 21
-2502.703155589466
 31
0.0
  0
LINE
  5
30C
330
1F
100
AcDbEntity
  8
SECTIONCUTEDGES
100
AcDbLine
 10
179601.4186663963
 20
-2502.703155589466
 30
0.0
 11
179601.4186663963
 21
-2490.703358184386
 31
0.0
  0
LINE
  5
30D
330
1F
100
AcDbEntity
  8
SECTIONCUTEDGES
100
AcDbLine
 10
178801.4186663963
 20
-1828.736866485167
 30
0.0
 11
178801.4186663963
 21
-1829.865104238263
 31
0.0
  0
LINE
  5
30E
330
1F
100
AcDbEntity
  8
SECTIONCUTEDGES
100
AcDbLine
 10
178801.4186663963
 20
-1829.865104238263
 30
0.0
 11
178801.4186663963
 21
-1830.990162383605
 31
0.0
  0
ENDSEC
  0
SECTION
  2
OBJECTS
  0
DICTIONARY
  5
C
330
0
100
AcDbDictionary
  3
ACAD_GROUP
350
D
  3
ACAD_LAYOUT
350
1A
  3
ACAD_MATERIAL
350
43
  3
ACAD_MLEADERSTYLE
350
5B
  3
ACAD_MLINESTYLE
350
17
  3
ACAD_PLOTSETTINGS
350
19
  3
ACAD_SCALELIST
350
47
  3
ACAD_VISUALSTYLE
350
2A
  3
ACDBHEADERROUNDTRIPXREC
350
30F
  3
ACDBVARIABLEDICTIONARY
350
330
  3
DWGPROPS
350
337
  0
DICTIONARY
  5
338
330
8
100
AcDbDictionary
280
     1
  3
ACAD_XREC_ROUNDTRIP
360
339
  0
DICTIONARY
  5
D
102
{ACAD_REACTORS
330
C
102
}
330
C
100
AcDbDictionary
  0
DICTIONARY
  5
1A
102
{ACAD_REACTORS
330
C
102
}
330
C
100
AcDbDictionary
  0
DICTIONARY
  5
43
102
{ACAD_REACTORS
330
C
102
}
330
C
100
AcDbDictionary
  3
BYBLOCK
350
45
  3
BYLAYER
350
44
  3
GLOBAL
350
46
  0
DICTIONARY
  5
5B
102
{ACAD_REACTORS
330
C
102
}
330
C
100
AcDbDictionary
  3
STANDARD
350
5C
  0
DICTIONARY
  5
17
102
{ACAD_REACTORS
330
C
102
}
330
C
100
AcDbDictionary
  3
STANDARD
350
18
  0
DICTIONARY
  5
19
102
{ACAD_REACTORS
330
C
102
}
330
C
100
AcDbDictionary
  0
DICTIONARY
  5
47
102
{ACAD_REACTORS
330
C
102
}
330
C
100
AcDbDictionary
  3
A0
350
48
  3
A1
350
49
  3
A2
350
4A
  3
A3
350
4B
  3
A4
350
4C
  3
A5
350
4D
  3
A6
350
4E
  3
A7
350
4F
  3
A8
350
50
  3
A9
350
51
  3
B1
350
52
  3
B2
350
53
  3
B3
350
54
  3
B4
350
55
  3
B5
350
56
  3
B6
350
57
  3
B7
350
58
  0
DICTIONARY
  5
2A
102
{ACAD_REACTORS
330
C
102
}
330
C
100
AcDbDictionary
  3
2DWIREFRAME
350
2F
  3
BASIC
350
32
  3
BRIGHTEN
350
36
  3
COLORCHANGE
350
3A
  3
CONCEPTUAL
350
34
  3
DIM
350
35
  3
EDGECOLOROFF
350
3D
  3
FACEPATTERN
350
39
  3
FLAT
350
2B
  3
FLATWITHEDGES
350
2C
  3
GOURAUD
350
2D
  3
GOURAUDWITHEDGES
350
2E
  3
HIDDEN
350
31
  3
JITTEROFF
350
3B
  3
LINEPATTERN
350
38
  3
OVERHANGOFF
350
3C
  3
REALISTIC
350
33
  3
SHADED
350
42
  3
SHADED_WITH_EDGES
350
41
  3
SHADES_OF_GRAY
350
3E
  3
SKETCHY
350
3F
  3
THICKEN
350
37
  3
WIREFRAME
350
30
  3
X-RAY
350
40
  0
DICTIONARY
  5
30F
102
{ACAD_REACTORS
330
C
102
}
330
C
100
AcDbDictionary
  3
CEPSNID
350
319
  3
CEPSNTYPE
350
318
  3
DIMSTYLEDATA
350
32F
  3
FINGERPRINTGUID
350
31A
  3
HYPERLINKBASE
350
312
  3
INSUNITS
350
317
  3
LAYOUTDICT
350
314
  3
LWETCUNION
350
316
  3
PLOTSETDICT
350
315
  3
PSVPSCALE
350
31C
  3
PUCSBASE
350
31F
  3
PUCSORGBACK
350
325
  3
PUCSORGBOTTOM
350
321
  3
PUCSORGFRONT
350
324
  3
PUCSORGLEFT
350
322
  3
PUCSORGRIGHT
350
323
  3
PUCSORGTOP
350
320
  3
PUCSORTHOREF
350
31D
  3
PUCSORTHOVIEW
350
31E
  3
STYLESHEET
350
313
  3
TSTACKALIGN
350
310
  3
TSTACKSIZE
350
311
  3
UCSBASE
350
328
  3
UCSORGBACK
350
32E
  3
UCSORGBOTTOM
350
32A
  3
UCSORGFRONT
350
32D
  3
UCSORGLEFT
350
32B
  3
UCSORGRIGHT
350
32C
  3
UCSORGTOP
350
329
  3
UCSORTHOREF
350
326
  3
UCSORTHOVIEW
350
327
  3
VERSIONGUID
350
31B
  0
DICTIONARY
  5
330
102
{ACAD_REACTORS
330
C
102
}
330
C
100
AcDbDictionary
  3
CANNOSCALE
350
33A
  3
CMLEADERSTYLE
350
332
  3
CTABLESTYLE
350
331
  3
DIMASSOC
350
335
  3
HIDETEXT
350
336
  3
MSLTSCALE
350
33B
  0
XRECORD
  5
337
102
{ACAD_REACTORS
330
C
102
}
330
C
100
AcDbXrecord
  1
DWGPROPS COOKIE
  2

  3

  4

  6

  7

  8
dev
  9

300
=
301
=
302
=
303
=
304
=
305
=
306
=
307
=
308
=
309
=
 40
0.0
 41
2460536.373136516
 42
2460536.373136783
  1

 90
        0
  0
XRECORD
  5
339
102
{ACAD_REACTORS
330
338
102
}
330
338
100
AcDbXrecord
102
VTR_0.000_0.000_1.000_1.000_VISUALSTYLE
340
2F
102
VTR_0.000_0.000_1.000_1.000_GRIDDISPLAY
 70
     3
102
VTR_0.000_0.000_1.000_1.000_GRIDMAJOR
 70
     5
102
VTR_0.000_0.000_1.000_1.000_DEFAULTLIGHTING
280
     1
102
VTR_0.000_0.000_1.000_1.000_DEFAULTLIGHTINGTYPE
 70
     1
102
VTR_0.000_0.000_1.000_1.000_BRIGHTNESS
141
0.0
102
VTR_0.000_0.000_1.000_1.000_CONTRAST
142
0.0
  0
MATERIAL
  5
45
102
{ACAD_REACTORS
330
43
102
}
102
{ACAD_XDICTIONARY
360
33E
102
}
330
43
100
AcDbMaterial
  1
BYBLOCK
  0
MATERIAL
  5
44
102
{ACAD_REACTORS
330
43
102
}
102
{ACAD_XDICTIONARY
360
33C
102
}
330
43
100
AcDbMaterial
  1
BYLAYER
  0
MATERIAL
  5
46
102
{ACAD_REACTORS
330
43
102
}
102
{ACAD_XDICTIONARY
360
340
102
}
330
43
100
AcDbMaterial
  1
GLOBAL
  0
ACAD_PROXY_OBJECT
  5
5C
102
{ACAD_REACTORS
330
5B
102
}
330
5B
100
AcDbProxyObject
 90
      499
 91
      505
 93
      610
310
40901902A4063FBFFFFFE056BD1B81E855B9FC0AD7A3703D0AD73F4214DD185B99185C9900AD7A3703D0AC73F90141901A02B5E8DC0F42B1CFC02B5E8DC0F42B1CFE5764000000000000300FC0
340
14
340
0
340
11
340
0
 94
        0
1001
ACAD_MLEADERVER
1070
     2
  0
MLINESTYLE
  5
18
102
{ACAD_REACTORS
330
17
102
}
330
17
100
AcDbMlineStyle
  2
Standard
 70
     0
  3

 62
   256
 51
90.0
 52
90.0
 71
     2
 49
0.5
 62
   256
  6
BYLAYER
 49
-0.5
 62
   256
  6
BYLAYER
  0
ACAD_PROXY_OBJECT
  5
48
102
{ACAD_REACTORS
330
47
102
}
330
47
100
AcDbProxyObject
 90
      499
 91
      503
 93
       41
310
903313A31580
  0
ACAD_PROXY_OBJECT
  5
49
102
{ACAD_REACTORS
330
47
102
}
330
47
100
AcDbProxyObject
 90
      499
 91
      503
 93
      257
310
90E312F31323822203D2031272D3022000000000000200FC000000000000284000
  0
ACAD_PROXY_OBJECT
  5
4A
102
{ACAD_REACTORS
330
47
102
}
330
47
100
AcDbProxyObject
 90
      499
 91
      503
 93
      249
310
90D312F363422203D2031272D3022000000000000240FC000000000000284000
  0
ACAD_PROXY_OBJECT
  5
4B
102
{ACAD_REACTORS
330
47
102
}
330
47
100
AcDbProxyObject
 90
      499
 91
      503
 93
      249
310
90D312F333222203D2031272D3022000000000000280FC000000000000284000
  0
ACAD_PROXY_OBJECT
  5
4C
102
{ACAD_REACTORS
330
47
102
}
330
47
100
AcDbProxyObject
 90
      499
 91
      503
 93
      249
310
90D312F313622203D2031272D30220000000000002C0FC000000000000284000
  0
ACAD_PROXY_OBJECT
  5
4D
102
{ACAD_REACTORS
330
47
102
}
330
47
100
AcDbProxyObject
 90
      499
 91
      503
 93
      249
310
90D332F333222203D2031272D30220000000000002E0FC000000000000284000
  0
ACAD_PROXY_OBJECT
  5
4E
102
{ACAD_REACTORS
330
47
102
}
330
47
100
AcDbProxyObject
 90
      499
 91
      503
 93
      241
310
90C312F3822203D2031272D3022000000000000300FC000000000000284000
  0
ACAD_PROXY_OBJECT
  5
4F
102
{ACAD_REACTORS
330
47
102
}
330
47
100
AcDbProxyObject
 90
      499
 91
      503
 93
      249
310
90D332F313622203D2031272D3022000000000000320FC000000000000284000
  0
ACAD_PROXY_OBJECT
  5
50
102
{ACAD_REACTORS
330
47
102
}
330
47
100
AcDbProxyObject
 90
      499
 91
      503
 93
      241
310
90C312F3422203D2031272D3022000000000000340FC000000000000284000
  0
ACAD_PROXY_OBJECT
  5
51
102
{ACAD_REACTORS
330
47
102
}
330
47
100
AcDbProxyObject
 90
      499
 91
      503
 93
      241
310
90C332F3822203D2031272D3022000000000000360FC000000000000284000
  0
ACAD_PROXY_OBJECT
  5
52
102
{ACAD_REACTORS
330
47
102
}
330
47
100
AcDbProxyObject
 90
      499
 91
      503
 93
      241
310
90C312F3222203D2031272D3022000000000000380FC000000000000284000
  0
ACAD_PROXY_OBJECT
  5
53
102
{ACAD_REACTORS
330
47
102
}
330
47
100
AcDbProxyObject
 90
      499
 91
      503
 93
      241
310
90C332F3422203D2031272D30220000000000003A0FC000000000000284000
  0
ACAD_PROXY_OBJECT
  5
54
102
{ACAD_REACTORS
330
47
102
}
330
47
100
AcDbProxyObject
 90
      499
 91
      503
 93
      161
310
90A3122203D2031272D30224000000000000284000
  0
ACAD_PROXY_OBJECT
  5
55
102
{ACAD_REACTORS
330
47
102
}
330
47
100
AcDbProxyObject
 90
      499
 91
      503
 93
      257
310
90E312D312F3222203D2031272D30220000000000003E0FC000000000000284000
  0
ACAD_PROXY_OBJECT
  5
56
102
{ACAD_REACTORS
330
47
102
}
330
47
100
AcDbProxyObject
 90
      499
 91
      503
 93
      225
310
90A3322203D2031272D302200000000000002100000000000000284000
  0
ACAD_PROXY_OBJECT
  5
57
102
{ACAD_REACTORS
330
47
102
}
330
47
100
AcDbProxyObject
 90
      499
 91
      503
 93
      225
310
90A3622203D2031272D302200000000000006100000000000000284000
  0
ACAD_PROXY_OBJECT
  5
58
102
{ACAD_REACTORS
330
47
102
}
330
47
100
AcDbProxyObject
 90
      499
 91
      503
 93
      249
310
90D31272D3022203D2031272D30220000000000000A100000000000000284000
  0
ACAD_PROXY_OBJECT
  5
2F
102
{ACAD_REACTORS
330
2A
102
}
330
2A
100
AcDbProxyObject
 90
      499
 91
      501
 93
      436
310
42CC9915DA5C99599C985B595049028333333333333E33F0000000000000F90107901411070040501600405405064090741402480A0340
1001
ACAD
1000
AcDbSavedByObjectVersion
1070
     0
  0
ACAD_PROXY_OBJECT
  5
32
102
{ACAD_REACTORS
330
2A
102
}
330
2A
100
AcDbProxyObject
 90
      499
 91
      501
 93
      388
310
4150985CDA58D07406404333333333333E33F0000000000000F90107A41107004050150841D405064090741402480A0350
1001
ACAD
1000
AcDbSavedByObjectVersion
1070
     0
  0
ACAD_PROXY_OBJECT
  5
36
102
{ACAD_REACTORS
330
2A
102
}
330
2A
100
AcDbProxyObject
 90
      499
 91
      501
 93
      428
310
42109C9A59DA1D195B90C409028333333333333E33F0000000000000F9010790141107004050150841D405064090741402480A029950
1001
ACAD
1000
AcDbSavedByObjectVersion
1070
     0
  0
ACAD_PROXY_OBJECT
  5
3A
102
{ACAD_REACTORS
330
2A
102
}
330
2A
100
AcDbProxyObject
 90
      499
 91
      501
 93
      452
310
42D0DBDB1BDC90DA185B99D95104090240C333333333333E33F0000000000000F90108901411070040501508421405064090741402480A0350
1001
ACAD
1000
AcDbSavedByObjectVersion
1070
     0
  0
ACAD_PROXY_OBJECT
  5
34
102
{ACAD_REACTORS
330
2A
102
}
330
2A
100
AcDbProxyObject
 90
      499
 91
      501
 93
      500
310
4290DBDB98D95C1D1D585B10940D028333333333333E33F0000000000000F90107902409070040501000000000018199010841D405064090740C02480A0340
1001
ACAD
1000
AcDbSavedByObjectVersion
1070
     0
  0
ACAD_PROXY_OBJECT
  5
35
102
{ACAD_REACTORS
330
2A
102
}
330
2A
100
AcDbProxyObject
 90
      499
 91
      501
 93
      412
310
40D11A5B50B409028333333333333E33F0000000000000F9010790141107004050150841D405064090741402480A02677FFFFFD0
1001
ACAD
1000
AcDbSavedByObjectVersion
1070
     0
  0
ACAD_PROXY_OBJECT
  5
3D
102
{ACAD_REACTORS
330
2A
102
}
330
2A
100
AcDbProxyObject
 90
      499
 91
      501
 93
      452
310
43115919D950DBDB1BDC93D999916409028333333333333E33F0000000000000F9010790141107004050150841D405064090741402480A0350
1001
ACAD
1000
AcDbSavedByObjectVersion
1070
     0
  0
ACAD_PROXY_OBJECT
  5
39
102
{ACAD_REACTORS
330
2A
102
}
330
2A
100
AcDbProxyObject
 90
      499
 91
      501
 93
      444
310
42D19858D95C185D1D195C9B90F409028333333333333E33F0000000000000F9010790141107004050150841D405064090741402480A0350
1001
ACAD
1000
AcDbSavedByObjectVersion
1070
     0
  0
ACAD_PROXY_OBJECT
  5
2B
102
{ACAD_REACTORS
330
2A
102
}
330
2A
100
AcDbProxyObject
 90
      499
 91
      501
 93
      380
310
41119B185D240901404333333333333E33F0000000000000F9010740A907004050150841D405064090741402480A1B50
1001
ACAD
1000
AcDbSavedByObjectVersion
1070
     0
  0
ACAD_PROXY_OBJECT
  5
2C
102
{ACAD_REACTORS
330
2A
102
}
330
2A
100
AcDbProxyObject
 90
      499
 91
      501
 93
      468
310
43519B185D15DA5D1A115919D95CD0140901404333333333333E33F0000000000000F90107409019070040501600405405064090741402480A1B50
1001
ACAD
1000
AcDbSavedByObjectVersion
1070
     0
  0
ACAD_PROXY_OBJECT
  5
2D
102
{ACAD_REACTORS
330
2A
102
}
330
2A
100
AcDbProxyObject
 90
      499
 91
      501
 93
      404
310
41D1DBDD5C985D5910240902404333333333333E33F0000000000000F9010740A9070040501641D405064090741402480A1B50
1001
ACAD
1000
AcDbSavedByObjectVersion
1070
     0
  0
ACAD_PROXY_OBJECT
  5
2E
102
{ACAD_REACTORS
330
2A
102
}
330
2A
100
AcDbProxyObject
 90
      499
 91
      501
 93
      492
310
4411DBDD5C985D5915DA5D1A115919D95CD0340902404333333333333E33F0000000000000F90107409019070040501600405405064090741402480A1B50
1001
ACAD
1000
AcDbSavedByObjectVersion
1070
     0
  0
ACAD_PROXY_OBJECT
  5
31
102
{ACAD_REACTORS
330
2A
102
}
330
2A
100
AcDbProxyObject
 90
      499
 91
      501
 93
      476
310
41921A5919195B90640502408333333333333E33F0000000000000F901079024090700405020000000000001110200405405064090740C02480A0340
1001
ACAD
1000
AcDbSavedByObjectVersion
1070
     0
  0
ACAD_PROXY_OBJECT
  5
3B
102
{ACAD_REACTORS
330
2A
102
}
330
2A
100
AcDbProxyObject
 90
      499
 91
      501
 93
      428
310
42529A5D1D195C93D999914409028333333333333E33F0000000000000F9010790141107004050150A41D405064090741402480A0350
1001
ACAD
1000
AcDbSavedByObjectVersion
1070
     0
  0
ACAD_PROXY_OBJECT
  5
38
102
{ACAD_REACTORS
330
2A
102
}
330
2A
100
AcDbProxyObject
 90
      499
 91
      501
 93
      444
310
42D31A5B995C185D1D195C9B90E409028333333333333E33F0000000000000F9010790141107004050750841D405064090741402483A0350
1001
ACAD
1000
AcDbSavedByObjectVersion
1070
     0
  0
ACAD_PROXY_OBJECT
  5
3C
102
{ACAD_REACTORS
330
2A
102
}
330
2A
100
AcDbProxyObject
 90
      499
 91
      501
 93
      444
310
42D3DD995C9A185B99D3D999915409028333333333333E33F0000000000000F9010790141107004050150941D405064090741402480A0350
1001
ACAD
1000
AcDbSavedByObjectVersion
1070
     0
  0
ACAD_PROXY_OBJECT
  5
33
102
{ACAD_REACTORS
330
2A
102
}
330
2A
100
AcDbProxyObject
 90
      499
 91
      501
 93
      428
310
425499585B1A5CDD1A58D08409038333333333333E33F0000000000000F9010740A907004050150800405405064090740C02480A1B40
1001
ACAD
1000
AcDbSavedByObjectVersion
1070
     0
  0
ACAD_PROXY_OBJECT
  5
42
102
{ACAD_REACTORS
330
2A
102
}
330
2A
100
AcDbProxyObject
 90
      499
 91
      501
 93
      420
310
4194DA1859195911B40902404333333333333E33F0000000000000F9010740A41107004050150800405405064090840C02480A0B40
1001
ACAD
1000
AcDbSavedByObjectVersion
1070
     0
  0
ACAD_PROXY_OBJECT
  5
41
102
{ACAD_REACTORS
330
2A
102
}
330
2A
100
AcDbProxyObject
 90
      499
 91
      501
 93
      516
310
4454DA18591959081DDA5D1A08195919D95CD1A40902404333333333333E33F0000000000000F901074090142907004050250800405405064090740C02480A0B40
1001
ACAD
1000
AcDbSavedByObjectVersion
1070
     0
  0
ACAD_PROXY_OBJECT
  5
3E
102
{ACAD_REACTORS
330
2A
102
}
330
2A
100
AcDbProxyObject
 90
      499
 91
      501
 93
      532
310
4394DA1859195CC81BD98811DC985E5174090240C333333333333E33F0000000000000F901079024090741D01000000000000111010841D405064090740C02480A0340
1001
ACAD
1000
AcDbSavedByObjectVersion
1070
     0
  0
ACAD_PROXY_OBJECT
  5
3F
102
{ACAD_REACTORS
330
2A
102
}
330
2A
100
AcDbProxyObject
 90
      499
 91
      501
 93
      476
310
41D4DAD95D18DA1E51840502408333333333333E33F0000000000000F901079024090741D01000000000000111010B41D405064090741802480A0340
1001
ACAD
1000
AcDbSavedByObjectVersion
1070
     0
  0
ACAD_PROXY_OBJECT
  5
37
102
{ACAD_REACTORS
330
2A
102
}
330
2A
100
AcDbProxyObject
 90
      499
 91
      501
 93
      412
310
41D51A1A58DAD95B90D409028333333333333E33F0000000000000F9010790141107004050150C41D405064090741402480A0350
1001
ACAD
1000
AcDbSavedByObjectVersion
1070
     0
  0
ACAD_PROXY_OBJECT
  5
30
102
{ACAD_REACTORS
330
2A
102
}
330
2A
100
AcDbProxyObject
 90
      499
 91
      501
 93
      420
310
4255DA5C99599C985B595059028333333333333E33F0000000000000F90107901411070040501600405405064090740C02480A0340
1001
ACAD
1000
AcDbSavedByObjectVersion
1070
     0
  0
ACAD_PROXY_OBJECT
  5
40
102
{ACAD_REACTORS
330
2A
102
}
330
2A
100
AcDbProxyObject
 90
      499
 91
      501
 93
      404
310
41560B54985E51940902404000000000000E03F0000000000000F9010740501907004050150841D405064090740C02480A1B40
1001
ACAD
1000
AcDbSavedByObjectVersion
1070
     0
  0
XRECORD
  5
319
102
{ACAD_REACTORS
330
30F
102
}
330
30F
100
AcDbXrecord
340
0
  0
XRECORD
  5
318
102
{ACAD_REACTORS
330
30F
102
}
330
30F
100
AcDbXrecord
 90
        0
  0
XRECORD
  5
32F
102
{ACAD_REACTORS
330
30F
102
}
330
30F
100
AcDbXrecord
1000
DSTYLE
1002
{
1070
   171
 70
     2
1070
   143
 40
25.4
1070
   274
 70
     2
1070
    41
 40
0.18
1070
   141
 40
0.09
1070
   271
 70
     4
1070
    43
 40
0.38
1070
   278
 70
    46
1070
    44
 40
0.18
1070
    42
 40
0.0625
1070
   147
 40
0.09
1070
    77
 70
     0
1070
   272
 70
     4
1070
    73
 70
     1
1070
   172
 70
     0
1070
    74
 70
     1
1070
   283
 70
     1
1070
   340
340
11
1070
   140
 40
0.18
1070
   284
 70
     0
1070
    78
 70
     0
1002
}
  0
XRECORD
  5
31A
102
{ACAD_REACTORS
330
30F
102
}
330
30F
100
AcDbXrecord
  1
{e8981931-87a0-bb47-a167-0a8415b38bc2}
  0
XRECORD
  5
312
102
{ACAD_REACTORS
330
30F
102
}
330
30F
100
AcDbXrecord
  1

  0
XRECORD
  5
317
102
{ACAD_REACTORS
330
30F
102
}
330
30F
100
AcDbXrecord
 90
        4
  0
XRECORD
  5
314
102
{ACAD_REACTORS
330
30F
102
}
330
30F
100
AcDbXrecord
340
1A
  0
XRECORD
  5
316
102
{ACAD_REACTORS
330
30F
102
}
330
30F
100
AcDbXrecord
 90
    10781
  0
XRECORD
  5
315
102
{ACAD_REACTORS
330
30F
102
}
330
30F
100
AcDbXrecord
340
19
  0
XRECORD
  5
31C
102
{ACAD_REACTORS
330
30F
102
}
330
30F
100
AcDbXrecord
 40
0.0
  0
XRECORD
  5
31F
102
{ACAD_REACTORS
330
30F
102
}
330
30F
100
AcDbXrecord
340
0
  0
XRECORD
  5
325
102
{ACAD_REACTORS
330
30F
102
}
330
30F
100
AcDbXrecord
 10
0.0
 20
0.0
 30
0.0
  0
XRECORD
  5
321
102
{ACAD_REACTORS
330
30F
102
}
330
30F
100
AcDbXrecord
 10
0.0
 20
0.0
 30
0.0
  0
XRECORD
  5
324
102
{ACAD_REACTORS
330
30F
102
}
330
30F
100
AcDbXrecord
 10
0.0
 20
0.0
 30
0.0
  0
XRECORD
  5
322
102
{ACAD_REACTORS
330
30F
102
}
330
30F
100
AcDbXrecord
 10
0.0
 20
0.0
 30
0.0
  0
XRECORD
  5
323
102
{ACAD_REACTORS
330
30F
102
}
330
30F
100
AcDbXrecord
 10
0.0
 20
0.0
 30
0.0
  0
XRECORD
  5
320
102
{ACAD_REACTORS
330
30F
102
}
330
30F
100
AcDbXrecord
 10
0.0
 20
0.0
 30
0.0
  0
XRECORD
  5
31D
102
{ACAD_REACTORS
330
30F
102
}
330
30F
100
AcDbXrecord
340
0
  0
XRECORD
  5
31E
102
{ACAD_REACTORS
330
30F
102
}
330
30F
100
AcDbXrecord
 70
     0
  0
XRECORD
  5
313
102
{ACAD_REACTORS
330
30F
102
}
330
30F
100
AcDbXrecord
  1

  0
XRECORD
  5
310
102
{ACAD_REACTORS
330
30F
102
}
330
30F
100
AcDbXrecord
 90
        1
  0
XRECORD
  5
311
102
{ACAD_REACTORS
330
30F
102
}
330
30F
100
AcDbXrecord
 90
       70
  0
XRECORD
  5
328
102
{ACAD_REACTORS
330
30F
102
}
330
30F
100
AcDbXrecord
340
0
  0
XRECORD
  5
32E
102
{ACAD_REACTORS
330
30F
102
}
330
30F
100
AcDbXrecord
 10
0.0
 20
0.0
 30
0.0
  0
XRECORD
  5
32A
102
{ACAD_REACTORS
330
30F
102
}
330
30F
100
AcDbXrecord
 10
0.0
 20
0.0
 30
0.0
  0
XRECORD
  5
32D
102
{ACAD_REACTORS
330
30F
102
}
330
30F
100
AcDbXrecord
 10
0.0
 20
0.0
 30
0.0
  0
XRECORD
  5
32B
102
{ACAD_REACTORS
330
30F
102
}
330
30F
100
AcDbXrecord
 10
0.0
 20
0.0
 30
0.0
  0
XRECORD
  5
32C
102
{ACAD_REACTORS
330
30F
102
}
330
30F
100
AcDbXrecord
 10
0.0
 20
0.0
 30
0.0
  0
XRECORD
  5
329
102
{ACAD_REACTORS
330
30F
102
}
330
30F
100
AcDbXrecord
 10
0.0
 20
0.0
 30
0.0
  0
XRECORD
  5
326
102
{ACAD_REACTORS
330
30F
102
}
330
30F
100
AcDbXrecord
340
0
  0
XRECORD
  5
327
102
{ACAD_REACTORS
330
30F
102
}
330
30F
100
AcDbXrecord
 70
     0
  0
XRECORD
  5
31B
102
{ACAD_REACTORS
330
30F
102
}
330
30F
100
AcDbXrecord
  1
{FAEB1C32-E019-11D5-929B-00C0DF256EC4}
  0
DICTIONARYVAR
  5
33A
102
{ACAD_REACTORS
330
330
102
}
330
330
100
DictionaryVariables
280
     0
  1
1:1
  0
DICTIONARYVAR
  5
332
102
{ACAD_REACTORS
330
330
102
}
330
330
100
DictionaryVariables
280
     0
  1
Standard
  0
DICTIONARYVAR
  5
331
102
{ACAD_REACTORS
330
330
102
}
330
330
100
DictionaryVariables
280
     0
  1
Standard
  0
DICTIONARYVAR
  5
335
102
{ACAD_REACTORS
330
330
102
}
330
330
100
DictionaryVariables
280
     0
  1
2
  0
DICTIONARYVAR
  5
336
102
{ACAD_REACTORS
330
330
102
}
330
330
100
DictionaryVariables
280
     0
  1
1
  0
DICTIONARYVAR
  5
33B
102
{ACAD_REACTORS
330
330
102
}
330
330
100
DictionaryVariables
280
     0
  1
1
  0
DICTIONARY
  5
33E
330
45
100
AcDbDictionary
280
     1
  3
ACAD_XREC_ROUNDTRIP
360
33F
  0
DICTIONARY
  5
33C
330
44
100
AcDbDictionary
280
     1
  3
ACAD_XREC_ROUNDTRIP
360
33D
  0
DICTIONARY
  5
340
330
46
100
AcDbDictionary
280
     1
  3
ACAD_XREC_ROUNDTRIP
360
341
  0
XRECORD
  5
33F
102
{ACAD_REACTORS
330
33E
102
}
330
33E
100
AcDbXrecord
102
MATERIAL
148
0.0
149
0.0
149
0.0
 93
        0
 94
      127
282
     0
 72
     1
 77
     1
171
     1
175
     1
179
     1
273
     0
  0
XRECORD
  5
33D
102
{ACAD_REACTORS
330
33C
102
}
330
33C
100
AcDbXrecord
102
MATERIAL
148
0.0
149
0.0
149
0.0
 93
        0
 94
      127
282
     0
 72
     1
 77
     1
171
     1
175
     1
179
     1
273
     0
  0
XRECORD
  5
341
102
{ACAD_REACTORS
330
340
102
}
330
340
100
AcDbXrecord
102
MATERIAL
148
0.0
149
0.0
149
0.0
 93
        0
 94
      127
282
     0
 72
     1
 77
     1
171
     1
175
     1
179
     1
273
     0
  0
ENDSEC
  0
EOF
