  0
SECTION
  2
HEADER
  9
$ACADVER
  1
AC1014
  9
$ACADMAINTVER
 70
     9
  9
$DWGCODEPAGE
  3
CNT
  9
$INSBASE
 10
0.0
 20
0.0
 30
0.0
  9
$EXTMIN
 10
1.000000000000000E+20
 20
1.000000000000000E+20
 30
1.000000000000000E+20
  9
$EXTMAX
 10
-1.000000000000000E+20
 20
-1.000000000000000E+20
 30
-1.000000000000000E+20
  9
$LIMMIN
 10
0.0
 20
0.0
  9
$LIMMAX
 10
12.0
 20
9.0
  9
$ORTHOMODE
 70
     0
  9
$REGENMODE
 70
     1
  9
$FILLMODE
 70
     1
  9
$QTEXTMODE
 70
     0
  9
$MIRRTEXT
 70
     1
  9
$DRAGMODE
 70
     2
  9
$LTSCALE
 40
1.0
  9
$OSMODE
 70
    37
  9
$ATTMODE
 70
     1
  9
$TEXTSIZE
 40
0.2
  9
$TRACEWID
 40
0.05
  9
$TEXTSTYLE
  7
STANDARD
  9
$CLAYER
  8
0
  9
$CELTYPE
  6
BYLAYER
  9
$CECOLOR
 62
   256
  9
$CELTSCALE
 40
1.0
  9
$DELOBJ
 70
     1
  9
$DISPSILH
 70
     0
  9
$DIMSCALE
 40
1.0
  9
$DIMASZ
 40
0.18
  9
$DIMEXO
 40
0.0625
  9
$DIMDLI
 40
0.38
  9
$DIMRND
 40
0.0
  9
$DIMDLE
 40
0.0
  9
$DIMEXE
 40
0.18
  9
$DIMTP
 40
0.0
  9
$DIMTM
 40
0.0
  9
$DIMTXT
 40
0.18
  9
$DIMCEN
 40
0.09
  9
$DIMTSZ
 40
0.0
  9
$DIMTOL
 70
     0
  9
$DIMLIM
 70
     0
  9
$DIMTIH
 70
     1
  9
$DIMTOH
 70
     1
  9
$DIMSE1
 70
     0
  9
$DIMSE2
 70
     0
  9
$DIMTAD
 70
     0
  9
$DIMZIN
 70
     0
  9
$DIMBLK
  1

  9
$DIMASO
 70
     1
  9
$DIMSHO
 70
     1
  9
$DIMPOST
  1

  9
$DIMAPOST
  1

  9
$DIMALT
 70
     0
  9
$DIMALTD
 70
     2
  9
$DIMALTF
 40
25.4
  9
$DIMLFAC
 40
1.0
  9
$DIMTOFL
 70
     0
  9
$DIMTVP
 40
0.0
  9
$DIMTIX
 70
     0
  9
$DIMSOXD
 70
     0
  9
$DIMSAH
 70
     0
  9
$DIMBLK1
  1

  9
$DIMBLK2
  1

  9
$DIMSTYLE
  2
STANDARD
  9
$DIMCLRD
 70
     0
  9
$DIMCLRE
 70
     0
  9
$DIMCLRT
 70
     0
  9
$DIMTFAC
 40
1.0
  9
$DIMGAP
 40
0.09
  9
$DIMJUST
 70
     0
  9
$DIMSD1
 70
     0
  9
$DIMSD2
 70
     0
  9
$DIMTOLJ
 70
     1
  9
$DIMTZIN
 70
     0
  9
$DIMALTZ
 70
     0
  9
$DIMALTTZ
 70
     0
  9
$DIMFIT
 70
     3
  9
$DIMUPT
 70
     0
  9
$DIMUNIT
 70
     2
  9
$DIMDEC
 70
     4
  9
$DIMTDEC
 70
     4
  9
$DIMALTU
 70
     2
  9
$DIMALTTD
 70
     2
  9
$DIMTXSTY
  7
STANDARD
  9
$DIMAUNIT
 70
     0
  9
$LUNITS
 70
     2
  9
$LUPREC
 70
     4
  9
$SKETCHINC
 40
0.1
  9
$FILLETRAD
 40
0.0
  9
$AUNITS
 70
     0
  9
$AUPREC
 70
     0
  9
$MENU
  1
.
  9
$ELEVATION
 40
0.0
  9
$PELEVATION
 40
0.0
  9
$THICKNESS
 40
0.0
  9
$LIMCHECK
 70
     0
  9
$CHAMFERA
 40
0.0
  9
$CHAMFERB
 40
0.0
  9
$CHAMFERC
 40
0.0
  9
$CHAMFERD
 40
0.0
  9
$SKPOLY
 70
     0
  9
$TDCREATE
 40
2460536.455870416
  9
$TDUPDATE
 40
2460536.455870579
  9
$TDINDWG
 40
0.0000000116
  9
$TDUSRTIMER
 40
0.0000000116
  9
$USRTIMER
 70
     1
  9
$ANGBASE
 50
0.0
  9
$ANGDIR
 70
     0
  9
$PDMODE
 70
     0
  9
$PDSIZE
 40
0.0
  9
$PLINEWID
 40
0.0
  9
$COORDS
 70
     1
  9
$SPLFRAME
 70
     0
  9
$SPLINETYPE
 70
     6
  9
$SPLINESEGS
 70
     8
  9
$ATTDIA
 70
     0
  9
$ATTREQ
 70
     1
  9
$HANDLING
 70
     1
  9
$HANDSEED
  5
297
  9
$SURFTAB1
 70
     6
  9
$SURFTAB2
 70
     6
  9
$SURFTYPE
 70
     6
  9
$SURFU
 70
     6
  9
$SURFV
 70
     6
  9
$UCSNAME
  2

  9
$UCSORG
 10
0.0
 20
0.0
 30
0.0
  9
$UCSXDIR
 10
1.0
 20
0.0
 30
0.0
  9
$UCSYDIR
 10
0.0
 20
1.0
 30
0.0
  9
$PUCSNAME
  2

  9
$PUCSORG
 10
0.0
 20
0.0
 30
0.0
  9
$PUCSXDIR
 10
1.0
 20
0.0
 30
0.0
  9
$PUCSYDIR
 10
0.0
 20
1.0
 30
0.0
  9
$USERI1
 70
     0
  9
$USERI2
 70
     0
  9
$USERI3
 70
     0
  9
$USERI4
 70
     0
  9
$USERI5
 70
     0
  9
$USERR1
 40
0.0
  9
$USERR2
 40
0.0
  9
$USERR3
 40
0.0
  9
$USERR4
 40
0.0
  9
$USERR5
 40
0.0
  9
$WORLDVIEW
 70
     1
  9
$SHADEDGE
 70
     3
  9
$SHADEDIF
 70
    70
  9
$TILEMODE
 70
     1
  9
$MAXACTVP
 70
    64
  9
$PINSBASE
 10
0.0
 20
0.0
 30
0.0
  9
$PLIMCHECK
 70
     0
  9
$PEXTMIN
 10
1.000000000000000E+20
 20
1.000000000000000E+20
 30
1.000000000000000E+20
  9
$PEXTMAX
 10
-1.000000000000000E+20
 20
-1.000000000000000E+20
 30
-1.000000000000000E+20
  9
$PLIMMIN
 10
0.0
 20
0.0
  9
$PLIMMAX
 10
12.0
 20
9.0
  9
$UNITMODE
 70
     0
  9
$VISRETAIN
 70
     1
  9
$PLINEGEN
 70
     0
  9
$PSLTSCALE
 70
     1
  9
$TREEDEPTH
 70
  3020
  9
$PICKSTYLE
 70
     1
  9
$CMLSTYLE
  2
STANDARD
  9
$CMLJUST
 70
     0
  9
$CMLSCALE
 40
1.0
  9
$PROXYGRAPHICS
 70
     1
  9
$MEASUREMENT
 70
     1
  0
ENDSEC
  0
SECTION
  2
CLASSES
  0
CLASS
  1
ACDBDICTIONARYWDFLT
  2
AcDbDictionaryWithDefault
  3
ObjectDBX Classes
 90
        0
280
     0
281
     0
  0
CLASS
  1
VISUALSTYLE
  2
AcDbVisualStyle
  3
ObjectDBX Classes
 90
     4095
280
     0
281
     0
  0
CLASS
  1
MATERIAL
  2
AcDbMaterial
  3
ObjectDBX Classes
 90
     1153
280
     0
281
     0
  0
CLASS
  1
SCALE
  2
AcDbScale
  3
ObjectDBX Classes
 90
     1153
280
     0
281
     0
  0
CLASS
  1
TABLESTYLE
  2
AcDbTableStyle
  3
ObjectDBX Classes
 90
     4095
280
     0
281
     0
  0
CLASS
  1
MLEADERSTYLE
  2
AcDbMLeaderStyle
  3
ACDB_MLEADERSTYLE_CLASS
 90
     4095
280
     0
281
     0
  0
CLASS
  1
SUN
  2
AcDbSun
  3
SCENEOE
 90
     1153
280
     0
281
     0
  0
CLASS
  1
DICTIONARYVAR
  2
AcDbDictionaryVar
  3
ObjectDBX Classes
 90
        0
280
     0
281
     0
  0
CLASS
  1
XRECORD
  2
AcDbXrecord
  3
ObjectDBX Classes
 90
        0
280
     0
281
     0
  0
CLASS
  1
LWPOLYLINE
  2
AcDbPolyline
  3
ObjectDBX Classes
 90
        0
280
     0
281
     1
  0
CLASS
  1
HATCH
  2
AcDbHatch
  3
ObjectDBX Classes
 90
        0
280
     0
281
     1
  0
CLASS
  1
ACDBPLACEHOLDER
  2
AcDbPlaceHolder
  3
ObjectDBX Classes
 90
        0
280
     0
281
     0
  0
CLASS
  1
LAYOUT
  2
AcDbLayout
  3
ObjectDBX Classes
 90
        0
280
     0
281
     0
  0
ENDSEC
  0
SECTION
  2
TABLES
  0
TABLE
  2
VPORT
  5
8
102
{ACAD_XDICTIONARY
360
28C
102
}
330
0
100
AcDbSymbolTable
 70
     1
  0
VPORT
  5
29
330
8
100
AcDbSymbolTableRecord
100
AcDbViewportTableRecord
  2
*ACTIVE
 70
     0
 10
0.0
 20
0.0
 11
1.0
 21
1.0
 12
0.0
 22
0.0
 13
0.0
 23
0.0
 14
0.5
 24
0.5
 15
0.5
 25
0.5
 16
0.0
 26
0.0
 36
1.0
 17
0.0
 27
0.0
 37
-1000.0
 40
122943.6683819403
 41
1.75609756097561
 42
50.0
 43
194963.7498118141
 44
584891249.4354423
 50
0.0
 51
0.0
 71
     0
 72
   100
 73
     1
 74
     3
 75
     0
 76
     0
 77
     0
 78
     0
  0
ENDTAB
  0
TABLE
  2
LTYPE
  5
5
330
0
100
AcDbSymbolTable
 70
     1
  0
LTYPE
  5
14
330
5
100
AcDbSymbolTableRecord
100
AcDbLinetypeTableRecord
  2
BYBLOCK
 70
     0
  3

 72
    65
 73
     0
 40
0.0
  0
LTYPE
  5
15
330
5
100
AcDbSymbolTableRecord
100
AcDbLinetypeTableRecord
  2
BYLAYER
 70
     0
  3

 72
    65
 73
     0
 40
0.0
  0
LTYPE
  5
16
330
5
100
AcDbSymbolTableRecord
100
AcDbLinetypeTableRecord
  2
CONTINUOUS
 70
     0
  3
Solid line
 72
    65
 73
     0
 40
0.0
  0
ENDTAB
  0
TABLE
  2
LAYER
  5
2
330
0
100
AcDbSymbolTable
 70
     3
  0
LAYER
  5
10
330
2
100
AcDbSymbolTableRecord
100
AcDbLayerTableRecord
  2
0
 70
     0
 62
     7
  6
CONTINUOUS
  0
LAYER
  5
5E
330
2
100
AcDbSymbolTableRecord
100
AcDbLayerTableRecord
  2
PROFILEEDGES
 70
     0
 62
     7
  6
CONTINUOUS
  0
LAYER
  5
5F
330
2
100
AcDbSymbolTableRecord
100
AcDbLayerTableRecord
  2
SECTIONCUTEDGES
 70
     0
 62
     7
  6
CONTINUOUS
  0
ENDTAB
  0
TABLE
  2
STYLE
  5
3
330
0
100
AcDbSymbolTable
 70
     1
  0
STYLE
  5
11
330
3
100
AcDbSymbolTableRecord
100
AcDbTextStyleTableRecord
  2
STANDARD
 70
     0
 40
0.0
 41
1.0
 50
0.0
 71
     0
 42
0.2
  3
txt
  4

  0
ENDTAB
  0
TABLE
  2
VIEW
  5
6
330
0
100
AcDbSymbolTable
 70
     0
  0
ENDTAB
  0
TABLE
  2
UCS
  5
7
330
0
100
AcDbSymbolTable
 70
     0
  0
ENDTAB
  0
TABLE
  2
APPID
  5
9
330
0
100
AcDbSymbolTable
 70
     2
  0
APPID
  5
12
330
9
100
AcDbSymbolTableRecord
100
AcDbRegAppTableRecord
  2
ACAD
 70
     0
  0
APPID
  5
296
330
9
100
AcDbSymbolTableRecord
100
AcDbRegAppTableRecord
  2
ACAD_MLEADERVER
 70
     0
  0
ENDTAB
  0
TABLE
  2
DIMSTYLE
  5
A
330
0
100
AcDbSymbolTable
 70
     1
  0
DIMSTYLE
105
27
330
A
100
AcDbSymbolTableRecord
100
AcDbDimStyleTableRecord
  2
STANDARD
 70
     0
  3

  4

  5

  6

  7

 40
1.0
 41
0.18
 42
0.0625
 43
0.38
 44
0.18
 45
0.0
 46
0.0
 47
0.0
 48
0.0
140
0.18
141
0.09
142
0.0
143
25.4
144
1.0
145
0.0
146
1.0
147
0.09
 71
     0
 72
     0
 73
     1
 74
     1
 75
     0
 76
     0
 77
     0
 78
     0
170
     0
171
     2
172
     0
173
     0
174
     0
175
     0
176
     0
177
     0
178
     0
270
     2
271
     4
272
     4
273
     2
274
     2
340
11
275
     0
280
     0
281
     0
282
     0
283
     1
284
     0
285
     0
286
     0
287
     3
288
     0
  0
ENDTAB
  0
TABLE
  2
BLOCK_RECORD
  5
1
330
0
100
AcDbSymbolTable
 70
     0
  0
BLOCK_RECORD
  5
1F
330
1
100
AcDbSymbolTableRecord
100
AcDbBlockTableRecord
  2
*MODEL_SPACE
  0
BLOCK_RECORD
  5
1B
330
1
100
AcDbSymbolTableRecord
100
AcDbBlockTableRecord
  2
*PAPER_SPACE
  0
ENDTAB
  0
ENDSEC
  0
SECTION
  2
BLOCKS
  0
BLOCK
  5
20
330
1F
100
AcDbEntity
  8
0
100
AcDbBlockBegin
  2
*MODEL_SPACE
 70
     0
 10
0.0
 20
0.0
 30
0.0
  3
*MODEL_SPACE
  1

  0
ENDBLK
  5
21
330
1F
100
AcDbEntity
  8
0
100
AcDbBlockEnd
  0
BLOCK
  5
1C
330
1B
100
AcDbEntity
 67
     1
  8
0
100
AcDbBlockBegin
  2
*PAPER_SPACE
 70
     0
 10
0.0
 20
0.0
 30
0.0
  3
*PAPER_SPACE
  1

  0
ENDBLK
  5
1D
330
1B
100
AcDbEntity
 67
     1
  8
0
100
AcDbBlockEnd
  0
ENDSEC
  0
SECTION
  2
ENTITIES
  0
LINE
  5
60
330
1F
100
AcDbEntity
  8
SECTIONCUTEDGES
100
AcDbLine
 10
182437.6402162158
 20
-3147.336832529415
 30
0.0
 11
182436.7573654413
 21
-3147.336832529415
 31
0.0
  0
LINE
  5
61
330
1F
100
AcDbEntity
  8
SECTIONCUTEDGES
100
AcDbLine
 10
174813.8325607538
 20
-3147.336832529415
 30
0.0
 11
174836.7573654412
 21
-3147.336832529415
 31
0.0
  0
LINE
  5
62
330
1F
100
AcDbEntity
  8
SECTIONCUTEDGES
100
AcDbLine
 10
182437.6402162158
 20
-3147.336832529415
 30
0.0
 11
195618.5139572381
 21
-3147.336832529415
 31
0.0
  0
LINE
  5
63
330
1F
100
AcDbEntity
  8
SECTIONCUTEDGES
100
AcDbLine
 10
179437.6402162158
 20
-3147.336832529415
 30
0.0
 11
182436.7573654413
 21
-3147.336832529415
 31
0.0
  0
LINE
  5
64
330
1F
100
AcDbEntity
  8
SECTIONCUTEDGES
100
AcDbLine
 10
178536.7573654413
 20
-3147.336832529415
 30
0.0
 11
178563.8325607538
 21
-3147.336832529415
 31
0.0
  0
LINE
  5
65
330
1F
100
AcDbEntity
  8
SECTIONCUTEDGES
100
AcDbLine
 10
178563.8325607538
 20
-3147.336832529415
 30
0.0
 11
178563.8325607538
 21
-2427.336832529415
 31
0.0
  0
LINE
  5
66
330
1F
100
AcDbEntity
  8
SECTIONCUTEDGES
100
AcDbLine
 10
186961.4460861444
 20
526.9688448845251
 30
0.0
 11
187021.4460861444
 21
526.9688448845251
 31
0.0
  0
LINE
  5
67
330
1F
100
AcDbEntity
  8
SECTIONCUTEDGES
100
AcDbLine
 10
186961.4460861444
 20
626.9688448845251
 30
0.0
 11
186961.4460861444
 21
526.9688448845251
 31
0.0
  0
LINE
  5
68
330
1F
100
AcDbEntity
  8
SECTIONCUTEDGES
100
AcDbLine
 10
187021.4460861444
 20
626.9688448845251
 30
0.0
 11
186961.4460861444
 21
626.9688448845251
 31
0.0
  0
LINE
  5
69
330
1F
100
AcDbEntity
  8
SECTIONCUTEDGES
100
AcDbLine
 10
187021.4460861444
 20
526.9688448845251
 30
0.0
 11
187021.4460861444
 21
626.9688448845251
 31
0.0
  0
LINE
  5
6A
330
1F
100
AcDbEntity
  8
SECTIONCUTEDGES
100
AcDbLine
 10
174618.5139572382
 20
-3147.336832529415
 30
0.0
 11
174813.8325607538
 21
-3147.336832529415
 31
0.0
  0
LINE
  5
6B
330
1F
100
AcDbEntity
  8
SECTIONCUTEDGES
100
AcDbLine
 10
174836.7573654412
 20
-3147.336832529415
 30
0.0
 11
178536.7573654413
 21
-3147.336832529415
 31
0.0
  0
LINE
  5
6C
330
1F
100
AcDbEntity
  8
SECTIONCUTEDGES
100
AcDbLine
 10
174813.8325607538
 20
-2427.336832529415
 30
0.0
 11
174813.8325607538
 21
-3147.336832529415
 31
0.0
  0
LINE
  5
6D
330
1F
100
AcDbEntity
  8
SECTIONCUTEDGES
100
AcDbLine
 10
174810.7188936874
 20
252.6631674705851
 30
0.0
 11
174810.7188936874
 21
-3147.336832529415
 31
0.0
  0
LINE
  5
6E
330
1F
100
AcDbEntity
  8
SECTIONCUTEDGES
100
AcDbLine
 10
178563.8325607538
 20
-2427.336832529415
 30
0.0
 11
174813.8325607538
 21
-2427.336832529415
 31
0.0
  0
LINE
  5
6F
330
1F
100
AcDbEntity
  8
SECTIONCUTEDGES
100
AcDbLine
 10
195618.5139572381
 20
-3147.336832529415
 30
0.0
 11
195618.5139572381
 21
-1562.129847055782
 31
0.0
  0
LINE
  5
70
330
1F
100
AcDbEntity
  8
SECTIONCUTEDGES
100
AcDbLine
 10
188615.6090469963
 20
-2461.070065420754
 30
0.0
 11
188558.1255075138
 21
-2654.316101682957
 31
0.0
  0
LINE
  5
71
330
1F
100
AcDbEntity
  8
SECTIONCUTEDGES
100
AcDbLine
 10
188617.1165107861
 20
-2457.705846987236
 30
0.0
 11
188616.2466854846
 21
-2459.354076180308
 31
0.0
  0
LINE
  5
72
330
1F
100
AcDbEntity
  8
SECTIONCUTEDGES
100
AcDbLine
 10
188620.9979997162
 20
-2453.365885791761
 30
0.0
 11
188619.5069505817
 21
-2454.693120842201
 31
0.0
  0
LINE
  5
73
330
1F
100
AcDbEntity
  8
SECTIONCUTEDGES
100
AcDbLine
 10
188619.5069505817
 20
-2454.693120842201
 30
0.0
 11
188618.2077647558
 21
-2456.145763416239
 31
0.0
  0
LINE
  5
74
330
1F
100
AcDbEntity
  8
SECTIONCUTEDGES
100
AcDbLine
 10
188624.4797768192
 20
-2451.151546032736
 30
0.0
 11
188622.6624706136
 21
-2452.180473730305
 31
0.0
  0
LINE
  5
75
330
1F
100
AcDbEntity
  8
SECTIONCUTEDGES
100
AcDbLine
 10
188628.4813758685
 20
-2449.611954708102
 30
0.0
 11
188626.4274415855
 21
-2450.291828649141
 31
0.0
  0
LINE
  5
76
330
1F
100
AcDbEntity
  8
SECTIONCUTEDGES
100
AcDbLine
 10
188622.6624706136
 20
-2452.180473730305
 30
0.0
 11
188620.9979997162
 21
-2453.365885791761
 31
0.0
  0
LINE
  5
77
330
1F
100
AcDbEntity
  8
SECTIONCUTEDGES
100
AcDbLine
 10
188626.4274415855
 20
-2450.291828649141
 30
0.0
 11
188624.4797768192
 21
-2451.151546032736
 31
0.0
  0
LINE
  5
78
330
1F
100
AcDbEntity
  8
SECTIONCUTEDGES
100
AcDbLine
 10
188618.2077647558
 20
-2456.145763416239
 30
0.0
 11
188617.1165107861
 21
-2457.705846987236
 31
0.0
  0
LINE
  5
79
330
1F
100
AcDbEntity
  8
SECTIONCUTEDGES
100
AcDbLine
 10
188555.2648315125
 20
-2670.994598925346
 30
0.0
 11
188555.1364340306
 21
-2673.098878965761
 31
0.0
  0
LINE
  5
7A
330
1F
100
AcDbEntity
  8
SECTIONCUTEDGES
100
AcDbLine
 10
188555.1364340306
 20
-2673.098878965761
 30
0.0
 11
188555.0592466784
 21
-2675.204790093269
 31
0.0
  0
LINE
  5
7B
330
1F
100
AcDbEntity
  8
SECTIONCUTEDGES
100
AcDbLine
 10
188555.4443896491
 20
-2668.892760805928
 30
0.0
 11
188555.2648315125
 21
-2670.994598925346
 31
0.0
  0
LINE
  5
7C
330
1F
100
AcDbEntity
  8
SECTIONCUTEDGES
100
AcDbLine
 10
188555.0592466784
 20
-2675.204790093269
 30
0.0
 11
188555.0021888768
 21
-2880.511518463936
 31
0.0
  0
LINE
  5
7D
330
1F
100
AcDbEntity
  8
SECTIONCUTEDGES
100
AcDbLine
 10
188555.6750392519
 20
-2666.794174500478
 30
0.0
 11
188555.4443896491
 21
-2668.892760805928
 31
0.0
  0
LINE
  5
7E
330
1F
100
AcDbEntity
  8
SECTIONCUTEDGES
100
AcDbLine
 10
188555.9566914458
 20
-2664.699648648957
 30
0.0
 11
188555.6750392519
 21
-2666.794174500478
 31
0.0
  0
LINE
  5
7F
330
1F
100
AcDbEntity
  8
SECTIONCUTEDGES
100
AcDbLine
 10
188556.2892377027
 20
-2662.60999032673
 30
0.0
 11
188555.9566914458
 21
-2664.699648648957
 31
0.0
  0
LINE
  5
80
330
1F
100
AcDbEntity
  8
SECTIONCUTEDGES
100
AcDbLine
 10
188556.6725498839
 20
-2660.526004733571
 30
0.0
 11
188556.2892377027
 21
-2662.60999032673
 31
0.0
  0
LINE
  5
81
330
1F
100
AcDbEntity
  8
SECTIONCUTEDGES
100
AcDbLine
 10
188557.1064802893
 20
-2658.448494883409
 30
0.0
 11
188556.6725498839
 21
-2660.526004733571
 31
0.0
  0
LINE
  5
82
330
1F
100
AcDbEntity
  8
SECTIONCUTEDGES
100
AcDbLine
 10
188558.1255075138
 20
-2654.316101682957
 30
0.0
 11
188557.5908617142
 21
-2656.378261294897
 31
0.0
  0
LINE
  5
83
330
1F
100
AcDbEntity
  8
SECTIONCUTEDGES
100
AcDbLine
 10
188557.5908617142
 20
-2656.378261294897
 30
0.0
 11
188557.1064802893
 21
-2658.448494883409
 31
0.0
  0
LINE
  5
84
330
1F
100
AcDbEntity
  8
SECTIONCUTEDGES
100
AcDbLine
 10
188616.2466854846
 20
-2459.354076180308
 30
0.0
 11
188615.6090469963
 21
-2461.070065420754
 31
0.0
  0
LINE
  5
85
330
1F
100
AcDbEntity
  8
SECTIONCUTEDGES
100
AcDbLine
 10
188632.8054392062
 20
-2448.823043997558
 30
0.0
 11
188630.6161762651
 21
-2449.120333004385
 31
0.0
  0
LINE
  5
86
330
1F
100
AcDbEntity
  8
SECTIONCUTEDGES
100
AcDbLine
 10
188635.0220875213
 20
-2448.723764607844
 30
0.0
 11
188632.8054392062
 21
-2448.823043997558
 31
0.0
  0
LINE
  5
87
330
1F
100
AcDbEntity
  8
SECTIONCUTEDGES
100
AcDbLine
 10
188630.6161762651
 20
-2449.120333004385
 30
0.0
 11
188628.4813758685
 21
-2449.611954708102
 31
0.0
  0
LINE
  5
88
330
1F
100
AcDbEntity
  8
SECTIONCUTEDGES
100
AcDbLine
 10
188667.761659404
 20
-2448.728777101013
 30
0.0
 11
188635.0220875213
 21
-2448.723764607844
 31
0.0
  0
LINE
  5
89
330
1F
100
AcDbEntity
  8
SECTIONCUTEDGES
100
AcDbLine
 10
188669.7877872215
 20
-2448.838766573291
 30
0.0
 11
188667.761659404
 21
-2448.728777101013
 31
0.0
  0
LINE
  5
8A
330
1F
100
AcDbEntity
  8
SECTIONCUTEDGES
100
AcDbLine
 10
188671.7775752572
 20
-2449.166143674565
 30
0.0
 11
188669.7877872215
 21
-2448.838766573291
 31
0.0
  0
LINE
  5
8B
330
1F
100
AcDbEntity
  8
SECTIONCUTEDGES
100
AcDbLine
 10
188673.6953684863
 20
-2449.705042132421
 30
0.0
 11
188671.7775752572
 21
-2449.166143674565
 31
0.0
  0
LINE
  5
8C
330
1F
100
AcDbEntity
  8
SECTIONCUTEDGES
100
AcDbLine
 10
188675.5068019595
 20
-2450.445805421879
 30
0.0
 11
188673.6953684863
 21
-2449.705042132421
 31
0.0
  0
LINE
  5
8D
330
1F
100
AcDbEntity
  8
SECTIONCUTEDGES
100
AcDbLine
 10
188677.1794165884
 20
-2451.375159800723
 30
0.0
 11
188675.5068019595
 21
-2450.445805421879
 31
0.0
  0
LINE
  5
8E
330
1F
100
AcDbEntity
  8
SECTIONCUTEDGES
100
AcDbLine
 10
188678.6832407808
 20
-2452.476452161779
 30
0.0
 11
188677.1794165884
 21
-2451.375159800723
 31
0.0
  0
LINE
  5
8F
330
1F
100
AcDbEntity
  8
SECTIONCUTEDGES
100
AcDbLine
 10
188679.9913275009
 20
-2453.729948440045
 30
0.0
 11
188678.6832407808
 21
-2452.476452161779
 31
0.0
  0
LINE
  5
90
330
1F
100
AcDbEntity
  8
SECTIONCUTEDGES
100
AcDbLine
 10
188681.0802371345
 20
-2455.113187227537
 30
0.0
 11
188679.9913275009
 21
-2453.729948440045
 31
0.0
  0
LINE
  5
91
330
1F
100
AcDbEntity
  8
SECTIONCUTEDGES
100
AcDbLine
 10
188681.9304575026
 20
-2456.6013822594
 30
0.0
 11
188681.0802371345
 21
-2455.113187227537
 31
0.0
  0
LINE
  5
92
330
1F
100
AcDbEntity
  8
SECTIONCUTEDGES
100
AcDbLine
 10
188682.526753501
 20
-2458.167866559153
 30
0.0
 11
188681.9304575026
 21
-2456.6013822594
 31
0.0
  0
LINE
  5
93
330
1F
100
AcDbEntity
  8
SECTIONCUTEDGES
100
AcDbLine
 10
188682.8584400977
 20
-2459.78457028441
 30
0.0
 11
188682.526753501
 21
-2458.167866559153
 31
0.0
  0
LINE
  5
94
330
1F
100
AcDbEntity
  8
SECTIONCUTEDGES
100
AcDbLine
 10
188682.9195737985
 20
-2461.422523710577
 30
0.0
 11
188682.8584400977
 21
-2459.78457028441
 31
0.0
  0
LINE
  5
95
330
1F
100
AcDbEntity
  8
SECTIONCUTEDGES
100
AcDbLine
 10
188663.7610318605
 20
-2880.528169657771
 30
0.0
 11
188682.9195737985
 21
-2461.422523710577
 31
0.0
  0
LINE
  5
96
330
1F
100
AcDbEntity
  8
SECTIONCUTEDGES
100
AcDbLine
 10
188555.0021888768
 20
-2880.511518463936
 30
0.0
 11
188663.7610318605
 21
-2880.528169657771
 31
0.0
  0
LINE
  5
97
330
1F
100
AcDbEntity
  8
SECTIONCUTEDGES
100
AcDbLine
 10
187502.9042126923
 20
-2880.567740707841
 30
0.0
 11
187498.8659490289
 21
-2881.215305940441
 31
0.0
  0
LINE
  5
98
330
1F
100
AcDbEntity
  8
SECTIONCUTEDGES
100
AcDbLine
 10
187482.0394811696
 20
-2890.284705572198
 30
0.0
 11
187479.7516218196
 21
-2893.046895625608
 31
0.0
  0
LINE
  5
99
330
1F
100
AcDbEntity
  8
SECTIONCUTEDGES
100
AcDbLine
 10
187507.0127072991
 20
-2880.351069202834
 30
0.0
 11
187502.9042126923
 21
-2880.567740707841
 31
0.0
  0
LINE
  5
9A
330
1F
100
AcDbEntity
  8
SECTIONCUTEDGES
100
AcDbLine
 10
187475.8024639949
 20
-2902.430925829338
 30
0.0
 11
187475.532673623
 21
-2905.746249845145
 31
0.0
  0
LINE
  5
9B
330
1F
100
AcDbEntity
  8
SECTIONCUTEDGES
100
AcDbLine
 10
187477.8941095945
 20
-3131.366773212026
 30
0.0
 11
187479.714678313
 21
-3134.346892797546
 31
0.0
  0
LINE
  5
9C
330
1F
100
AcDbEntity
  8
SECTIONCUTEDGES
100
AcDbLine
 10
187498.8659490289
 20
-2881.215305940441
 30
0.0
 11
187494.96701212
 21
-2882.282684879966
 31
0.0
  0
LINE
  5
9D
330
1F
100
AcDbEntity
  8
SECTIONCUTEDGES
100
AcDbLine
 10
187476.5711360422
 20
-3128.220415188817
 30
0.0
 11
187477.8941095945
 21
-3131.366773212026
 31
0.0
  0
LINE
  5
9E
330
1F
100
AcDbEntity
  8
SECTIONCUTEDGES
100
AcDbLine
 10
187477.930140662
 20
-2896.026457606093
 30
0.0
 11
187476.6062037445
 21
-2899.172410382076
 31
0.0
  0
LINE
  5
9F
330
1F
100
AcDbEntity
  8
SECTIONCUTEDGES
100
AcDbLine
 10
187491.274113857
 20
-2883.751614376827
 30
0.0
 11
187487.8504407532
 21
-2885.596960640069
 31
0.0
  0
LINE
  5
A0
330
1F
100
AcDbEntity
  8
SECTIONCUTEDGES
100
AcDbLine
 10
187475.532673623
 20
-2905.746249845145
 30
0.0
 11
187475.4996189066
 21
-3121.646247314774
 31
0.0
  0
LINE
  5
A1
330
1F
100
AcDbEntity
  8
SECTIONCUTEDGES
100
AcDbLine
 10
187484.7160185082
 20
-3139.608170816407
 30
0.0
 11
187487.8112156675
 21
-3141.799307324144
 31
0.0
  0
LINE
  5
A2
330
1F
100
AcDbEntity
  8
SECTIONCUTEDGES
100
AcDbLine
 10
187484.7545728044
 20
-2887.7871492835
 30
0.0
 11
187482.0394811696
 21
-2890.284705572198
 31
0.0
  0
LINE
  5
A3
330
1F
100
AcDbEntity
  8
SECTIONCUTEDGES
100
AcDbLine
 10
187498.8253817469
 20
-3146.18433481046
 30
0.0
 11
187502.8634469339
 21
-3146.833136544971
 31
0.0
  0
LINE
  5
A4
330
1F
100
AcDbEntity
  8
SECTIONCUTEDGES
100
AcDbLine
 10
187479.714678313
 20
-3134.346892797546
 30
0.0
 11
187482.0016917624
 21
-3137.109783273024
 31
0.0
  0
LINE
  5
A5
330
1F
100
AcDbEntity
  8
SECTIONCUTEDGES
100
AcDbLine
 10
187475.4996189066
 20
-3121.646247314774
 30
0.0
 11
187475.7683941005
 21
-3124.961653786033
 31
0.0
  0
LINE
  5
A6
330
1F
100
AcDbEntity
  8
SECTIONCUTEDGES
100
AcDbLine
 10
187487.8504407532
 20
-2885.596960640069
 30
0.0
 11
187484.7545728044
 21
-2887.7871492835
 31
0.0
  0
LINE
  5
A7
330
1F
100
AcDbEntity
  8
SECTIONCUTEDGES
100
AcDbLine
 10
187487.8112156675
 20
-3141.799307324144
 30
0.0
 11
187491.2343235586
 21
-3143.64570184309
 31
0.0
  0
LINE
  5
A8
330
1F
100
AcDbEntity
  8
SECTIONCUTEDGES
100
AcDbLine
 10
187506.9718750025
 20
-3147.051066077081
 30
0.0
 11
188663.7201995639
 21
-3147.228166532018
 31
0.0
  0
LINE
  5
A9
330
1F
100
AcDbEntity
  8
SECTIONCUTEDGES
100
AcDbLine
 10
187494.96701212
 20
-2882.282684879966
 30
0.0
 11
187491.274113857
 21
-2883.751614376827
 31
0.0
  0
LINE
  5
AA
330
1F
100
AcDbEntity
  8
SECTIONCUTEDGES
100
AcDbLine
 10
187475.7683941005
 20
-3124.961653786033
 30
0.0
 11
187476.5711360422
 21
-3128.220415188817
 31
0.0
  0
LINE
  5
AB
330
1F
100
AcDbEntity
  8
SECTIONCUTEDGES
100
AcDbLine
 10
187491.2343235586
 20
-3143.64570184309
 30
0.0
 11
187494.9267718564
 21
-3145.115762051108
 31
0.0
  0
LINE
  5
AC
330
1F
100
AcDbEntity
  8
SECTIONCUTEDGES
100
AcDbLine
 10
187502.8634469339
 20
-3146.833136544971
 30
0.0
 11
187506.9718750025
 21
-3147.051066077081
 31
0.0
  0
LINE
  5
AD
330
1F
100
AcDbEntity
  8
SECTIONCUTEDGES
100
AcDbLine
 10
188663.7610318605
 20
-2880.528169657771
 30
0.0
 11
187507.0127072991
 21
-2880.351069202834
 31
0.0
  0
LINE
  5
AE
330
1F
100
AcDbEntity
  8
SECTIONCUTEDGES
100
AcDbLine
 10
187494.9267718564
 20
-3145.115762051108
 30
0.0
 11
187498.8253817469
 21
-3146.18433481046
 31
0.0
  0
LINE
  5
AF
330
1F
100
AcDbEntity
  8
SECTIONCUTEDGES
100
AcDbLine
 10
187482.0016917624
 20
-3137.109783273024
 30
0.0
 11
187484.7160185082
 21
-3139.608170816407
 31
0.0
  0
LINE
  5
B0
330
1F
100
AcDbEntity
  8
SECTIONCUTEDGES
100
AcDbLine
 10
187476.6062037445
 20
-2899.172410382076
 30
0.0
 11
187475.8024639949
 21
-2902.430925829338
 31
0.0
  0
LINE
  5
B1
330
1F
100
AcDbEntity
  8
SECTIONCUTEDGES
100
AcDbLine
 10
187479.7516218196
 20
-2893.046895625608
 30
0.0
 11
187477.930140662
 21
-2896.026457606093
 31
0.0
  0
LINE
  5
B2
330
1F
100
AcDbEntity
  8
SECTIONCUTEDGES
100
AcDbLine
 10
188663.7201995639
 20
-3147.228166532018
 30
0.0
 11
188663.7610318605
 21
-2880.528169657771
 31
0.0
  0
LINE
  5
B3
330
1F
100
AcDbEntity
  8
SECTIONCUTEDGES
100
AcDbLine
 10
187432.3886552462
 20
-2747.544754409379
 30
0.0
 11
187431.9557522442
 21
-2748.290762519406
 31
0.0
  0
LINE
  5
B4
330
1F
100
AcDbEntity
  8
SECTIONCUTEDGES
100
AcDbLine
 10
187431.9557522442
 20
-2748.290762519406
 30
0.0
 11
187430.0587724685
 21
-2753.02666498565
 31
0.0
  0
LINE
  5
B5
330
1F
100
AcDbEntity
  8
SECTIONCUTEDGES
100
AcDbLine
 10
187430.0587724685
 20
-2753.02666498565
 30
0.0
 11
187428.9107047985
 21
-2757.908665031416
 31
0.0
  0
LINE
  5
B6
330
1F
100
AcDbEntity
  8
SECTIONCUTEDGES
100
AcDbLine
 10
187428.9107047985
 20
-2757.908665031416
 30
0.0
 11
187428.5255335611
 21
-2762.868943834363
 31
0.0
  0
LINE
  5
B7
330
1F
100
AcDbEntity
  8
SECTIONCUTEDGES
100
AcDbLine
 10
187428.5255335611
 20
-2762.868943834363
 30
0.0
 11
187428.51338259
 21
-2842.234157804735
 31
0.0
  0
LINE
  5
B8
330
1F
100
AcDbEntity
  8
SECTIONCUTEDGES
100
AcDbLine
 10
187428.51338259
 20
-2842.234157804735
 30
0.0
 11
187428.8970349523
 21
-2847.194554316095
 31
0.0
  0
LINE
  5
B9
330
1F
100
AcDbEntity
  8
SECTIONCUTEDGES
100
AcDbLine
 10
187428.8970349523
 20
-2847.194554316095
 30
0.0
 11
187430.0436076808
 21
-2852.076905675841
 31
0.0
  0
LINE
  5
BA
330
1F
100
AcDbEntity
  8
SECTIONCUTEDGES
100
AcDbLine
 10
187430.0436076808
 20
-2852.076905675841
 30
0.0
 11
187431.9391372156
 21
-2856.813388782757
 31
0.0
  0
LINE
  5
BB
330
1F
100
AcDbEntity
  8
SECTIONCUTEDGES
100
AcDbLine
 10
187431.9391372156
 20
-2856.813388782757
 30
0.0
 11
187432.3718117667
 21
-2857.559529414419
 31
0.0
  0
LINE
  5
BC
330
1F
100
AcDbEntity
  8
SECTIONCUTEDGES
100
AcDbLine
 10
187475.5365624132
 20
-2880.346250142836
 30
0.0
 11
188555.0021888768
 21
-2880.511518463936
 31
0.0
  0
LINE
  5
BD
330
1F
100
AcDbEntity
  8
SECTIONCUTEDGES
100
AcDbLine
 10
187442.1731795107
 20
-2735.925372087191
 30
0.0
 11
187438.1005420586
 21
-2739.671706520237
 31
0.0
  0
LINE
  5
BE
330
1F
100
AcDbEntity
  8
SECTIONCUTEDGES
100
AcDbLine
 10
187463.3402438475
 20
-2726.067607072602
 30
0.0
 11
187457.4918384842
 21
-2727.668675481889
 31
0.0
  0
LINE
  5
BF
330
1F
100
AcDbEntity
  8
SECTIONCUTEDGES
100
AcDbLine
 10
187434.650767379
 20
-2861.289990223532
 30
0.0
 11
187432.3718117667
 21
-2857.559529414419
 31
0.0
  0
LINE
  5
C0
330
1F
100
AcDbEntity
  8
SECTIONCUTEDGES
100
AcDbLine
 10
188555.0021888768
 20
-2880.511518463936
 30
0.0
 11
188555.0260077165
 21
-2724.936520287291
 31
0.0
  0
LINE
  5
C1
330
1F
100
AcDbEntity
  8
SECTIONCUTEDGES
100
AcDbLine
 10
187451.9524910897
 20
-2729.872069727181
 30
0.0
 11
187446.8169814338
 21
-2732.640089122044
 31
0.0
  0
LINE
  5
C2
330
1F
100
AcDbEntity
  8
SECTIONCUTEDGES
100
AcDbLine
 10
187463.3168225297
 20
-2879.046153242904
 30
0.0
 11
187469.3739203102
 21
-2880.01935584467
 31
0.0
  0
LINE
  5
C3
330
1F
100
AcDbEntity
  8
SECTIONCUTEDGES
100
AcDbLine
 10
187457.468907694
 20
-2877.443294103875
 30
0.0
 11
187463.3168225297
 21
-2879.046153242904
 31
0.0
  0
LINE
  5
C4
330
1F
100
AcDbEntity
  8
SECTIONCUTEDGES
100
AcDbLine
 10
187446.8169814338
 20
-2732.640089122044
 30
0.0
 11
187442.1731795107
 21
-2735.925372087191
 31
0.0
  0
LINE
  5
C5
330
1F
100
AcDbEntity
  8
SECTIONCUTEDGES
100
AcDbLine
 10
187475.5603812529
 20
-2724.771251966191
 30
0.0
 11
187469.3976393425
 21
-2725.096259223702
 31
0.0
  0
LINE
  5
C6
330
1F
100
AcDbEntity
  8
SECTIONCUTEDGES
100
AcDbLine
 10
187438.0812875529
 20
-2865.43432593675
 30
0.0
 11
187442.1527776718
 21
-2869.181907251825
 31
0.0
  0
LINE
  5
C7
330
1F
100
AcDbEntity
  8
SECTIONCUTEDGES
100
AcDbLine
 10
187457.4918384842
 20
-2727.668675481889
 30
0.0
 11
187451.9524910897
 21
-2729.872069727181
 31
0.0
  0
LINE
  5
C8
330
1F
100
AcDbEntity
  8
SECTIONCUTEDGES
100
AcDbLine
 10
187446.7955734106
 20
-2872.46861201343
 30
0.0
 11
187451.9302352472
 21
-2875.238203791848
 31
0.0
  0
LINE
  5
C9
330
1F
100
AcDbEntity
  8
SECTIONCUTEDGES
100
AcDbLine
 10
187438.1005420586
 20
-2739.671706520237
 30
0.0
 11
187434.6687530335
 21
-2743.814991600352
 31
0.0
  0
LINE
  5
CA
330
1F
100
AcDbEntity
  8
SECTIONCUTEDGES
100
AcDbLine
 10
187442.1527776718
 20
-2869.181907251825
 30
0.0
 11
187446.7955734106
 21
-2872.46861201343
 31
0.0
  0
LINE
  5
CB
330
1F
100
AcDbEntity
  8
SECTIONCUTEDGES
100
AcDbLine
 10
187451.9302352472
 20
-2875.238203791848
 30
0.0
 11
187457.468907694
 21
-2877.443294103875
 31
0.0
  0
LINE
  5
CC
330
1F
100
AcDbEntity
  8
SECTIONCUTEDGES
100
AcDbLine
 10
187469.3739203102
 20
-2880.01935584467
 30
0.0
 11
187475.5365624132
 21
-2880.346250142836
 31
0.0
  0
LINE
  5
CD
330
1F
100
AcDbEntity
  8
SECTIONCUTEDGES
100
AcDbLine
 10
187434.650767379
 20
-2861.289990223532
 30
0.0
 11
187438.0812875529
 21
-2865.43432593675
 31
0.0
  0
LINE
  5
CE
330
1F
100
AcDbEntity
  8
SECTIONCUTEDGES
100
AcDbLine
 10
188555.0260077165
 20
-2724.936520287291
 30
0.0
 11
187475.5603812529
 21
-2724.771251966191
 31
0.0
  0
LINE
  5
CF
330
1F
100
AcDbEntity
  8
SECTIONCUTEDGES
100
AcDbLine
 10
187434.6687530335
 20
-2743.814991600352
 30
0.0
 11
187432.3886552462
 21
-2747.544754409379
 31
0.0
  0
LINE
  5
D0
330
1F
100
AcDbEntity
  8
SECTIONCUTEDGES
100
AcDbLine
 10
187469.3976393425
 20
-2725.096259223702
 30
0.0
 11
187463.3402438475
 21
-2726.067607072602
 31
0.0
  0
LINE
  5
D1
330
1F
100
AcDbEntity
  8
SECTIONCUTEDGES
100
AcDbLine
 10
188259.9516436818
 20
-2647.878969399651
 30
0.0
 11
188388.5227713061
 21
-2316.956728832866
 31
0.0
  0
LINE
  5
D2
330
1F
100
AcDbEntity
  8
SECTIONCUTEDGES
100
AcDbLine
 10
188632.9381454978
 20
-2306.759572588634
 30
0.0
 11
188559.1770103656
 21
-2644.079715935393
 31
0.0
  0
LINE
  5
D3
330
1F
100
AcDbEntity
  8
SECTIONCUTEDGES
100
AcDbLine
 10
188559.1770103656
 20
-2644.079715935393
 30
0.0
 11
188553.4412397645
 21
-2724.651563797108
 31
0.0
  0
LINE
  5
D4
330
1F
100
AcDbEntity
  8
SECTIONCUTEDGES
100
AcDbLine
 10
188263.5003390884
 20
-2667.931230380476
 30
0.0
 11
188260.9116501034
 21
-2657.998903378372
 31
0.0
  0
LINE
  5
D5
330
1F
100
AcDbEntity
  8
SECTIONCUTEDGES
100
AcDbLine
 10
188332.2314393461
 20
-2722.196402334464
 30
0.0
 11
188320.2779241641
 21
-2719.038770059666
 31
0.0
  0
LINE
  5
D6
330
1F
100
AcDbEntity
  8
SECTIONCUTEDGES
100
AcDbLine
 10
188308.9373181369
 20
-2714.649121765886
 30
0.0
 11
188298.4036621779
 21
-2709.102565552473
 31
0.0
  0
LINE
  5
D7
330
1F
100
AcDbEntity
  8
SECTIONCUTEDGES
100
AcDbLine
 10
188357.152097823
 20
-2724.621511541488
 30
0.0
 11
188344.5933357238
 21
-2724.067990626598
 31
0.0
  0
LINE
  5
D8
330
1F
100
AcDbEntity
  8
SECTIONCUTEDGES
100
AcDbLine
 10
188280.4612445704
 20
-2694.936513021833
 30
0.0
 11
188273.3594826619
 21
-2686.559401790976
 31
0.0
  0
LINE
  5
D9
330
1F
100
AcDbEntity
  8
SECTIONCUTEDGES
100
AcDbLine
 10
188298.4036621779
 20
-2709.102565552473
 30
0.0
 11
188288.8571900608
 21
-2702.494004534033
 31
0.0
  0
LINE
  5
DA
330
1F
100
AcDbEntity
  8
SECTIONCUTEDGES
100
AcDbLine
 10
188260.9116501034
 20
-2657.998903378372
 30
0.0
 11
188259.9516436818
 21
-2647.878969399651
 31
0.0
  0
LINE
  5
DB
330
1F
100
AcDbEntity
  8
SECTIONCUTEDGES
100
AcDbLine
 10
188344.5933357238
 20
-2724.067990626598
 30
0.0
 11
188332.2314393461
 21
-2722.196402334464
 31
0.0
  0
LINE
  5
DC
330
1F
100
AcDbEntity
  8
SECTIONCUTEDGES
100
AcDbLine
 10
188267.6734174505
 20
-2677.506005537198
 30
0.0
 11
188263.5003390884
 21
-2667.931230380476
 31
0.0
  0
LINE
  5
DD
330
1F
100
AcDbEntity
  8
SECTIONCUTEDGES
100
AcDbLine
 10
188288.8571900608
 20
-2702.494004534033
 30
0.0
 11
188280.4612445704
 21
-2694.936513021833
 31
0.0
  0
LINE
  5
DE
330
1F
100
AcDbEntity
  8
SECTIONCUTEDGES
100
AcDbLine
 10
188320.2779241641
 20
-2719.038770059666
 30
0.0
 11
188308.9373181369
 21
-2714.649121765886
 31
0.0
  0
LINE
  5
DF
330
1F
100
AcDbEntity
  8
SECTIONCUTEDGES
100
AcDbLine
 10
188273.3594826619
 20
-2686.559401790976
 30
0.0
 11
188267.6734174505
 21
-2677.506005537198
 31
0.0
  0
LINE
  5
E0
330
1F
100
AcDbEntity
  8
SECTIONCUTEDGES
100
AcDbLine
 10
188553.4412397645
 20
-2724.651563797108
 30
0.0
 11
188357.152097823
 21
-2724.621511541488
 31
0.0
  0
LINE
  5
E1
330
1F
100
AcDbEntity
  8
SECTIONCUTEDGES
100
AcDbLine
 10
188388.5227713061
 20
-2316.956728832866
 30
0.0
 11
188632.9381454978
 21
-2306.759572588634
 31
0.0
  0
LINE
  5
E2
330
1F
100
AcDbEntity
  8
SECTIONCUTEDGES
100
AcDbLine
 10
175441.7573654413
 20
-3147.336832529415
 30
0.0
 11
179399.951923193
 21
-3147.336832529414
 31
0.0
  0
LINE
  5
E3
330
1F
100
AcDbEntity
  8
SECTIONCUTEDGES
100
AcDbLine
 10
185770.2375809977
 20
-3147.336832529415
 30
0.0
 11
186706.8594964779
 21
-3147.336832529415
 31
0.0
  0
LINE
  5
E4
330
1F
100
AcDbEntity
  8
SECTIONCUTEDGES
100
AcDbLine
 10
187406.4420572996
 20
-2847.336832529364
 30
0.0
 11
180747.8301213234
 21
-2847.336832529624
 31
0.0
  0
LINE
  5
E5
330
1F
100
AcDbEntity
  8
SECTIONCUTEDGES
100
AcDbLine
 10
186893.9685730759
 20
-3147.336832529415
 30
0.0
 11
186706.8594964779
 21
-3147.336832529415
 31
0.0
  0
LINE
  5
E6
330
1F
100
AcDbEntity
  8
SECTIONCUTEDGES
100
AcDbLine
 10
180747.8301213233
 20
-3147.336832529617
 30
0.0
 11
180747.8301213234
 21
-2847.336832529624
 31
0.0
  0
LINE
  5
E7
330
1F
100
AcDbEntity
  8
SECTIONCUTEDGES
100
AcDbLine
 10
186893.9685730759
 20
-3147.336832529415
 30
0.0
 11
187406.4420572996
 21
-3147.336832529415
 31
0.0
  0
LINE
  5
E8
330
1F
100
AcDbEntity
  8
SECTIONCUTEDGES
100
AcDbLine
 10
187406.4420572996
 20
-2847.336832529364
 30
0.0
 11
187406.4420572996
 21
-3147.336832529415
 31
0.0
  0
LINE
  5
E9
330
1F
100
AcDbEntity
  8
SECTIONCUTEDGES
100
AcDbLine
 10
179399.951923193
 20
-3147.336832529414
 30
0.0
 11
180747.8301213233
 21
-3147.336832529617
 31
0.0
  0
LINE
  5
EA
330
1F
100
AcDbEntity
  8
SECTIONCUTEDGES
100
AcDbLine
 10
183771.4580061013
 20
850.7683046349102
 30
0.0
 11
183770.9858810663
 21
919.474371427189
 31
0.0
  0
LINE
  5
EB
330
1F
100
AcDbEntity
  8
SECTIONCUTEDGES
100
AcDbLine
 10
183770.9858810663
 20
919.474371427189
 30
0.0
 11
183711.2486193126
 21
953.4185325493012
 31
0.0
  0
LINE
  5
EC
330
1F
100
AcDbEntity
  8
SECTIONCUTEDGES
100
AcDbLine
 10
183711.2486193126
 20
953.4185325493012
 30
0.0
 11
183651.9834825939
 21
918.6566268791354
 31
0.0
  0
LINE
  5
ED
330
1F
100
AcDbEntity
  8
SECTIONCUTEDGES
100
AcDbLine
 10
183651.9834825939
 20
918.6566268791354
 30
0.0
 11
183652.4556076288
 21
849.9505600868567
 31
0.0
  0
LINE
  5
EE
330
1F
100
AcDbEntity
  8
SECTIONCUTEDGES
100
AcDbLine
 10
183652.4556076288
 20
849.9505600868567
 30
0.0
 11
183712.1928693825
 21
816.0063989647446
 31
0.0
  0
LINE
  5
EF
330
1F
100
AcDbEntity
  8
SECTIONCUTEDGES
100
AcDbLine
 10
183712.1928693825
 20
816.0063989647446
 30
0.0
 11
183771.4580061013
 21
850.7683046349102
 31
0.0
  0
LINE
  5
F0
330
1F
100
AcDbEntity
  8
SECTIONCUTEDGES
100
AcDbLine
 10
182230.2165899219
 20
919.695657785855
 30
0.0
 11
182216.6951095819
 21
958.6885056434974
 31
0.0
  0
LINE
  5
F1
330
1F
100
AcDbEntity
  8
SECTIONCUTEDGES
100
AcDbLine
 10
182216.6951095819
 20
958.6885056434974
 30
0.0
 11
182176.1655726013
 21
966.4749841011153
 31
0.0
  0
LINE
  5
F2
330
1F
100
AcDbEntity
  8
SECTIONCUTEDGES
100
AcDbLine
 10
182176.1655726013
 20
966.4749841011153
 30
0.0
 11
182149.1575159607
 21
935.2686147010908
 31
0.0
  0
LINE
  5
F3
330
1F
100
AcDbEntity
  8
SECTIONCUTEDGES
100
AcDbLine
 10
182149.1575159607
 20
935.2686147010908
 30
0.0
 11
182162.6789963007
 21
896.2757668434484
 31
0.0
  0
LINE
  5
F4
330
1F
100
AcDbEntity
  8
SECTIONCUTEDGES
100
AcDbLine
 10
182162.6789963007
 20
896.2757668434484
 30
0.0
 11
182203.2085332813
 21
888.4892883858305
 31
0.0
  0
LINE
  5
F5
330
1F
100
AcDbEntity
  8
SECTIONCUTEDGES
100
AcDbLine
 10
182203.2085332813
 20
888.4892883858305
 30
0.0
 11
182230.2165899219
 21
919.695657785855
 31
0.0
  0
LINE
  5
F6
330
1F
100
AcDbEntity
  8
SECTIONCUTEDGES
100
AcDbLine
 10
179936.6597091913
 20
838.9706692634925
 30
0.0
 11
180086.6597091913
 21
838.9706692634925
 31
0.0
  0
LINE
  5
F7
330
1F
100
AcDbEntity
  8
SECTIONCUTEDGES
100
AcDbLine
 10
179936.6597091913
 20
888.9706692634923
 30
0.0
 11
179936.6597091913
 21
838.9706692634925
 31
0.0
  0
LINE
  5
F8
330
1F
100
AcDbEntity
  8
SECTIONCUTEDGES
100
AcDbLine
 10
180086.6597091913
 20
888.9706692634923
 30
0.0
 11
179936.6597091913
 21
888.9706692634923
 31
0.0
  0
LINE
  5
F9
330
1F
100
AcDbEntity
  8
SECTIONCUTEDGES
100
AcDbLine
 10
180086.6597091913
 20
838.9706692634925
 30
0.0
 11
180086.6597091913
 21
888.9706692634923
 31
0.0
  0
LINE
  5
FA
330
1F
100
AcDbEntity
  8
SECTIONCUTEDGES
100
AcDbLine
 10
184863.4883224725
 20
899.298017972599
 30
0.0
 11
184863.4883224725
 21
839.2980179725989
 31
0.0
  0
LINE
  5
FB
330
1F
100
AcDbEntity
  8
SECTIONCUTEDGES
100
AcDbLine
 10
185023.4883224725
 20
899.298017972599
 30
0.0
 11
184863.4883224725
 21
899.298017972599
 31
0.0
  0
LINE
  5
FC
330
1F
100
AcDbEntity
  8
SECTIONCUTEDGES
100
AcDbLine
 10
185023.4883224725
 20
839.2980179725989
 30
0.0
 11
185023.4883224725
 21
899.298017972599
 31
0.0
  0
LINE
  5
FD
330
1F
100
AcDbEntity
  8
SECTIONCUTEDGES
100
AcDbLine
 10
184863.4883224725
 20
839.2980179725989
 30
0.0
 11
185023.4883224725
 21
839.2980179725989
 31
0.0
  0
LINE
  5
FE
330
1F
100
AcDbEntity
  8
SECTIONCUTEDGES
100
AcDbLine
 10
186363.4883224725
 20
899.298017972599
 30
0.0
 11
186363.4883224725
 21
839.2980179725989
 31
0.0
  0
LINE
  5
FF
330
1F
100
AcDbEntity
  8
SECTIONCUTEDGES
100
AcDbLine
 10
186523.4883224725
 20
899.298017972599
 30
0.0
 11
186363.4883224725
 21
899.298017972599
 31
0.0
  0
LINE
  5
100
330
1F
100
AcDbEntity
  8
SECTIONCUTEDGES
100
AcDbLine
 10
186523.4883224725
 20
839.2980179725989
 30
0.0
 11
186523.4883224725
 21
899.298017972599
 31
0.0
  0
LINE
  5
101
330
1F
100
AcDbEntity
  8
SECTIONCUTEDGES
100
AcDbLine
 10
186363.4883224725
 20
839.2980179725989
 30
0.0
 11
186523.4883224725
 21
839.2980179725989
 31
0.0
  0
LINE
  5
102
330
1F
100
AcDbEntity
  8
SECTIONCUTEDGES
100
AcDbLine
 10
182230.2165899219
 20
1819.695657785855
 30
0.0
 11
182216.6951095819
 21
1858.688505643497
 31
0.0
  0
LINE
  5
103
330
1F
100
AcDbEntity
  8
SECTIONCUTEDGES
100
AcDbLine
 10
182216.6951095819
 20
1858.688505643497
 30
0.0
 11
182176.1655726013
 21
1866.474984101115
 31
0.0
  0
LINE
  5
104
330
1F
100
AcDbEntity
  8
SECTIONCUTEDGES
100
AcDbLine
 10
182176.1655726013
 20
1866.474984101115
 30
0.0
 11
182149.1575159607
 21
1835.268614701091
 31
0.0
  0
LINE
  5
105
330
1F
100
AcDbEntity
  8
SECTIONCUTEDGES
100
AcDbLine
 10
182149.1575159607
 20
1835.268614701091
 30
0.0
 11
182162.6789963007
 21
1796.275766843448
 31
0.0
  0
LINE
  5
106
330
1F
100
AcDbEntity
  8
SECTIONCUTEDGES
100
AcDbLine
 10
182162.6789963007
 20
1796.275766843448
 30
0.0
 11
182203.2085332813
 21
1788.489288385831
 31
0.0
  0
LINE
  5
107
330
1F
100
AcDbEntity
  8
SECTIONCUTEDGES
100
AcDbLine
 10
182203.2085332813
 20
1788.489288385831
 30
0.0
 11
182230.2165899219
 21
1819.695657785855
 31
0.0
  0
LINE
  5
108
330
1F
100
AcDbEntity
  8
SECTIONCUTEDGES
100
AcDbLine
 10
179953.4668923474
 20
-3140.001231735185
 30
0.0
 11
179973.1440975902
 21
-3147.336832528966
 31
0.0
  0
LINE
  5
109
330
1F
100
AcDbEntity
  8
SECTIONCUTEDGES
100
AcDbLine
 10
180385.7271755374
 20
-2040.623163745896
 30
0.0
 11
179973.1440975902
 21
-3147.336832528966
 31
0.0
  0
LINE
  5
10A
330
1F
100
AcDbEntity
  8
SECTIONCUTEDGES
100
AcDbLine
 10
180385.7271755374
 20
-2040.623163745896
 30
0.0
 11
180372.7116965085
 21
-2015.4179635665
 31
0.0
  0
LINE
  5
10B
330
1F
100
AcDbEntity
  8
SECTIONCUTEDGES
100
AcDbLine
 10
180372.7116965085
 20
-2015.4179635665
 30
0.0
 11
179953.4668923474
 21
-3140.001231735185
 31
0.0
  0
LINE
  5
10C
330
1F
100
AcDbEntity
  8
SECTIONCUTEDGES
100
AcDbLine
 10
180385.7271755374
 20
-2040.623163745896
 30
0.0
 11
180372.7116965085
 21
-2015.4179635665
 31
0.0
  0
LINE
  5
10D
330
1F
100
AcDbEntity
  8
SECTIONCUTEDGES
100
AcDbLine
 10
181965.6671375676
 20
-1177.906778809552
 30
0.0
 11
183443.6302295321
 21
-393.2335199858284
 31
0.0
  0
LINE
  5
10E
330
1F
100
AcDbEntity
  8
SECTIONCUTEDGES
100
AcDbLine
 10
183443.6302295321
 20
-393.2335199858284
 30
0.0
 11
183436.9800947651
 21
-420.6662212226469
 31
0.0
  0
LINE
  5
10F
330
1F
100
AcDbEntity
  8
SECTIONCUTEDGES
100
AcDbLine
 10
181975.7874244251
 20
-1196.435806158083
 30
0.0
 11
183436.9800947651
 21
-420.6662212226469
 31
0.0
  0
LINE
  5
110
330
1F
100
AcDbEntity
  8
SECTIONCUTEDGES
100
AcDbLine
 10
181965.6671375676
 20
-1177.906778809552
 30
0.0
 11
181975.7874244251
 21
-1196.435806158083
 31
0.0
  0
LINE
  5
111
330
1F
100
AcDbEntity
  8
SECTIONCUTEDGES
100
AcDbLine
 10
183897.0667507642
 20
-176.3991636307202
 30
0.0
 11
183881.8932652244
 21
-160.5529569128938
 31
0.0
  0
LINE
  5
112
330
1F
100
AcDbEntity
  8
SECTIONCUTEDGES
100
AcDbLine
 10
183897.0667507642
 20
-176.3991636307202
 30
0.0
 11
183487.2720380758
 21
-393.9654576751788
 31
0.0
  0
LINE
  5
113
330
1F
100
AcDbEntity
  8
SECTIONCUTEDGES
100
AcDbLine
 10
183881.8932652244
 20
-160.5529569128938
 30
0.0
 11
183477.1517512178
 21
-375.436430325773
 31
0.0
  0
LINE
  5
114
330
1F
100
AcDbEntity
  8
SECTIONCUTEDGES
100
AcDbLine
 10
183487.2720380758
 20
-393.965457675179
 30
0.0
 11
183477.1517512178
 21
-375.436430325773
 31
0.0
  0
LINE
  5
115
330
1F
100
AcDbEntity
  8
SECTIONCUTEDGES
100
AcDbLine
 10
183487.2720380758
 20
-393.9654576750974
 30
0.0
 11
183436.9800947667
 21
-420.6662212215473
 31
0.0
  0
LINE
  5
116
330
1F
100
AcDbEntity
  8
SECTIONCUTEDGES
100
AcDbLine
 10
183477.1517512178
 20
-375.4364303256698
 30
0.0
 11
183443.6302295322
 21
-393.2335199856541
 31
0.0
  0
LINE
  5
117
330
1F
100
AcDbEntity
  8
SECTIONCUTEDGES
100
AcDbLine
 10
183477.1517512178
 20
-375.4364303256698
 30
0.0
 11
183487.2720380758
 21
-393.9654576750974
 31
0.0
  0
LINE
  5
118
330
1F
100
AcDbEntity
  8
SECTIONCUTEDGES
100
AcDbLine
 10
183436.9800947667
 20
-420.6662212215473
 30
0.0
 11
183443.6302295321
 21
-393.2335199856546
 31
0.0
  0
LINE
  5
119
330
1F
100
AcDbEntity
  8
SECTIONCUTEDGES
100
AcDbLine
 10
181975.7874244253
 20
-1196.435806158013
 30
0.0
 11
180385.7271755378
 21
-2040.623163746497
 31
0.0
  0
LINE
  5
11A
330
1F
100
AcDbEntity
  8
SECTIONCUTEDGES
100
AcDbLine
 10
181965.6671375677
 20
-1177.90677880947
 30
0.0
 11
180376.040343538
 21
-2021.864008569867
 31
0.0
  0
LINE
  5
11B
330
1F
100
AcDbEntity
  8
SECTIONCUTEDGES
100
AcDbLine
 10
180376.040343538
 20
-2021.864008569867
 30
0.0
 11
180385.7271755378
 21
-2040.623163746497
 31
0.0
  0
LINE
  5
11C
330
1F
100
AcDbEntity
  8
SECTIONCUTEDGES
100
AcDbLine
 10
181975.7874244253
 20
-1196.435806158013
 30
0.0
 11
181965.6671375677
 21
-1177.90677880947
 31
0.0
  0
LINE
  5
11D
330
1F
100
AcDbEntity
  8
SECTIONCUTEDGES
100
AcDbLine
 10
184817.2342132985
 20
1171.954434197867
 30
0.0
 11
183897.0667482671
 21
-176.3991442547976
 31
0.0
  0
LINE
  5
11E
330
1F
100
AcDbEntity
  8
SECTIONCUTEDGES
100
AcDbLine
 10
184817.1820774162
 20
1209.958484922384
 30
0.0
 11
183881.8932629944
 21
-160.5529358084675
 31
0.0
  0
LINE
  5
11F
330
1F
100
AcDbEntity
  8
SECTIONCUTEDGES
100
AcDbLine
 10
184817.1820774162
 20
1209.958484922384
 30
0.0
 11
184817.2342132985
 21
1171.954434197869
 31
0.0
  0
LINE
  5
120
330
1F
100
AcDbEntity
  8
SECTIONCUTEDGES
100
AcDbLine
 10
183897.0667482671
 20
-176.3991442547985
 30
0.0
 11
183881.8932629944
 21
-160.5529358084675
 31
0.0
  0
LINE
  5
121
330
1F
100
AcDbEntity
  8
SECTIONCUTEDGES
100
AcDbLine
 10
184942.0242480626
 20
1354.813608605711
 30
0.0
 11
184817.234049543
 21
1171.954164945577
 31
0.0
  0
LINE
  5
122
330
1F
100
AcDbEntity
  8
SECTIONCUTEDGES
100
AcDbLine
 10
184942.0242480626
 20
1354.813608605711
 30
0.0
 11
184923.9398521065
 21
1366.394357787412
 31
0.0
  0
LINE
  5
123
330
1F
100
AcDbEntity
  8
SECTIONCUTEDGES
100
AcDbLine
 10
184923.9398521065
 20
1366.394357787412
 30
0.0
 11
184817.1819136605
 21
1209.958215669809
 31
0.0
  0
LINE
  5
124
330
1F
100
AcDbEntity
  8
SECTIONCUTEDGES
100
AcDbLine
 10
184817.1819136605
 20
1209.958215669809
 30
0.0
 11
184817.234049543
 21
1171.954164945578
 31
0.0
  0
LINE
  5
125
330
1F
100
AcDbEntity
  8
SECTIONCUTEDGES
100
AcDbLine
 10
178801.4186663963
 20
4.233825046817074
 30
0.0
 11
178801.4186663963
 21
-336.7368664851675
 31
0.0
  0
LINE
  5
126
330
1F
100
AcDbEntity
  8
SECTIONCUTEDGES
100
AcDbLine
 10
178801.4186663963
 20
-1107.660450469542
 30
0.0
 11
178801.4186663963
 21
-1447.766174953183
 31
0.0
  0
LINE
  5
127
330
1F
100
AcDbEntity
  8
SECTIONCUTEDGES
100
AcDbLine
 10
178801.4186663963
 20
-1833.660572539855
 30
0.0
 11
178801.4186663963
 21
-2173.766236065854
 31
0.0
  0
LINE
  5
128
330
1F
100
AcDbEntity
  8
SECTIONCUTEDGES
100
AcDbLine
 10
178801.4186663963
 20
-2173.766236065854
 30
0.0
 11
178801.4186663963
 21
-2514.736866485167
 31
0.0
  0
LINE
  5
129
330
1F
100
AcDbEntity
  8
SECTIONCUTEDGES
100
AcDbLine
 10
178801.4186663963
 20
-2806.7532388759
 30
0.0
 11
178801.4186663963
 21
-3154.036861907531
 31
0.0
  0
LINE
  5
12A
330
1F
100
AcDbEntity
  8
SECTIONCUTEDGES
100
AcDbLine
 10
178801.4186663963
 20
-2554.736866485167
 30
0.0
 11
178801.4186663963
 21
-2806.7532388759
 31
0.0
  0
LINE
  5
12B
330
1F
100
AcDbEntity
  8
SECTIONCUTEDGES
100
AcDbLine
 10
178801.4186663963
 20
344.3395495304576
 30
0.0
 11
178801.4186663963
 21
4.233825046817074
 31
0.0
  0
LINE
  5
12C
330
1F
100
AcDbEntity
  8
SECTIONCUTEDGES
100
AcDbLine
 10
178801.4186663963
 20
-381.6604504695426
 30
0.0
 11
178801.4186663963
 21
-721.7661749531832
 31
0.0
  0
LINE
  5
12D
330
1F
100
AcDbEntity
  8
SECTIONCUTEDGES
100
AcDbLine
 10
178801.4186663963
 20
-721.7661749531832
 30
0.0
 11
178801.4186663963
 21
-1062.736866485168
 31
0.0
  0
LINE
  5
12E
330
1F
100
AcDbEntity
  8
SECTIONCUTEDGES
100
AcDbLine
 10
178801.4186663963
 20
-1447.766174953183
 30
0.0
 11
178801.4186663963
 21
-1788.736866485168
 31
0.0
  0
LINE
  5
12F
330
1F
100
AcDbEntity
  8
SECTIONCUTEDGES
100
AcDbLine
 10
179601.4186663963
 20
-24.3768252835705
 30
0.0
 11
179601.4186663963
 21
369.2631335148322
 31
0.0
  0
LINE
  5
130
330
1F
100
AcDbEntity
  8
SECTIONCUTEDGES
100
AcDbLine
 10
179601.4186663963
 20
-3154.036861907531
 30
0.0
 11
179601.4186663963
 21
-2807.394174449955
 31
0.0
  0
LINE
  5
131
330
1F
100
AcDbEntity
  8
SECTIONCUTEDGES
100
AcDbLine
 10
179601.4186663963
 20
-2158.803621381105
 30
0.0
 11
179601.4186663963
 21
-1828.736866485167
 31
0.0
  0
LINE
  5
132
330
1F
100
AcDbEntity
  8
SECTIONCUTEDGES
100
AcDbLine
 10
179601.4186663963
 20
-2807.394174449955
 30
0.0
 11
179601.4186663963
 21
-2554.736866485167
 31
0.0
  0
LINE
  5
133
330
1F
100
AcDbEntity
  8
SECTIONCUTEDGES
100
AcDbLine
 10
179601.4186663963
 20
-310.0330090632928
 30
0.0
 11
179601.4186663963
 21
-24.3768252835705
 31
0.0
  0
LINE
  5
134
330
1F
100
AcDbEntity
  8
SECTIONCUTEDGES
100
AcDbLine
 10
179601.4186663963
 20
-705.9662847236907
 30
0.0
 11
179601.4186663963
 21
-376.7368664851675
 31
0.0
  0
LINE
  5
135
330
1F
100
AcDbEntity
  8
SECTIONCUTEDGES
100
AcDbLine
 10
179601.4186663963
 20
-1036.033009063293
 30
0.0
 11
179601.4186663963
 21
-705.9662847236907
 31
0.0
  0
LINE
  5
136
330
1F
100
AcDbEntity
  8
SECTIONCUTEDGES
100
AcDbLine
 10
179601.4186663963
 20
-1432.803590824769
 30
0.0
 11
179601.4186663963
 21
-1102.736866485168
 31
0.0
  0
LINE
  5
137
330
1F
100
AcDbEntity
  8
SECTIONCUTEDGES
100
AcDbLine
 10
179601.4186663963
 20
-1762.033009063292
 30
0.0
 11
179601.4186663963
 21
-1432.803590824769
 31
0.0
  0
LINE
  5
138
330
1F
100
AcDbEntity
  8
SECTIONCUTEDGES
100
AcDbLine
 10
179601.4186663963
 20
-2488.033070098449
 30
0.0
 11
179601.4186663963
 21
-2158.803621381105
 31
0.0
  0
LINE
  5
139
330
1F
100
AcDbEntity
  8
SECTIONCUTEDGES
100
AcDbLine
 10
179157.3108777747
 20
369.2631335148322
 30
0.0
 11
178833.6142230369
 21
369.2631335148322
 31
0.0
  0
LINE
  5
13A
330
1F
100
AcDbEntity
  8
SECTIONCUTEDGES
100
AcDbLine
 10
179601.4186663963
 20
369.2631335148322
 30
0.0
 11
179157.3108777747
 21
369.2631335148322
 31
0.0
  0
LINE
  5
13B
330
1F
100
AcDbEntity
  8
SECTIONCUTEDGES
100
AcDbLine
 10
178801.4186663963
 20
-336.7368664851675
 30
0.0
 11
179186.8159473899
 21
-336.7368664851675
 31
0.0
  0
LINE
  5
13C
330
1F
100
AcDbEntity
  8
SECTIONCUTEDGES
100
AcDbLine
 10
179186.8159473899
 20
-336.7368664851675
 30
0.0
 11
179571.2355609275
 21
-336.7368664851675
 31
0.0
  0
LINE
  5
13D
330
1F
100
AcDbEntity
  8
SECTIONCUTEDGES
100
AcDbLine
 10
183094.3803296076
 20
369.2631335148322
 30
0.0
 11
182969.50606874
 21
369.2631335148322
 31
0.0
  0
LINE
  5
13E
330
1F
100
AcDbEntity
  8
SECTIONCUTEDGES
100
AcDbLine
 10
183265.7062640525
 20
369.2631335148322
 30
0.0
 11
183094.3803296076
 21
369.2631335148322
 31
0.0
  0
LINE
  5
13F
330
1F
100
AcDbEntity
  8
SECTIONCUTEDGES
100
AcDbLine
 10
182907.2770648338
 20
369.2631335148322
 30
0.0
 11
182017.3892311494
 21
369.2631335148322
 31
0.0
  0
LINE
  5
140
330
1F
100
AcDbEntity
  8
SECTIONCUTEDGES
100
AcDbLine
 10
182017.3892311494
 20
369.2631335148322
 30
0.0
 11
181368.7770648338
 21
369.2631335148322
 31
0.0
  0
LINE
  5
141
330
1F
100
AcDbEntity
  8
SECTIONCUTEDGES
100
AcDbLine
 10
181302.6686663963
 20
369.2631335148322
 30
0.0
 11
180755.5123877195
 21
369.2631335148322
 31
0.0
  0
LINE
  5
142
330
1F
100
AcDbEntity
  8
SECTIONCUTEDGES
100
AcDbLine
 10
180755.5123877195
 20
369.2631335148322
 30
0.0
 11
180206.9645648338
 21
369.2631335148322
 31
0.0
  0
LINE
  5
143
330
1F
100
AcDbEntity
  8
SECTIONCUTEDGES
100
AcDbLine
 10
179966.6384418157
 20
369.2631335148322
 30
0.0
 11
179707.4186663963
 21
369.2631335148322
 31
0.0
  0
LINE
  5
144
330
1F
100
AcDbEntity
  8
SECTIONCUTEDGES
100
AcDbLine
 10
180154.7487445213
 20
369.2631335148322
 30
0.0
 11
179966.6384418157
 21
369.2631335148322
 31
0.0
  0
LINE
  5
145
330
1F
100
AcDbEntity
  8
SECTIONCUTEDGES
100
AcDbLine
 10
181695.2869959422
 20
-647.7172709651466
 30
0.0
 11
181973.8063617087
 21
-414.0117688289176
 31
0.0
  0
LINE
  5
146
330
1F
100
AcDbEntity
  8
SECTIONCUTEDGES
100
AcDbLine
 10
181379.3173758494
 20
-912.8472601375113
 30
0.0
 11
181695.2869959422
 21
-647.7172709651466
 31
0.0
  0
LINE
  5
147
330
1F
100
AcDbEntity
  8
SECTIONCUTEDGES
100
AcDbLine
 10
181366.3353488328
 20
-923.7405126069938
 30
0.0
 11
181379.3173758494
 21
-912.8472601375113
 31
0.0
  0
LINE
  5
148
330
1F
100
AcDbEntity
  8
SECTIONCUTEDGES
100
AcDbLine
 10
181342.6686663963
 20
-943.5991711726674
 30
0.0
 11
181366.3353488328
 21
-923.7405126069938
 31
0.0
  0
LINE
  5
149
330
1F
100
AcDbEntity
  8
SECTIONCUTEDGES
100
AcDbLine
 10
182004.4484515525
 20
-388.3003430476677
 30
0.0
 11
182445.933230742
 21
-17.85061022906187
 31
0.0
  0
LINE
  5
14A
330
1F
100
AcDbEntity
  8
SECTIONCUTEDGES
100
AcDbLine
 10
182445.933230742
 20
-17.85061022906187
 30
0.0
 11
182896.7742412131
 21
360.4500752445688
 31
0.0
  0
LINE
  5
14B
330
1F
100
AcDbEntity
  8
SECTIONCUTEDGES
100
AcDbLine
 10
182896.7742412131
 20
360.4500752445688
 30
0.0
 11
182907.2770648338
 21
369.2631335148322
 31
0.0
  0
LINE
  5
14C
330
1F
100
AcDbEntity
  8
SECTIONCUTEDGES
100
AcDbLine
 10
181342.6686663963
 20
-303.5391796602202
 30
0.0
 11
181342.6686663963
 21
-943.5991711726674
 31
0.0
  0
LINE
  5
14D
330
1F
100
AcDbEntity
  8
SECTIONCUTEDGES
100
AcDbLine
 10
181342.6686663963
 20
338.1486315617076
 30
0.0
 11
181342.6686663963
 21
-303.5391796602202
 31
0.0
  0
LINE
  5
14E
330
1F
100
AcDbEntity
  8
SECTIONCUTEDGES
100
AcDbLine
 10
180206.9645648338
 20
369.2631335148322
 30
0.0
 11
180755.5123877195
 21
-284.4705962678868
 31
0.0
  0
LINE
  5
14F
330
1F
100
AcDbEntity
  8
SECTIONCUTEDGES
100
AcDbLine
 10
180755.5123877195
 20
-284.4705962678868
 30
0.0
 11
181302.6686663963
 21
-936.5459485164176
 31
0.0
  0
LINE
  5
150
330
1F
100
AcDbEntity
  8
SECTIONCUTEDGES
100
AcDbLine
 10
179707.4186663963
 20
-1390.736866485167
 30
0.0
 11
179707.4186663963
 21
-1852.649491485165
 31
0.0
  0
LINE
  5
151
330
1F
100
AcDbEntity
  8
SECTIONCUTEDGES
100
AcDbLine
 10
179707.4186663963
 20
-2698.515432150959
 30
0.0
 11
179707.4186663963
 21
-3154.036861907531
 31
0.0
  0
LINE
  5
152
330
1F
100
AcDbEntity
  8
SECTIONCUTEDGES
100
AcDbLine
 10
179707.4186663963
 20
-2367.953175078917
 30
0.0
 11
179707.4186663963
 21
-2698.515432150959
 31
0.0
  0
LINE
  5
153
330
1F
100
AcDbEntity
  8
SECTIONCUTEDGES
100
AcDbLine
 10
179707.4186663963
 20
-1852.649491485165
 30
0.0
 11
179707.4186663963
 21
-2315.736866485167
 31
0.0
  0
LINE
  5
154
330
1F
100
AcDbEntity
  8
SECTIONCUTEDGES
100
AcDbLine
 10
179707.4186663963
 20
-873.9860770393641
 30
0.0
 11
179707.4186663963
 21
-1324.628712188292
 31
0.0
  0
LINE
  5
155
330
1F
100
AcDbEntity
  8
SECTIONCUTEDGES
100
AcDbLine
 10
179707.4186663963
 20
-424.4866223445426
 30
0.0
 11
179707.4186663963
 21
-873.9860770393641
 31
0.0
  0
LINE
  5
156
330
1F
100
AcDbEntity
  8
SECTIONCUTEDGES
100
AcDbLine
 10
179707.4186663963
 20
369.2631335148322
 30
0.0
 11
179707.4186663963
 21
-66.7152463238727
 31
0.0
  0
LINE
  5
157
330
1F
100
AcDbEntity
  8
SECTIONCUTEDGES
100
AcDbLine
 10
179707.4186663963
 20
-66.7152463238727
 30
0.0
 11
179707.4186663963
 21
-384.4866223445427
 31
0.0
  0
LINE
  5
158
330
1F
100
AcDbEntity
  8
SECTIONCUTEDGES
100
AcDbLine
 10
180470.5827210179
 20
-7.133113319882071
 30
0.0
 11
180154.7487445213
 21
369.2631335148322
 31
0.0
  0
LINE
  5
159
330
1F
100
AcDbEntity
  8
SECTIONCUTEDGES
100
AcDbLine
 10
180787.2199359275
 20
-384.4866223445427
 30
0.0
 11
180470.5827210179
 21
-7.133113319882071
 31
0.0
  0
LINE
  5
15A
330
1F
100
AcDbEntity
  8
SECTIONCUTEDGES
100
AcDbLine
 10
179707.4186663963
 20
-1324.628712188292
 30
0.0
 11
180244.4736403928
 21
-873.9860770393641
 31
0.0
  0
LINE
  5
15B
330
1F
100
AcDbEntity
  8
SECTIONCUTEDGES
100
AcDbLine
 10
180244.4736403928
 20
-873.9860770393641
 30
0.0
 11
180780.16622499
 21
-424.4866223445426
 31
0.0
  0
LINE
  5
15C
330
1F
100
AcDbEntity
  8
SECTIONCUTEDGES
100
AcDbLine
 10
181292.0270648338
 20
-986.0928235164176
 30
0.0
 11
181060.5765130442
 21
-710.2607834163184
 31
0.0
  0
LINE
  5
15D
330
1F
100
AcDbEntity
  8
SECTIONCUTEDGES
100
AcDbLine
 10
181060.5765130442
 20
-710.2607834163184
 30
0.0
 11
180829.71309999
 21
-435.1284680476678
 31
0.0
  0
LINE
  5
15E
330
1F
100
AcDbEntity
  8
SECTIONCUTEDGES
100
AcDbLine
 10
180298.7075543382
 20
-1350.736866485168
 30
0.0
 11
180857.4606585837
 21
-1350.736866485168
 31
0.0
  0
LINE
  5
15F
330
1F
100
AcDbEntity
  8
SECTIONCUTEDGES
100
AcDbLine
 10
179738.53341249
 20
-1350.736866485168
 30
0.0
 11
180298.7075543382
 21
-1350.736866485168
 31
0.0
  0
LINE
  5
160
330
1F
100
AcDbEntity
  8
SECTIONCUTEDGES
100
AcDbLine
 10
179707.4186663963
 20
-2315.736866485167
 30
0.0
 11
180259.3047078172
 21
-1852.649491485165
 31
0.0
  0
LINE
  5
161
330
1F
100
AcDbEntity
  8
SECTIONCUTEDGES
100
AcDbLine
 10
180259.3047078172
 20
-1852.649491485165
 30
0.0
 11
180809.7907367088
 21
-1390.736866485167
 31
0.0
  0
LINE
  5
162
330
1F
100
AcDbEntity
  8
SECTIONCUTEDGES
100
AcDbLine
 10
181075.0198113767
 20
-1168.183296033506
 30
0.0
 11
181292.0270648338
 21
-986.0928235164176
 31
0.0
  0
LINE
  5
163
330
1F
100
AcDbEntity
  8
SECTIONCUTEDGES
100
AcDbLine
 10
180857.4606585837
 20
-1350.736866485168
 30
0.0
 11
181075.0198113767
 21
-1168.183296033506
 31
0.0
  0
LINE
  5
164
330
1F
100
AcDbEntity
  8
SECTIONCUTEDGES
100
AcDbLine
 10
177497.7055316306
 20
369.2631335148322
 30
0.0
 11
177192.409488719
 21
369.2631335148322
 31
0.0
  0
LINE
  5
165
330
1F
100
AcDbEntity
  8
SECTIONCUTEDGES
100
AcDbLine
 10
177192.409488719
 20
369.2631335148322
 30
0.0
 11
176771.7054095603
 21
369.2631335148322
 31
0.0
  0
LINE
  5
166
330
1F
100
AcDbEntity
  8
SECTIONCUTEDGES
100
AcDbLine
 10
178035.3662550639
 20
369.2631335148322
 30
0.0
 11
177554.2741351463
 21
369.2631335148322
 31
0.0
  0
LINE
  5
167
330
1F
100
AcDbEntity
  8
SECTIONCUTEDGES
100
AcDbLine
 10
178695.4186663963
 20
369.2631335148322
 30
0.0
 11
178035.3662550639
 21
369.2631335148322
 31
0.0
  0
LINE
  5
168
330
1F
100
AcDbEntity
  8
SECTIONCUTEDGES
100
AcDbLine
 10
178695.4186663963
 20
-3154.036861907531
 30
0.0
 11
178695.4186663963
 21
-1394.013988194242
 31
0.0
  0
LINE
  5
169
330
1F
100
AcDbEntity
  8
SECTIONCUTEDGES
100
AcDbLine
 10
178695.4186663963
 20
-1394.013988194242
 30
0.0
 11
178695.4186663963
 21
369.2631335148322
 31
0.0
  0
LINE
  5
16A
330
1F
100
AcDbEntity
  8
SECTIONCUTEDGES
100
AcDbLine
 10
179968.7538981798
 20
486.6632799992074
 30
0.0
 11
183265.7062640525
 21
486.6632799992074
 31
0.0
  0
LINE
  5
16B
330
1F
100
AcDbEntity
  8
SECTIONCUTEDGES
100
AcDbLine
 10
176665.7055316306
 20
486.6632799992074
 30
0.0
 11
179968.7538981798
 21
486.6632799992074
 31
0.0
  0
LINE
  5
16C
330
1F
100
AcDbEntity
  8
SECTIONCUTEDGES
100
AcDbLine
 10
183265.7062640525
 20
374.5725472792172
 30
0.0
 11
183265.7062640525
 21
369.2631335148322
 31
0.0
  0
LINE
  5
16D
330
1F
100
AcDbEntity
  8
SECTIONCUTEDGES
100
AcDbLine
 10
183265.7062640525
 20
486.6632799992074
 30
0.0
 11
183265.7062640525
 21
481.3536388217174
 31
0.0
  0
LINE
  5
16E
330
1F
100
AcDbEntity
  8
SECTIONCUTEDGES
100
AcDbLine
 10
183265.7062640525
 20
374.9630846867075
 30
0.0
 11
183265.7062640525
 21
374.5725472792172
 31
0.0
  0
LINE
  5
16F
330
1F
100
AcDbEntity
  8
SECTIONCUTEDGES
100
AcDbLine
 10
183265.7062640525
 20
383.3153017642349
 30
0.0
 11
183265.7062640525
 21
374.9630846867075
 31
0.0
  0
LINE
  5
170
330
1F
100
AcDbEntity
  8
SECTIONCUTEDGES
100
AcDbLine
 10
183265.7062640525
 20
427.5108515558271
 30
0.0
 11
183265.7062640525
 21
383.3153017642349
 31
0.0
  0
LINE
  5
171
330
1F
100
AcDbEntity
  8
SECTIONCUTEDGES
100
AcDbLine
 10
183265.7062640525
 20
472.8153017642347
 30
0.0
 11
183265.7062640525
 21
427.5108515558271
 31
0.0
  0
LINE
  5
172
330
1F
100
AcDbEntity
  8
SECTIONCUTEDGES
100
AcDbLine
 10
183265.7062640525
 20
480.9630846867072
 30
0.0
 11
183265.7062640525
 21
472.8153017642347
 31
0.0
  0
LINE
  5
173
330
1F
100
AcDbEntity
  8
SECTIONCUTEDGES
100
AcDbLine
 10
183265.7062640525
 20
481.3536388217174
 30
0.0
 11
183265.7062640525
 21
480.9630846867072
 31
0.0
  0
LINE
  5
174
330
1F
100
AcDbEntity
  8
SECTIONCUTEDGES
100
AcDbLine
 10
176665.7055316306
 20
-2450.036854278136
 30
0.0
 11
176665.7055316306
 21
-1038.841521131169
 31
0.0
  0
LINE
  5
175
330
1F
100
AcDbEntity
  8
SECTIONCUTEDGES
100
AcDbLine
 10
176665.7055316306
 20
-1038.841521131169
 30
0.0
 11
176665.7055316306
 21
176.549104158156
 31
0.0
  0
LINE
  5
176
330
1F
100
AcDbEntity
  8
SECTIONCUTEDGES
100
AcDbLine
 10
176665.7055316306
 20
176.549104158156
 30
0.0
 11
176665.7055316306
 21
374.9630846867075
 31
0.0
  0
LINE
  5
177
330
1F
100
AcDbEntity
  8
SECTIONCUTEDGES
100
AcDbLine
 10
176665.7055316306
 20
374.9630846867075
 30
0.0
 11
176665.7055316306
 21
383.3153017642349
 31
0.0
  0
LINE
  5
178
330
1F
100
AcDbEntity
  8
SECTIONCUTEDGES
100
AcDbLine
 10
176665.7055316306
 20
383.3153017642349
 30
0.0
 11
176665.7055316306
 21
427.5108515558271
 31
0.0
  0
LINE
  5
179
330
1F
100
AcDbEntity
  8
SECTIONCUTEDGES
100
AcDbLine
 10
176665.7055316306
 20
427.5108515558271
 30
0.0
 11
176665.7055316306
 21
472.8153017642347
 31
0.0
  0
LINE
  5
17A
330
1F
100
AcDbEntity
  8
SECTIONCUTEDGES
100
AcDbLine
 10
176665.7055316306
 20
472.8153017642347
 30
0.0
 11
176665.7055316306
 21
480.9630846867072
 31
0.0
  0
LINE
  5
17B
330
1F
100
AcDbEntity
  8
SECTIONCUTEDGES
100
AcDbLine
 10
176665.7055316306
 20
480.9630846867072
 30
0.0
 11
176665.7055316306
 21
481.3634381260629
 31
0.0
  0
LINE
  5
17C
330
1F
100
AcDbEntity
  8
SECTIONCUTEDGES
100
AcDbLine
 10
176665.7055316306
 20
481.3634381260629
 30
0.0
 11
176665.7055316306
 21
486.6632799992074
 31
0.0
  0
LINE
  5
17D
330
1F
100
AcDbEntity
  8
SECTIONCUTEDGES
100
AcDbLine
 10
176771.7054095603
 20
-50.66443701157469
 30
0.0
 11
176771.7054095603
 21
-356.7368664851677
 31
0.0
  0
LINE
  5
17E
330
1F
100
AcDbEntity
  8
SECTIONCUTEDGES
100
AcDbLine
 10
176771.7054095603
 20
369.2631335148322
 30
0.0
 11
176771.7054095603
 21
-50.66443701157469
 31
0.0
  0
LINE
  5
17F
330
1F
100
AcDbEntity
  8
SECTIONCUTEDGES
100
AcDbLine
 10
176771.7054095603
 20
-413.3054700007925
 30
0.0
 11
176771.7054095603
 21
-1269.78746386129
 31
0.0
  0
LINE
  5
180
330
1F
100
AcDbEntity
  8
SECTIONCUTEDGES
100
AcDbLine
 10
176771.7054095603
 20
-1269.78746386129
 30
0.0
 11
176771.7054095603
 21
-2450.036854278136
 31
0.0
  0
LINE
  5
181
330
1F
100
AcDbEntity
  8
SECTIONCUTEDGES
100
AcDbLine
 10
182940.7210229441
 20
345.1096948209844
 30
0.0
 11
182157.9139099143
 21
-311.7437145857579
 31
0.0
  0
LINE
  5
182
330
1F
100
AcDbEntity
  8
SECTIONCUTEDGES
100
AcDbLine
 10
182157.9139099143
 20
-311.7437145857579
 30
0.0
 11
181389.1695329294
 21
-956.7969903523554
 31
0.0
  0
LINE
  5
183
330
1F
100
AcDbEntity
  8
SECTIONCUTEDGES
100
AcDbLine
 10
180513.601131594
 20
-1691.485653947321
 30
0.0
 11
179707.4186663963
 21
-2367.953175078917
 31
0.0
  0
LINE
  5
184
330
1F
100
AcDbEntity
  8
SECTIONCUTEDGES
100
AcDbLine
 10
180528.9416342429
 20
-1678.613736526667
 30
0.0
 11
180513.601131594
 21
-1691.485653947321
 31
0.0
  0
LINE
  5
185
330
1F
100
AcDbEntity
  8
SECTIONCUTEDGES
100
AcDbLine
 10
181387.1535418064
 20
-958.4884429915154
 30
0.0
 11
180528.9416342429
 21
-1678.613736526667
 31
0.0
  0
LINE
  5
186
330
1F
100
AcDbEntity
  8
SECTIONCUTEDGES
100
AcDbLine
 10
181389.1695329294
 20
-956.7969903523554
 30
0.0
 11
181387.1535418064
 21
-958.4884429915154
 31
0.0
  0
LINE
  5
187
330
1F
100
AcDbEntity
  8
SECTIONCUTEDGES
100
AcDbLine
 10
182959.4481453636
 20
360.8235958890994
 30
0.0
 11
182940.7210229441
 21
345.1096948209844
 31
0.0
  0
LINE
  5
188
330
1F
100
AcDbEntity
  8
SECTIONCUTEDGES
100
AcDbLine
 10
182969.50606874
 20
369.2631335148322
 30
0.0
 11
182959.4481453636
 21
360.8235958890994
 31
0.0
  0
LINE
  5
189
330
1F
100
AcDbEntity
  8
SECTIONCUTEDGES
100
AcDbLine
 10
180257.9046952879
 20
-1390.736866485167
 30
0.0
 11
179707.4186663963
 21
-1390.736866485167
 31
0.0
  0
LINE
  5
18A
330
1F
100
AcDbEntity
  8
SECTIONCUTEDGES
100
AcDbLine
 10
180809.7907367088
 20
-1390.736866485167
 30
0.0
 11
180257.9046952879
 21
-1390.736866485167
 31
0.0
  0
LINE
  5
18B
330
1F
100
AcDbEntity
  8
SECTIONCUTEDGES
100
AcDbLine
 10
180284.8161553415
 20
-892.3512559334068
 30
0.0
 11
179738.53341249
 21
-1350.736866485168
 31
0.0
  0
LINE
  5
18C
330
1F
100
AcDbEntity
  8
SECTIONCUTEDGES
100
AcDbLine
 10
180829.71309999
 20
-435.1284680476678
 30
0.0
 11
180284.8161553415
 21
-892.3512559334068
 31
0.0
  0
LINE
  5
18D
330
1F
100
AcDbEntity
  8
SECTIONCUTEDGES
100
AcDbLine
 10
180780.16622499
 20
-424.4866223445426
 30
0.0
 11
180244.4736403928
 21
-424.4866223445426
 31
0.0
  0
LINE
  5
18E
330
1F
100
AcDbEntity
  8
SECTIONCUTEDGES
100
AcDbLine
 10
180244.4736403928
 20
-424.4866223445426
 30
0.0
 11
179707.4186663963
 21
-424.4866223445426
 31
0.0
  0
LINE
  5
18F
330
1F
100
AcDbEntity
  8
SECTIONCUTEDGES
100
AcDbLine
 10
179707.4186663963
 20
-384.4866223445427
 30
0.0
 11
180248.0049749681
 21
-384.4866223445427
 31
0.0
  0
LINE
  5
190
330
1F
100
AcDbEntity
  8
SECTIONCUTEDGES
100
AcDbLine
 10
180248.0049749681
 20
-384.4866223445427
 30
0.0
 11
180787.2199359275
 21
-384.4866223445427
 31
0.0
  0
LINE
  5
191
330
1F
100
AcDbEntity
  8
SECTIONCUTEDGES
100
AcDbLine
 10
181302.6686663963
 20
-936.5459485164176
 30
0.0
 11
181302.6686663963
 21
-284.4705962678868
 31
0.0
  0
LINE
  5
192
330
1F
100
AcDbEntity
  8
SECTIONCUTEDGES
100
AcDbLine
 10
181302.6686663963
 20
-284.4705962678868
 30
0.0
 11
181302.6686663963
 21
369.2631335148322
 31
0.0
  0
LINE
  5
193
330
1F
100
AcDbEntity
  8
SECTIONCUTEDGES
100
AcDbLine
 10
181658.638286489
 20
-38.40919048785543
 30
0.0
 11
181342.6686663963
 21
338.1486315617076
 31
0.0
  0
LINE
  5
194
330
1F
100
AcDbEntity
  8
SECTIONCUTEDGES
100
AcDbLine
 10
181973.8063617087
 20
-414.0117688289176
 30
0.0
 11
181658.638286489
 21
-38.40919048785543
 31
0.0
  0
LINE
  5
195
330
1F
100
AcDbEntity
  8
SECTIONCUTEDGES
100
AcDbLine
 10
181368.7770648338
 20
369.2631335148322
 30
0.0
 11
181686.2091068625
 21
-9.037551958798476
 31
0.0
  0
LINE
  5
196
330
1F
100
AcDbEntity
  8
SECTIONCUTEDGES
100
AcDbLine
 10
181686.2091068625
 20
-9.037551958798476
 30
0.0
 11
182004.4484515525
 21
-388.3003430476677
 31
0.0
  0
LINE
  5
197
330
1F
100
AcDbEntity
  8
SECTIONCUTEDGES
100
AcDbLine
 10
179601.4186663963
 20
-2554.736866485167
 30
0.0
 11
179200.9106663963
 21
-2554.736866485167
 31
0.0
  0
LINE
  5
198
330
1F
100
AcDbEntity
  8
SECTIONCUTEDGES
100
AcDbLine
 10
179200.9106663963
 20
-2554.736866485167
 30
0.0
 11
178801.4186663963
 21
-2554.736866485167
 31
0.0
  0
LINE
  5
199
330
1F
100
AcDbEntity
  8
SECTIONCUTEDGES
100
AcDbLine
 10
179185.8382799338
 20
-2514.736866485167
 30
0.0
 11
179571.2355609275
 21
-2514.736866485167
 31
0.0
  0
LINE
  5
19A
330
1F
100
AcDbEntity
  8
SECTIONCUTEDGES
100
AcDbLine
 10
178801.4186663963
 20
-2514.736866485167
 30
0.0
 11
179185.8382799338
 21
-2514.736866485167
 31
0.0
  0
LINE
  5
19B
330
1F
100
AcDbEntity
  8
SECTIONCUTEDGES
100
AcDbLine
 10
179185.8382799338
 20
-1788.736866485168
 30
0.0
 11
179571.2355609275
 21
-1788.736866485168
 31
0.0
  0
LINE
  5
19C
330
1F
100
AcDbEntity
  8
SECTIONCUTEDGES
100
AcDbLine
 10
178801.4186663963
 20
-1788.736866485168
 30
0.0
 11
179185.8382799338
 21
-1788.736866485168
 31
0.0
  0
LINE
  5
19D
330
1F
100
AcDbEntity
  8
SECTIONCUTEDGES
100
AcDbLine
 10
179229.2925023557
 20
-1828.736866485167
 30
0.0
 11
178856.2199359275
 21
-1828.736866485167
 31
0.0
  0
LINE
  5
19E
330
1F
100
AcDbEntity
  8
SECTIONCUTEDGES
100
AcDbLine
 10
179601.4186663963
 20
-1828.736866485167
 30
0.0
 11
179229.2925023557
 21
-1828.736866485167
 31
0.0
  0
LINE
  5
19F
330
1F
100
AcDbEntity
  8
SECTIONCUTEDGES
100
AcDbLine
 10
179185.8382799338
 20
-1062.736866485168
 30
0.0
 11
179571.2355609275
 21
-1062.736866485168
 31
0.0
  0
LINE
  5
1A0
330
1F
100
AcDbEntity
  8
SECTIONCUTEDGES
100
AcDbLine
 10
178801.4186663963
 20
-1062.736866485168
 30
0.0
 11
179185.8382799338
 21
-1062.736866485168
 31
0.0
  0
LINE
  5
1A1
330
1F
100
AcDbEntity
  8
SECTIONCUTEDGES
100
AcDbLine
 10
179229.2925023557
 20
-1102.736866485168
 30
0.0
 11
178856.2199359275
 21
-1102.736866485168
 31
0.0
  0
LINE
  5
1A2
330
1F
100
AcDbEntity
  8
SECTIONCUTEDGES
100
AcDbLine
 10
179601.4186663963
 20
-1102.736866485168
 30
0.0
 11
179229.2925023557
 21
-1102.736866485168
 31
0.0
  0
LINE
  5
1A3
330
1F
100
AcDbEntity
  8
SECTIONCUTEDGES
100
AcDbLine
 10
179229.2925023557
 20
-376.7368664851675
 30
0.0
 11
178856.2199359275
 21
-376.7368664851675
 31
0.0
  0
LINE
  5
1A4
330
1F
100
AcDbEntity
  8
SECTIONCUTEDGES
100
AcDbLine
 10
179601.4186663963
 20
-376.7368664851675
 30
0.0
 11
179229.2925023557
 21
-376.7368664851675
 31
0.0
  0
LINE
  5
1A5
330
1F
100
AcDbEntity
  8
SECTIONCUTEDGES
100
AcDbLine
 10
177134.2444605179
 20
5.802123514829762
 30
0.0
 11
177497.7055316306
 21
369.2631335148322
 31
0.0
  0
LINE
  5
1A6
330
1F
100
AcDbEntity
  8
SECTIONCUTEDGES
100
AcDbLine
 10
176771.7054095603
 20
-356.7368664851677
 30
0.0
 11
177134.2444605179
 21
5.802123514829762
 31
0.0
  0
LINE
  5
1A7
330
1F
100
AcDbEntity
  8
SECTIONCUTEDGES
100
AcDbLine
 10
177163.486703494
 20
-21.52423717974539
 30
0.0
 11
176771.7054095603
 21
-413.3054700007925
 31
0.0
  0
LINE
  5
1A8
330
1F
100
AcDbEntity
  8
SECTIONCUTEDGES
100
AcDbLine
 10
177554.2741351463
 20
369.2631335148322
 30
0.0
 11
177163.486703494
 21
-21.52423717974539
 31
0.0
  0
LINE
  5
1A9
330
1F
100
AcDbEntity
  8
SECTIONCUTEDGES
100
AcDbLine
 10
179571.2355609275
 20
-336.7368664851675
 30
0.0
 11
179185.8382799338
 21
4.233825046817074
 31
0.0
  0
LINE
  5
1AA
330
1F
100
AcDbEntity
  8
SECTIONCUTEDGES
100
AcDbLine
 10
179185.8382799338
 20
4.233825046817074
 30
0.0
 11
178801.4186663963
 21
344.3395495304576
 31
0.0
  0
LINE
  5
1AB
330
1F
100
AcDbEntity
  8
SECTIONCUTEDGES
100
AcDbLine
 10
178833.6142230369
 20
369.2631335148322
 30
0.0
 11
179217.028888895
 21
30.04641527630868
 31
0.0
  0
LINE
  5
1AC
330
1F
100
AcDbEntity
  8
SECTIONCUTEDGES
100
AcDbLine
 10
179217.028888895
 20
30.04641527630868
 30
0.0
 11
179601.4186663963
 21
-310.0330090632928
 31
0.0
  0
LINE
  5
1AD
330
1F
100
AcDbEntity
  8
SECTIONCUTEDGES
100
AcDbLine
 10
179228.3460999681
 20
-705.9662847236907
 30
0.0
 11
179601.4186663963
 21
-1036.033009063293
 31
0.0
  0
LINE
  5
1AE
330
1F
100
AcDbEntity
  8
SECTIONCUTEDGES
100
AcDbLine
 10
178856.2199359275
 20
-376.7368664851675
 30
0.0
 11
179228.3460999681
 21
-705.9662847236907
 31
0.0
  0
LINE
  5
1AF
330
1F
100
AcDbEntity
  8
SECTIONCUTEDGES
100
AcDbLine
 10
179571.2355609275
 20
-1062.736866485168
 30
0.0
 11
179186.8159473899
 21
-722.6311420015272
 31
0.0
  0
LINE
  5
1B0
330
1F
100
AcDbEntity
  8
SECTIONCUTEDGES
100
AcDbLine
 10
179186.8159473899
 20
-722.6311420015272
 30
0.0
 11
178801.4186663963
 21
-381.6604504695426
 31
0.0
  0
LINE
  5
1B1
330
1F
100
AcDbEntity
  8
SECTIONCUTEDGES
100
AcDbLine
 10
179228.3460999681
 20
-1431.966284723691
 30
0.0
 11
179601.4186663963
 21
-1762.033009063292
 31
0.0
  0
LINE
  5
1B2
330
1F
100
AcDbEntity
  8
SECTIONCUTEDGES
100
AcDbLine
 10
178856.2199359275
 20
-1102.736866485168
 30
0.0
 11
179228.3460999681
 21
-1431.966284723691
 31
0.0
  0
LINE
  5
1B3
330
1F
100
AcDbEntity
  8
SECTIONCUTEDGES
100
AcDbLine
 10
179571.2355609275
 20
-1788.736866485168
 30
0.0
 11
179186.8159473899
 21
-1448.631142001527
 31
0.0
  0
LINE
  5
1B4
330
1F
100
AcDbEntity
  8
SECTIONCUTEDGES
100
AcDbLine
 10
179186.8159473899
 20
-1448.631142001527
 30
0.0
 11
178801.4186663963
 21
-1107.660450469542
 31
0.0
  0
LINE
  5
1B5
330
1F
100
AcDbEntity
  8
SECTIONCUTEDGES
100
AcDbLine
 10
179228.3460999681
 20
-2157.966315202511
 30
0.0
 11
179601.4186663963
 21
-2488.033070098449
 31
0.0
  0
LINE
  5
1B6
330
1F
100
AcDbEntity
  8
SECTIONCUTEDGES
100
AcDbLine
 10
178856.2199359275
 20
-1828.736866485167
 30
0.0
 11
179228.3460999681
 21
-2157.966315202511
 31
0.0
  0
LINE
  5
1B7
330
1F
100
AcDbEntity
  8
SECTIONCUTEDGES
100
AcDbLine
 10
179571.2355609275
 20
-2514.736866485167
 30
0.0
 11
179186.8159473899
 21
-2174.631202959169
 31
0.0
  0
LINE
  5
1B8
330
1F
100
AcDbEntity
  8
SECTIONCUTEDGES
100
AcDbLine
 10
179186.8159473899
 20
-2174.631202959169
 30
0.0
 11
178801.4186663963
 21
-1833.660572539855
 31
0.0
  0
LINE
  5
1B9
330
1F
100
AcDbEntity
  8
SECTIONCUTEDGES
100
AcDbLine
 10
176671.014945395
 20
-2450.036854278136
 30
0.0
 11
176665.7055316306
 21
-2450.036854278136
 31
0.0
  0
LINE
  5
1BA
330
1F
100
AcDbEntity
  8
SECTIONCUTEDGES
100
AcDbLine
 10
176671.4054828025
 20
-2450.036854278136
 30
0.0
 11
176671.014945395
 21
-2450.036854278136
 31
0.0
  0
LINE
  5
1BB
330
1F
100
AcDbEntity
  8
SECTIONCUTEDGES
100
AcDbLine
 10
176718.1194261689
 20
-2450.036854278136
 30
0.0
 11
176671.4054828025
 21
-2450.036854278136
 31
0.0
  0
LINE
  5
1BC
330
1F
100
AcDbEntity
  8
SECTIONCUTEDGES
100
AcDbLine
 10
176766.0054583884
 20
-2450.036854278136
 30
0.0
 11
176718.1194261689
 21
-2450.036854278136
 31
0.0
  0
LINE
  5
1BD
330
1F
100
AcDbEntity
  8
SECTIONCUTEDGES
100
AcDbLine
 10
176766.3959957959
 20
-2450.036854278136
 30
0.0
 11
176766.0054583884
 21
-2450.036854278136
 31
0.0
  0
LINE
  5
1BE
330
1F
100
AcDbEntity
  8
SECTIONCUTEDGES
100
AcDbLine
 10
176771.7054095603
 20
-2450.036854278136
 30
0.0
 11
176766.3959957959
 21
-2450.036854278136
 31
0.0
  0
LINE
  5
1BF
330
1F
100
AcDbEntity
  8
SECTIONCUTEDGES
100
AcDbLine
 10
179606.7185082694
 20
-3154.036861907531
 30
0.0
 11
179601.4186663963
 21
-3154.036861907531
 31
0.0
  0
LINE
  5
1C0
330
1F
100
AcDbEntity
  8
SECTIONCUTEDGES
100
AcDbLine
 10
179607.1188617088
 20
-3154.036861907531
 30
0.0
 11
179606.7185082694
 21
-3154.036861907531
 31
0.0
  0
LINE
  5
1C1
330
1F
100
AcDbEntity
  8
SECTIONCUTEDGES
100
AcDbLine
 10
179653.8326242384
 20
-3154.036861907531
 30
0.0
 11
179607.1188617088
 21
-3154.036861907531
 31
0.0
  0
LINE
  5
1C2
330
1F
100
AcDbEntity
  8
SECTIONCUTEDGES
100
AcDbLine
 10
179701.7184710838
 20
-3154.036861907531
 30
0.0
 11
179653.8326242384
 21
-3154.036861907531
 31
0.0
  0
LINE
  5
1C3
330
1F
100
AcDbEntity
  8
SECTIONCUTEDGES
100
AcDbLine
 10
179702.1090252188
 20
-3154.036861907531
 30
0.0
 11
179701.7184710838
 21
-3154.036861907531
 31
0.0
  0
LINE
  5
1C4
330
1F
100
AcDbEntity
  8
SECTIONCUTEDGES
100
AcDbLine
 10
179707.4186663963
 20
-3154.036861907531
 30
0.0
 11
179702.1090252188
 21
-3154.036861907531
 31
0.0
  0
LINE
  5
1C5
330
1F
100
AcDbEntity
  8
SECTIONCUTEDGES
100
AcDbLine
 10
178700.7185082694
 20
-3154.036861907531
 30
0.0
 11
178695.4186663963
 21
-3154.036861907531
 31
0.0
  0
LINE
  5
1C6
330
1F
100
AcDbEntity
  8
SECTIONCUTEDGES
100
AcDbLine
 10
178701.1188617088
 20
-3154.036861907531
 30
0.0
 11
178700.7185082694
 21
-3154.036861907531
 31
0.0
  0
LINE
  5
1C7
330
1F
100
AcDbEntity
  8
SECTIONCUTEDGES
100
AcDbLine
 10
178747.8327447962
 20
-3154.036861907531
 30
0.0
 11
178701.1188617088
 21
-3154.036861907531
 31
0.0
  0
LINE
  5
1C8
330
1F
100
AcDbEntity
  8
SECTIONCUTEDGES
100
AcDbLine
 10
178795.7187152244
 20
-3154.036861907531
 30
0.0
 11
178747.8327447962
 21
-3154.036861907531
 31
0.0
  0
LINE
  5
1C9
330
1F
100
AcDbEntity
  8
SECTIONCUTEDGES
100
AcDbLine
 10
178796.1092526319
 20
-3154.036861907531
 30
0.0
 11
178795.7187152244
 21
-3154.036861907531
 31
0.0
  0
LINE
  5
1CA
330
1F
100
AcDbEntity
  8
SECTIONCUTEDGES
100
AcDbLine
 10
178801.4186663963
 20
-3154.036861907531
 30
0.0
 11
178796.1092526319
 21
-3154.036861907531
 31
0.0
  0
LINE
  5
1CB
330
1F
100
AcDbEntity
  8
SECTIONCUTEDGES
100
AcDbLine
 10
179587.8553133092
 20
-336.7368664851675
 30
0.0
 11
179601.4186663963
 21
-336.7368664851675
 31
0.0
  0
LINE
  5
1CC
330
1F
100
AcDbEntity
  8
SECTIONCUTEDGES
100
AcDbLine
 10
179574.2536273338
 20
-336.7368664851675
 30
0.0
 11
179587.8553133092
 21
-336.7368664851675
 31
0.0
  0
LINE
  5
1CD
330
1F
100
AcDbEntity
  8
SECTIONCUTEDGES
100
AcDbLine
 10
179601.4186663963
 20
-324.7030636775503
 30
0.0
 11
179601.4186663963
 21
-312.7031750789175
 31
0.0
  0
LINE
  5
1CE
330
1F
100
AcDbEntity
  8
SECTIONCUTEDGES
100
AcDbLine
 10
179601.4186663963
 20
-336.7368664851675
 30
0.0
 11
179601.4186663963
 21
-324.7030636775503
 31
0.0
  0
LINE
  5
1CF
330
1F
100
AcDbEntity
  8
SECTIONCUTEDGES
100
AcDbLine
 10
179601.4186663963
 20
-312.7031750789175
 30
0.0
 11
179215.4633089242
 21
28.76114433568978
 31
0.0
  0
LINE
  5
1D0
330
1F
100
AcDbEntity
  8
SECTIONCUTEDGES
100
AcDbLine
 10
179215.4633089242
 20
28.76114433568978
 30
0.0
 11
178830.5956683494
 21
369.2631335148322
 31
0.0
  0
LINE
  5
1D1
330
1F
100
AcDbEntity
  8
SECTIONCUTEDGES
100
AcDbLine
 10
178801.4186663963
 20
347.0099596867075
 30
0.0
 11
179187.2908688648
 21
5.61896797257103
 31
0.0
  0
LINE
  5
1D2
330
1F
100
AcDbEntity
  8
SECTIONCUTEDGES
100
AcDbLine
 10
179187.2908688648
 20
5.61896797257103
 30
0.0
 11
179574.2536273338
 21
-336.7368664851675
 31
0.0
  0
LINE
  5
1D3
330
1F
100
AcDbEntity
  8
SECTIONCUTEDGES
100
AcDbLine
 10
178816.0277533686
 20
369.2631335148322
 30
0.0
 11
178801.4186663963
 21
369.2631335148322
 31
0.0
  0
LINE
  5
1D4
330
1F
100
AcDbEntity
  8
SECTIONCUTEDGES
100
AcDbLine
 10
178830.5956683494
 20
369.2631335148322
 30
0.0
 11
178816.0277533686
 21
369.2631335148322
 31
0.0
  0
LINE
  5
1D5
330
1F
100
AcDbEntity
  8
SECTIONCUTEDGES
100
AcDbLine
 10
178801.4186663963
 20
358.1208457503463
 30
0.0
 11
178801.4186663963
 21
347.0099596867075
 31
0.0
  0
LINE
  5
1D6
330
1F
100
AcDbEntity
  8
SECTIONCUTEDGES
100
AcDbLine
 10
178801.4186663963
 20
369.2631335148322
 30
0.0
 11
178801.4186663963
 21
358.1208457503463
 31
0.0
  0
LINE
  5
1D7
330
1F
100
AcDbEntity
  8
SECTIONCUTEDGES
100
AcDbLine
 10
179601.4186663963
 20
-356.7622664851674
 30
0.0
 11
179601.4186663963
 21
-338.7368664851674
 31
0.0
  0
LINE
  5
1D8
330
1F
100
AcDbEntity
  8
SECTIONCUTEDGES
100
AcDbLine
 10
179601.4186663963
 20
-374.7368664851675
 30
0.0
 11
179601.4186663963
 21
-356.7622664851674
 31
0.0
  0
LINE
  5
1D9
330
1F
100
AcDbEntity
  8
SECTIONCUTEDGES
100
AcDbLine
 10
178801.4186663963
 20
-374.7368664851675
 30
0.0
 11
179200.8542219518
 21
-374.7368664851675
 31
0.0
  0
LINE
  5
1DA
330
1F
100
AcDbEntity
  8
SECTIONCUTEDGES
100
AcDbLine
 10
179200.8542219518
 20
-374.7368664851675
 30
0.0
 11
179601.4186663963
 21
-374.7368664851675
 31
0.0
  0
LINE
  5
1DB
330
1F
100
AcDbEntity
  8
SECTIONCUTEDGES
100
AcDbLine
 10
179201.9831108407
 20
-338.7368664851674
 30
0.0
 11
178801.4186663963
 21
-338.7368664851674
 31
0.0
  0
LINE
  5
1DC
330
1F
100
AcDbEntity
  8
SECTIONCUTEDGES
100
AcDbLine
 10
179601.4186663963
 20
-338.7368664851674
 30
0.0
 11
179201.9831108407
 21
-338.7368664851674
 31
0.0
  0
LINE
  5
1DD
330
1F
100
AcDbEntity
  8
SECTIONCUTEDGES
100
AcDbLine
 10
178801.4186663963
 20
-338.7368664851674
 30
0.0
 11
178801.4186663963
 21
-356.7114664851675
 31
0.0
  0
LINE
  5
1DE
330
1F
100
AcDbEntity
  8
SECTIONCUTEDGES
100
AcDbLine
 10
178801.4186663963
 20
-356.7114664851675
 30
0.0
 11
178801.4186663963
 21
-374.7368664851675
 31
0.0
  0
LINE
  5
1DF
330
1F
100
AcDbEntity
  8
SECTIONCUTEDGES
100
AcDbLine
 10
179601.4186663963
 20
-1082.762266485168
 30
0.0
 11
179601.4186663963
 21
-1064.736866485168
 31
0.0
  0
LINE
  5
1E0
330
1F
100
AcDbEntity
  8
SECTIONCUTEDGES
100
AcDbLine
 10
179601.4186663963
 20
-1100.736866485167
 30
0.0
 11
179601.4186663963
 21
-1082.762266485168
 31
0.0
  0
LINE
  5
1E1
330
1F
100
AcDbEntity
  8
SECTIONCUTEDGES
100
AcDbLine
 10
178801.4186663963
 20
-1100.736866485167
 30
0.0
 11
179200.8542219518
 21
-1100.736866485167
 31
0.0
  0
LINE
  5
1E2
330
1F
100
AcDbEntity
  8
SECTIONCUTEDGES
100
AcDbLine
 10
179200.8542219518
 20
-1100.736866485167
 30
0.0
 11
179601.4186663963
 21
-1100.736866485167
 31
0.0
  0
LINE
  5
1E3
330
1F
100
AcDbEntity
  8
SECTIONCUTEDGES
100
AcDbLine
 10
179201.9831108407
 20
-1064.736866485168
 30
0.0
 11
178801.4186663963
 21
-1064.736866485168
 31
0.0
  0
LINE
  5
1E4
330
1F
100
AcDbEntity
  8
SECTIONCUTEDGES
100
AcDbLine
 10
179601.4186663963
 20
-1064.736866485168
 30
0.0
 11
179201.9831108407
 21
-1064.736866485168
 31
0.0
  0
LINE
  5
1E5
330
1F
100
AcDbEntity
  8
SECTIONCUTEDGES
100
AcDbLine
 10
178801.4186663963
 20
-1064.736866485168
 30
0.0
 11
178801.4186663963
 21
-1082.711466485167
 31
0.0
  0
LINE
  5
1E6
330
1F
100
AcDbEntity
  8
SECTIONCUTEDGES
100
AcDbLine
 10
178801.4186663963
 20
-1082.711466485167
 30
0.0
 11
178801.4186663963
 21
-1100.736866485167
 31
0.0
  0
LINE
  5
1E7
330
1F
100
AcDbEntity
  8
SECTIONCUTEDGES
100
AcDbLine
 10
179601.4186663963
 20
-1808.762266485167
 30
0.0
 11
179601.4186663963
 21
-1790.736866485167
 31
0.0
  0
LINE
  5
1E8
330
1F
100
AcDbEntity
  8
SECTIONCUTEDGES
100
AcDbLine
 10
179601.4186663963
 20
-1826.736866485168
 30
0.0
 11
179601.4186663963
 21
-1808.762266485167
 31
0.0
  0
LINE
  5
1E9
330
1F
100
AcDbEntity
  8
SECTIONCUTEDGES
100
AcDbLine
 10
178801.4186663963
 20
-1826.736866485168
 30
0.0
 11
179200.8542219518
 21
-1826.736866485168
 31
0.0
  0
LINE
  5
1EA
330
1F
100
AcDbEntity
  8
SECTIONCUTEDGES
100
AcDbLine
 10
179200.8542219518
 20
-1826.736866485168
 30
0.0
 11
179601.4186663963
 21
-1826.736866485168
 31
0.0
  0
LINE
  5
1EB
330
1F
100
AcDbEntity
  8
SECTIONCUTEDGES
100
AcDbLine
 10
179201.9831108407
 20
-1790.736866485167
 30
0.0
 11
178801.4186663963
 21
-1790.736866485167
 31
0.0
  0
LINE
  5
1EC
330
1F
100
AcDbEntity
  8
SECTIONCUTEDGES
100
AcDbLine
 10
179601.4186663963
 20
-1790.736866485167
 30
0.0
 11
179201.9831108407
 21
-1790.736866485167
 31
0.0
  0
LINE
  5
1ED
330
1F
100
AcDbEntity
  8
SECTIONCUTEDGES
100
AcDbLine
 10
178801.4186663963
 20
-1790.736866485167
 30
0.0
 11
178801.4186663963
 21
-1808.711466485167
 31
0.0
  0
LINE
  5
1EE
330
1F
100
AcDbEntity
  8
SECTIONCUTEDGES
100
AcDbLine
 10
178801.4186663963
 20
-1808.711466485167
 30
0.0
 11
178801.4186663963
 21
-1826.736866485168
 31
0.0
  0
LINE
  5
1EF
330
1F
100
AcDbEntity
  8
SECTIONCUTEDGES
100
AcDbLine
 10
179601.4186663963
 20
-2534.711466485167
 30
0.0
 11
179601.4186663963
 21
-2516.736866485167
 31
0.0
  0
LINE
  5
1F0
330
1F
100
AcDbEntity
  8
SECTIONCUTEDGES
100
AcDbLine
 10
179601.4186663963
 20
-2552.736866485167
 30
0.0
 11
179601.4186663963
 21
-2534.711466485167
 31
0.0
  0
LINE
  5
1F1
330
1F
100
AcDbEntity
  8
SECTIONCUTEDGES
100
AcDbLine
 10
179201.9831108407
 20
-2516.736866485167
 30
0.0
 11
178801.4186663963
 21
-2516.736866485167
 31
0.0
  0
LINE
  5
1F2
330
1F
100
AcDbEntity
  8
SECTIONCUTEDGES
100
AcDbLine
 10
179601.4186663963
 20
-2516.736866485167
 30
0.0
 11
179201.9831108407
 21
-2516.736866485167
 31
0.0
  0
LINE
  5
1F3
330
1F
100
AcDbEntity
  8
SECTIONCUTEDGES
100
AcDbLine
 10
178801.4186663963
 20
-2552.736866485167
 30
0.0
 11
179200.8542219518
 21
-2552.736866485167
 31
0.0
  0
LINE
  5
1F4
330
1F
100
AcDbEntity
  8
SECTIONCUTEDGES
100
AcDbLine
 10
179200.8542219518
 20
-2552.736866485167
 30
0.0
 11
179601.4186663963
 21
-2552.736866485167
 31
0.0
  0
LINE
  5
1F5
330
1F
100
AcDbEntity
  8
SECTIONCUTEDGES
100
AcDbLine
 10
178801.4186663963
 20
-2534.762266485168
 30
0.0
 11
178801.4186663963
 21
-2552.736866485167
 31
0.0
  0
LINE
  5
1F6
330
1F
100
AcDbEntity
  8
SECTIONCUTEDGES
100
AcDbLine
 10
178801.4186663963
 20
-2516.736866485167
 30
0.0
 11
178801.4186663963
 21
-2534.762266485168
 31
0.0
  0
LINE
  5
1F7
330
1F
100
AcDbEntity
  8
SECTIONCUTEDGES
100
AcDbLine
 10
181342.6686663963
 20
355.2417888059022
 30
0.0
 11
181342.6686663963
 21
341.2599596867073
 31
0.0
  0
LINE
  5
1F8
330
1F
100
AcDbEntity
  8
SECTIONCUTEDGES
100
AcDbLine
 10
181342.6686663963
 20
369.2631335148322
 30
0.0
 11
181342.6686663963
 21
355.2417888059022
 31
0.0
  0
LINE
  5
1F9
330
1F
100
AcDbEntity
  8
SECTIONCUTEDGES
100
AcDbLine
 10
181354.4340245261
 20
369.2631335148322
 30
0.0
 11
181342.6686663963
 21
369.2631335148322
 31
0.0
  0
LINE
  5
1FA
330
1F
100
AcDbEntity
  8
SECTIONCUTEDGES
100
AcDbLine
 10
181366.16622499
 20
369.2631335148322
 30
0.0
 11
181354.4340245261
 21
369.2631335148322
 31
0.0
  0
LINE
  5
1FB
330
1F
100
AcDbEntity
  8
SECTIONCUTEDGES
100
AcDbLine
 10
181659.4497666268
 20
-36.26518361841658
 30
0.0
 11
181975.33809999
 21
-412.7263684382927
 31
0.0
  0
LINE
  5
1FC
330
1F
100
AcDbEntity
  8
SECTIONCUTEDGES
100
AcDbLine
 10
181342.6686663963
 20
341.2599596867073
 30
0.0
 11
181659.4497666268
 21
-36.26518361841658
 31
0.0
  0
LINE
  5
1FD
330
1F
100
AcDbEntity
  8
SECTIONCUTEDGES
100
AcDbLine
 10
182002.91622499
 20
-389.5859875789175
 30
0.0
 11
181684.09196249
 21
-9.626016818823995
 31
0.0
  0
LINE
  5
1FE
330
1F
100
AcDbEntity
  8
SECTIONCUTEDGES
100
AcDbLine
 10
181684.09196249
 20
-9.626016818823995
 30
0.0
 11
181366.16622499
 21
369.2631335148322
 31
0.0
  0
LINE
  5
1FF
330
1F
100
AcDbEntity
  8
SECTIONCUTEDGES
100
AcDbLine
 10
181975.33809999
 20
-412.7263684382927
 30
0.0
 11
181989.1077045907
 21
-401.1725048328782
 31
0.0
  0
LINE
  5
200
330
1F
100
AcDbEntity
  8
SECTIONCUTEDGES
100
AcDbLine
 10
181989.1077045907
 20
-401.1725048328782
 30
0.0
 11
182002.91622499
 21
-389.5859875789175
 31
0.0
  0
LINE
  5
201
330
1F
100
AcDbEntity
  8
SECTIONCUTEDGES
100
AcDbLine
 10
181304.6686663963
 20
-938.9294934382924
 30
0.0
 11
181313.6813663962
 21
-949.6704588544167
 31
0.0
  0
LINE
  5
202
330
1F
100
AcDbEntity
  8
SECTIONCUTEDGES
100
AcDbLine
 10
181313.6813663962
 20
-949.6704588544167
 30
0.0
 11
181322.6686663963
 21
-960.3811535945425
 31
0.0
  0
LINE
  5
203
330
1F
100
AcDbEntity
  8
SECTIONCUTEDGES
100
AcDbLine
 10
181322.6686663963
 20
-960.3811535945425
 30
0.0
 11
181331.6816108814
 21
-952.8186171701177
 31
0.0
  0
LINE
  5
204
330
1F
100
AcDbEntity
  8
SECTIONCUTEDGES
100
AcDbLine
 10
181331.6816108814
 20
-952.8186171701177
 30
0.0
 11
181340.6691546775
 21
-945.2773938289176
 31
0.0
  0
LINE
  5
205
330
1F
100
AcDbEntity
  8
SECTIONCUTEDGES
100
AcDbLine
 10
181304.6686663963
 20
-285.7561825374177
 30
0.0
 11
181304.6686663963
 21
-938.9294934382924
 31
0.0
  0
LINE
  5
206
330
1F
100
AcDbEntity
  8
SECTIONCUTEDGES
100
AcDbLine
 10
181304.6686663963
 20
369.2631335148322
 30
0.0
 11
181304.6686663963
 21
-285.7561825374177
 31
0.0
  0
LINE
  5
207
330
1F
100
AcDbEntity
  8
SECTIONCUTEDGES
100
AcDbLine
 10
181322.6943108814
 20
369.2631335148322
 30
0.0
 11
181304.6686663963
 21
369.2631335148322
 31
0.0
  0
LINE
  5
208
330
1F
100
AcDbEntity
  8
SECTIONCUTEDGES
100
AcDbLine
 10
181340.6691546775
 20
369.2631335148322
 30
0.0
 11
181322.6943108814
 21
369.2631335148322
 31
0.0
  0
LINE
  5
209
330
1F
100
AcDbEntity
  8
SECTIONCUTEDGES
100
AcDbLine
 10
181340.6691546775
 20
-945.2773938289176
 30
0.0
 11
181340.6691546775
 21
-287.0796487849683
 31
0.0
  0
LINE
  5
20A
330
1F
100
AcDbEntity
  8
SECTIONCUTEDGES
100
AcDbLine
 10
181340.6691546775
 20
-287.0796487849683
 30
0.0
 11
181340.6691546775
 21
369.2631335148322
 31
0.0
  0
LINE
  5
20B
330
1F
100
AcDbEntity
  8
SECTIONCUTEDGES
100
AcDbLine
 10
179707.4186663963
 20
-422.4863782039175
 30
0.0
 11
180262.4775715124
 21
-422.4863782039175
 31
0.0
  0
LINE
  5
20C
330
1F
100
AcDbEntity
  8
SECTIONCUTEDGES
100
AcDbLine
 10
180262.4775715124
 20
-422.4863782039175
 30
0.0
 11
180819.1051898338
 21
-422.4863782039175
 31
0.0
  0
LINE
  5
20D
330
1F
100
AcDbEntity
  8
SECTIONCUTEDGES
100
AcDbLine
 10
180788.8976703025
 20
-386.4863782039178
 30
0.0
 11
180248.9212118688
 21
-386.4863782039178
 31
0.0
  0
LINE
  5
20E
330
1F
100
AcDbEntity
  8
SECTIONCUTEDGES
100
AcDbLine
 10
180248.9212118688
 20
-386.4863782039178
 30
0.0
 11
179707.4186663963
 21
-386.4863782039178
 31
0.0
  0
LINE
  5
20F
330
1F
100
AcDbEntity
  8
SECTIONCUTEDGES
100
AcDbLine
 10
179707.4186663963
 20
-386.4863782039178
 30
0.0
 11
179707.4186663963
 21
-404.5117782039178
 31
0.0
  0
LINE
  5
210
330
1F
100
AcDbEntity
  8
SECTIONCUTEDGES
100
AcDbLine
 10
179707.4186663963
 20
-404.5117782039178
 30
0.0
 11
179707.4186663963
 21
-422.4863782039175
 31
0.0
  0
LINE
  5
211
330
1F
100
AcDbEntity
  8
SECTIONCUTEDGES
100
AcDbLine
 10
180819.1051898338
 20
-422.4863782039175
 30
0.0
 11
180804.0227431513
 21
-404.5117782039178
 31
0.0
  0
LINE
  5
212
330
1F
100
AcDbEntity
  8
SECTIONCUTEDGES
100
AcDbLine
 10
180804.0227431513
 20
-404.5117782039178
 30
0.0
 11
180788.8976703025
 21
-386.4863782039178
 31
0.0
  0
LINE
  5
213
330
1F
100
AcDbEntity
  8
SECTIONCUTEDGES
100
AcDbLine
 10
180783.277553115
 20
-424.4866223445426
 30
0.0
 11
180246.1071879702
 21
-875.2261448434548
 31
0.0
  0
LINE
  5
214
330
1F
100
AcDbEntity
  8
SECTIONCUTEDGES
100
AcDbLine
 10
180246.1071879702
 20
-875.2261448434548
 30
0.0
 11
179707.4186663963
 21
-1327.239552032043
 31
0.0
  0
LINE
  5
215
330
1F
100
AcDbEntity
  8
SECTIONCUTEDGES
100
AcDbLine
 10
180828.4274554588
 20
-433.5959973445424
 30
0.0
 11
180824.6000406774
 21
-429.0348826744037
 31
0.0
  0
LINE
  5
216
330
1F
100
AcDbEntity
  8
SECTIONCUTEDGES
100
AcDbLine
 10
180824.6000406774
 20
-429.0348826744037
 30
0.0
 11
180820.78341249
 21
-424.4866223445426
 31
0.0
  0
LINE
  5
217
330
1F
100
AcDbEntity
  8
SECTIONCUTEDGES
100
AcDbLine
 10
179707.4186663963
 20
-1350.736866485168
 30
0.0
 11
179721.4401333478
 21
-1350.736866485168
 31
0.0
  0
LINE
  5
218
330
1F
100
AcDbEntity
  8
SECTIONCUTEDGES
100
AcDbLine
 10
179721.4401333478
 20
-1350.736866485168
 30
0.0
 11
179735.422084365
 21
-1350.736866485168
 31
0.0
  0
LINE
  5
219
330
1F
100
AcDbEntity
  8
SECTIONCUTEDGES
100
AcDbLine
 10
179707.4186663963
 20
-1327.239552032043
 30
0.0
 11
179707.4186663963
 21
-1339.004787919358
 31
0.0
  0
LINE
  5
21A
330
1F
100
AcDbEntity
  8
SECTIONCUTEDGES
100
AcDbLine
 10
179707.4186663963
 20
-1339.004787919358
 30
0.0
 11
179707.4186663963
 21
-1350.736866485168
 31
0.0
  0
LINE
  5
21B
330
1F
100
AcDbEntity
  8
SECTIONCUTEDGES
100
AcDbLine
 10
180282.6959459237
 20
-891.5193380794028
 30
0.0
 11
180828.4274554588
 21
-433.5959973445424
 31
0.0
  0
LINE
  5
21C
330
1F
100
AcDbEntity
  8
SECTIONCUTEDGES
100
AcDbLine
 10
179735.422084365
 20
-1350.736866485168
 30
0.0
 11
180282.6959459237
 21
-891.5193380794028
 31
0.0
  0
LINE
  5
21D
330
1F
100
AcDbEntity
  8
SECTIONCUTEDGES
100
AcDbLine
 10
180802.05694527
 20
-424.4866223445426
 30
0.0
 11
180783.277553115
 21
-424.4866223445426
 31
0.0
  0
LINE
  5
21E
330
1F
100
AcDbEntity
  8
SECTIONCUTEDGES
100
AcDbLine
 10
180820.78341249
 20
-424.4866223445426
 30
0.0
 11
180802.05694527
 21
-424.4866223445426
 31
0.0
  0
LINE
  5
21F
330
1F
100
AcDbEntity
  8
SECTIONCUTEDGES
100
AcDbLine
 10
180260.5758182327
 20
-1388.736866485168
 30
0.0
 11
180812.17403749
 21
-1388.736866485168
 31
0.0
  0
LINE
  5
220
330
1F
100
AcDbEntity
  8
SECTIONCUTEDGES
100
AcDbLine
 10
179707.4186663963
 20
-1388.736866485168
 30
0.0
 11
180260.5758182327
 21
-1388.736866485168
 31
0.0
  0
LINE
  5
221
330
1F
100
AcDbEntity
  8
SECTIONCUTEDGES
100
AcDbLine
 10
180812.17403749
 20
-1388.736866485168
 30
0.0
 11
180833.6559683222
 21
-1370.711466485168
 31
0.0
  0
LINE
  5
222
330
1F
100
AcDbEntity
  8
SECTIONCUTEDGES
100
AcDbLine
 10
180833.6559683222
 20
-1370.711466485168
 30
0.0
 11
180855.0773578025
 21
-1352.736866485167
 31
0.0
  0
LINE
  5
223
330
1F
100
AcDbEntity
  8
SECTIONCUTEDGES
100
AcDbLine
 10
180855.0773578025
 20
-1352.736866485167
 30
0.0
 11
180280.4382751338
 21
-1352.736866485167
 31
0.0
  0
LINE
  5
224
330
1F
100
AcDbEntity
  8
SECTIONCUTEDGES
100
AcDbLine
 10
180280.4382751338
 20
-1352.736866485167
 30
0.0
 11
179707.4186663963
 21
-1352.736866485167
 31
0.0
  0
LINE
  5
225
330
1F
100
AcDbEntity
  8
SECTIONCUTEDGES
100
AcDbLine
 10
179707.4186663963
 20
-1370.711466485168
 30
0.0
 11
179707.4186663963
 21
-1388.736866485168
 31
0.0
  0
LINE
  5
226
330
1F
100
AcDbEntity
  8
SECTIONCUTEDGES
100
AcDbLine
 10
179707.4186663963
 20
-1352.736866485167
 30
0.0
 11
179707.4186663963
 21
-1370.711466485168
 31
0.0
  0
LINE
  5
227
330
1F
100
AcDbEntity
  8
SECTIONCUTEDGES
100
AcDbLine
 10
180726.2610898961
 20
-308.7272723242019
 30
0.0
 11
181293.5592913963
 21
-984.8069348445428
 31
0.0
  0
LINE
  5
228
330
1F
100
AcDbEntity
  8
SECTIONCUTEDGES
100
AcDbLine
 10
180157.359584365
 20
369.2631335148322
 30
0.0
 11
180726.2610898961
 21
-308.7272723242019
 31
0.0
  0
LINE
  5
229
330
1F
100
AcDbEntity
  8
SECTIONCUTEDGES
100
AcDbLine
 10
180204.3542132713
 20
369.2631335148322
 30
0.0
 11
180180.8237414966
 21
369.2631335148322
 31
0.0
  0
LINE
  5
22A
330
1F
100
AcDbEntity
  8
SECTIONCUTEDGES
100
AcDbLine
 10
180180.8237414966
 20
369.2631335148322
 30
0.0
 11
180157.359584365
 21
369.2631335148322
 31
0.0
  0
LINE
  5
22B
330
1F
100
AcDbEntity
  8
SECTIONCUTEDGES
100
AcDbLine
 10
180761.9576184444
 20
-295.262787298152
 30
0.0
 11
180204.3542132713
 21
369.2631335148322
 31
0.0
  0
LINE
  5
22C
330
1F
100
AcDbEntity
  8
SECTIONCUTEDGES
100
AcDbLine
 10
181321.136928115
 20
-961.6667981257926
 30
0.0
 11
180761.9576184444
 21
-295.262787298152
 31
0.0
  0
LINE
  5
22D
330
1F
100
AcDbEntity
  8
SECTIONCUTEDGES
100
AcDbLine
 10
181293.5592913963
 20
-984.8069348445428
 30
0.0
 11
181307.3286522008
 21
-973.2531931371861
 31
0.0
  0
LINE
  5
22E
330
1F
100
AcDbEntity
  8
SECTIONCUTEDGES
100
AcDbLine
 10
181307.3286522008
 20
-973.2531931371861
 30
0.0
 11
181321.136928115
 21
-961.6667981257926
 31
0.0
  0
LINE
  5
22F
330
1F
100
AcDbEntity
  8
SECTIONCUTEDGES
100
AcDbLine
 10
181339.2058476951
 20
-996.1101847794301
 30
0.0
 11
182966.3942523338
 21
369.2631335148322
 31
0.0
  0
LINE
  5
230
330
1F
100
AcDbEntity
  8
SECTIONCUTEDGES
100
AcDbLine
 10
179707.4186663963
 20
-2365.342335235168
 30
0.0
 11
181339.2058476951
 21
-996.1101847794301
 31
0.0
  0
LINE
  5
231
330
1F
100
AcDbEntity
  8
SECTIONCUTEDGES
100
AcDbLine
 10
182910.38888124
 20
369.2631335148322
 30
0.0
 11
181306.6439003888
 21
-976.4385451662738
 31
0.0
  0
LINE
  5
232
330
1F
100
AcDbEntity
  8
SECTIONCUTEDGES
100
AcDbLine
 10
181306.6439003888
 20
-976.4385451662738
 30
0.0
 11
179707.4186663963
 21
-2318.347706328918
 31
0.0
  0
LINE
  5
233
330
1F
100
AcDbEntity
  8
SECTIONCUTEDGES
100
AcDbLine
 10
179707.4186663963
 20
-2318.347706328918
 30
0.0
 11
179707.4186663963
 21
-2341.878178103549
 31
0.0
  0
LINE
  5
234
330
1F
100
AcDbEntity
  8
SECTIONCUTEDGES
100
AcDbLine
 10
179707.4186663963
 20
-2341.878178103549
 30
0.0
 11
179707.4186663963
 21
-2365.342335235168
 31
0.0
  0
LINE
  5
235
330
1F
100
AcDbEntity
  8
SECTIONCUTEDGES
100
AcDbLine
 10
182966.3942523338
 20
369.2631335148322
 30
0.0
 11
182938.4310816876
 21
369.2631335148322
 31
0.0
  0
LINE
  5
236
330
1F
100
AcDbEntity
  8
SECTIONCUTEDGES
100
AcDbLine
 10
182938.4310816876
 20
369.2631335148322
 30
0.0
 11
182910.38888124
 21
369.2631335148322
 31
0.0
  0
LINE
  5
237
330
1F
100
AcDbEntity
  8
SECTIONCUTEDGES
100
AcDbLine
 10
177500.5339007713
 20
369.2631335148322
 30
0.0
 11
177135.6054261748
 21
4.334720039623849
 31
0.0
  0
LINE
  5
238
330
1F
100
AcDbEntity
  8
SECTIONCUTEDGES
100
AcDbLine
 10
177135.6054261748
 20
4.334720039623849
 30
0.0
 11
176771.7054095603
 21
-359.5652356257925
 31
0.0
  0
LINE
  5
239
330
1F
100
AcDbEntity
  8
SECTIONCUTEDGES
100
AcDbLine
 10
177162.1256156808
 20
-20.05683361841184
 30
0.0
 11
177551.445521865
 21
369.2631335148322
 31
0.0
  0
LINE
  5
23A
330
1F
100
AcDbEntity
  8
SECTIONCUTEDGES
100
AcDbLine
 10
176771.7054095603
 20
-410.4771008601676
 30
0.0
 11
177162.1256156808
 21
-20.05683361841184
 31
0.0
  0
LINE
  5
23B
330
1F
100
AcDbEntity
  8
SECTIONCUTEDGES
100
AcDbLine
 10
176771.7054095603
 20
-385.0570893923399
 30
0.0
 11
176771.7054095603
 21
-410.4771008601676
 31
0.0
  0
LINE
  5
23C
330
1F
100
AcDbEntity
  8
SECTIONCUTEDGES
100
AcDbLine
 10
176771.7054095603
 20
-359.5652356257925
 30
0.0
 11
176771.7054095603
 21
-385.0570893923399
 31
0.0
  0
LINE
  5
23D
330
1F
100
AcDbEntity
  8
SECTIONCUTEDGES
100
AcDbLine
 10
177526.0256322953
 20
369.2631335148322
 30
0.0
 11
177500.5339007713
 21
369.2631335148322
 31
0.0
  0
LINE
  5
23E
330
1F
100
AcDbEntity
  8
SECTIONCUTEDGES
100
AcDbLine
 10
177551.445521865
 20
369.2631335148322
 30
0.0
 11
177526.0256322953
 21
369.2631335148322
 31
0.0
  0
LINE
  5
23F
330
1F
100
AcDbEntity
  8
SECTIONCUTEDGES
100
AcDbLine
 10
179226.7822371984
 20
-707.2530886734792
 30
0.0
 11
178853.2016253806
 21
-376.7368664851675
 31
0.0
  0
LINE
  5
240
330
1F
100
AcDbEntity
  8
SECTIONCUTEDGES
100
AcDbLine
 10
179601.4186663963
 20
-1038.703419219542
 30
0.0
 11
179226.7822371984
 21
-707.2530886734792
 31
0.0
  0
LINE
  5
241
330
1F
100
AcDbEntity
  8
SECTIONCUTEDGES
100
AcDbLine
 10
178801.4186663963
 20
-378.9900403132928
 30
0.0
 11
179188.3814248652
 21
-721.3458747710313
 31
0.0
  0
LINE
  5
242
330
1F
100
AcDbEntity
  8
SECTIONCUTEDGES
100
AcDbLine
 10
179188.3814248652
 20
-721.3458747710313
 30
0.0
 11
179574.2536273338
 21
-1062.736866485168
 31
0.0
  0
LINE
  5
243
330
1F
100
AcDbEntity
  8
SECTIONCUTEDGES
100
AcDbLine
 10
178827.3466816428
 20
-376.7368664851675
 30
0.0
 11
178801.4186663963
 21
-376.7368664851675
 31
0.0
  0
LINE
  5
244
330
1F
100
AcDbEntity
  8
SECTIONCUTEDGES
100
AcDbLine
 10
178853.2016253806
 20
-376.7368664851675
 30
0.0
 11
178827.3466816428
 21
-376.7368664851675
 31
0.0
  0
LINE
  5
245
330
1F
100
AcDbEntity
  8
SECTIONCUTEDGES
100
AcDbLine
 10
178801.4186663963
 20
-377.8618636599181
 30
0.0
 11
178801.4186663963
 21
-378.9900403132928
 31
0.0
  0
LINE
  5
246
330
1F
100
AcDbEntity
  8
SECTIONCUTEDGES
100
AcDbLine
 10
178801.4186663963
 20
-376.7368664851675
 30
0.0
 11
178801.4186663963
 21
-377.8618636599181
 31
0.0
  0
LINE
  5
247
330
1F
100
AcDbEntity
  8
SECTIONCUTEDGES
100
AcDbLine
 10
179587.8169804208
 20
-1062.736866485168
 30
0.0
 11
179601.4186663963
 21
-1062.736866485168
 31
0.0
  0
LINE
  5
248
330
1F
100
AcDbEntity
  8
SECTIONCUTEDGES
100
AcDbLine
 10
179574.2536273338
 20
-1062.736866485168
 30
0.0
 11
179587.8169804208
 21
-1062.736866485168
 31
0.0
  0
LINE
  5
249
330
1F
100
AcDbEntity
  8
SECTIONCUTEDGES
100
AcDbLine
 10
179601.4186663963
 20
-1050.737099784593
 30
0.0
 11
179601.4186663963
 21
-1038.703419219542
 31
0.0
  0
LINE
  5
24A
330
1F
100
AcDbEntity
  8
SECTIONCUTEDGES
100
AcDbLine
 10
179601.4186663963
 20
-1062.736866485168
 30
0.0
 11
179601.4186663963
 21
-1050.737099784593
 31
0.0
  0
LINE
  5
24B
330
1F
100
AcDbEntity
  8
SECTIONCUTEDGES
100
AcDbLine
 10
179226.7822371984
 20
-1433.253088673479
 30
0.0
 11
178853.2016253806
 21
-1102.736866485168
 31
0.0
  0
LINE
  5
24C
330
1F
100
AcDbEntity
  8
SECTIONCUTEDGES
100
AcDbLine
 10
179601.4186663963
 20
-1764.703419219543
 30
0.0
 11
179226.7822371984
 21
-1433.253088673479
 31
0.0
  0
LINE
  5
24D
330
1F
100
AcDbEntity
  8
SECTIONCUTEDGES
100
AcDbLine
 10
178801.4186663963
 20
-1104.990284453917
 30
0.0
 11
179188.3814248652
 21
-1447.345996669089
 31
0.0
  0
LINE
  5
24E
330
1F
100
AcDbEntity
  8
SECTIONCUTEDGES
100
AcDbLine
 10
179188.3814248652
 20
-1447.345996669089
 30
0.0
 11
179574.2536273338
 21
-1788.736866485168
 31
0.0
  0
LINE
  5
24F
330
1F
100
AcDbEntity
  8
SECTIONCUTEDGES
100
AcDbLine
 10
178827.3466816428
 20
-1102.736866485168
 30
0.0
 11
178801.4186663963
 21
-1102.736866485168
 31
0.0
  0
LINE
  5
250
330
1F
100
AcDbEntity
  8
SECTIONCUTEDGES
100
AcDbLine
 10
178853.2016253806
 20
-1102.736866485168
 30
0.0
 11
178827.3466816428
 21
-1102.736866485168
 31
0.0
  0
LINE
  5
251
330
1F
100
AcDbEntity
  8
SECTIONCUTEDGES
100
AcDbLine
 10
178801.4186663963
 20
-1103.861985557976
 30
0.0
 11
178801.4186663963
 21
-1104.990284453917
 31
0.0
  0
LINE
  5
252
330
1F
100
AcDbEntity
  8
SECTIONCUTEDGES
100
AcDbLine
 10
178801.4186663963
 20
-1102.736866485168
 30
0.0
 11
178801.4186663963
 21
-1103.861985557976
 31
0.0
  0
LINE
  5
253
330
1F
100
AcDbEntity
  8
SECTIONCUTEDGES
100
AcDbLine
 10
179587.8169804208
 20
-1788.736866485168
 30
0.0
 11
179601.4186663963
 21
-1788.736866485168
 31
0.0
  0
LINE
  5
254
330
1F
100
AcDbEntity
  8
SECTIONCUTEDGES
100
AcDbLine
 10
179574.2536273338
 20
-1788.736866485168
 30
0.0
 11
179587.8169804208
 21
-1788.736866485168
 31
0.0
  0
LINE
  5
255
330
1F
100
AcDbEntity
  8
SECTIONCUTEDGES
100
AcDbLine
 10
179601.4186663963
 20
-1776.737099784593
 30
0.0
 11
179601.4186663963
 21
-1764.703419219543
 31
0.0
  0
LINE
  5
256
330
1F
100
AcDbEntity
  8
SECTIONCUTEDGES
100
AcDbLine
 10
179601.4186663963
 20
-1788.736866485168
 30
0.0
 11
179601.4186663963
 21
-1776.737099784593
 31
0.0
  0
LINE
  5
257
330
1F
100
AcDbEntity
  8
SECTIONCUTEDGES
100
AcDbLine
 10
179226.7822371984
 20
-2159.253058198964
 30
0.0
 11
178853.2016253806
 21
-1828.736866485167
 31
0.0
  0
LINE
  5
258
330
1F
100
AcDbEntity
  8
SECTIONCUTEDGES
100
AcDbLine
 10
179601.4186663963
 20
-2490.703358184386
 30
0.0
 11
179226.7822371984
 21
-2159.253058198964
 31
0.0
  0
LINE
  5
259
330
1F
100
AcDbEntity
  8
SECTIONCUTEDGES
100
AcDbLine
 10
178801.4186663963
 20
-1830.990162383605
 30
0.0
 11
179188.3814248652
 21
-2173.34593572006
 31
0.0
  0
LINE
  5
25A
330
1F
100
AcDbEntity
  8
SECTIONCUTEDGES
100
AcDbLine
 10
179188.3814248652
 20
-2173.34593572006
 30
0.0
 11
179574.2536273338
 21
-2514.736866485167
 31
0.0
  0
LINE
  5
25B
330
1F
100
AcDbEntity
  8
SECTIONCUTEDGES
100
AcDbLine
 10
178827.3466816428
 20
-1828.736866485167
 30
0.0
 11
178801.4186663963
 21
-1828.736866485167
 31
0.0
  0
LINE
  5
25C
330
1F
100
AcDbEntity
  8
SECTIONCUTEDGES
100
AcDbLine
 10
178853.2016253806
 20
-1828.736866485167
 30
0.0
 11
178827.3466816428
 21
-1828.736866485167
 31
0.0
  0
LINE
  5
25D
330
1F
100
AcDbEntity
  8
SECTIONCUTEDGES
100
AcDbLine
 10
178801.4186663963
 20
-1829.861924608947
 30
0.0
 11
178801.4186663963
 21
-1830.990162383605
 31
0.0
  0
LINE
  5
25E
330
1F
100
AcDbEntity
  8
SECTIONCUTEDGES
100
AcDbLine
 10
178801.4186663963
 20
-1828.736866485167
 30
0.0
 11
178801.4186663963
 21
-1829.861924608947
 31
0.0
  0
LINE
  5
25F
330
1F
100
AcDbEntity
  8
SECTIONCUTEDGES
100
AcDbLine
 10
179587.8169804208
 20
-2514.736866485167
 30
0.0
 11
179601.4186663963
 21
-2514.736866485167
 31
0.0
  0
LINE
  5
260
330
1F
100
AcDbEntity
  8
SECTIONCUTEDGES
100
AcDbLine
 10
179574.2536273338
 20
-2514.736866485167
 30
0.0
 11
179587.8169804208
 21
-2514.736866485167
 31
0.0
  0
LINE
  5
261
330
1F
100
AcDbEntity
  8
SECTIONCUTEDGES
100
AcDbLine
 10
179601.4186663963
 20
-2502.737069310078
 30
0.0
 11
179601.4186663963
 21
-2490.703358184386
 31
0.0
  0
LINE
  5
262
330
1F
100
AcDbEntity
  8
SECTIONCUTEDGES
100
AcDbLine
 10
179601.4186663963
 20
-2514.736866485167
 30
0.0
 11
179601.4186663963
 21
-2502.737069310078
 31
0.0
  0
ENDSEC
  0
SECTION
  2
OBJECTS
  0
DICTIONARY
  5
C
330
0
100
AcDbDictionary
  3
ACAD_GROUP
350
D
  3
ACAD_LAYOUT
350
1A
  3
ACAD_MATERIAL
350
43
  3
ACAD_MLEADERSTYLE
350
5B
  3
ACAD_MLINESTYLE
350
17
  3
ACAD_PLOTSETTINGS
350
19
  3
ACAD_SCALELIST
350
47
  3
ACAD_VISUALSTYLE
350
2A
  3
ACDBHEADERROUNDTRIPXREC
350
263
  3
ACDBVARIABLEDICTIONARY
350
284
  3
DWGPROPS
350
28B
  0
DICTIONARY
  5
28C
330
8
100
AcDbDictionary
280
     1
  3
ACAD_XREC_ROUNDTRIP
360
28D
  0
DICTIONARY
  5
D
102
{ACAD_REACTORS
330
C
102
}
330
C
100
AcDbDictionary
  0
DICTIONARY
  5
1A
102
{ACAD_REACTORS
330
C
102
}
330
C
100
AcDbDictionary
  0
DICTIONARY
  5
43
102
{ACAD_REACTORS
330
C
102
}
330
C
100
AcDbDictionary
  3
BYBLOCK
350
45
  3
BYLAYER
350
44
  3
GLOBAL
350
46
  0
DICTIONARY
  5
5B
102
{ACAD_REACTORS
330
C
102
}
330
C
100
AcDbDictionary
  3
STANDARD
350
5C
  0
DICTIONARY
  5
17
102
{ACAD_REACTORS
330
C
102
}
330
C
100
AcDbDictionary
  3
STANDARD
350
18
  0
DICTIONARY
  5
19
102
{ACAD_REACTORS
330
C
102
}
330
C
100
AcDbDictionary
  0
DICTIONARY
  5
47
102
{ACAD_REACTORS
330
C
102
}
330
C
100
AcDbDictionary
  3
A0
350
48
  3
A1
350
49
  3
A2
350
4A
  3
A3
350
4B
  3
A4
350
4C
  3
A5
350
4D
  3
A6
350
4E
  3
A7
350
4F
  3
A8
350
50
  3
A9
350
51
  3
B1
350
52
  3
B2
350
53
  3
B3
350
54
  3
B4
350
55
  3
B5
350
56
  3
B6
350
57
  3
B7
350
58
  0
DICTIONARY
  5
2A
102
{ACAD_REACTORS
330
C
102
}
330
C
100
AcDbDictionary
  3
2DWIREFRAME
350
2F
  3
BASIC
350
32
  3
BRIGHTEN
350
36
  3
COLORCHANGE
350
3A
  3
CONCEPTUAL
350
34
  3
DIM
350
35
  3
EDGECOLOROFF
350
3D
  3
FACEPATTERN
350
39
  3
FLAT
350
2B
  3
FLATWITHEDGES
350
2C
  3
GOURAUD
350
2D
  3
GOURAUDWITHEDGES
350
2E
  3
HIDDEN
350
31
  3
JITTEROFF
350
3B
  3
LINEPATTERN
350
38
  3
OVERHANGOFF
350
3C
  3
REALISTIC
350
33
  3
SHADED
350
42
  3
SHADED_WITH_EDGES
350
41
  3
SHADES_OF_GRAY
350
3E
  3
SKETCHY
350
3F
  3
THICKEN
350
37
  3
WIREFRAME
350
30
  3
X-RAY
350
40
  0
DICTIONARY
  5
263
102
{ACAD_REACTORS
330
C
102
}
330
C
100
AcDbDictionary
  3
CEPSNID
350
26D
  3
CEPSNTYPE
350
26C
  3
DIMSTYLEDATA
350
283
  3
FINGERPRINTGUID
350
26E
  3
HYPERLINKBASE
350
266
  3
INSUNITS
350
26B
  3
LAYOUTDICT
350
268
  3
LWETCUNION
350
26A
  3
PLOTSETDICT
350
269
  3
PSVPSCALE
350
270
  3
PUCSBASE
350
273
  3
PUCSORGBACK
350
279
  3
PUCSORGBOTTOM
350
275
  3
PUCSORGFRONT
350
278
  3
PUCSORGLEFT
350
276
  3
PUCSORGRIGHT
350
277
  3
PUCSORGTOP
350
274
  3
PUCSORTHOREF
350
271
  3
PUCSORTHOVIEW
350
272
  3
STYLESHEET
350
267
  3
TSTACKALIGN
350
264
  3
TSTACKSIZE
350
265
  3
UCSBASE
350
27C
  3
UCSORGBACK
350
282
  3
UCSORGBOTTOM
350
27E
  3
UCSORGFRONT
350
281
  3
UCSORGLEFT
350
27F
  3
UCSORGRIGHT
350
280
  3
UCSORGTOP
350
27D
  3
UCSORTHOREF
350
27A
  3
UCSORTHOVIEW
350
27B
  3
VERSIONGUID
350
26F
  0
DICTIONARY
  5
284
102
{ACAD_REACTORS
330
C
102
}
330
C
100
AcDbDictionary
  3
CANNOSCALE
350
28E
  3
CMLEADERSTYLE
350
286
  3
CTABLESTYLE
350
285
  3
DIMASSOC
350
289
  3
HIDETEXT
350
28A
  3
MSLTSCALE
350
28F
  0
XRECORD
  5
28B
102
{ACAD_REACTORS
330
C
102
}
330
C
100
AcDbXrecord
  1
DWGPROPS COOKIE
  2

  3

  4

  6

  7

  8
dev
  9

300
=
301
=
302
=
303
=
304
=
305
=
306
=
307
=
308
=
309
=
 40
0.0
 41
2460536.372537083
 42
2460536.372537246
  1

 90
        0
  0
XRECORD
  5
28D
102
{ACAD_REACTORS
330
28C
102
}
330
28C
100
AcDbXrecord
102
VTR_0.000_0.000_1.000_1.000_VISUALSTYLE
340
2F
102
VTR_0.000_0.000_1.000_1.000_GRIDDISPLAY
 70
     3
102
VTR_0.000_0.000_1.000_1.000_GRIDMAJOR
 70
     5
102
VTR_0.000_0.000_1.000_1.000_DEFAULTLIGHTING
280
     1
102
VTR_0.000_0.000_1.000_1.000_DEFAULTLIGHTINGTYPE
 70
     1
102
VTR_0.000_0.000_1.000_1.000_BRIGHTNESS
141
0.0
102
VTR_0.000_0.000_1.000_1.000_CONTRAST
142
0.0
  0
MATERIAL
  5
45
102
{ACAD_REACTORS
330
43
102
}
102
{ACAD_XDICTIONARY
360
292
102
}
330
43
100
AcDbMaterial
  1
BYBLOCK
  0
MATERIAL
  5
44
102
{ACAD_REACTORS
330
43
102
}
102
{ACAD_XDICTIONARY
360
290
102
}
330
43
100
AcDbMaterial
  1
BYLAYER
  0
MATERIAL
  5
46
102
{ACAD_REACTORS
330
43
102
}
102
{ACAD_XDICTIONARY
360
294
102
}
330
43
100
AcDbMaterial
  1
GLOBAL
  0
ACAD_PROXY_OBJECT
  5
5C
102
{ACAD_REACTORS
330
5B
102
}
330
5B
100
AcDbProxyObject
 90
      499
 91
      505
 93
      610
310
40901902A4063FBFFFFFE056BD1B81E855B9FC0AD7A3703D0AD73F4214DD185B99185C9900AD7A3703D0AC73F90141901A02B5E8DC0F42B1CFC02B5E8DC0F42B1CFE5764000000000000300FC0
340
14
340
0
340
11
340
0
 94
        0
1001
ACAD_MLEADERVER
1070
     2
  0
MLINESTYLE
  5
18
102
{ACAD_REACTORS
330
17
102
}
330
17
100
AcDbMlineStyle
  2
Standard
 70
     0
  3

 62
   256
 51
90.0
 52
90.0
 71
     2
 49
0.5
 62
   256
  6
BYLAYER
 49
-0.5
 62
   256
  6
BYLAYER
  0
ACAD_PROXY_OBJECT
  5
48
102
{ACAD_REACTORS
330
47
102
}
330
47
100
AcDbProxyObject
 90
      499
 91
      503
 93
       41
310
903313A31580
  0
ACAD_PROXY_OBJECT
  5
49
102
{ACAD_REACTORS
330
47
102
}
330
47
100
AcDbProxyObject
 90
      499
 91
      503
 93
      257
310
90E312F31323822203D2031272D3022000000000000200FC000000000000284000
  0
ACAD_PROXY_OBJECT
  5
4A
102
{ACAD_REACTORS
330
47
102
}
330
47
100
AcDbProxyObject
 90
      499
 91
      503
 93
      249
310
90D312F363422203D2031272D3022000000000000240FC000000000000284000
  0
ACAD_PROXY_OBJECT
  5
4B
102
{ACAD_REACTORS
330
47
102
}
330
47
100
AcDbProxyObject
 90
      499
 91
      503
 93
      249
310
90D312F333222203D2031272D3022000000000000280FC000000000000284000
  0
ACAD_PROXY_OBJECT
  5
4C
102
{ACAD_REACTORS
330
47
102
}
330
47
100
AcDbProxyObject
 90
      499
 91
      503
 93
      249
310
90D312F313622203D2031272D30220000000000002C0FC000000000000284000
  0
ACAD_PROXY_OBJECT
  5
4D
102
{ACAD_REACTORS
330
47
102
}
330
47
100
AcDbProxyObject
 90
      499
 91
      503
 93
      249
310
90D332F333222203D2031272D30220000000000002E0FC000000000000284000
  0
ACAD_PROXY_OBJECT
  5
4E
102
{ACAD_REACTORS
330
47
102
}
330
47
100
AcDbProxyObject
 90
      499
 91
      503
 93
      241
310
90C312F3822203D2031272D3022000000000000300FC000000000000284000
  0
ACAD_PROXY_OBJECT
  5
4F
102
{ACAD_REACTORS
330
47
102
}
330
47
100
AcDbProxyObject
 90
      499
 91
      503
 93
      249
310
90D332F313622203D2031272D3022000000000000320FC000000000000284000
  0
ACAD_PROXY_OBJECT
  5
50
102
{ACAD_REACTORS
330
47
102
}
330
47
100
AcDbProxyObject
 90
      499
 91
      503
 93
      241
310
90C312F3422203D2031272D3022000000000000340FC000000000000284000
  0
ACAD_PROXY_OBJECT
  5
51
102
{ACAD_REACTORS
330
47
102
}
330
47
100
AcDbProxyObject
 90
      499
 91
      503
 93
      241
310
90C332F3822203D2031272D3022000000000000360FC000000000000284000
  0
ACAD_PROXY_OBJECT
  5
52
102
{ACAD_REACTORS
330
47
102
}
330
47
100
AcDbProxyObject
 90
      499
 91
      503
 93
      241
310
90C312F3222203D2031272D3022000000000000380FC000000000000284000
  0
ACAD_PROXY_OBJECT
  5
53
102
{ACAD_REACTORS
330
47
102
}
330
47
100
AcDbProxyObject
 90
      499
 91
      503
 93
      241
310
90C332F3422203D2031272D30220000000000003A0FC000000000000284000
  0
ACAD_PROXY_OBJECT
  5
54
102
{ACAD_REACTORS
330
47
102
}
330
47
100
AcDbProxyObject
 90
      499
 91
      503
 93
      161
310
90A3122203D2031272D30224000000000000284000
  0
ACAD_PROXY_OBJECT
  5
55
102
{ACAD_REACTORS
330
47
102
}
330
47
100
AcDbProxyObject
 90
      499
 91
      503
 93
      257
310
90E312D312F3222203D2031272D30220000000000003E0FC000000000000284000
  0
ACAD_PROXY_OBJECT
  5
56
102
{ACAD_REACTORS
330
47
102
}
330
47
100
AcDbProxyObject
 90
      499
 91
      503
 93
      225
310
90A3322203D2031272D302200000000000002100000000000000284000
  0
ACAD_PROXY_OBJECT
  5
57
102
{ACAD_REACTORS
330
47
102
}
330
47
100
AcDbProxyObject
 90
      499
 91
      503
 93
      225
310
90A3622203D2031272D302200000000000006100000000000000284000
  0
ACAD_PROXY_OBJECT
  5
58
102
{ACAD_REACTORS
330
47
102
}
330
47
100
AcDbProxyObject
 90
      499
 91
      503
 93
      249
310
90D31272D3022203D2031272D30220000000000000A100000000000000284000
  0
ACAD_PROXY_OBJECT
  5
2F
102
{ACAD_REACTORS
330
2A
102
}
330
2A
100
AcDbProxyObject
 90
      499
 91
      501
 93
      436
310
42CC9915DA5C99599C985B595049028333333333333E33F0000000000000F90107901411070040501600405405064090741402480A0340
1001
ACAD
1000
AcDbSavedByObjectVersion
1070
     0
  0
ACAD_PROXY_OBJECT
  5
32
102
{ACAD_REACTORS
330
2A
102
}
330
2A
100
AcDbProxyObject
 90
      499
 91
      501
 93
      388
310
4150985CDA58D07406404333333333333E33F0000000000000F90107A41107004050150841D405064090741402480A0350
1001
ACAD
1000
AcDbSavedByObjectVersion
1070
     0
  0
ACAD_PROXY_OBJECT
  5
36
102
{ACAD_REACTORS
330
2A
102
}
330
2A
100
AcDbProxyObject
 90
      499
 91
      501
 93
      428
310
42109C9A59DA1D195B90C409028333333333333E33F0000000000000F9010790141107004050150841D405064090741402480A029950
1001
ACAD
1000
AcDbSavedByObjectVersion
1070
     0
  0
ACAD_PROXY_OBJECT
  5
3A
102
{ACAD_REACTORS
330
2A
102
}
330
2A
100
AcDbProxyObject
 90
      499
 91
      501
 93
      452
310
42D0DBDB1BDC90DA185B99D95104090240C333333333333E33F0000000000000F90108901411070040501508421405064090741402480A0350
1001
ACAD
1000
AcDbSavedByObjectVersion
1070
     0
  0
ACAD_PROXY_OBJECT
  5
34
102
{ACAD_REACTORS
330
2A
102
}
330
2A
100
AcDbProxyObject
 90
      499
 91
      501
 93
      500
310
4290DBDB98D95C1D1D585B10940D028333333333333E33F0000000000000F90107902409070040501000000000018199010841D405064090740C02480A0340
1001
ACAD
1000
AcDbSavedByObjectVersion
1070
     0
  0
ACAD_PROXY_OBJECT
  5
35
102
{ACAD_REACTORS
330
2A
102
}
330
2A
100
AcDbProxyObject
 90
      499
 91
      501
 93
      412
310
40D11A5B50B409028333333333333E33F0000000000000F9010790141107004050150841D405064090741402480A02677FFFFFD0
1001
ACAD
1000
AcDbSavedByObjectVersion
1070
     0
  0
ACAD_PROXY_OBJECT
  5
3D
102
{ACAD_REACTORS
330
2A
102
}
330
2A
100
AcDbProxyObject
 90
      499
 91
      501
 93
      452
310
43115919D950DBDB1BDC93D999916409028333333333333E33F0000000000000F9010790141107004050150841D405064090741402480A0350
1001
ACAD
1000
AcDbSavedByObjectVersion
1070
     0
  0
ACAD_PROXY_OBJECT
  5
39
102
{ACAD_REACTORS
330
2A
102
}
330
2A
100
AcDbProxyObject
 90
      499
 91
      501
 93
      444
310
42D19858D95C185D1D195C9B90F409028333333333333E33F0000000000000F9010790141107004050150841D405064090741402480A0350
1001
ACAD
1000
AcDbSavedByObjectVersion
1070
     0
  0
ACAD_PROXY_OBJECT
  5
2B
102
{ACAD_REACTORS
330
2A
102
}
330
2A
100
AcDbProxyObject
 90
      499
 91
      501
 93
      380
310
41119B185D240901404333333333333E33F0000000000000F9010740A907004050150841D405064090741402480A1B50
1001
ACAD
1000
AcDbSavedByObjectVersion
1070
     0
  0
ACAD_PROXY_OBJECT
  5
2C
102
{ACAD_REACTORS
330
2A
102
}
330
2A
100
AcDbProxyObject
 90
      499
 91
      501
 93
      468
310
43519B185D15DA5D1A115919D95CD0140901404333333333333E33F0000000000000F90107409019070040501600405405064090741402480A1B50
1001
ACAD
1000
AcDbSavedByObjectVersion
1070
     0
  0
ACAD_PROXY_OBJECT
  5
2D
102
{ACAD_REACTORS
330
2A
102
}
330
2A
100
AcDbProxyObject
 90
      499
 91
      501
 93
      404
310
41D1DBDD5C985D5910240902404333333333333E33F0000000000000F9010740A9070040501641D405064090741402480A1B50
1001
ACAD
1000
AcDbSavedByObjectVersion
1070
     0
  0
ACAD_PROXY_OBJECT
  5
2E
102
{ACAD_REACTORS
330
2A
102
}
330
2A
100
AcDbProxyObject
 90
      499
 91
      501
 93
      492
310
4411DBDD5C985D5915DA5D1A115919D95CD0340902404333333333333E33F0000000000000F90107409019070040501600405405064090741402480A1B50
1001
ACAD
1000
AcDbSavedByObjectVersion
1070
     0
  0
ACAD_PROXY_OBJECT
  5
31
102
{ACAD_REACTORS
330
2A
102
}
330
2A
100
AcDbProxyObject
 90
      499
 91
      501
 93
      476
310
41921A5919195B90640502408333333333333E33F0000000000000F901079024090700405020000000000001110200405405064090740C02480A0340
1001
ACAD
1000
AcDbSavedByObjectVersion
1070
     0
  0
ACAD_PROXY_OBJECT
  5
3B
102
{ACAD_REACTORS
330
2A
102
}
330
2A
100
AcDbProxyObject
 90
      499
 91
      501
 93
      428
310
42529A5D1D195C93D999914409028333333333333E33F0000000000000F9010790141107004050150A41D405064090741402480A0350
1001
ACAD
1000
AcDbSavedByObjectVersion
1070
     0
  0
ACAD_PROXY_OBJECT
  5
38
102
{ACAD_REACTORS
330
2A
102
}
330
2A
100
AcDbProxyObject
 90
      499
 91
      501
 93
      444
310
42D31A5B995C185D1D195C9B90E409028333333333333E33F0000000000000F9010790141107004050750841D405064090741402483A0350
1001
ACAD
1000
AcDbSavedByObjectVersion
1070
     0
  0
ACAD_PROXY_OBJECT
  5
3C
102
{ACAD_REACTORS
330
2A
102
}
330
2A
100
AcDbProxyObject
 90
      499
 91
      501
 93
      444
310
42D3DD995C9A185B99D3D999915409028333333333333E33F0000000000000F9010790141107004050150941D405064090741402480A0350
1001
ACAD
1000
AcDbSavedByObjectVersion
1070
     0
  0
ACAD_PROXY_OBJECT
  5
33
102
{ACAD_REACTORS
330
2A
102
}
330
2A
100
AcDbProxyObject
 90
      499
 91
      501
 93
      428
310
425499585B1A5CDD1A58D08409038333333333333E33F0000000000000F9010740A907004050150800405405064090740C02480A1B40
1001
ACAD
1000
AcDbSavedByObjectVersion
1070
     0
  0
ACAD_PROXY_OBJECT
  5
42
102
{ACAD_REACTORS
330
2A
102
}
330
2A
100
AcDbProxyObject
 90
      499
 91
      501
 93
      420
310
4194DA1859195911B40902404333333333333E33F0000000000000F9010740A41107004050150800405405064090840C02480A0B40
1001
ACAD
1000
AcDbSavedByObjectVersion
1070
     0
  0
ACAD_PROXY_OBJECT
  5
41
102
{ACAD_REACTORS
330
2A
102
}
330
2A
100
AcDbProxyObject
 90
      499
 91
      501
 93
      516
310
4454DA18591959081DDA5D1A08195919D95CD1A40902404333333333333E33F0000000000000F901074090142907004050250800405405064090740C02480A0B40
1001
ACAD
1000
AcDbSavedByObjectVersion
1070
     0
  0
ACAD_PROXY_OBJECT
  5
3E
102
{ACAD_REACTORS
330
2A
102
}
330
2A
100
AcDbProxyObject
 90
      499
 91
      501
 93
      532
310
4394DA1859195CC81BD98811DC985E5174090240C333333333333E33F0000000000000F901079024090741D01000000000000111010841D405064090740C02480A0340
1001
ACAD
1000
AcDbSavedByObjectVersion
1070
     0
  0
ACAD_PROXY_OBJECT
  5
3F
102
{ACAD_REACTORS
330
2A
102
}
330
2A
100
AcDbProxyObject
 90
      499
 91
      501
 93
      476
310
41D4DAD95D18DA1E51840502408333333333333E33F0000000000000F901079024090741D01000000000000111010B41D405064090741802480A0340
1001
ACAD
1000
AcDbSavedByObjectVersion
1070
     0
  0
ACAD_PROXY_OBJECT
  5
37
102
{ACAD_REACTORS
330
2A
102
}
330
2A
100
AcDbProxyObject
 90
      499
 91
      501
 93
      412
310
41D51A1A58DAD95B90D409028333333333333E33F0000000000000F9010790141107004050150C41D405064090741402480A0350
1001
ACAD
1000
AcDbSavedByObjectVersion
1070
     0
  0
ACAD_PROXY_OBJECT
  5
30
102
{ACAD_REACTORS
330
2A
102
}
330
2A
100
AcDbProxyObject
 90
      499
 91
      501
 93
      420
310
4255DA5C99599C985B595059028333333333333E33F0000000000000F90107901411070040501600405405064090740C02480A0340
1001
ACAD
1000
AcDbSavedByObjectVersion
1070
     0
  0
ACAD_PROXY_OBJECT
  5
40
102
{ACAD_REACTORS
330
2A
102
}
330
2A
100
AcDbProxyObject
 90
      499
 91
      501
 93
      404
310
41560B54985E51940902404000000000000E03F0000000000000F9010740501907004050150841D405064090740C02480A1B40
1001
ACAD
1000
AcDbSavedByObjectVersion
1070
     0
  0
XRECORD
  5
26D
102
{ACAD_REACTORS
330
263
102
}
330
263
100
AcDbXrecord
340
0
  0
XRECORD
  5
26C
102
{ACAD_REACTORS
330
263
102
}
330
263
100
AcDbXrecord
 90
        0
  0
XRECORD
  5
283
102
{ACAD_REACTORS
330
263
102
}
330
263
100
AcDbXrecord
1000
DSTYLE
1002
{
1070
   171
 70
     2
1070
   143
 40
25.4
1070
   274
 70
     2
1070
    41
 40
0.18
1070
   141
 40
0.09
1070
   271
 70
     4
1070
    43
 40
0.38
1070
   278
 70
    46
1070
    44
 40
0.18
1070
    42
 40
0.0625
1070
   147
 40
0.09
1070
    77
 70
     0
1070
   272
 70
     4
1070
    73
 70
     1
1070
   172
 70
     0
1070
    74
 70
     1
1070
   283
 70
     1
1070
   340
340
11
1070
   140
 40
0.18
1070
   284
 70
     0
1070
    78
 70
     0
1002
}
  0
XRECORD
  5
26E
102
{ACAD_REACTORS
330
263
102
}
330
263
100
AcDbXrecord
  1
{77e7c79d-03df-5440-b7ae-dc572e83c9ac}
  0
XRECORD
  5
266
102
{ACAD_REACTORS
330
263
102
}
330
263
100
AcDbXrecord
  1

  0
XRECORD
  5
26B
102
{ACAD_REACTORS
330
263
102
}
330
263
100
AcDbXrecord
 90
        4
  0
XRECORD
  5
268
102
{ACAD_REACTORS
330
263
102
}
330
263
100
AcDbXrecord
340
1A
  0
XRECORD
  5
26A
102
{ACAD_REACTORS
330
263
102
}
330
263
100
AcDbXrecord
 90
    10781
  0
XRECORD
  5
269
102
{ACAD_REACTORS
330
263
102
}
330
263
100
AcDbXrecord
340
19
  0
XRECORD
  5
270
102
{ACAD_REACTORS
330
263
102
}
330
263
100
AcDbXrecord
 40
0.0
  0
XRECORD
  5
273
102
{ACAD_REACTORS
330
263
102
}
330
263
100
AcDbXrecord
340
0
  0
XRECORD
  5
279
102
{ACAD_REACTORS
330
263
102
}
330
263
100
AcDbXrecord
 10
0.0
 20
0.0
 30
0.0
  0
XRECORD
  5
275
102
{ACAD_REACTORS
330
263
102
}
330
263
100
AcDbXrecord
 10
0.0
 20
0.0
 30
0.0
  0
XRECORD
  5
278
102
{ACAD_REACTORS
330
263
102
}
330
263
100
AcDbXrecord
 10
0.0
 20
0.0
 30
0.0
  0
XRECORD
  5
276
102
{ACAD_REACTORS
330
263
102
}
330
263
100
AcDbXrecord
 10
0.0
 20
0.0
 30
0.0
  0
XRECORD
  5
277
102
{ACAD_REACTORS
330
263
102
}
330
263
100
AcDbXrecord
 10
0.0
 20
0.0
 30
0.0
  0
XRECORD
  5
274
102
{ACAD_REACTORS
330
263
102
}
330
263
100
AcDbXrecord
 10
0.0
 20
0.0
 30
0.0
  0
XRECORD
  5
271
102
{ACAD_REACTORS
330
263
102
}
330
263
100
AcDbXrecord
340
0
  0
XRECORD
  5
272
102
{ACAD_REACTORS
330
263
102
}
330
263
100
AcDbXrecord
 70
     0
  0
XRECORD
  5
267
102
{ACAD_REACTORS
330
263
102
}
330
263
100
AcDbXrecord
  1

  0
XRECORD
  5
264
102
{ACAD_REACTORS
330
263
102
}
330
263
100
AcDbXrecord
 90
        1
  0
XRECORD
  5
265
102
{ACAD_REACTORS
330
263
102
}
330
263
100
AcDbXrecord
 90
       70
  0
XRECORD
  5
27C
102
{ACAD_REACTORS
330
263
102
}
330
263
100
AcDbXrecord
340
0
  0
XRECORD
  5
282
102
{ACAD_REACTORS
330
263
102
}
330
263
100
AcDbXrecord
 10
0.0
 20
0.0
 30
0.0
  0
XRECORD
  5
27E
102
{ACAD_REACTORS
330
263
102
}
330
263
100
AcDbXrecord
 10
0.0
 20
0.0
 30
0.0
  0
XRECORD
  5
281
102
{ACAD_REACTORS
330
263
102
}
330
263
100
AcDbXrecord
 10
0.0
 20
0.0
 30
0.0
  0
XRECORD
  5
27F
102
{ACAD_REACTORS
330
263
102
}
330
263
100
AcDbXrecord
 10
0.0
 20
0.0
 30
0.0
  0
XRECORD
  5
280
102
{ACAD_REACTORS
330
263
102
}
330
263
100
AcDbXrecord
 10
0.0
 20
0.0
 30
0.0
  0
XRECORD
  5
27D
102
{ACAD_REACTORS
330
263
102
}
330
263
100
AcDbXrecord
 10
0.0
 20
0.0
 30
0.0
  0
XRECORD
  5
27A
102
{ACAD_REACTORS
330
263
102
}
330
263
100
AcDbXrecord
340
0
  0
XRECORD
  5
27B
102
{ACAD_REACTORS
330
263
102
}
330
263
100
AcDbXrecord
 70
     0
  0
XRECORD
  5
26F
102
{ACAD_REACTORS
330
263
102
}
330
263
100
AcDbXrecord
  1
{FAEB1C32-E019-11D5-929B-00C0DF256EC4}
  0
DICTIONARYVAR
  5
28E
102
{ACAD_REACTORS
330
284
102
}
330
284
100
DictionaryVariables
280
     0
  1
1:1
  0
DICTIONARYVAR
  5
286
102
{ACAD_REACTORS
330
284
102
}
330
284
100
DictionaryVariables
280
     0
  1
Standard
  0
DICTIONARYVAR
  5
285
102
{ACAD_REACTORS
330
284
102
}
330
284
100
DictionaryVariables
280
     0
  1
Standard
  0
DICTIONARYVAR
  5
289
102
{ACAD_REACTORS
330
284
102
}
330
284
100
DictionaryVariables
280
     0
  1
2
  0
DICTIONARYVAR
  5
28A
102
{ACAD_REACTORS
330
284
102
}
330
284
100
DictionaryVariables
280
     0
  1
1
  0
DICTIONARYVAR
  5
28F
102
{ACAD_REACTORS
330
284
102
}
330
284
100
DictionaryVariables
280
     0
  1
1
  0
DICTIONARY
  5
292
330
45
100
AcDbDictionary
280
     1
  3
ACAD_XREC_ROUNDTRIP
360
293
  0
DICTIONARY
  5
290
330
44
100
AcDbDictionary
280
     1
  3
ACAD_XREC_ROUNDTRIP
360
291
  0
DICTIONARY
  5
294
330
46
100
AcDbDictionary
280
     1
  3
ACAD_XREC_ROUNDTRIP
360
295
  0
XRECORD
  5
293
102
{ACAD_REACTORS
330
292
102
}
330
292
100
AcDbXrecord
102
MATERIAL
148
0.0
149
0.0
149
0.0
 93
        0
 94
      127
282
     0
 72
     1
 77
     1
171
     1
175
     1
179
     1
273
     0
  0
XRECORD
  5
291
102
{ACAD_REACTORS
330
290
102
}
330
290
100
AcDbXrecord
102
MATERIAL
148
0.0
149
0.0
149
0.0
 93
        0
 94
      127
282
     0
 72
     1
 77
     1
171
     1
175
     1
179
     1
273
     0
  0
XRECORD
  5
295
102
{ACAD_REACTORS
330
294
102
}
330
294
100
AcDbXrecord
102
MATERIAL
148
0.0
149
0.0
149
0.0
 93
        0
 94
      127
282
     0
 72
     1
 77
     1
171
     1
175
     1
179
     1
273
     0
  0
ENDSEC
  0
EOF
