  0
SECTION
  2
HEADER
  9
$ACADVER
  1
AC1014
  9
$ACADMAINTVER
 70
     9
  9
$DWGCODEPAGE
  3
CNT
  9
$INSBASE
 10
0.0
 20
0.0
 30
0.0
  9
$EXTMIN
 10
1.000000000000000E+20
 20
1.000000000000000E+20
 30
1.000000000000000E+20
  9
$EXTMAX
 10
-1.000000000000000E+20
 20
-1.000000000000000E+20
 30
-1.000000000000000E+20
  9
$LIMMIN
 10
0.0
 20
0.0
  9
$LIMMAX
 10
12.0
 20
9.0
  9
$ORTHOMODE
 70
     0
  9
$REGENMODE
 70
     1
  9
$FILLMODE
 70
     1
  9
$QTEXTMODE
 70
     0
  9
$MIRRTEXT
 70
     1
  9
$DRAGMODE
 70
     2
  9
$LTSCALE
 40
1.0
  9
$OSMODE
 70
    37
  9
$ATTMODE
 70
     1
  9
$TEXTSIZE
 40
0.2
  9
$TRACEWID
 40
0.05
  9
$TEXTSTYLE
  7
STANDARD
  9
$CLAYER
  8
0
  9
$CELTYPE
  6
BYLAYER
  9
$CECOLOR
 62
   256
  9
$CELTSCALE
 40
1.0
  9
$DELOBJ
 70
     1
  9
$DISPSILH
 70
     0
  9
$DIMSCALE
 40
1.0
  9
$DIMASZ
 40
0.18
  9
$DIMEXO
 40
0.0625
  9
$DIMDLI
 40
0.38
  9
$DIMRND
 40
0.0
  9
$DIMDLE
 40
0.0
  9
$DIMEXE
 40
0.18
  9
$DIMTP
 40
0.0
  9
$DIMTM
 40
0.0
  9
$DIMTXT
 40
0.18
  9
$DIMCEN
 40
0.09
  9
$DIMTSZ
 40
0.0
  9
$DIMTOL
 70
     0
  9
$DIMLIM
 70
     0
  9
$DIMTIH
 70
     1
  9
$DIMTOH
 70
     1
  9
$DIMSE1
 70
     0
  9
$DIMSE2
 70
     0
  9
$DIMTAD
 70
     0
  9
$DIMZIN
 70
     0
  9
$DIMBLK
  1

  9
$DIMASO
 70
     1
  9
$DIMSHO
 70
     1
  9
$DIMPOST
  1

  9
$DIMAPOST
  1

  9
$DIMALT
 70
     0
  9
$DIMALTD
 70
     2
  9
$DIMALTF
 40
25.4
  9
$DIMLFAC
 40
1.0
  9
$DIMTOFL
 70
     0
  9
$DIMTVP
 40
0.0
  9
$DIMTIX
 70
     0
  9
$DIMSOXD
 70
     0
  9
$DIMSAH
 70
     0
  9
$DIMBLK1
  1

  9
$DIMBLK2
  1

  9
$DIMSTYLE
  2
STANDARD
  9
$DIMCLRD
 70
     0
  9
$DIMCLRE
 70
     0
  9
$DIMCLRT
 70
     0
  9
$DIMTFAC
 40
1.0
  9
$DIMGAP
 40
0.09
  9
$DIMJUST
 70
     0
  9
$DIMSD1
 70
     0
  9
$DIMSD2
 70
     0
  9
$DIMTOLJ
 70
     1
  9
$DIMTZIN
 70
     0
  9
$DIMALTZ
 70
     0
  9
$DIMALTTZ
 70
     0
  9
$DIMFIT
 70
     3
  9
$DIMUPT
 70
     0
  9
$DIMUNIT
 70
     2
  9
$DIMDEC
 70
     4
  9
$DIMTDEC
 70
     4
  9
$DIMALTU
 70
     2
  9
$DIMALTTD
 70
     2
  9
$DIMTXSTY
  7
STANDARD
  9
$DIMAUNIT
 70
     0
  9
$LUNITS
 70
     2
  9
$LUPREC
 70
     4
  9
$SKETCHINC
 40
0.1
  9
$FILLETRAD
 40
0.0
  9
$AUNITS
 70
     0
  9
$AUPREC
 70
     0
  9
$MENU
  1
.
  9
$ELEVATION
 40
0.0
  9
$PELEVATION
 40
0.0
  9
$THICKNESS
 40
0.0
  9
$LIMCHECK
 70
     0
  9
$CHAMFERA
 40
0.0
  9
$CHAMFERB
 40
0.0
  9
$CHAMFERC
 40
0.0
  9
$CHAMFERD
 40
0.0
  9
$SKPOLY
 70
     0
  9
$TDCREATE
 40
2460536.454474931
  9
$TDUPDATE
 40
2460536.454474954
  9
$TDINDWG
 40
0.0000000116
  9
$TDUSRTIMER
 40
0.0000000116
  9
$USRTIMER
 70
     1
  9
$ANGBASE
 50
0.0
  9
$ANGDIR
 70
     0
  9
$PDMODE
 70
     0
  9
$PDSIZE
 40
0.0
  9
$PLINEWID
 40
0.0
  9
$COORDS
 70
     1
  9
$SPLFRAME
 70
     0
  9
$SPLINETYPE
 70
     6
  9
$SPLINESEGS
 70
     8
  9
$ATTDIA
 70
     0
  9
$ATTREQ
 70
     1
  9
$HANDLING
 70
     1
  9
$HANDSEED
  5
10B
  9
$SURFTAB1
 70
     6
  9
$SURFTAB2
 70
     6
  9
$SURFTYPE
 70
     6
  9
$SURFU
 70
     6
  9
$SURFV
 70
     6
  9
$UCSNAME
  2

  9
$UCSORG
 10
0.0
 20
0.0
 30
0.0
  9
$UCSXDIR
 10
1.0
 20
0.0
 30
0.0
  9
$UCSYDIR
 10
0.0
 20
1.0
 30
0.0
  9
$PUCSNAME
  2

  9
$PUCSORG
 10
0.0
 20
0.0
 30
0.0
  9
$PUCSXDIR
 10
1.0
 20
0.0
 30
0.0
  9
$PUCSYDIR
 10
0.0
 20
1.0
 30
0.0
  9
$USERI1
 70
     0
  9
$USERI2
 70
     0
  9
$USERI3
 70
     0
  9
$USERI4
 70
     0
  9
$USERI5
 70
     0
  9
$USERR1
 40
0.0
  9
$USERR2
 40
0.0
  9
$USERR3
 40
0.0
  9
$USERR4
 40
0.0
  9
$USERR5
 40
0.0
  9
$WORLDVIEW
 70
     1
  9
$SHADEDGE
 70
     3
  9
$SHADEDIF
 70
    70
  9
$TILEMODE
 70
     1
  9
$MAXACTVP
 70
    64
  9
$PINSBASE
 10
0.0
 20
0.0
 30
0.0
  9
$PLIMCHECK
 70
     0
  9
$PEXTMIN
 10
1.000000000000000E+20
 20
1.000000000000000E+20
 30
1.000000000000000E+20
  9
$PEXTMAX
 10
-1.000000000000000E+20
 20
-1.000000000000000E+20
 30
-1.000000000000000E+20
  9
$PLIMMIN
 10
0.0
 20
0.0
  9
$PLIMMAX
 10
12.0
 20
9.0
  9
$UNITMODE
 70
     0
  9
$VISRETAIN
 70
     1
  9
$PLINEGEN
 70
     0
  9
$PSLTSCALE
 70
     1
  9
$TREEDEPTH
 70
  3020
  9
$PICKSTYLE
 70
     1
  9
$CMLSTYLE
  2
STANDARD
  9
$CMLJUST
 70
     0
  9
$CMLSCALE
 40
1.0
  9
$PROXYGRAPHICS
 70
     1
  9
$MEASUREMENT
 70
     1
  0
ENDSEC
  0
SECTION
  2
CLASSES
  0
CLASS
  1
ACDBDICTIONARYWDFLT
  2
AcDbDictionaryWithDefault
  3
ObjectDBX Classes
 90
        0
280
     0
281
     0
  0
CLASS
  1
VISUALSTYLE
  2
AcDbVisualStyle
  3
ObjectDBX Classes
 90
     4095
280
     0
281
     0
  0
CLASS
  1
MATERIAL
  2
AcDbMaterial
  3
ObjectDBX Classes
 90
     1153
280
     0
281
     0
  0
CLASS
  1
SCALE
  2
AcDbScale
  3
ObjectDBX Classes
 90
     1153
280
     0
281
     0
  0
CLASS
  1
TABLESTYLE
  2
AcDbTableStyle
  3
ObjectDBX Classes
 90
     4095
280
     0
281
     0
  0
CLASS
  1
MLEADERSTYLE
  2
AcDbMLeaderStyle
  3
ACDB_MLEADERSTYLE_CLASS
 90
     4095
280
     0
281
     0
  0
CLASS
  1
SUN
  2
AcDbSun
  3
SCENEOE
 90
     1153
280
     0
281
     0
  0
CLASS
  1
DICTIONARYVAR
  2
AcDbDictionaryVar
  3
ObjectDBX Classes
 90
        0
280
     0
281
     0
  0
CLASS
  1
XRECORD
  2
AcDbXrecord
  3
ObjectDBX Classes
 90
        0
280
     0
281
     0
  0
CLASS
  1
LWPOLYLINE
  2
AcDbPolyline
  3
ObjectDBX Classes
 90
        0
280
     0
281
     1
  0
CLASS
  1
HATCH
  2
AcDbHatch
  3
ObjectDBX Classes
 90
        0
280
     0
281
     1
  0
CLASS
  1
ACDBPLACEHOLDER
  2
AcDbPlaceHolder
  3
ObjectDBX Classes
 90
        0
280
     0
281
     0
  0
CLASS
  1
LAYOUT
  2
AcDbLayout
  3
ObjectDBX Classes
 90
        0
280
     0
281
     0
  0
ENDSEC
  0
SECTION
  2
TABLES
  0
TABLE
  2
VPORT
  5
8
102
{ACAD_XDICTIONARY
360
100
102
}
330
0
100
AcDbSymbolTable
 70
     1
  0
VPORT
  5
29
330
8
100
AcDbSymbolTableRecord
100
AcDbViewportTableRecord
  2
*ACTIVE
 70
     0
 10
0.0
 20
0.0
 11
1.0
 21
1.0
 12
0.0
 22
0.0
 13
0.0
 23
0.0
 14
0.5
 24
0.5
 15
0.5
 25
0.5
 16
0.0
 26
0.0
 36
1.0
 17
0.0
 27
0.0
 37
-1000.0
 40
166494.7118154014
 41
1.75609756097561
 42
50.0
 43
264026.881307344
 44
792080643.922032
 50
0.0
 51
0.0
 71
     0
 72
   100
 73
     1
 74
     3
 75
     0
 76
     0
 77
     0
 78
     0
  0
ENDTAB
  0
TABLE
  2
LTYPE
  5
5
330
0
100
AcDbSymbolTable
 70
     1
  0
LTYPE
  5
14
330
5
100
AcDbSymbolTableRecord
100
AcDbLinetypeTableRecord
  2
BYBLOCK
 70
     0
  3

 72
    65
 73
     0
 40
0.0
  0
LTYPE
  5
15
330
5
100
AcDbSymbolTableRecord
100
AcDbLinetypeTableRecord
  2
BYLAYER
 70
     0
  3

 72
    65
 73
     0
 40
0.0
  0
LTYPE
  5
16
330
5
100
AcDbSymbolTableRecord
100
AcDbLinetypeTableRecord
  2
CONTINUOUS
 70
     0
  3
Solid line
 72
    65
 73
     0
 40
0.0
  0
ENDTAB
  0
TABLE
  2
LAYER
  5
2
330
0
100
AcDbSymbolTable
 70
     3
  0
LAYER
  5
10
330
2
100
AcDbSymbolTableRecord
100
AcDbLayerTableRecord
  2
0
 70
     0
 62
     7
  6
CONTINUOUS
  0
LAYER
  5
5E
330
2
100
AcDbSymbolTableRecord
100
AcDbLayerTableRecord
  2
PROFILEEDGES
 70
     0
 62
     7
  6
CONTINUOUS
  0
LAYER
  5
5F
330
2
100
AcDbSymbolTableRecord
100
AcDbLayerTableRecord
  2
SECTIONCUTEDGES
 70
     0
 62
     7
  6
CONTINUOUS
  0
ENDTAB
  0
TABLE
  2
STYLE
  5
3
330
0
100
AcDbSymbolTable
 70
     1
  0
STYLE
  5
11
330
3
100
AcDbSymbolTableRecord
100
AcDbTextStyleTableRecord
  2
STANDARD
 70
     0
 40
0.0
 41
1.0
 50
0.0
 71
     0
 42
0.2
  3
txt
  4

  0
ENDTAB
  0
TABLE
  2
VIEW
  5
6
330
0
100
AcDbSymbolTable
 70
     0
  0
ENDTAB
  0
TABLE
  2
UCS
  5
7
330
0
100
AcDbSymbolTable
 70
     0
  0
ENDTAB
  0
TABLE
  2
APPID
  5
9
330
0
100
AcDbSymbolTable
 70
     2
  0
APPID
  5
12
330
9
100
AcDbSymbolTableRecord
100
AcDbRegAppTableRecord
  2
ACAD
 70
     0
  0
APPID
  5
10A
330
9
100
AcDbSymbolTableRecord
100
AcDbRegAppTableRecord
  2
ACAD_MLEADERVER
 70
     0
  0
ENDTAB
  0
TABLE
  2
DIMSTYLE
  5
A
330
0
100
AcDbSymbolTable
 70
     1
  0
DIMSTYLE
105
27
330
A
100
AcDbSymbolTableRecord
100
AcDbDimStyleTableRecord
  2
STANDARD
 70
     0
  3

  4

  5

  6

  7

 40
1.0
 41
0.18
 42
0.0625
 43
0.38
 44
0.18
 45
0.0
 46
0.0
 47
0.0
 48
0.0
140
0.18
141
0.09
142
0.0
143
25.4
144
1.0
145
0.0
146
1.0
147
0.09
 71
     0
 72
     0
 73
     1
 74
     1
 75
     0
 76
     0
 77
     0
 78
     0
170
     0
171
     2
172
     0
173
     0
174
     0
175
     0
176
     0
177
     0
178
     0
270
     2
271
     4
272
     4
273
     2
274
     2
340
11
275
     0
280
     0
281
     0
282
     0
283
     1
284
     0
285
     0
286
     0
287
     3
288
     0
  0
ENDTAB
  0
TABLE
  2
BLOCK_RECORD
  5
1
330
0
100
AcDbSymbolTable
 70
     0
  0
BLOCK_RECORD
  5
1F
330
1
100
AcDbSymbolTableRecord
100
AcDbBlockTableRecord
  2
*MODEL_SPACE
  0
BLOCK_RECORD
  5
1B
330
1
100
AcDbSymbolTableRecord
100
AcDbBlockTableRecord
  2
*PAPER_SPACE
  0
ENDTAB
  0
ENDSEC
  0
SECTION
  2
BLOCKS
  0
BLOCK
  5
20
330
1F
100
AcDbEntity
  8
0
100
AcDbBlockBegin
  2
*MODEL_SPACE
 70
     0
 10
0.0
 20
0.0
 30
0.0
  3
*MODEL_SPACE
  1

  0
ENDBLK
  5
21
330
1F
100
AcDbEntity
  8
0
100
AcDbBlockEnd
  0
BLOCK
  5
1C
330
1B
100
AcDbEntity
 67
     1
  8
0
100
AcDbBlockBegin
  2
*PAPER_SPACE
 70
     0
 10
0.0
 20
0.0
 30
0.0
  3
*PAPER_SPACE
  1

  0
ENDBLK
  5
1D
330
1B
100
AcDbEntity
 67
     1
  8
0
100
AcDbBlockEnd
  0
ENDSEC
  0
SECTION
  2
ENTITIES
  0
LINE
  5
60
330
1F
100
AcDbEntity
  8
SECTIONCUTEDGES
100
AcDbLine
 10
179456.175142758
 20
-3147.336832529415
 30
0.0
 11
179456.7573654413
 21
-47.33683252941503
 31
0.0
  0
LINE
  5
61
330
1F
100
AcDbEntity
  8
SECTIONCUTEDGES
100
AcDbLine
 10
179456.7573654413
 20
-47.33683252941521
 30
0.0
 11
179456.7573654413
 21
512.0032965288186
 31
0.0
  0
LINE
  5
62
330
1F
100
AcDbEntity
  8
SECTIONCUTEDGES
100
AcDbLine
 10
179456.175142758
 20
-3147.336832529415
 30
0.0
 11
187718.5139572381
 21
-3147.336832529415
 31
0.0
  0
LINE
  5
63
330
1F
100
AcDbEntity
  8
SECTIONCUTEDGES
100
AcDbLine
 10
195218.5139572382
 20
-3147.336832529415
 30
0.0
 11
195618.5139572381
 21
-3147.336832529415
 31
0.0
  0
LINE
  5
64
330
1F
100
AcDbEntity
  8
SECTIONCUTEDGES
100
AcDbLine
 10
187718.5139572381
 20
-3147.336832529415
 30
0.0
 11
195218.5139572382
 21
-3147.336832529415
 31
0.0
  0
LINE
  5
65
330
1F
100
AcDbEntity
  8
SECTIONCUTEDGES
100
AcDbLine
 10
186961.4460861444
 20
526.9688448845251
 30
0.0
 11
187021.4460861444
 21
526.9688448845251
 31
0.0
  0
LINE
  5
66
330
1F
100
AcDbEntity
  8
SECTIONCUTEDGES
100
AcDbLine
 10
186961.4460861444
 20
626.9688448845251
 30
0.0
 11
186961.4460861444
 21
526.9688448845251
 31
0.0
  0
LINE
  5
67
330
1F
100
AcDbEntity
  8
SECTIONCUTEDGES
100
AcDbLine
 10
187021.4460861444
 20
626.9688448845251
 30
0.0
 11
186961.4460861444
 21
626.9688448845251
 31
0.0
  0
LINE
  5
68
330
1F
100
AcDbEntity
  8
SECTIONCUTEDGES
100
AcDbLine
 10
187021.4460861444
 20
526.9688448845251
 30
0.0
 11
187021.4460861444
 21
626.9688448845251
 31
0.0
  0
LINE
  5
69
330
1F
100
AcDbEntity
  8
SECTIONCUTEDGES
100
AcDbLine
 10
174618.5139572382
 20
-3147.336832529415
 30
0.0
 11
179456.175142758
 21
-3147.336832529415
 31
0.0
  0
LINE
  5
6A
330
1F
100
AcDbEntity
  8
SECTIONCUTEDGES
100
AcDbLine
 10
195618.5139572381
 20
-3147.336832529415
 30
0.0
 11
195618.5139572381
 21
-1562.129847055782
 31
0.0
  0
LINE
  5
6B
330
1F
100
AcDbEntity
  8
SECTIONCUTEDGES
100
AcDbLine
 10
179128.5603439569
 20
-1827.336832529415
 30
0.0
 11
174628.5603439569
 21
-1827.336832529415
 31
0.0
  0
LINE
  5
6C
330
1F
100
AcDbEntity
  8
SECTIONCUTEDGES
100
AcDbLine
 10
179172.1089279413
 20
1372.663167470585
 30
0.0
 11
179172.1089279413
 21
-1827.336832529415
 31
0.0
  0
LINE
  5
6D
330
1F
100
AcDbEntity
  8
SECTIONCUTEDGES
100
AcDbLine
 10
184492.4759246966
 20
-3147.336832529415
 30
0.0
 11
185122.7061779497
 21
-3147.336832529415
 31
0.0
  0
LINE
  5
6E
330
1F
100
AcDbEntity
  8
SECTIONCUTEDGES
100
AcDbLine
 10
188171.2237426459
 20
-3147.336832529415
 30
0.0
 11
195218.5139572382
 21
-3147.336832529415
 31
0.0
  0
LINE
  5
6F
330
1F
100
AcDbEntity
  8
SECTIONCUTEDGES
100
AcDbLine
 10
195218.5139572382
 20
-3147.336832529415
 30
0.0
 11
195218.5139572382
 21
-2847.336832529415
 31
0.0
  0
LINE
  5
70
330
1F
100
AcDbEntity
  8
SECTIONCUTEDGES
100
AcDbLine
 10
186742.0096192842
 20
-2847.336832529564
 30
0.0
 11
180218.9400799417
 21
-2847.336832529606
 31
0.0
  0
LINE
  5
71
330
1F
100
AcDbEntity
  8
SECTIONCUTEDGES
100
AcDbLine
 10
186434.2986769479
 20
-3147.336832529415
 30
0.0
 11
185122.7061779497
 21
-3147.336832529415
 31
0.0
  0
LINE
  5
72
330
1F
100
AcDbEntity
  8
SECTIONCUTEDGES
100
AcDbLine
 10
195218.5139572382
 20
-2847.336832529415
 30
0.0
 11
188171.2237426459
 21
-2847.336832529415
 31
0.0
  0
LINE
  5
73
330
1F
100
AcDbEntity
  8
SECTIONCUTEDGES
100
AcDbLine
 10
188171.2237426459
 20
-3147.336832529415
 30
0.0
 11
188171.2237426459
 21
-2847.336832529415
 31
0.0
  0
LINE
  5
74
330
1F
100
AcDbEntity
  8
SECTIONCUTEDGES
100
AcDbLine
 10
186742.0096192842
 20
-2847.336832529564
 30
0.0
 11
186742.0096192842
 21
-3147.336832529415
 31
0.0
  0
LINE
  5
75
330
1F
100
AcDbEntity
  8
SECTIONCUTEDGES
100
AcDbLine
 10
186434.2986769479
 20
-3147.336832529415
 30
0.0
 11
186742.0096192842
 21
-3147.336832529415
 31
0.0
  0
LINE
  5
76
330
1F
100
AcDbEntity
  8
SECTIONCUTEDGES
100
AcDbLine
 10
180218.9400799417
 20
-3147.336832529472
 30
0.0
 11
180218.9400799417
 21
-2847.336832529606
 31
0.0
  0
LINE
  5
77
330
1F
100
AcDbEntity
  8
SECTIONCUTEDGES
100
AcDbLine
 10
179564.0194763773
 20
-3147.336832529409
 30
0.0
 11
180218.9400799417
 21
-3147.336832529472
 31
0.0
  0
LINE
  5
78
330
1F
100
AcDbEntity
  8
SECTIONCUTEDGES
100
AcDbLine
 10
183771.4580061013
 20
850.7683046349102
 30
0.0
 11
183770.9858810663
 21
919.474371427189
 31
0.0
  0
LINE
  5
79
330
1F
100
AcDbEntity
  8
SECTIONCUTEDGES
100
AcDbLine
 10
183770.9858810663
 20
919.474371427189
 30
0.0
 11
183711.2486193126
 21
953.4185325493012
 31
0.0
  0
LINE
  5
7A
330
1F
100
AcDbEntity
  8
SECTIONCUTEDGES
100
AcDbLine
 10
183711.2486193126
 20
953.4185325493012
 30
0.0
 11
183651.9834825939
 21
918.6566268791354
 31
0.0
  0
LINE
  5
7B
330
1F
100
AcDbEntity
  8
SECTIONCUTEDGES
100
AcDbLine
 10
183651.9834825939
 20
918.6566268791354
 30
0.0
 11
183652.4556076288
 21
849.9505600868567
 31
0.0
  0
LINE
  5
7C
330
1F
100
AcDbEntity
  8
SECTIONCUTEDGES
100
AcDbLine
 10
183652.4556076288
 20
849.9505600868567
 30
0.0
 11
183712.1928693825
 21
816.0063989647446
 31
0.0
  0
LINE
  5
7D
330
1F
100
AcDbEntity
  8
SECTIONCUTEDGES
100
AcDbLine
 10
183712.1928693825
 20
816.0063989647446
 30
0.0
 11
183771.4580061013
 21
850.7683046349102
 31
0.0
  0
LINE
  5
7E
330
1F
100
AcDbEntity
  8
SECTIONCUTEDGES
100
AcDbLine
 10
182230.2165899219
 20
919.695657785855
 30
0.0
 11
182216.6951095819
 21
958.6885056434974
 31
0.0
  0
LINE
  5
7F
330
1F
100
AcDbEntity
  8
SECTIONCUTEDGES
100
AcDbLine
 10
182216.6951095819
 20
958.6885056434974
 30
0.0
 11
182176.1655726013
 21
966.4749841011153
 31
0.0
  0
LINE
  5
80
330
1F
100
AcDbEntity
  8
SECTIONCUTEDGES
100
AcDbLine
 10
182176.1655726013
 20
966.4749841011153
 30
0.0
 11
182149.1575159607
 21
935.2686147010908
 31
0.0
  0
LINE
  5
81
330
1F
100
AcDbEntity
  8
SECTIONCUTEDGES
100
AcDbLine
 10
182149.1575159607
 20
935.2686147010908
 30
0.0
 11
182162.6789963007
 21
896.2757668434484
 31
0.0
  0
LINE
  5
82
330
1F
100
AcDbEntity
  8
SECTIONCUTEDGES
100
AcDbLine
 10
182162.6789963007
 20
896.2757668434484
 30
0.0
 11
182203.2085332813
 21
888.4892883858305
 31
0.0
  0
LINE
  5
83
330
1F
100
AcDbEntity
  8
SECTIONCUTEDGES
100
AcDbLine
 10
182203.2085332813
 20
888.4892883858305
 30
0.0
 11
182230.2165899219
 21
919.695657785855
 31
0.0
  0
LINE
  5
84
330
1F
100
AcDbEntity
  8
SECTIONCUTEDGES
100
AcDbLine
 10
179936.6597091913
 20
838.9706692634925
 30
0.0
 11
180086.6597091913
 21
838.9706692634925
 31
0.0
  0
LINE
  5
85
330
1F
100
AcDbEntity
  8
SECTIONCUTEDGES
100
AcDbLine
 10
179936.6597091913
 20
888.9706692634923
 30
0.0
 11
179936.6597091913
 21
838.9706692634925
 31
0.0
  0
LINE
  5
86
330
1F
100
AcDbEntity
  8
SECTIONCUTEDGES
100
AcDbLine
 10
180086.6597091913
 20
888.9706692634923
 30
0.0
 11
179936.6597091913
 21
888.9706692634923
 31
0.0
  0
LINE
  5
87
330
1F
100
AcDbEntity
  8
SECTIONCUTEDGES
100
AcDbLine
 10
180086.6597091913
 20
838.9706692634925
 30
0.0
 11
180086.6597091913
 21
888.9706692634923
 31
0.0
  0
LINE
  5
88
330
1F
100
AcDbEntity
  8
SECTIONCUTEDGES
100
AcDbLine
 10
184863.4883224725
 20
899.298017972599
 30
0.0
 11
184863.4883224725
 21
839.2980179725989
 31
0.0
  0
LINE
  5
89
330
1F
100
AcDbEntity
  8
SECTIONCUTEDGES
100
AcDbLine
 10
185023.4883224725
 20
899.298017972599
 30
0.0
 11
184863.4883224725
 21
899.298017972599
 31
0.0
  0
LINE
  5
8A
330
1F
100
AcDbEntity
  8
SECTIONCUTEDGES
100
AcDbLine
 10
185023.4883224725
 20
839.2980179725989
 30
0.0
 11
185023.4883224725
 21
899.298017972599
 31
0.0
  0
LINE
  5
8B
330
1F
100
AcDbEntity
  8
SECTIONCUTEDGES
100
AcDbLine
 10
184863.4883224725
 20
839.2980179725989
 30
0.0
 11
185023.4883224725
 21
839.2980179725989
 31
0.0
  0
LINE
  5
8C
330
1F
100
AcDbEntity
  8
SECTIONCUTEDGES
100
AcDbLine
 10
186363.4883224725
 20
899.298017972599
 30
0.0
 11
186363.4883224725
 21
839.2980179725989
 31
0.0
  0
LINE
  5
8D
330
1F
100
AcDbEntity
  8
SECTIONCUTEDGES
100
AcDbLine
 10
186523.4883224725
 20
899.298017972599
 30
0.0
 11
186363.4883224725
 21
899.298017972599
 31
0.0
  0
LINE
  5
8E
330
1F
100
AcDbEntity
  8
SECTIONCUTEDGES
100
AcDbLine
 10
186523.4883224725
 20
839.2980179725989
 30
0.0
 11
186523.4883224725
 21
899.298017972599
 31
0.0
  0
LINE
  5
8F
330
1F
100
AcDbEntity
  8
SECTIONCUTEDGES
100
AcDbLine
 10
186363.4883224725
 20
839.2980179725989
 30
0.0
 11
186523.4883224725
 21
839.2980179725989
 31
0.0
  0
LINE
  5
90
330
1F
100
AcDbEntity
  8
SECTIONCUTEDGES
100
AcDbLine
 10
182230.2165899219
 20
1819.695657785855
 30
0.0
 11
182216.6951095819
 21
1858.688505643497
 31
0.0
  0
LINE
  5
91
330
1F
100
AcDbEntity
  8
SECTIONCUTEDGES
100
AcDbLine
 10
182216.6951095819
 20
1858.688505643497
 30
0.0
 11
182176.1655726013
 21
1866.474984101115
 31
0.0
  0
LINE
  5
92
330
1F
100
AcDbEntity
  8
SECTIONCUTEDGES
100
AcDbLine
 10
182176.1655726013
 20
1866.474984101115
 30
0.0
 11
182149.1575159607
 21
1835.268614701091
 31
0.0
  0
LINE
  5
93
330
1F
100
AcDbEntity
  8
SECTIONCUTEDGES
100
AcDbLine
 10
182149.1575159607
 20
1835.268614701091
 30
0.0
 11
182162.6789963007
 21
1796.275766843448
 31
0.0
  0
LINE
  5
94
330
1F
100
AcDbEntity
  8
SECTIONCUTEDGES
100
AcDbLine
 10
182162.6789963007
 20
1796.275766843448
 30
0.0
 11
182203.2085332813
 21
1788.489288385831
 31
0.0
  0
LINE
  5
95
330
1F
100
AcDbEntity
  8
SECTIONCUTEDGES
100
AcDbLine
 10
182203.2085332813
 20
1788.489288385831
 30
0.0
 11
182230.2165899219
 21
1819.695657785855
 31
0.0
  0
LINE
  5
96
330
1F
100
AcDbEntity
  8
SECTIONCUTEDGES
100
AcDbLine
 10
178299.3259984109
 20
-2845.186510543643
 30
0.0
 11
178299.3259984109
 21
-2845.702166694705
 31
0.0
  0
LINE
  5
97
330
1F
100
AcDbEntity
  8
SECTIONCUTEDGES
100
AcDbLine
 10
180038.2981969498
 20
-2840.062134705996
 30
0.0
 11
180057.9997133968
 21
-2847.336832529447
 31
0.0
  0
LINE
  5
98
330
1F
100
AcDbEntity
  8
SECTIONCUTEDGES
100
AcDbLine
 10
180227.5417647487
 20
-2388.260733608779
 30
0.0
 11
180057.9997133969
 21
-2847.336832529412
 31
0.0
  0
LINE
  5
99
330
1F
100
AcDbEntity
  8
SECTIONCUTEDGES
100
AcDbLine
 10
180038.2981969498
 20
-2840.062134705953
 30
0.0
 11
180207.8340619557
 21
-2381.00246908493
 31
0.0
  0
LINE
  5
9A
330
1F
100
AcDbEntity
  8
SECTIONCUTEDGES
100
AcDbLine
 10
180207.8340619557
 20
-2381.00246908493
 30
0.0
 11
180227.5417647487
 21
-2388.260733608779
 31
0.0
  0
LINE
  5
9B
330
1F
100
AcDbEntity
  8
SECTIONCUTEDGES
100
AcDbLine
 10
180057.9997133969
 20
-2847.336832529412
 30
0.0
 11
180038.2981969498
 21
-2840.062134705953
 31
0.0
  0
LINE
  5
9C
330
1F
100
AcDbEntity
  8
SECTIONCUTEDGES
100
AcDbLine
 10
180948.7277563615
 20
-435.4752895935891
 30
0.0
 11
180227.5417648098
 21
-2388.260733631369
 31
0.0
  0
LINE
  5
9D
330
1F
100
AcDbEntity
  8
SECTIONCUTEDGES
100
AcDbLine
 10
180207.8340564146
 20
-2381.002467038961
 30
0.0
 11
180934.9917667486
 21
-412.0464656537819
 31
0.0
  0
LINE
  5
9E
330
1F
100
AcDbEntity
  8
SECTIONCUTEDGES
100
AcDbLine
 10
180948.7277563615
 20
-435.4752895935891
 30
0.0
 11
180934.9917667486
 21
-412.0464656537817
 31
0.0
  0
LINE
  5
9F
330
1F
100
AcDbEntity
  8
SECTIONCUTEDGES
100
AcDbLine
 10
180227.5417648098
 20
-2388.260733631369
 30
0.0
 11
180207.8340564146
 21
-2381.002467038961
 31
0.0
  0
LINE
  5
A0
330
1F
100
AcDbEntity
  8
SECTIONCUTEDGES
100
AcDbLine
 10
180935.6651294692
 20
-413.1950060345179
 30
0.0
 11
181567.4582054924
 21
-251.394580341758
 31
0.0
  0
LINE
  5
A1
330
1F
100
AcDbEntity
  8
SECTIONCUTEDGES
100
AcDbLine
 10
180948.7277321482
 20
-435.4752703667228
 30
0.0
 11
181606.2948853418
 21
-267.0741761698728
 31
0.0
  0
LINE
  5
A2
330
1F
100
AcDbEntity
  8
SECTIONCUTEDGES
100
AcDbLine
 10
180935.6651294692
 20
-413.195006034518
 30
0.0
 11
180948.7277321482
 21
-435.4752703667228
 31
0.0
  0
LINE
  5
A3
330
1F
100
AcDbEntity
  8
SECTIONCUTEDGES
100
AcDbLine
 10
181606.2948853418
 20
-267.0741761698728
 30
0.0
 11
181567.4582054924
 21
-251.394580341758
 31
0.0
  0
LINE
  5
A4
330
1F
100
AcDbEntity
  8
SECTIONCUTEDGES
100
AcDbLine
 10
183377.9728523693
 20
186.6476771134573
 30
0.0
 11
183376.1139814793
 21
211.7971855725043
 31
0.0
  0
LINE
  5
A5
330
1F
100
AcDbEntity
  8
SECTIONCUTEDGES
100
AcDbLine
 10
181606.2944903976
 20
-267.0741568798373
 30
0.0
 11
183377.9728523693
 21
186.6476771134573
 31
0.0
  0
LINE
  5
A6
330
1F
100
AcDbEntity
  8
SECTIONCUTEDGES
100
AcDbLine
 10
181567.4578105481
 20
-251.3945610517018
 30
0.0
 11
183376.1139814793
 21
211.7971855725043
 31
0.0
  0
LINE
  5
A7
330
1F
100
AcDbEntity
  8
SECTIONCUTEDGES
100
AcDbLine
 10
181567.4578105481
 20
-251.3945610517016
 30
0.0
 11
181606.2944903976
 21
-267.0741568798373
 31
0.0
  0
LINE
  5
A8
330
1F
100
AcDbEntity
  8
SECTIONCUTEDGES
100
AcDbLine
 10
184156.4928313491
 20
1365.520366879739
 30
0.0
 11
183375.4331818573
 21
221.0065168532598
 31
0.0
  0
LINE
  5
A9
330
1F
100
AcDbEntity
  8
SECTIONCUTEDGES
100
AcDbLine
 10
184174.5782724381
 20
1353.941149833927
 30
0.0
 11
184156.4928313491
 21
1365.520366879739
 31
0.0
  0
LINE
  5
AA
330
1F
100
AcDbEntity
  8
SECTIONCUTEDGES
100
AcDbLine
 10
184174.5782724381
 20
1353.941149833927
 30
0.0
 11
183377.9727476159
 21
186.6474548756474
 31
0.0
  0
LINE
  5
AB
330
1F
100
AcDbEntity
  8
SECTIONCUTEDGES
100
AcDbLine
 10
183375.4331818573
 20
221.0065168532598
 30
0.0
 11
183377.9727476159
 21
186.6474548756476
 31
0.0
  0
LINE
  5
AC
330
1F
100
AcDbEntity
  8
SECTIONCUTEDGES
100
AcDbLine
 10
180433.4186663963
 20
369.2631335148322
 30
0.0
 11
180043.693410761
 21
369.2631335148322
 31
0.0
  0
LINE
  5
AD
330
1F
100
AcDbEntity
  8
SECTIONCUTEDGES
100
AcDbLine
 10
180043.693410761
 20
369.2631335148322
 30
0.0
 11
179707.4186663963
 21
369.2631335148322
 31
0.0
  0
LINE
  5
AE
330
1F
100
AcDbEntity
  8
SECTIONCUTEDGES
100
AcDbLine
 10
179707.4186663963
 20
369.2631335148322
 30
0.0
 11
179707.4186663963
 21
32.98838915003304
 31
0.0
  0
LINE
  5
AF
330
1F
100
AcDbEntity
  8
SECTIONCUTEDGES
100
AcDbLine
 10
179707.4186663963
 20
32.98838915003304
 30
0.0
 11
179707.4186663963
 21
-356.7368664851677
 31
0.0
  0
LINE
  5
B0
330
1F
100
AcDbEntity
  8
SECTIONCUTEDGES
100
AcDbLine
 10
179601.4186663963
 20
-3154.036861907531
 30
0.0
 11
179601.4186663963
 21
-1262.688388910999
 31
0.0
  0
LINE
  5
B1
330
1F
100
AcDbEntity
  8
SECTIONCUTEDGES
100
AcDbLine
 10
179601.4186663963
 20
-1262.688388910999
 30
0.0
 11
179601.4186663963
 21
369.2631335148322
 31
0.0
  0
LINE
  5
B2
330
1F
100
AcDbEntity
  8
SECTIONCUTEDGES
100
AcDbLine
 10
179601.4186663963
 20
369.2631335148322
 30
0.0
 11
179094.1021721498
 21
369.2631335148322
 31
0.0
  0
LINE
  5
B3
330
1F
100
AcDbEntity
  8
SECTIONCUTEDGES
100
AcDbLine
 10
179094.1021721498
 20
369.2631335148322
 30
0.0
 11
178656.3637347556
 21
369.2631335148322
 31
0.0
  0
LINE
  5
B4
330
1F
100
AcDbEntity
  8
SECTIONCUTEDGES
100
AcDbLine
 10
180791.3575098646
 20
486.6632799992074
 30
0.0
 11
183265.7062640525
 21
486.6632799992074
 31
0.0
  0
LINE
  5
B5
330
1F
100
AcDbEntity
  8
SECTIONCUTEDGES
100
AcDbLine
 10
178656.3637347556
 20
486.6632799992074
 30
0.0
 11
180791.3575098646
 21
486.6632799992074
 31
0.0
  0
LINE
  5
B6
330
1F
100
AcDbEntity
  8
SECTIONCUTEDGES
100
AcDbLine
 10
183265.7062640525
 20
374.1771137150309
 30
0.0
 11
183265.7062640525
 21
369.2631335148322
 31
0.0
  0
LINE
  5
B7
330
1F
100
AcDbEntity
  8
SECTIONCUTEDGES
100
AcDbLine
 10
183265.7062640525
 20
374.9630846867075
 30
0.0
 11
183265.7062640525
 21
374.1771137150309
 31
0.0
  0
LINE
  5
B8
330
1F
100
AcDbEntity
  8
SECTIONCUTEDGES
100
AcDbLine
 10
183265.7062640525
 20
480.306415262413
 30
0.0
 11
183265.7062640525
 21
374.9630846867075
 31
0.0
  0
LINE
  5
B9
330
1F
100
AcDbEntity
  8
SECTIONCUTEDGES
100
AcDbLine
 10
183265.7062640525
 20
480.9630846867072
 30
0.0
 11
183265.7062640525
 21
480.306415262413
 31
0.0
  0
LINE
  5
BA
330
1F
100
AcDbEntity
  8
SECTIONCUTEDGES
100
AcDbLine
 10
183265.7062640525
 20
481.7490893231361
 30
0.0
 11
183265.7062640525
 21
480.9630846867072
 31
0.0
  0
LINE
  5
BB
330
1F
100
AcDbEntity
  8
SECTIONCUTEDGES
100
AcDbLine
 10
183265.7062640525
 20
486.6632799992074
 30
0.0
 11
183265.7062640525
 21
481.7490893231361
 31
0.0
  0
LINE
  5
BC
330
1F
100
AcDbEntity
  8
SECTIONCUTEDGES
100
AcDbLine
 10
178656.3637347556
 20
481.7490893231361
 30
0.0
 11
178656.3637347556
 21
486.6632799992074
 31
0.0
  0
LINE
  5
BD
330
1F
100
AcDbEntity
  8
SECTIONCUTEDGES
100
AcDbLine
 10
178656.3637347556
 20
480.9630846867072
 30
0.0
 11
178656.3637347556
 21
481.7490893231361
 31
0.0
  0
LINE
  5
BE
330
1F
100
AcDbEntity
  8
SECTIONCUTEDGES
100
AcDbLine
 10
178656.3637347556
 20
375.6197541110017
 30
0.0
 11
178656.3637347556
 21
480.9630846867072
 31
0.0
  0
LINE
  5
BF
330
1F
100
AcDbEntity
  8
SECTIONCUTEDGES
100
AcDbLine
 10
178656.3637347556
 20
374.9630846867075
 30
0.0
 11
178656.3637347556
 21
375.6197541110017
 31
0.0
  0
LINE
  5
C0
330
1F
100
AcDbEntity
  8
SECTIONCUTEDGES
100
AcDbLine
 10
178656.3637347556
 20
374.1771137150309
 30
0.0
 11
178656.3637347556
 21
374.9630846867075
 31
0.0
  0
LINE
  5
C1
330
1F
100
AcDbEntity
  8
SECTIONCUTEDGES
100
AcDbLine
 10
178656.3637347556
 20
369.2631335148322
 30
0.0
 11
178656.3637347556
 21
374.1771137150309
 31
0.0
  0
LINE
  5
C2
330
1F
100
AcDbEntity
  8
SECTIONCUTEDGES
100
AcDbLine
 10
183265.7062640525
 20
369.2631335148322
 30
0.0
 11
181989.8514575566
 21
369.2631335148322
 31
0.0
  0
LINE
  5
C3
330
1F
100
AcDbEntity
  8
SECTIONCUTEDGES
100
AcDbLine
 10
181989.8514575566
 20
369.2631335148322
 30
0.0
 11
180511.2008929588
 21
369.2631335148322
 31
0.0
  0
LINE
  5
C4
330
1F
100
AcDbEntity
  8
SECTIONCUTEDGES
100
AcDbLine
 10
179707.4186663963
 20
-434.5186047664175
 30
0.0
 11
179707.4186663963
 21
-1894.387679103767
 31
0.0
  0
LINE
  5
C5
330
1F
100
AcDbEntity
  8
SECTIONCUTEDGES
100
AcDbLine
 10
179707.4186663963
 20
-1894.387679103767
 30
0.0
 11
179707.4186663963
 21
-3154.036861907531
 31
0.0
  0
LINE
  5
C6
330
1F
100
AcDbEntity
  8
SECTIONCUTEDGES
100
AcDbLine
 10
179607.1139620614
 20
-3154.036861907531
 30
0.0
 11
179601.4186663963
 21
-3154.036861907531
 31
0.0
  0
LINE
  5
C7
330
1F
100
AcDbEntity
  8
SECTIONCUTEDGES
100
AcDbLine
 10
179701.1324270174
 20
-3154.036861907531
 30
0.0
 11
179607.1188617088
 21
-3154.036861907531
 31
0.0
  0
LINE
  5
C8
330
1F
100
AcDbEntity
  8
SECTIONCUTEDGES
100
AcDbLine
 10
179701.7184710838
 20
-3154.036861907531
 30
0.0
 11
179701.1324270174
 21
-3154.036861907531
 31
0.0
  0
LINE
  5
C9
330
1F
100
AcDbEntity
  8
SECTIONCUTEDGES
100
AcDbLine
 10
179702.5044757202
 20
-3154.036861907531
 30
0.0
 11
179701.7184710838
 21
-3154.036861907531
 31
0.0
  0
LINE
  5
CA
330
1F
100
AcDbEntity
  8
SECTIONCUTEDGES
100
AcDbLine
 10
179707.4186663963
 20
-3154.036861907531
 30
0.0
 11
179702.5044757202
 21
-3154.036861907531
 31
0.0
  0
LINE
  5
CB
330
1F
100
AcDbEntity
  8
SECTIONCUTEDGES
100
AcDbLine
 10
180097.1439220315
 20
32.98838915003304
 30
0.0
 11
180433.4186663963
 21
369.2631335148322
 31
0.0
  0
LINE
  5
CC
330
1F
100
AcDbEntity
  8
SECTIONCUTEDGES
100
AcDbLine
 10
179707.4186663963
 20
-356.7368664851677
 30
0.0
 11
180097.1439220315
 21
32.98838915003304
 31
0.0
  0
LINE
  5
CD
330
1F
100
AcDbEntity
  8
SECTIONCUTEDGES
100
AcDbLine
 10
180079.7212321845
 20
-62.21626514434984
 30
0.0
 11
179707.4186663963
 21
-434.5186047664175
 31
0.0
  0
LINE
  5
CE
330
1F
100
AcDbEntity
  8
SECTIONCUTEDGES
100
AcDbLine
 10
180511.2008929588
 20
369.2631335148322
 30
0.0
 11
180079.7212321845
 21
-62.21626514434984
 31
0.0
  0
LINE
  5
CF
330
1F
100
AcDbEntity
  8
SECTIONCUTEDGES
100
AcDbLine
 10
180436.2472796775
 20
369.2631335148322
 30
0.0
 11
180100.7667104699
 21
33.78267668540742
 31
0.0
  0
LINE
  5
D0
330
1F
100
AcDbEntity
  8
SECTIONCUTEDGES
100
AcDbLine
 10
180100.7667104699
 20
33.78267668540742
 30
0.0
 11
179707.4186663963
 21
-359.5652356257925
 31
0.0
  0
LINE
  5
D1
330
1F
100
AcDbEntity
  8
SECTIONCUTEDGES
100
AcDbLine
 10
180076.0984481666
 20
-63.01056623367212
 30
0.0
 11
180508.3722796775
 21
369.2631335148322
 31
0.0
  0
LINE
  5
D2
330
1F
100
AcDbEntity
  8
SECTIONCUTEDGES
100
AcDbLine
 10
179707.4186663963
 20
-431.6902356257927
 30
0.0
 11
180076.0984481666
 21
-63.01056623367212
 31
0.0
  0
LINE
  5
D3
330
1F
100
AcDbEntity
  8
SECTIONCUTEDGES
100
AcDbLine
 10
179707.4186663963
 20
-392.7644481884879
 30
0.0
 11
179707.4186663963
 21
-431.6902356257927
 31
0.0
  0
LINE
  5
D4
330
1F
100
AcDbEntity
  8
SECTIONCUTEDGES
100
AcDbLine
 10
179707.4186663963
 20
-359.5652356257925
 30
0.0
 11
179707.4186663963
 21
-392.7644481884879
 31
0.0
  0
LINE
  5
D5
330
1F
100
AcDbEntity
  8
SECTIONCUTEDGES
100
AcDbLine
 10
180469.4464922402
 20
369.2631335148322
 30
0.0
 11
180436.2472796775
 21
369.2631335148322
 31
0.0
  0
LINE
  5
D6
330
1F
100
AcDbEntity
  8
SECTIONCUTEDGES
100
AcDbLine
 10
180508.3722796775
 20
369.2631335148322
 30
0.0
 11
180469.4464922402
 21
369.2631335148322
 31
0.0
  0
ENDSEC
  0
SECTION
  2
OBJECTS
  0
DICTIONARY
  5
C
330
0
100
AcDbDictionary
  3
ACAD_GROUP
350
D
  3
ACAD_LAYOUT
350
1A
  3
ACAD_MATERIAL
350
43
  3
ACAD_MLEADERSTYLE
350
5B
  3
ACAD_MLINESTYLE
350
17
  3
ACAD_PLOTSETTINGS
350
19
  3
ACAD_SCALELIST
350
47
  3
ACAD_VISUALSTYLE
350
2A
  3
ACDBHEADERROUNDTRIPXREC
350
D7
  3
ACDBVARIABLEDICTIONARY
350
F8
  3
DWGPROPS
350
FF
  0
DICTIONARY
  5
100
330
8
100
AcDbDictionary
280
     1
  3
ACAD_XREC_ROUNDTRIP
360
101
  0
DICTIONARY
  5
D
102
{ACAD_REACTORS
330
C
102
}
330
C
100
AcDbDictionary
  0
DICTIONARY
  5
1A
102
{ACAD_REACTORS
330
C
102
}
330
C
100
AcDbDictionary
  0
DICTIONARY
  5
43
102
{ACAD_REACTORS
330
C
102
}
330
C
100
AcDbDictionary
  3
BYBLOCK
350
45
  3
BYLAYER
350
44
  3
GLOBAL
350
46
  0
DICTIONARY
  5
5B
102
{ACAD_REACTORS
330
C
102
}
330
C
100
AcDbDictionary
  3
STANDARD
350
5C
  0
DICTIONARY
  5
17
102
{ACAD_REACTORS
330
C
102
}
330
C
100
AcDbDictionary
  3
STANDARD
350
18
  0
DICTIONARY
  5
19
102
{ACAD_REACTORS
330
C
102
}
330
C
100
AcDbDictionary
  0
DICTIONARY
  5
47
102
{ACAD_REACTORS
330
C
102
}
330
C
100
AcDbDictionary
  3
A0
350
48
  3
A1
350
49
  3
A2
350
4A
  3
A3
350
4B
  3
A4
350
4C
  3
A5
350
4D
  3
A6
350
4E
  3
A7
350
4F
  3
A8
350
50
  3
A9
350
51
  3
B1
350
52
  3
B2
350
53
  3
B3
350
54
  3
B4
350
55
  3
B5
350
56
  3
B6
350
57
  3
B7
350
58
  0
DICTIONARY
  5
2A
102
{ACAD_REACTORS
330
C
102
}
330
C
100
AcDbDictionary
  3
2DWIREFRAME
350
2F
  3
BASIC
350
32
  3
BRIGHTEN
350
36
  3
COLORCHANGE
350
3A
  3
CONCEPTUAL
350
34
  3
DIM
350
35
  3
EDGECOLOROFF
350
3D
  3
FACEPATTERN
350
39
  3
FLAT
350
2B
  3
FLATWITHEDGES
350
2C
  3
GOURAUD
350
2D
  3
GOURAUDWITHEDGES
350
2E
  3
HIDDEN
350
31
  3
JITTEROFF
350
3B
  3
LINEPATTERN
350
38
  3
OVERHANGOFF
350
3C
  3
REALISTIC
350
33
  3
SHADED
350
42
  3
SHADED_WITH_EDGES
350
41
  3
SHADES_OF_GRAY
350
3E
  3
SKETCHY
350
3F
  3
THICKEN
350
37
  3
WIREFRAME
350
30
  3
X-RAY
350
40
  0
DICTIONARY
  5
D7
102
{ACAD_REACTORS
330
C
102
}
330
C
100
AcDbDictionary
  3
CEPSNID
350
E1
  3
CEPSNTYPE
350
E0
  3
DIMSTYLEDATA
350
F7
  3
FINGERPRINTGUID
350
E2
  3
HYPERLINKBASE
350
DA
  3
INSUNITS
350
DF
  3
LAYOUTDICT
350
DC
  3
LWETCUNION
350
DE
  3
PLOTSETDICT
350
DD
  3
PSVPSCALE
350
E4
  3
PUCSBASE
350
E7
  3
PUCSORGBACK
350
ED
  3
PUCSORGBOTTOM
350
E9
  3
PUCSORGFRONT
350
EC
  3
PUCSORGLEFT
350
EA
  3
PUCSORGRIGHT
350
EB
  3
PUCSORGTOP
350
E8
  3
PUCSORTHOREF
350
E5
  3
PUCSORTHOVIEW
350
E6
  3
STYLESHEET
350
DB
  3
TSTACKALIGN
350
D8
  3
TSTACKSIZE
350
D9
  3
UCSBASE
350
F0
  3
UCSORGBACK
350
F6
  3
UCSORGBOTTOM
350
F2
  3
UCSORGFRONT
350
F5
  3
UCSORGLEFT
350
F3
  3
UCSORGRIGHT
350
F4
  3
UCSORGTOP
350
F1
  3
UCSORTHOREF
350
EE
  3
UCSORTHOVIEW
350
EF
  3
VERSIONGUID
350
E3
  0
DICTIONARY
  5
F8
102
{ACAD_REACTORS
330
C
102
}
330
C
100
AcDbDictionary
  3
CANNOSCALE
350
102
  3
CMLEADERSTYLE
350
FA
  3
CTABLESTYLE
350
F9
  3
DIMASSOC
350
FD
  3
HIDETEXT
350
FE
  3
MSLTSCALE
350
103
  0
XRECORD
  5
FF
102
{ACAD_REACTORS
330
C
102
}
330
C
100
AcDbXrecord
  1
DWGPROPS COOKIE
  2

  3

  4

  6

  7

  8
dev
  9

300
=
301
=
302
=
303
=
304
=
305
=
306
=
307
=
308
=
309
=
 40
0.0
 41
2460536.371141597
 42
2460536.37114162
  1

 90
        0
  0
XRECORD
  5
101
102
{ACAD_REACTORS
330
100
102
}
330
100
100
AcDbXrecord
102
VTR_0.000_0.000_1.000_1.000_VISUALSTYLE
340
2F
102
VTR_0.000_0.000_1.000_1.000_GRIDDISPLAY
 70
     3
102
VTR_0.000_0.000_1.000_1.000_GRIDMAJOR
 70
     5
102
VTR_0.000_0.000_1.000_1.000_DEFAULTLIGHTING
280
     1
102
VTR_0.000_0.000_1.000_1.000_DEFAULTLIGHTINGTYPE
 70
     1
102
VTR_0.000_0.000_1.000_1.000_BRIGHTNESS
141
0.0
102
VTR_0.000_0.000_1.000_1.000_CONTRAST
142
0.0
  0
MATERIAL
  5
45
102
{ACAD_REACTORS
330
43
102
}
102
{ACAD_XDICTIONARY
360
106
102
}
330
43
100
AcDbMaterial
  1
BYBLOCK
  0
MATERIAL
  5
44
102
{ACAD_REACTORS
330
43
102
}
102
{ACAD_XDICTIONARY
360
104
102
}
330
43
100
AcDbMaterial
  1
BYLAYER
  0
MATERIAL
  5
46
102
{ACAD_REACTORS
330
43
102
}
102
{ACAD_XDICTIONARY
360
108
102
}
330
43
100
AcDbMaterial
  1
GLOBAL
  0
ACAD_PROXY_OBJECT
  5
5C
102
{ACAD_REACTORS
330
5B
102
}
330
5B
100
AcDbProxyObject
 90
      499
 91
      505
 93
      610
310
40901902A4063FBFFFFFE056BD1B81E855B9FC0AD7A3703D0AD73F4214DD185B99185C9900AD7A3703D0AC73F90141901A02B5E8DC0F42B1CFC02B5E8DC0F42B1CFE5764000000000000300FC0
340
14
340
0
340
11
340
0
 94
        0
1001
ACAD_MLEADERVER
1070
     2
  0
MLINESTYLE
  5
18
102
{ACAD_REACTORS
330
17
102
}
330
17
100
AcDbMlineStyle
  2
Standard
 70
     0
  3

 62
   256
 51
90.0
 52
90.0
 71
     2
 49
0.5
 62
   256
  6
BYLAYER
 49
-0.5
 62
   256
  6
BYLAYER
  0
ACAD_PROXY_OBJECT
  5
48
102
{ACAD_REACTORS
330
47
102
}
330
47
100
AcDbProxyObject
 90
      499
 91
      503
 93
       41
310
903313A31580
  0
ACAD_PROXY_OBJECT
  5
49
102
{ACAD_REACTORS
330
47
102
}
330
47
100
AcDbProxyObject
 90
      499
 91
      503
 93
      257
310
90E312F31323822203D2031272D3022000000000000200FC000000000000284000
  0
ACAD_PROXY_OBJECT
  5
4A
102
{ACAD_REACTORS
330
47
102
}
330
47
100
AcDbProxyObject
 90
      499
 91
      503
 93
      249
310
90D312F363422203D2031272D3022000000000000240FC000000000000284000
  0
ACAD_PROXY_OBJECT
  5
4B
102
{ACAD_REACTORS
330
47
102
}
330
47
100
AcDbProxyObject
 90
      499
 91
      503
 93
      249
310
90D312F333222203D2031272D3022000000000000280FC000000000000284000
  0
ACAD_PROXY_OBJECT
  5
4C
102
{ACAD_REACTORS
330
47
102
}
330
47
100
AcDbProxyObject
 90
      499
 91
      503
 93
      249
310
90D312F313622203D2031272D30220000000000002C0FC000000000000284000
  0
ACAD_PROXY_OBJECT
  5
4D
102
{ACAD_REACTORS
330
47
102
}
330
47
100
AcDbProxyObject
 90
      499
 91
      503
 93
      249
310
90D332F333222203D2031272D30220000000000002E0FC000000000000284000
  0
ACAD_PROXY_OBJECT
  5
4E
102
{ACAD_REACTORS
330
47
102
}
330
47
100
AcDbProxyObject
 90
      499
 91
      503
 93
      241
310
90C312F3822203D2031272D3022000000000000300FC000000000000284000
  0
ACAD_PROXY_OBJECT
  5
4F
102
{ACAD_REACTORS
330
47
102
}
330
47
100
AcDbProxyObject
 90
      499
 91
      503
 93
      249
310
90D332F313622203D2031272D3022000000000000320FC000000000000284000
  0
ACAD_PROXY_OBJECT
  5
50
102
{ACAD_REACTORS
330
47
102
}
330
47
100
AcDbProxyObject
 90
      499
 91
      503
 93
      241
310
90C312F3422203D2031272D3022000000000000340FC000000000000284000
  0
ACAD_PROXY_OBJECT
  5
51
102
{ACAD_REACTORS
330
47
102
}
330
47
100
AcDbProxyObject
 90
      499
 91
      503
 93
      241
310
90C332F3822203D2031272D3022000000000000360FC000000000000284000
  0
ACAD_PROXY_OBJECT
  5
52
102
{ACAD_REACTORS
330
47
102
}
330
47
100
AcDbProxyObject
 90
      499
 91
      503
 93
      241
310
90C312F3222203D2031272D3022000000000000380FC000000000000284000
  0
ACAD_PROXY_OBJECT
  5
53
102
{ACAD_REACTORS
330
47
102
}
330
47
100
AcDbProxyObject
 90
      499
 91
      503
 93
      241
310
90C332F3422203D2031272D30220000000000003A0FC000000000000284000
  0
ACAD_PROXY_OBJECT
  5
54
102
{ACAD_REACTORS
330
47
102
}
330
47
100
AcDbProxyObject
 90
      499
 91
      503
 93
      161
310
90A3122203D2031272D30224000000000000284000
  0
ACAD_PROXY_OBJECT
  5
55
102
{ACAD_REACTORS
330
47
102
}
330
47
100
AcDbProxyObject
 90
      499
 91
      503
 93
      257
310
90E312D312F3222203D2031272D30220000000000003E0FC000000000000284000
  0
ACAD_PROXY_OBJECT
  5
56
102
{ACAD_REACTORS
330
47
102
}
330
47
100
AcDbProxyObject
 90
      499
 91
      503
 93
      225
310
90A3322203D2031272D302200000000000002100000000000000284000
  0
ACAD_PROXY_OBJECT
  5
57
102
{ACAD_REACTORS
330
47
102
}
330
47
100
AcDbProxyObject
 90
      499
 91
      503
 93
      225
310
90A3622203D2031272D302200000000000006100000000000000284000
  0
ACAD_PROXY_OBJECT
  5
58
102
{ACAD_REACTORS
330
47
102
}
330
47
100
AcDbProxyObject
 90
      499
 91
      503
 93
      249
310
90D31272D3022203D2031272D30220000000000000A100000000000000284000
  0
ACAD_PROXY_OBJECT
  5
2F
102
{ACAD_REACTORS
330
2A
102
}
330
2A
100
AcDbProxyObject
 90
      499
 91
      501
 93
      436
310
42CC9915DA5C99599C985B595049028333333333333E33F0000000000000F90107901411070040501600405405064090741402480A0340
1001
ACAD
1000
AcDbSavedByObjectVersion
1070
     0
  0
ACAD_PROXY_OBJECT
  5
32
102
{ACAD_REACTORS
330
2A
102
}
330
2A
100
AcDbProxyObject
 90
      499
 91
      501
 93
      388
310
4150985CDA58D07406404333333333333E33F0000000000000F90107A41107004050150841D405064090741402480A0350
1001
ACAD
1000
AcDbSavedByObjectVersion
1070
     0
  0
ACAD_PROXY_OBJECT
  5
36
102
{ACAD_REACTORS
330
2A
102
}
330
2A
100
AcDbProxyObject
 90
      499
 91
      501
 93
      428
310
42109C9A59DA1D195B90C409028333333333333E33F0000000000000F9010790141107004050150841D405064090741402480A029950
1001
ACAD
1000
AcDbSavedByObjectVersion
1070
     0
  0
ACAD_PROXY_OBJECT
  5
3A
102
{ACAD_REACTORS
330
2A
102
}
330
2A
100
AcDbProxyObject
 90
      499
 91
      501
 93
      452
310
42D0DBDB1BDC90DA185B99D95104090240C333333333333E33F0000000000000F90108901411070040501508421405064090741402480A0350
1001
ACAD
1000
AcDbSavedByObjectVersion
1070
     0
  0
ACAD_PROXY_OBJECT
  5
34
102
{ACAD_REACTORS
330
2A
102
}
330
2A
100
AcDbProxyObject
 90
      499
 91
      501
 93
      500
310
4290DBDB98D95C1D1D585B10940D028333333333333E33F0000000000000F90107902409070040501000000000018199010841D405064090740C02480A0340
1001
ACAD
1000
AcDbSavedByObjectVersion
1070
     0
  0
ACAD_PROXY_OBJECT
  5
35
102
{ACAD_REACTORS
330
2A
102
}
330
2A
100
AcDbProxyObject
 90
      499
 91
      501
 93
      412
310
40D11A5B50B409028333333333333E33F0000000000000F9010790141107004050150841D405064090741402480A02677FFFFFD0
1001
ACAD
1000
AcDbSavedByObjectVersion
1070
     0
  0
ACAD_PROXY_OBJECT
  5
3D
102
{ACAD_REACTORS
330
2A
102
}
330
2A
100
AcDbProxyObject
 90
      499
 91
      501
 93
      452
310
43115919D950DBDB1BDC93D999916409028333333333333E33F0000000000000F9010790141107004050150841D405064090741402480A0350
1001
ACAD
1000
AcDbSavedByObjectVersion
1070
     0
  0
ACAD_PROXY_OBJECT
  5
39
102
{ACAD_REACTORS
330
2A
102
}
330
2A
100
AcDbProxyObject
 90
      499
 91
      501
 93
      444
310
42D19858D95C185D1D195C9B90F409028333333333333E33F0000000000000F9010790141107004050150841D405064090741402480A0350
1001
ACAD
1000
AcDbSavedByObjectVersion
1070
     0
  0
ACAD_PROXY_OBJECT
  5
2B
102
{ACAD_REACTORS
330
2A
102
}
330
2A
100
AcDbProxyObject
 90
      499
 91
      501
 93
      380
310
41119B185D240901404333333333333E33F0000000000000F9010740A907004050150841D405064090741402480A1B50
1001
ACAD
1000
AcDbSavedByObjectVersion
1070
     0
  0
ACAD_PROXY_OBJECT
  5
2C
102
{ACAD_REACTORS
330
2A
102
}
330
2A
100
AcDbProxyObject
 90
      499
 91
      501
 93
      468
310
43519B185D15DA5D1A115919D95CD0140901404333333333333E33F0000000000000F90107409019070040501600405405064090741402480A1B50
1001
ACAD
1000
AcDbSavedByObjectVersion
1070
     0
  0
ACAD_PROXY_OBJECT
  5
2D
102
{ACAD_REACTORS
330
2A
102
}
330
2A
100
AcDbProxyObject
 90
      499
 91
      501
 93
      404
310
41D1DBDD5C985D5910240902404333333333333E33F0000000000000F9010740A9070040501641D405064090741402480A1B50
1001
ACAD
1000
AcDbSavedByObjectVersion
1070
     0
  0
ACAD_PROXY_OBJECT
  5
2E
102
{ACAD_REACTORS
330
2A
102
}
330
2A
100
AcDbProxyObject
 90
      499
 91
      501
 93
      492
310
4411DBDD5C985D5915DA5D1A115919D95CD0340902404333333333333E33F0000000000000F90107409019070040501600405405064090741402480A1B50
1001
ACAD
1000
AcDbSavedByObjectVersion
1070
     0
  0
ACAD_PROXY_OBJECT
  5
31
102
{ACAD_REACTORS
330
2A
102
}
330
2A
100
AcDbProxyObject
 90
      499
 91
      501
 93
      476
310
41921A5919195B90640502408333333333333E33F0000000000000F901079024090700405020000000000001110200405405064090740C02480A0340
1001
ACAD
1000
AcDbSavedByObjectVersion
1070
     0
  0
ACAD_PROXY_OBJECT
  5
3B
102
{ACAD_REACTORS
330
2A
102
}
330
2A
100
AcDbProxyObject
 90
      499
 91
      501
 93
      428
310
42529A5D1D195C93D999914409028333333333333E33F0000000000000F9010790141107004050150A41D405064090741402480A0350
1001
ACAD
1000
AcDbSavedByObjectVersion
1070
     0
  0
ACAD_PROXY_OBJECT
  5
38
102
{ACAD_REACTORS
330
2A
102
}
330
2A
100
AcDbProxyObject
 90
      499
 91
      501
 93
      444
310
42D31A5B995C185D1D195C9B90E409028333333333333E33F0000000000000F9010790141107004050750841D405064090741402483A0350
1001
ACAD
1000
AcDbSavedByObjectVersion
1070
     0
  0
ACAD_PROXY_OBJECT
  5
3C
102
{ACAD_REACTORS
330
2A
102
}
330
2A
100
AcDbProxyObject
 90
      499
 91
      501
 93
      444
310
42D3DD995C9A185B99D3D999915409028333333333333E33F0000000000000F9010790141107004050150941D405064090741402480A0350
1001
ACAD
1000
AcDbSavedByObjectVersion
1070
     0
  0
ACAD_PROXY_OBJECT
  5
33
102
{ACAD_REACTORS
330
2A
102
}
330
2A
100
AcDbProxyObject
 90
      499
 91
      501
 93
      428
310
425499585B1A5CDD1A58D08409038333333333333E33F0000000000000F9010740A907004050150800405405064090740C02480A1B40
1001
ACAD
1000
AcDbSavedByObjectVersion
1070
     0
  0
ACAD_PROXY_OBJECT
  5
42
102
{ACAD_REACTORS
330
2A
102
}
330
2A
100
AcDbProxyObject
 90
      499
 91
      501
 93
      420
310
4194DA1859195911B40902404333333333333E33F0000000000000F9010740A41107004050150800405405064090840C02480A0B40
1001
ACAD
1000
AcDbSavedByObjectVersion
1070
     0
  0
ACAD_PROXY_OBJECT
  5
41
102
{ACAD_REACTORS
330
2A
102
}
330
2A
100
AcDbProxyObject
 90
      499
 91
      501
 93
      516
310
4454DA18591959081DDA5D1A08195919D95CD1A40902404333333333333E33F0000000000000F901074090142907004050250800405405064090740C02480A0B40
1001
ACAD
1000
AcDbSavedByObjectVersion
1070
     0
  0
ACAD_PROXY_OBJECT
  5
3E
102
{ACAD_REACTORS
330
2A
102
}
330
2A
100
AcDbProxyObject
 90
      499
 91
      501
 93
      532
310
4394DA1859195CC81BD98811DC985E5174090240C333333333333E33F0000000000000F901079024090741D01000000000000111010841D405064090740C02480A0340
1001
ACAD
1000
AcDbSavedByObjectVersion
1070
     0
  0
ACAD_PROXY_OBJECT
  5
3F
102
{ACAD_REACTORS
330
2A
102
}
330
2A
100
AcDbProxyObject
 90
      499
 91
      501
 93
      476
310
41D4DAD95D18DA1E51840502408333333333333E33F0000000000000F901079024090741D01000000000000111010B41D405064090741802480A0340
1001
ACAD
1000
AcDbSavedByObjectVersion
1070
     0
  0
ACAD_PROXY_OBJECT
  5
37
102
{ACAD_REACTORS
330
2A
102
}
330
2A
100
AcDbProxyObject
 90
      499
 91
      501
 93
      412
310
41D51A1A58DAD95B90D409028333333333333E33F0000000000000F9010790141107004050150C41D405064090741402480A0350
1001
ACAD
1000
AcDbSavedByObjectVersion
1070
     0
  0
ACAD_PROXY_OBJECT
  5
30
102
{ACAD_REACTORS
330
2A
102
}
330
2A
100
AcDbProxyObject
 90
      499
 91
      501
 93
      420
310
4255DA5C99599C985B595059028333333333333E33F0000000000000F90107901411070040501600405405064090740C02480A0340
1001
ACAD
1000
AcDbSavedByObjectVersion
1070
     0
  0
ACAD_PROXY_OBJECT
  5
40
102
{ACAD_REACTORS
330
2A
102
}
330
2A
100
AcDbProxyObject
 90
      499
 91
      501
 93
      404
310
41560B54985E51940902404000000000000E03F0000000000000F9010740501907004050150841D405064090740C02480A1B40
1001
ACAD
1000
AcDbSavedByObjectVersion
1070
     0
  0
XRECORD
  5
E1
102
{ACAD_REACTORS
330
D7
102
}
330
D7
100
AcDbXrecord
340
0
  0
XRECORD
  5
E0
102
{ACAD_REACTORS
330
D7
102
}
330
D7
100
AcDbXrecord
 90
        0
  0
XRECORD
  5
F7
102
{ACAD_REACTORS
330
D7
102
}
330
D7
100
AcDbXrecord
1000
DSTYLE
1002
{
1070
   171
 70
     2
1070
   143
 40
25.4
1070
   274
 70
     2
1070
    41
 40
0.18
1070
   141
 40
0.09
1070
   271
 70
     4
1070
    43
 40
0.38
1070
   278
 70
    46
1070
    44
 40
0.18
1070
    42
 40
0.0625
1070
   147
 40
0.09
1070
    77
 70
     0
1070
   272
 70
     4
1070
    73
 70
     1
1070
   172
 70
     0
1070
    74
 70
     1
1070
   283
 70
     1
1070
   340
340
11
1070
   140
 40
0.18
1070
   284
 70
     0
1070
    78
 70
     0
1002
}
  0
XRECORD
  5
E2
102
{ACAD_REACTORS
330
D7
102
}
330
D7
100
AcDbXrecord
  1
{f9046bfd-c1e3-6948-93dd-2333fb3c5da0}
  0
XRECORD
  5
DA
102
{ACAD_REACTORS
330
D7
102
}
330
D7
100
AcDbXrecord
  1

  0
XRECORD
  5
DF
102
{ACAD_REACTORS
330
D7
102
}
330
D7
100
AcDbXrecord
 90
        4
  0
XRECORD
  5
DC
102
{ACAD_REACTORS
330
D7
102
}
330
D7
100
AcDbXrecord
340
1A
  0
XRECORD
  5
DE
102
{ACAD_REACTORS
330
D7
102
}
330
D7
100
AcDbXrecord
 90
    10781
  0
XRECORD
  5
DD
102
{ACAD_REACTORS
330
D7
102
}
330
D7
100
AcDbXrecord
340
19
  0
XRECORD
  5
E4
102
{ACAD_REACTORS
330
D7
102
}
330
D7
100
AcDbXrecord
 40
0.0
  0
XRECORD
  5
E7
102
{ACAD_REACTORS
330
D7
102
}
330
D7
100
AcDbXrecord
340
0
  0
XRECORD
  5
ED
102
{ACAD_REACTORS
330
D7
102
}
330
D7
100
AcDbXrecord
 10
0.0
 20
0.0
 30
0.0
  0
XRECORD
  5
E9
102
{ACAD_REACTORS
330
D7
102
}
330
D7
100
AcDbXrecord
 10
0.0
 20
0.0
 30
0.0
  0
XRECORD
  5
EC
102
{ACAD_REACTORS
330
D7
102
}
330
D7
100
AcDbXrecord
 10
0.0
 20
0.0
 30
0.0
  0
XRECORD
  5
EA
102
{ACAD_REACTORS
330
D7
102
}
330
D7
100
AcDbXrecord
 10
0.0
 20
0.0
 30
0.0
  0
XRECORD
  5
EB
102
{ACAD_REACTORS
330
D7
102
}
330
D7
100
AcDbXrecord
 10
0.0
 20
0.0
 30
0.0
  0
XRECORD
  5
E8
102
{ACAD_REACTORS
330
D7
102
}
330
D7
100
AcDbXrecord
 10
0.0
 20
0.0
 30
0.0
  0
XRECORD
  5
E5
102
{ACAD_REACTORS
330
D7
102
}
330
D7
100
AcDbXrecord
340
0
  0
XRECORD
  5
E6
102
{ACAD_REACTORS
330
D7
102
}
330
D7
100
AcDbXrecord
 70
     0
  0
XRECORD
  5
DB
102
{ACAD_REACTORS
330
D7
102
}
330
D7
100
AcDbXrecord
  1

  0
XRECORD
  5
D8
102
{ACAD_REACTORS
330
D7
102
}
330
D7
100
AcDbXrecord
 90
        1
  0
XRECORD
  5
D9
102
{ACAD_REACTORS
330
D7
102
}
330
D7
100
AcDbXrecord
 90
       70
  0
XRECORD
  5
F0
102
{ACAD_REACTORS
330
D7
102
}
330
D7
100
AcDbXrecord
340
0
  0
XRECORD
  5
F6
102
{ACAD_REACTORS
330
D7
102
}
330
D7
100
AcDbXrecord
 10
0.0
 20
0.0
 30
0.0
  0
XRECORD
  5
F2
102
{ACAD_REACTORS
330
D7
102
}
330
D7
100
AcDbXrecord
 10
0.0
 20
0.0
 30
0.0
  0
XRECORD
  5
F5
102
{ACAD_REACTORS
330
D7
102
}
330
D7
100
AcDbXrecord
 10
0.0
 20
0.0
 30
0.0
  0
XRECORD
  5
F3
102
{ACAD_REACTORS
330
D7
102
}
330
D7
100
AcDbXrecord
 10
0.0
 20
0.0
 30
0.0
  0
XRECORD
  5
F4
102
{ACAD_REACTORS
330
D7
102
}
330
D7
100
AcDbXrecord
 10
0.0
 20
0.0
 30
0.0
  0
XRECORD
  5
F1
102
{ACAD_REACTORS
330
D7
102
}
330
D7
100
AcDbXrecord
 10
0.0
 20
0.0
 30
0.0
  0
XRECORD
  5
EE
102
{ACAD_REACTORS
330
D7
102
}
330
D7
100
AcDbXrecord
340
0
  0
XRECORD
  5
EF
102
{ACAD_REACTORS
330
D7
102
}
330
D7
100
AcDbXrecord
 70
     0
  0
XRECORD
  5
E3
102
{ACAD_REACTORS
330
D7
102
}
330
D7
100
AcDbXrecord
  1
{FAEB1C32-E019-11D5-929B-00C0DF256EC4}
  0
DICTIONARYVAR
  5
102
102
{ACAD_REACTORS
330
F8
102
}
330
F8
100
DictionaryVariables
280
     0
  1
1:1
  0
DICTIONARYVAR
  5
FA
102
{ACAD_REACTORS
330
F8
102
}
330
F8
100
DictionaryVariables
280
     0
  1
Standard
  0
DICTIONARYVAR
  5
F9
102
{ACAD_REACTORS
330
F8
102
}
330
F8
100
DictionaryVariables
280
     0
  1
Standard
  0
DICTIONARYVAR
  5
FD
102
{ACAD_REACTORS
330
F8
102
}
330
F8
100
DictionaryVariables
280
     0
  1
2
  0
DICTIONARYVAR
  5
FE
102
{ACAD_REACTORS
330
F8
102
}
330
F8
100
DictionaryVariables
280
     0
  1
1
  0
DICTIONARYVAR
  5
103
102
{ACAD_REACTORS
330
F8
102
}
330
F8
100
DictionaryVariables
280
     0
  1
1
  0
DICTIONARY
  5
106
330
45
100
AcDbDictionary
280
     1
  3
ACAD_XREC_ROUNDTRIP
360
107
  0
DICTIONARY
  5
104
330
44
100
AcDbDictionary
280
     1
  3
ACAD_XREC_ROUNDTRIP
360
105
  0
DICTIONARY
  5
108
330
46
100
AcDbDictionary
280
     1
  3
ACAD_XREC_ROUNDTRIP
360
109
  0
XRECORD
  5
107
102
{ACAD_REACTORS
330
106
102
}
330
106
100
AcDbXrecord
102
MATERIAL
148
0.0
149
0.0
149
0.0
 93
        0
 94
      127
282
     0
 72
     1
 77
     1
171
     1
175
     1
179
     1
273
     0
  0
XRECORD
  5
105
102
{ACAD_REACTORS
330
104
102
}
330
104
100
AcDbXrecord
102
MATERIAL
148
0.0
149
0.0
149
0.0
 93
        0
 94
      127
282
     0
 72
     1
 77
     1
171
     1
175
     1
179
     1
273
     0
  0
XRECORD
  5
109
102
{ACAD_REACTORS
330
108
102
}
330
108
100
AcDbXrecord
102
MATERIAL
148
0.0
149
0.0
149
0.0
 93
        0
 94
      127
282
     0
 72
     1
 77
     1
171
     1
175
     1
179
     1
273
     0
  0
ENDSEC
  0
EOF
